<?xml version="1.0" encoding="utf-8" ?>
<svg baseProfile="full" height="300mm" version="1.1" viewBox="0,0,200,300" width="200mm" xmlns="http://www.w3.org/2000/svg" xmlns:ev="http://www.w3.org/2001/xml-events" xmlns:xlink="http://www.w3.org/1999/xlink"><defs /><rect fill="#222222" height="300" width="200" x="0" y="0" /><g id="header"><text fill="#FFFFFF" style="font-size:12px; font-family:Arial; font-weight:bold;" x="10" y="20">Just Keep Running</text></g><g id="footer"><text fill="#FFFFFF" style="font-size:4px; font-family:Arial" x="10" y="280">ATHLETE</text><text fill="#FFFFFF" style="font-size:9px; font-family:Arial" x="10" y="290">Wilson Xie</text><text fill="#FFFFFF" style="font-size:4px; font-family:Arial" x="120" y="280">STATISTICS</text><text fill="#FFFFFF" style="font-size:3px; font-family:Arial" x="120" y="285">Number: 26</text><text fill="#FFFFFF" style="font-size:3px; font-family:Arial" x="120" y="290">Weekly: 2.4</text><text fill="#FFFFFF" style="font-size:3px; font-family:Arial" x="141" y="285">Total: 157.2 km</text><text fill="#FFFFFF" style="font-size:3px; font-family:Arial" x="141" y="290">Avg: 6.0 km</text><text fill="#FFFFFF" style="font-size:3px; font-family:Arial" x="167" y="285">Min: 1.1 km</text><text fill="#FFFFFF" style="font-size:3px; font-family:Arial" x="167" y="290">Max: 18.4 km</text></g><g id="tracks"><g id="year2016"><polyline fill="none" points="35.2457852717489,48.76116201386321 33.746657284908,35.06177697412204 27.417005782946944,31.79999999993015 22.25334271416068,34.19197048153728 20.587644951418042,57.24167035880964 23.919040478765965,62.24297308491077 30.082122204825282,63.54765798198059 33.913227061741054,60.7208392561879 32.24752929713577,56.80677367281169 35.57892482448369,57.894015147932805 34.41293639037758,37.23629097582307 27.750145335681736,31.79999999993015 20.920784503221512,35.06177697412204 21.08735428005457,57.67656691628508 27.083866230212152,63.33021057851147 32.913808402605355,61.808077864465304 35.74549460131675,57.459118653438054 35.2457852717489,38.75844888261054 32.41409907396883,33.75706704403274 25.584738242439926,32.23490400996525 19.754796070046723,38.97589988436084 21.08735428005457,59.851047795498744 30.58183153346181,63.54765798198059 35.41235504858196,58.546359650441445 34.579506166279316,37.01883971935604 27.250436006113887,32.0174520208966 20.421075175516307,37.01883971935604 20.421075175516307,57.894015147932805 28.749563993886113,64.19999999995343 35.74549460131675,57.894015147932805 34.91264571901411,37.01883971935604 25.917877795174718,31.79999999993015 20.087935621850193,40.0631544169737 20.421075175516307,58.546359650441445 31.248110638931394,63.98255269275978 35.41235504858196,59.416151874815114 35.2457852717489,37.45374220109079 31.747819968499243,33.104711649240926 25.41816846653819,32.0174520208966 20.087935621850193,39.84570357436314 20.25450539868325,59.416151874815114 30.58183153346181,63.765105353319086 36.24520392995328,55.93697992002126 34.246366613544524,35.27922851755284 28.582994217053056,31.79999999993015 20.754214727319777,34.626873791450635 19.588226293213665,50.93565595080145 23.919040478765965,62.89531567657832 29.582412875257432,63.54765798198059 36.411773706786335,59.416151874815114 30.9149710861966,32.45235596783459 24.751889360137284,32.23490400996525 21.58706360962242,35.71413150895387 21.58706360962242,55.71953140175901 26.917296453379095,62.6778681774158 34.246366613544524,59.416151874815114" stroke="#4dd2ff" stroke-linecap="round" stroke-linejoin="round" stroke-width="0.5"><title>2016-10-11 3.3 km</title></polyline><polyline fill="none" points="53.47291377838701,31.79999999993015 59.74733602954075,37.80680535756983 64.20914740813896,62.925858651986346 70.76243286998942,63.65393958205823 74.2482230104506,60.559592684032395 72.853906954173,40.355138252838515 66.16118988627568,37.07870928477496 62.11767332442105,43.449535458232276 64.20914740813896,61.46969551208895 71.04129608208314,63.83595974766649 74.52708622161299,58.19332220999058 72.57504374347627,41.265255877631716 69.78641163185239,38.53490100381896 64.90630543604493,38.53490100381896 62.25710493000224,46.5439249582123 63.65142098534852,61.833736457512714 72.99333856021985,64.19999999995343" stroke="#4dd2ff" stroke-linecap="round" stroke-linejoin="round" stroke-width="0.5"><title>2016-10-15 1.1 km</title></polyline><polyline fill="none" points="107.97749958280474,56.20526272023562 107.17169154435396,37.27018114598468 103.4649745663628,32.22078390466049 97.3408334730193,31.79999999993015 93.63411649502814,35.79744211782236 92.66714684851468,57.04681610793341 97.17967186495662,64.19999999995343 103.78729778248817,63.14806342695374 107.17169154435396,57.67798082565423 107.49401476047933,36.84939872054383 101.85335848946124,31.79999999993015 96.53502543456852,32.43117581040133 92.50598524045199,37.690963448025286 92.98947006370872,57.67798082565423 99.59709598124027,63.14806342695374 106.84936832915992,58.519533350365236 107.6551763676107,38.53252768353559 100.56406562682241,32.22078390466049 92.82830845564604,37.059789948980324 92.66714684851468,57.04681610793341 98.14664151147008,63.56883814872708 106.68820672109723,58.940309428959154 107.17169154435396,37.27018114598468 101.69219688139856,31.79999999993015 92.82830845564604,36.218224851065315 92.82830845564604,57.46759261761326 97.01851025689393,63.14806342695374 105.88239868264645,61.04418796824757 107.97749958280474,55.15332029212732 105.88239868264645,34.53509317710996 97.01851025689393,32.64156768610701 92.02250041719526,39.58448228321504 93.7952781021595,60.20263692212757 98.79128794185817,63.9896127472166 104.7542674280703,61.8857385214651 107.81633797567338,51.78709934442304 105.72123707551509,34.955876280437224 98.30780311860144,32.64156768610701 92.50598524045199,39.37409142463002 93.47295488696545,58.519533350365236 98.30780311860144,63.14806342695374 104.91542903613299,61.67535092914477 107.6551763676107,53.89098836120684 105.39891385938972,34.955876280437224 96.85734864976257,32.85195953096263 92.50598524045199,39.37409142463002 94.11760131828487,59.57147331396118 99.91941919643432,62.93767601950094 105.39891385938972,60.83380025322549 107.81633797567338,51.36632117140107 104.59310582093894,34.11430995014962 99.59709598124027,32.22078390466049 94.6010861415416,34.32470157917123 92.50598524045199,47.158532661385834" stroke="#4dd2ff" stroke-linecap="round" stroke-linejoin="round" stroke-width="0.5"><title>2016-10-26 3.2 km</title></polyline><polyline fill="none" points="119.995442359359,58.970661742801894 120.69034852553159,59.707641513159615 125.46782841824461,59.792677459918195 126.92278820381034,59.53756950744719 127.48739946389105,58.035260301679955 128.83378016087227,57.3549655056413 129.28981233248487,56.36286464285513 130.44075067027006,57.04316292525618 132.85120643442497,57.29827416474291 132.9163538874127,58.29037023386627 132.24316353886388,59.084043428549194 128.94235924934037,59.31080660082807 128.48632707784418,61.89021899065119 124.53404825727921,62.145323842938524 124.05630026815925,62.513808036150294 123.7739946381189,63.70429063629126 121.94986595178489,64.10111654290813 120.99436997331213,63.78932482766686 121.21152815013193,61.9752539787296 120.9075067024678,60.44461847793718 122.08016085787676,59.9910945238953 127.27024128695484,59.56591485206445 127.68284182308707,57.893532416346716 128.83378016087227,57.44000248593511 129.50697050942108,56.47624785597145 133.0249329758808,57.099854340805905 133.13351206446532,58.262024702489725 132.28659517422784,59.11238883968326 121.92815013416111,58.57382531980693 121.5806970509002,58.94231631101866 119.80000000004657,57.80849563534139 150.46273458446376,32.18237719159515 150.09356568357907,32.97615743937786 150.2890080428915,35.640967319734045 151.37479892757256,36.122897104069125 152.17828418232966,35.13068741672032 151.93941018765327,32.57926772243809 151.17935656837653,31.983931621012744 150.11528150131926,32.806061946132104 150.2021447721636,35.300780867168214 150.89705093833618,36.06619954458438 151.91769436991308,35.75436267108307 152.04798927612137,32.522569125008886 151.35308310983237,31.92723284920794 150.4193029490998,32.0973291148548 150.0718498659553,32.77771268264041 150.26729222515132,35.414176417776616 151.04906166216824,36.094548326407676 151.85254691680893,35.839409140942735 152.15656836458948,34.93224486884719 151.83083109918516,32.35247323305521 150.65817694365978,32.04063037633023 150.0718498659553,32.919458958218456 150.31072386051528,35.300780867168214 151.4399463806767,36.06619954458438 152.15656836458948,35.24408306699479 151.98284182301722,32.60761701496085 151.35308310983237,31.95558223723492 150.31072386051528,32.125678477968904 150.02841823059134,33.11790356961137 150.39758713135961,35.75436267108307 150.8536193028558,36.094548326407676 151.80911528144497,35.72601383946312 152.20000000006985,34.365265039828955 151.91769436991308,32.35247323305521 150.50616621982772,32.15402783686295 150.11528150131926,32.919458958218456 150.22386058978736,35.414176417776616 151.26621983910445,36.094548326407676 151.87426273454912,35.81106032183743 152.11313672922552,35.15903633546259 151.91769436991308,32.494219820044236 151.3313672922086,31.983931621012744 150.70160857914016,32.04063037633023 150.13699731905945,32.94780820090091 150.46273458446376,35.75436267108307 151.59195710450877,36.06619954458438 152.15656836458948,35.13068741672032 151.96112600539345,32.522569125008886 150.65817694365978,31.95558223723492 150.09356568357907,32.63596630326356 150.33243967825547,35.61261847156857 151.3313672922086,36.15124587751052 152.09142091148533,35.27243196913332 151.91769436991308,32.60761701496085 151.61367292224895,32.06897974766616 150.8536193028558,31.89888345709187 150.180428954307,32.66431558743352 150.37587131361943,35.49922303711355 151.3313672922086,36.06619954458438 152.04798927612137,35.414176417776616 151.98284182301722,32.77771268264041 151.0924932975322,31.983931621012744 150.15871313679963,32.57926772243809 150.33243967825547,35.329129761084914 151.04906166216824,36.009501968641416 152.11313672922552,35.329129761084914" stroke="#4dd2ff" stroke-linecap="round" stroke-linejoin="round" stroke-width="0.5"><title>2016-10-29 8.2 km</title></polyline><polyline fill="none" points="180.660999532789,55.52560374018503 183.55746495025232,56.637714131502435 185.54523533466272,54.7100545669673 185.48844189522788,48.11147202580469 184.63654030160978,46.776916784758214 182.251215840457,46.257922129763756 180.94496673042886,47.0734849201981 180.03627169760875,54.19106804544572 184.06860590633005,56.56357351469342 185.65882221399806,55.15489973349031 185.43164845579304,46.99934290256351 180.94496673042886,44.775077326223254 169.81345257698558,44.62679260695586 167.93926907144487,38.324651884671766 168.0528559507802,31.79999999998836 169.18872474203818,54.41349090554286 158.22759090713225,55.15489973349031 159.0794925002847,61.45683092850959 168.22323626931757,61.234411162964534 169.35910506080836,60.493011239217594 170.7221476098057,52.48582287109457 170.77894104947336,63.75516278191935 176.68545876373537,64.20000000001164 177.25339315924793,58.268804952618666 179.1843701042235,56.11872958607273 179.58192418143153,53.22723452234641 180.71779297222383,53.44965780596249 180.88817329099402,55.303181368566584 182.6487699171994,56.637714131502435 184.46615998330526,56.3411515991902 185.54523533466272,54.63591366779292 185.1476812576875,46.92520087421872 183.21670431294478,45.813069144962355 181.11534704919904,46.40620637126267 180.26344545558095,48.03733016032493 180.83137985155918,55.303181368566584 183.38708463148214,56.56357351469342 185.54523533466272,55.0807588994503 185.65882221399806,48.03733016032493 183.27349775237963,45.887211336172186 180.54741265368648,47.370052881829906 180.37703233514912,54.85833633237053 182.30800928012468,56.86013591638766 185.6020287743304,54.85833633237053 185.77240909286775,47.518336797424126 184.06860590633005,45.887211336172186" stroke="#4dd2ff" stroke-linecap="round" stroke-linejoin="round" stroke-width="0.5"><title>2016-11-06 3.5 km</title></polyline><polyline fill="none" points="29.014610024169087,101.94342845922802 35.258364017121494,95.83026523236185 34.94617631752044,77.2868391313823 26.361014576628804,73.41510359186213 21.834292931482196,75.86041150195524 20.429448283277452,80.75101442844607 21.67819908168167,101.73965678422246 25.42445147782564,105.0 31.824299320578575,103.36982934735715 34.47789476811886,98.68307808076497 35.57055171672255,79.12081536371261 29.951173122040927,72.59999999997672 20.429448283277452,77.89816481107846 21.05382368247956,101.73965678422246 27.453671525232494,104.79622877284419 34.79008246771991,100.72079796262551 34.47789476811886,77.2868391313823 27.453671525232494,72.8037759430008 21.05382368247956,76.87928852939513 20.897729832679033,100.109482311178" stroke="#4dd2ff" stroke-linecap="round" stroke-linejoin="round" stroke-width="0.5"><title>2016-11-07 1.3 km</title></polyline><polyline fill="none" points="71.9419940020889,86.69434990061563 72.6038268355187,94.36231395360664 74.38250257563777,94.9023054112331 75.7475327947177,93.1743299626396 75.45798093010671,88.42235571990022 74.29977347142994,87.34235303194146 73.01747235655785,87.50435363675933 72.06608765851706,88.69235589771415 72.64519138773903,93.93032021811814 74.79614809667692,94.9023054112331 75.83026189892553,93.28232866551843 75.29252272192389,87.9903550244635 74.21704436745495,87.23435258929385 72.64519138773903,87.50435363675933 72.10745221050456,88.9083558973507 72.6038268355187,94.20031636196654 73.59657608601265,94.8483063011372 75.20979361748323,94.47031230843277 75.95435555535369,91.01434926333604 75.37525182613172,87.93635490184533 74.09295071102679,87.01835160862538 72.97610780433752,87.28835281456122 72.06608765851706,89.23235565976938 72.56246228376403,94.09231792815262 74.79614809667692,94.8483063011372 75.83026189892553,93.2283293181099 75.6648036907427,88.58435585018015 74.29977347142994,87.18035235593561 73.30702422116883,87.18035235593561 72.06608765851706,88.96235587756382 72.31427497114055,93.71432316041319 72.85201414814219,94.68630892317742 74.17567981523462,95.01030360805453 75.78889734693803,93.49832597625209 75.6648036907427,88.476355771214 74.21704436745495,87.01835160862538 72.19018131471239,88.20635543539538 72.27291041892022,93.66032387613086 74.67205444048159,94.9023054112331 75.83026189892553,93.2283293181099 75.7061682427302,88.58435585018015 73.59657608601265,87.18035235593561 72.02472310629673,88.74635590944672 72.47973317932338,94.20031636196654 74.46523167961277,94.95630451361649 75.87162645114586,92.95833246226539 75.49934548232704,88.20635543539538 73.51384698180482,87.12635211466113 72.06608765851706,88.69235589771415 72.35563952312805,94.30831476440653 73.10020146076567,95.01030360805453 75.87162645114586,90.63635133972275 75.25115816970356,87.8283546330349 73.224295116961,87.39635324152187 72.19018131471239,88.63835587789072 72.27291041892022,93.82232170490897 74.21704436745495,95.06430269443081 75.83026189892553,93.444326660363 75.6234391387552,88.3683556606702 73.76203429419547,87.18035235593561 72.19018131471239,88.476355771214 72.39700407511555,93.93032021811814 73.30702422116883,94.9023054112331 74.54796078405343,94.95630451361649 75.87162645114586,93.06633122829953 75.58207458653487,88.26035551843233 73.38975332560949,87.12635211466113 71.98335855430923,88.69235589771415 72.14881676272489,93.60632458413602 74.09295071102679,95.01030360805453 75.6234391387552,94.1463171490177 75.7061682427302,88.74635590944672 73.8033988464158,87.18035235593561 72.06608765851706,88.63835587789072 72.39700407511555,94.20031636196654 74.09295071102679,95.01030360805453 75.78889734693803,93.76832243663375 75.58207458653487,88.42235571990022 73.63794063800015,87.28835281456122 72.14881676272489,88.58435585018015 71.73517124168575,94.20031636196654 73.67930518998764,95.33429800806334 75.95435555535369,93.98431946264463 78.39486412890255,95.28029896106455 78.02258316008374,96.73827045189682 74.92024175310507,97.2242596676515 73.96885705483146,100.03218481541262 64.7031973854173,101.11215033210465 64.24818731262349,103.54206117877038 63.172708958154544,104.40602562058484 61.4767623222433,104.1900346999173 60.64947128039785,105.0 52.79020638251677,104.51402103353757 52.16973810084164,103.1640760988812 50.51515601738356,102.57009876176016 49.605135871097445,91.71634437851026 50.10151049611159,90.20435323831043 54.899798539467156,89.23235565976938 55.60299592488445,87.93635490184533 54.982527643442154,78.97222492823494 56.140735102118924,77.40617985723657 54.858433987246826,73.73404808607302 55.31344406027347,73.3020301789802 61.02175224944949,72.60000000000582 63.3795317185577,74.76008858677233 63.793177239596844,78.37820861543878 62.7176988851279,82.53630270625581 64.78592648985796,87.61235400062287 65.19957201066427,92.20234021384385 66.35777946934104,95.33429800806334 71.85926489788108,95.06430269443081 72.14881676272489,91.23034790257225 72.72792049194686,94.63230978127103 74.21704436745495,95.11830177303636 75.37525182613172,94.52431147388415 75.6648036907427,88.69235589771415 74.92024175310507,87.61235400062287 73.34838877338916,87.28835281456122 72.10745221050456,88.53035581475706 72.39700407511555,93.93032021811814 74.4238671278581,95.06430269443081 75.91299100313336,93.71432316041319 75.6648036907427,88.476355771214 73.88612795062363,87.28835281456122 72.85201414814219,87.61235400062287 72.06608765851706,89.1243557704147 72.35563952312805,93.87632096544257 74.13431526301429,95.06430269443081 75.87162645114586,93.66032387613086 75.7475327947177,88.74635590944672 73.88612795062363,87.28835281456122 72.14881676272489,88.80035591329215 72.10745221050456,93.76832243663375 73.141566012986,94.79430718309595 74.83751264866441,95.01030360805453 75.99572010734119,93.33632800509804 75.7061682427302,88.53035581475706 73.59657608601265,87.23435258929385 72.06608765851706,89.01635584977339 72.31427497114055,93.76832243663375 73.141566012986,94.79430718309595 74.83751264866441,94.9023054112331 75.95435555535369,93.39032733664499 75.58207458653487,88.3683556606702 73.67930518998764,87.34235303194146 72.02472310629673,88.9083558973507 72.31427497114055,94.1463171490177 74.01022160681896,95.06430269443081 75.91299100313336,93.76832243663375 75.7475327947177,88.63835587789072 73.84476339863613,87.18035235593561 72.27291041892022,88.3683556606702 72.14881676272489,93.39032733664499 73.59657608601265,95.01030360805453 75.7475327947177,93.98431946264463 75.78889734693803,89.34035551725538" stroke="#4dd2ff" stroke-linecap="round" stroke-linejoin="round" stroke-width="0.5"><title>2016-11-07 10.2 km</title></polyline><polyline fill="none" points="108.19023410510272,95.712072778726 106.37018208112568,76.48803758434951 102.23370021115988,73.46400923794135 95.11895139236003,74.32801796973217 92.30614372063428,79.72806107439101 92.47160299494863,96.7920673211338 95.11895139236003,101.97603011736646 101.73732238635421,103.70401366625447 105.70834498293698,100.68004112655763 106.70110063161701,78.43205253232736 100.57910746149719,72.59999999997672 92.14068444538862,77.3520445447648 93.13344009406865,98.30405835283455 99.25543326418847,103.48801583366003 104.21921150945127,102.40802619396709 107.69385628029704,96.57606847630814 106.70110063161701,78.00004943204112 98.09721833933145,73.46400923794135 91.64430662058294,79.51205973012839 92.30614372063428,98.52005694480613 99.91727036330849,105.0 104.88104860763997,103.05602007266134 107.5283970059827,97.87206107308157 106.86655990593135,77.78404783457518 100.41364818718284,72.59999999997672 92.47160299494863,78.21605099842418 92.47160299494863,98.52005694480613 99.58635181281716,103.70401366625447 107.36293773073703,98.08805972884875 106.70110063161701,78.00004943204112 98.26267761457711,72.81600235728547 92.14068444538862,79.29605835373513 92.80252154450864,99.81604783399962 101.73732238635421,104.13600923784543 108.35569338034838,97.22406491707079 106.86655990593135,76.48803758434951 97.6008405154571,73.24800697620958 92.30614372063428,80.59206613560673 93.29889936931431,99.38405099674128 101.90278166066855,103.92001146788243 107.85931555554271,97.44006366760004 107.19747845642269,78.00004943204112 100.91002601198852,72.81600235728547 92.47160299494863,79.08005694602616 94.12619574368,100.46404285077006 102.8955373102799,103.05602007266134 107.69385628029704,97.87206107308157 106.20472280588001,76.05603391490877 96.7735441410914,73.24800697620958 92.80252154450864,78.86405550700147 93.13344009406865,98.30405835283455 96.60808486677706,102.84002214518841 103.06099658459425,103.05602007266134 107.69385628029704,97.22406491707079 106.70110063161701,78.00004943204112 98.59359616413713,73.68001146859024 92.14068444538862,81.02406847744714 93.13344009406865,99.81604783399962 95.44986994192004,103.2720179692842 102.8955373102799,103.92001146788243 108.02477482985705,98.08805972884875 106.03926353249699,76.48803758434951 96.60808486677706,73.8960136672249 92.63706227019429,86.42408706329297 95.44986994192004,101.97603011736646 100.74456673674285,103.92001146788243 106.37018208112568,100.68004112655763" stroke="#4dd2ff" stroke-linecap="round" stroke-linejoin="round" stroke-width="0.5"><title>2016-11-08 4.1 km</title></polyline><polyline fill="none" points="139.5812501916662,74.99197048158385 134.41758712474257,73.68725978699513 128.58764495141804,77.16648575756699 127.7547960691154,97.82422203174792 132.7518893610686,104.34765798202716 139.74781996849924,104.34765798202716 143.07921549584717,101.08594358991832 143.41235504858196,78.03629097586963 137.58241287525743,72.81745202094316 128.7542147282511,77.8188397194026 128.08793562278152,101.08594358991832 136.24985466431826,105.0 144.07863415405154,96.30208285246044 142.74607594311237,76.7315829572035 138.5818315334618,73.25235596788116 132.91845913697034,73.46980789338704 128.42107517458498,79.34099784854334 129.75363338552415,100.21615187486168 137.74898265115917,104.13021057855804 143.41235504858196,98.91146334714722 142.9126457190141,77.16648575756699 134.41758712474257,72.59999999997672 128.42107517458498,78.25374220113736 129.08735428005457,99.34635965048801 137.58241287525743,104.13021057855804 143.5789248244837,99.12891151430085 143.2457852717489,78.25374220113736 136.24985466431826,73.25235596788116 128.58764495141804,78.90609568508808 129.08735428005457,98.69401514797937 136.91613376978785,104.13021057855804 144.24520392995328,98.04167035885621 143.5789248244837,78.47119339485653 135.58357555884868,73.03490401001181 128.7542147282511,78.90609568508808 129.75363338552415,99.12891151430085 138.5818315334618,103.9127631438896 143.74549460131675,98.25911865348462 143.2457852717489,77.38393710996024 135.58357555884868,72.81745202094316 128.92078450415283,78.47119339485653 129.58706360962242,99.12891151430085 132.25218003150076,102.82552549033426 138.08212220389396,103.69531567662489 143.91206437721848,96.51953140180558 143.07921549584717,78.03629097586963 135.2504360061139,73.25235596788116 128.92078450415283,77.8188397194026 129.75363338552415,98.69401514797937 137.24927332252264,103.26042064721696 142.0797968376428,101.73828704131301 143.91206437721848,97.60677367285825 142.74607594311237,76.94903437362518 135.41700578294694,72.81745202094316 128.92078450415283,78.03629097586963 129.08735428005457,98.47656691633165 135.58357555884868,104.34765798202716 142.57950616627932,99.99870386684779 143.2457852717489,79.77589988440741 137.0827035466209,73.25235596788116 128.92078450415283,77.60138843022287 129.58706360962242,99.56380775477737 137.4158430993557,104.13021057855804 143.91206437721848,99.34635965048801 143.5789248244837,79.77589988440741 138.9149710861966,73.25235596788116 133.75130801927298,73.25235596788116 129.42049383278936,77.8188397194026 129.2539240559563,96.95442840596661 131.41933115012944,101.73828704131301 136.91613376978785,103.69531567662489 143.07921549584717,99.78125582647044 143.5789248244837,79.5584488826571 138.9149710861966,73.46980789338704 133.75130801927298,73.25235596788116 129.42049383278936,77.16648575756699 129.75363338552415,98.47656691633165 135.75014533568174,104.13021057855804 143.74549460131675,100.21615187486168 143.2457852717489,78.25374220113736 137.0827035466209,72.81745202094316 128.92078450415283,77.60138843022287 129.58706360962242,98.91146334714722 135.91671511158347,104.13021057855804 143.07921549584717,99.12891151430085" stroke="#4dd2ff" stroke-linecap="round" stroke-linejoin="round" stroke-width="0.5"><title>2016-11-10 5.2 km</title></polyline><polyline fill="none" points="179.79819255159236,87.52286279809778 180.55956113524735,94.41771689936286 182.4435993405059,95.14962174012908 183.86006490769796,93.66872334311483 183.7888301021885,88.35965314583154 181.46920971083455,87.34649428765988 180.24220195016824,88.70882700828952 180.52114985371009,94.11091902127373 182.35703448625281,95.26639545508078 183.62164632533677,94.93586392133147 184.24070499138907,93.83600413330714 184.03494604933076,88.75722222257173 182.081399229588,87.32587386356317 180.20463306526653,88.77734215257806 180.37340285233222,93.70534062385559 181.98620813386515,95.0900742339436 184.04105036822148,93.92812815029174 183.8157548045274,88.48729318013648 181.91521565522999,87.30251626612153 180.310340607306,88.51019864642876 180.40635234024376,93.68037823669147 181.81285926396959,95.00793894036906 183.95261399145238,89.26518535229843 183.48086998867802,87.93635383818764 182.32084934506565,87.40857778349891 180.5242199639324,88.39953306349344 180.44842498516664,93.82968230050756 182.2635013954714,95.2630277852586 184.0860732686706,93.76513260052889 183.93320899875835,88.58733851712896 182.50540400971659,87.37569814868039 181.31444817618467,87.65366726260982 180.37416115985252,88.95420394153916 180.3764842718374,93.64549590391107 182.32532984064892,95.2102917173761 184.05586438579485,93.64519997214666 184.17224404402077,88.72673581686104 183.11609521950595,87.64117928262567 181.7097592074424,87.49927360980655 180.32122046593577,88.63177932079998 180.44621624564752,93.89580127492081 182.51549722487107,95.12593165328144 184.0815961684566,93.47866137328674 183.90418344549835,88.87342473946046 182.00379011011682,87.34388052477152 180.24074666551314,88.60311548790196 180.44654471240938,93.74520848219981 182.22571483138017,95.09199766046368 184.09963308810256,93.93447552376892 183.71021292824298,88.4514543696423 182.50131499115378,87.38875182691845 181.02510206704028,87.52992576162796 180.18982642283663,88.65973623259924 180.40652388171293,93.74215071080835 182.36475591897033,95.1029809138272 184.01309172343463,93.90539461516892 183.74515847256407,88.58941413421417 182.03615934122354,87.32225118775386 180.4309362382628,88.60122711525764 180.4790106851142,93.69036075071199 182.32980601442978,95.0546004838834 183.94593721046112,93.78524435104919 183.87842402723618,88.60725277254824 182.7803846015595,87.52694762751344 180.62849683663808,88.17306311486755 180.43878293130547,93.01508638137602 181.6895968709141,94.95733594885678 184.09757630922832,94.34872105237446 184.03185215150006,89.27307084924541 182.27139308000915,87.29185922283796 181.10297871078365,87.41602052212693 180.38163568172604,88.86908593040425 180.53394464682788,93.90126641100505 182.37887596478686,95.05128557098215 183.98487195465714,94.17466943949694 183.7535070332233,88.81556748214643 182.90389219648205,87.51805322989821 181.24738486018032,87.48850763836526 180.29469086648896,89.03511986331432 180.3752230477985,93.33466823477647 181.10879700724036,94.73601013206644 182.749486499466,95.07945014440338 183.7433337639086,94.30275757424533 184.10374130588025,92.38552474268363 185.15374534926377,94.92045182202128 186.33621671493165,95.8246578820399 186.18549905577675,96.86441559626837 182.37772575649433,97.94622690344113 182.43539309618063,99.99060022027697 184.18243955355138,102.09846821569954 182.3852201513946,102.57400848527323 180.0560829641763,101.26389740491868 175.21378607978113,100.54416969246813 173.27028469834477,100.98879542108625 172.88771324208938,103.68246851928416 169.24913278687745,105.0 165.08977703843266,104.34129294325248 157.66378328483552,104.98645921522984 158.88306541158818,102.23494490262237 157.74234063434415,97.79273484533769 157.8990123043768,90.9867261009349 162.75450379936956,89.28378233729745 163.32621271372773,88.48591544324881 163.2416223224718,74.17519133540918 165.73030465305783,73.02570408565225 170.10451555834152,72.60000000000582 170.9238524835091,75.36921803618316 168.64692529896274,75.71688425901812 167.57529243384488,82.47932005027542 168.18260158156045,83.57412023714278 170.92559155798517,83.26829687086865 172.27494593709707,86.37676697905408 177.4154513780959,86.34745718882186 178.55196410580538,84.16790713788942" stroke="#4dd2ff" stroke-linecap="round" stroke-linejoin="round" stroke-width="0.5"><title>2016-11-16 7.6 km</title></polyline><polyline fill="none" points="19.608252425678074,113.40000000002328 22.325989382341504,140.0705484438222 26.29887206852436,144.26096426555887 36.3917475733906,129.7288144301856 34.519234612584114,116.57670058391523 28.504348234273493,113.80665267969016 22.476570781320333,116.48317537200637 20.82937178760767,131.95330451452173 24.657177451997995,144.3226370238699 34.58372702728957,141.94112291093916 35.81074737291783,121.43679167272057 31.698616752400994,114.97540885314811 21.81332436297089,118.20679046562873 21.54980354104191,138.53163562319241 24.21547910757363,143.77092176652513 29.11597006674856,145.2248778459616 35.448294481262565,139.2913429705659 35.773578009568155,119.62422483460978 28.71251143887639,114.35951489920262 21.009356502443552,119.3979715462774 21.85529132001102,139.27545274689328 28.147679023444653,144.92849260440562 35.14208364672959,141.09064272919204 35.440259328112006,119.70101044012699 29.716111722402275,114.37220070173498 24.019466672092676,115.44815425819252 21.419517352245748,119.37409872503486 21.709617774002254,139.08844522910658 28.093186939135194,144.92966556630563 35.3771175891161,140.82693109405227 35.39256989117712,119.34551853651647 28.499151970259845,114.52634377207141 21.480314137414098,119.75882939866278 21.97912943456322,138.9468157531228 29.289020382799208,144.96175799507182 35.68982912320644,139.69111503870226 35.421998464502394,119.97939331107773 30.60265655722469,114.64769025542773 24.992295750416815,115.45819950883742 21.59906735830009,119.98346242425032 22.11445584986359,139.2540838815039 27.402737478725612,144.82819609541912 35.21465800795704,141.61563156009652 35.58502591121942,120.68811430968344 29.49514862988144,114.46341551502701 21.766261089593172,118.95450536755379 21.507119855843484,137.76364883768838 27.359051226638258,144.95619187608827 35.60967749170959,140.16912462876644 35.61240529734641,119.16754215478431 32.25684549473226,114.43612393352669 26.58005545195192,114.08249942888506 22.161079356446862,117.96476434695069 21.65819060243666,138.8807502683485 28.33010414429009,145.3865106733283 35.88169977534562,139.56600149336737 35.57804700918496,120.05905207141768 29.09459707327187,114.39727206830867 21.522010986693203,120.0468645413639 22.43854648154229,140.16925585397985 29.117638805881143,144.9197496402776 35.838471073657274,139.85753634537105 35.09124617930502,119.29397018474992 28.716865244321525,114.64407108561136 21.658954619430006,119.54542097111698 22.481050673872232,139.54402177548036 28.03183918632567,145.24932693096343 35.90412339195609,139.10016853082925 35.25896970741451,119.24934825045057 27.653595170006156,114.77062695799395 21.97586664184928,119.21604357822798 22.088574897497892,140.33740445808508 28.859869201667607,145.80000000004657 35.73925743158907,139.4920113645494 35.18544610030949,119.56220577994827 28.12643056176603,114.45865715609398 21.739689900539815,120.05814653343987 22.319236372597516,140.17391635780223 28.00090964604169,145.0351200210862 33.673752868548036,143.15607522102073 35.60344233177602,139.1813226096565 35.20212213508785,119.9081922469195 28.040623837150633,114.83226017421111 21.974895373918116,118.85422221128829 22.259981602430344,140.1474453608971 27.032510191202164,145.4246756057255 34.95855193026364,141.50198170740623" stroke="#4dd2ff" stroke-linecap="round" stroke-linejoin="round" stroke-width="0.5"><title>2016-11-17 5.5 km</title></polyline><polyline fill="none" points="48.43516456228099,139.25342280925543 48.76663755389745,139.02851679323794 51.520777758792974,138.30262322288036 52.6540295095474,138.50657517994114 52.719619980460266,138.32438563009782 52.17324413105962,137.45731018309743 52.64513934752904,137.15178048065718 53.09816725429846,137.82748848197662 53.359217226156034,137.90202330728061 55.42865870142123,137.78943441964657 55.99504489667015,137.50408075322048 57.62207739255973,137.5220836327644 58.01958686404396,137.3024567956454 58.52800702996319,137.59343161378638 58.81145013758214,137.3085828914991 59.166144430841086,137.516413445941 60.04450625629397,137.19149267419562 62.007058631803375,137.4345877090018 65.57907138459268,137.40647645113495 66.3854486917262,137.57581349149405 73.49436195462476,137.45584436566423 73.71763479791116,137.40985139412078 73.86008055700222,137.14924268548202 73.88391970994417,136.2630443498565 74.14482284462429,135.71366593116545 74.48460717283888,135.38339810787147 75.1977030451817,135.1613373213113 76.33334972796729,135.2580079528925 76.95939536421793,135.45418609390617 77.05843554085004,135.79221925182355 76.72473081023782,136.25487291388708 76.96867784130154,136.8400656919839 78.0033471552888,136.39040487873717 78.4048162541003,136.36437828515773 78.95800932499697,135.50169533814187 79.16855531846522,134.83881027576717 79.22856691447669,131.55571459804196 79.02853611344472,131.10978336831613 78.51741585240234,130.5422151666644 78.43721377133625,130.01859866594896 78.62551384457038,129.60674985268997 79.39943450377905,128.9472786273618 79.53871177221299,128.42923886517383 79.38342297656345,127.94337497997185 78.96973121742485,127.38470766172395 78.94470574235311,126.9028465540614 76.54085428020335,125.76193663573213 74.77886972148553,125.8198020419004 73.88443051744252,126.07519855112332 73.40188190084882,125.52560240705498 73.28760441322811,124.77698831768066 73.45013167586876,124.37937810086441 73.44223501495435,123.8452087991318 73.6923909272009,123.52022497411963 73.61494899817626,122.17418283293227 73.78142713633133,121.87948487147514 80.09789707435993,120.86167734797345 80.20000000001164,120.66647762268258 79.92590638544061,119.65785309588682 79.12517319666222,118.64642921924678 77.88754966971464,118.77329681579431 77.25890246767085,119.05630065693549 76.54387628065888,118.88897091373656 75.50418608597829,118.41863415666012 74.1584786392632,117.28117656180984 73.05390088720014,116.84724705800181 67.51242813031422,117.18363451691403 66.41498032191885,117.49426641091122 64.90914881203207,117.43797364641068 63.35018083557952,117.82094333938585 62.70413690482383,118.38130051756889 62.32652978430269,118.95766231582093 62.1678446654696,119.78885380312568 62.95445808509248,121.41525724378153 66.28999737114646,121.16205252025247 68.21797612064984,121.16802738296974 69.37958726871875,121.70360449387954 69.39150063370471,122.6697346558285 69.52439468548982,122.99184932544449 70.44029169151327,123.34780359212891 71.04787047591526,124.01700994210842 71.78727911246824,124.07884202159767 72.4880666717072,123.75543688958714 73.39622864488047,123.84160705166869 73.28298237020499,124.79760566493496 73.35334947324009,125.50638014624565 72.95353613593034,126.11126752700511 72.0669048828131,126.04580412922223 71.1974454667361,125.77237849713129 70.15240960958181,126.00228971864999 68.7385565142904,127.30797957826144 66.85752237241832,127.90904783899896 66.4422663776204,128.18358583168447 65.3130918352108,129.18137142888008 65.05577094259206,130.18260205509432 65.25441333817434,130.8028184117211 65.81109995106817,131.4527242545737 66.8457163287676,132.07945183106494 67.25833944336046,132.49999922639108 68.40415141548146,132.84913468122977 68.90732970551471,133.20700795792072 69.52812726638513,134.50842145306524 70.18914341897471,135.20441017577832 72.14243952409015,135.14298132906697 73.32451930030948,135.595050693948 74.01665616745595,135.5653827688002 74.5117105372774,135.35332896998443 73.51488485207665,135.9765376406067 73.45839172776323,136.3602402143806 73.69607034808723,136.66307673844858 73.77283106511459,137.42224675772013 69.48580881793168,137.45825383915508 69.30668435871485,137.06389931976446 67.37613506801426,137.03388344209816 61.92249557704781,137.04799796840234 56.35789441605448,137.4587295836027 54.70640933868708,137.33938476631738 52.99951189037529,137.4471681565483 52.63202444300987,137.09728892480052 52.1534294076846,137.39934929544688 52.74008712201612,138.347271805098 52.65589287542389,138.5058531530667 51.60517038858961,138.24341860634013 47.79999999998836,139.20215448934323 48.11243344511604,140.5655908535773 48.24472661159234,142.1155139973489 49.60520559170982,142.23173018074158 49.68202513360302,142.12902942538494 49.757340802578256,142.35275294200255" stroke="#4dd2ff" stroke-linecap="round" stroke-linejoin="round" stroke-width="0.5"><title>2016-11-24 18.4 km</title></polyline><polyline fill="none" points="95.49677334353328,145.08181173657067 103.21595771703869,145.00480777863413 107.2762802252546,141.4532868807437 108.48784452676773,122.97694297961425 101.79855270311236,115.5427950770827 93.05259831622243,118.9233127727639 91.94429154414684,139.96936095925048 97.44479164108634,145.80000000004657 103.64708302170038,145.094952928368 106.84276607818902,141.13039992679842 106.89697578456253,119.025635327911 100.32832769397646,113.83286336786114 92.51235308218747,118.5239682123065 91.71302838623524,139.2437767040683 95.86577549949288,145.37663198343944 102.82986238505691,144.3853136987891 106.63315594941378,140.06087577797007 107.25219387561083,123.46273341123015 103.4738152557984,115.38877214374952 94.64159125834703,115.57992821722291 91.51116013340652,122.43923945457209 93.3698111185804,143.27233157341834 102.46411498915404,145.52609356457833 108.48883986659348,137.42145676515065 107.21260331198573,118.09789557626937 97.52073504123837,113.81255085405428 92.21852481830865,118.99190626014024 92.40511335339397,140.75142305647023 99.88979927822948,145.49979413778055 107.7432567384094,139.81157607736532 107.1224520271644,118.76571901491843 100.13977444544435,113.40000000002328 92.66424507740885,118.60827329871245 92.69193987548351,140.8950149898883 102.77001627814025,145.27020435163286 108.35574978403747,141.50058235845063" stroke="#4dd2ff" stroke-linecap="round" stroke-linejoin="round" stroke-width="0.5"><title>2016-11-28 2.0 km</title></polyline><polyline fill="none" points="128.6461189929396,113.40000000002328 128.9784706234932,139.45220217725728 135.0503432676196,140.59869937319309 138.16180422436446,134.6492885868065 137.678991320543,120.88716333068442 132.24775958620012,115.9443776224507 128.50724394712597,120.0265651550144 129.7202141098678,139.83230502007063 139.2265383405611,144.04265872447286 143.42367653548717,140.41837601887528 141.92328458745033,124.18443955422845 136.30840597581118,117.62277790904045 128.94836074113846,121.87517460610252 129.68207863066345,139.86230494175106 136.95050634723157,145.3690051403828 141.81878922414035,141.67451171402354 141.73155380319804,123.4037949325284 136.8351034456864,117.33088539924938 130.1157979713753,122.11641827516723 129.69735853001475,138.59412658656947 132.73693135287613,143.84953840065282 137.9603632260114,145.80000000004657 142.75285543035716,144.50382123864256 143.4927560519427,141.53292772604618 141.4147885190323,122.67260917613748 137.29713387228549,117.60493792791385 130.24177013430744,120.90566617215518 129.67859618272632,138.67699026002083 134.60832985118032,144.01985773828346 142.11761009134352,139.30887990747578 142.19261728972197,121.74848951143213 136.46306080464274,116.95404501981102 129.98015026655048,121.14321752474643 129.9523233678192,139.36353008565493 137.23979308269918,143.6264485345455 141.66303693130612,139.03521691204514 141.67458312306553,120.55109799082857 136.83238922525197,116.46774520364124 130.12218382488936,120.10572568315547 129.18678397405893,138.31852577463724 135.45960093848407,143.5661443916615 141.8233039835468,139.57247331074905 142.18582742847502,121.2369475394953 137.2524430816993,116.56303222361021 129.41765218880028,120.3401594228344 129.1422057216987,137.95689613861032 136.10160641465336,144.6142833061749 141.59345640148968,140.30244884907734 141.84541495144367,120.72014687990304 138.26465071365237,116.65608017519116 129.90142372064292,120.63472708675545 129.34294257871807,137.46750857378356 131.05505021102726,141.65230092627462 135.38597468100488,143.44973186356947 140.75540262646973,139.85175845294725 142.29458027984947,121.63968489784747 137.98242317140102,116.9293417094741 129.83932768646628,120.47592279838864 129.04017311614007,137.4582859603688 133.3890103669837,142.9039363656193 140.35599484108388,140.05649489944335 142.53953131567687,122.15308172919322 136.6550586009398,116.57837902393658 130.36145635694265,119.55737764493097 129.176126267761,137.53621723048855 134.9561699833721,142.70771293027792 140.77737814188004,137.7586269028252 142.36819627322257,121.73935114394408 139.96830841246992,117.7900172554655 135.38497326988727,116.73150521644857 129.59621054958552,120.58282519842032 129.39024455659091,138.49174418917391 136.4894461268559,143.07836033497006 141.83331072237343,137.05766769510228 141.45638059545308,120.33524150331505 136.22204827982932,116.20649003586732 129.44747529923916,121.73714127519634 129.72326799482107,140.88736265373882" stroke="#4dd2ff" stroke-linecap="round" stroke-linejoin="round" stroke-width="0.5"><title>2016-11-28 5.0 km</title></polyline><polyline fill="none" points="179.8792116465047,131.61509067565203 177.8843457363546,117.91476060939021 174.68054640945047,114.99856670759618 168.40074346587062,115.76656638993882 165.50076606497169,121.57130283361766 166.35156029555947,142.06490298477001 175.5382134905085,143.56954324350227 179.43296153005213,138.0900869446341 177.81426813919097,117.7737915070029 173.36219870578498,114.74943368730601 167.80793549120426,115.51228658098262 166.16802613064647,140.87099486368243 174.15924199298024,144.4817406933289 179.34547683410347,137.01236041565426 178.4581015771255,118.40111372002866 174.89173196163028,114.07866087695584 170.9749541739002,114.1024561523227 165.135193310678,120.5639877517242 165.9730948889628,141.28222722490318 174.66096929181367,144.27607060794253 179.77963689062744,138.07721880578902 178.2495168801397,117.4272093976615 175.30158368404955,114.44713878945913 168.69892457593232,115.2691920454381 165.0427019558847,119.08067101903725 164.0522351032123,136.15292039257474 166.4197544688359,142.986628957442 172.62444084975868,145.33263016061392 178.72797394543886,140.94198335474357 178.41022466868162,119.14241453178693 171.59946404676884,113.89495636732318 164.07544369995594,120.13170160620939 164.4327656524256,138.75543684558943 171.3469125032425,145.77337049273774 175.46927849762142,144.72995002218522 179.7276255581528,138.4964791976381 178.7730726795271,118.95180739392526 171.78971911221743,113.4000000001397 164.97113484796137,120.29975155903958 164.96895019058138,138.90652440057602 168.99093011114746,144.277955579455 174.44047484081239,145.18711876415182 179.02437138650566,140.02102356939577 178.7247858978808,119.34188009530772 176.49115291796625,115.67809126561042 169.14287175424397,113.72875130351167 164.67447049636394,121.00553306832444 165.09579634480178,139.37854905915447 168.6445046197623,145.00994007545523 172.37644860334694,145.70558011974208 179.05221993941814,139.35631274315529 178.67514831386507,120.7831594068557 171.93994588404894,114.35032515123021 164.57928732782602,120.9990836303914 166.01098553743213,141.06287661776878 172.85145662911236,145.80000000004657 179.12685613613576,140.74712660210207 178.38675012532622,119.1014012977248 170.78210862725973,113.66279987606686 165.0953884711489,119.78061280411202 164.53928445465863,138.49615239270497 168.52693792432547,143.71099126175977 174.104515674524,145.21766544133425 179.24379561748356,139.07620639982633 178.3953804783523,117.65933411498554 171.6040378799662,113.65212773531675 164.68199529498816,119.31174771860242 165.34180625341833,139.88249661331065 172.87078012432903,144.75469818420243 179.44748621527106,138.80250148277264 178.50891020521522,118.81027739529964 170.1119788568467,114.36025586631149 164.82379946950823,120.45162669650745 165.61919502262026,140.06183806655463 175.11252143140882,145.18765621900093 179.78910795319825,138.8382186817471 178.4548960905522,118.3976359735243 170.5651537962258,114.35347416892182 165.4733371566981,120.07999964209739 166.50873626582325,139.58056788449176 173.75052174646407,144.646361598745 179.90381067432463,137.90826661663596 178.6487530786544,119.97211300989147 175.67910350766033,115.5014639555011 170.63911224901676,114.36698392929975 165.60084947850555,120.07814403029624 166.62671786453575,139.82186390436254 169.95367791689932,144.20290853921324 174.49262835178524,144.64135432778858 180.0318694235757,138.5098195837345 178.30156736727804,118.58000474504661 170.51630767714232,114.40109480172396 165.2688213540241,119.55730527453125 166.5773628829047,139.9728427059017 174.41341012716293,144.5265477359062 179.42289680894464,139.28977952874266 177.56802901718765,116.9015680217417 168.49550551734865,114.68114214553498 163.9681305764243,122.1450259340927 167.44367770012468,143.599851482315 175.7368603264913,144.80636464140844 179.23944503441453,139.48641324683558" stroke="#4dd2ff" stroke-linecap="round" stroke-linejoin="round" stroke-width="0.5"><title>2016-11-30 6.2 km</title></polyline><polyline fill="none" points="43.77200533472933,173.90050528815482 44.200000000186265,176.41791390109574 42.60297099198215,177.1169619402499 28.06552074966021,177.14728613261832 26.245994314085692,178.2827978740679 25.578836624277756,180.73972800798947 15.354804381495342,181.49317659862572 14.190592197468504,176.67192485160194 11.800000000046566,174.16742230870295" stroke="#4dd2ff" stroke-linecap="round" stroke-linejoin="round" stroke-width="0.5"><title>2016-12-01 1.1 km</title></polyline><polyline fill="none" points="16.06998918647878,175.33329054818023 25.61944031016901,173.99351178860525 27.730527042178437,171.20530850958312 28.412201278842986,165.5928148564999 33.63263844139874,163.2369229120668 34.30343065666966,159.30682340136264" stroke="#4dd2ff" stroke-linecap="round" stroke-linejoin="round" stroke-width="0.5"><title>2016-12-01 1.1 km</title></polyline><polyline fill="none" points="55.64363139937632,184.25082120631123 64.99360840930603,183.2770994733437 66.3863161324989,185.7542364699475 72.10724131134339,184.49465772675467 75.18929610960186,185.07025677562342 79.55579134589061,184.45167124271393" stroke="#4dd2ff" stroke-linecap="round" stroke-linejoin="round" stroke-width="0.5"><title>2016-12-03 2.1 km</title></polyline><polyline fill="none" points="80.20000000018626,184.37943058923702 79.55671525141224,184.84922782771173 79.0712295989506,182.23602685306105 79.0069696623832,176.3018085998483 77.62787144002505,174.9859478508879 71.907629144378,175.0529405938869 71.82141654728912,172.44369322565035" stroke="#4dd2ff" stroke-linecap="round" stroke-linejoin="round" stroke-width="0.5"><title>2016-12-03 2.1 km</title></polyline><polyline fill="none" points="65.15185834630392,171.73597893179976 65.18660343647934,164.2978431772499 62.45997493644245,157.4629975958669 60.14282642258331,155.04576353006996 55.281171718845144,157.0623623796564 54.96433662227355,155.5317877557536 53.988406860269606,155.37274344349862 51.5258275505621,156.86180832079845 47.800000000046566,156.54892334903707 48.631291437661275,157.15646003861912" stroke="#4dd2ff" stroke-linecap="round" stroke-linejoin="round" stroke-width="0.5"><title>2016-12-03 2.1 km</title></polyline><polyline fill="none" points="47.93054363317788,158.4867288042151 62.232060610549524,155.69158144839457 62.86825157166459,163.65082145968336 61.49502370133996,165.59262564327219 62.028714498272166,167.44786717410898" stroke="#4dd2ff" stroke-linecap="round" stroke-linejoin="round" stroke-width="0.5"><title>2016-12-03 2.1 km</title></polyline><polyline fill="none" points="95.93814206682146,181.45503625529818 106.95493989344686,182.8401360551361 110.47309306729585,178.23473187640775 109.11759315058589,161.23225944745354 99.91375072766095,156.9648272821214 94.26985800173134,161.37783660145942 93.83931548893452,181.5593091682531 101.1937204618007,186.59999999997672 109.29570749867707,181.35397229343653 109.25656575616449,161.54528110439423 101.6034841677174,155.28627627936658 92.63879273273051,162.11237385927234 92.17244570981711,179.52495943475515 108.13343593012542,159.51085922971833 100.95484132599086,154.51851609547157 93.64151002746075,160.92556559620425 94.10228536929935,181.0637772209011 101.63486543204635,186.38608601538 108.3574581881985,179.29488219216 107.21794253028929,159.81174133776221 103.17363781575114,155.25638815166894 97.54594409372658,155.23984970757738 93.18822450842708,162.11004711466376 94.69233230128884,183.6326872886857 102.03154350537807,186.5399082537042 108.05981738865376,179.45400545105804 107.00581091735512,159.4355577864917 102.87413185089827,154.46558350254782 97.75478393398225,154.8727125612786 93.56485922075808,161.20994482038077 94.04431958310306,181.535009833402 101.72935687750578,185.52712219383102 107.76074945088476,179.25017728388775 107.25512566417456,160.47417188237887 102.99478764366359,155.38738592271693 98.37952242977917,154.90052958740853 93.20871500205249,160.2913676725002 93.55181463062763,181.75062728626654 100.85318244900554,186.2121367668733 107.23361055646092,181.01879571785685 106.81048728339374,160.0530183617957 100.37778497114778,154.19999999995343 92.81141550093889,160.87046724406537 93.54265681281686,180.69945563632064 95.67839431390166,184.82443512813188 101.69644122291356,186.21964134974405 108.26564406976104,179.71358673693612 107.67107389960438,160.4102766563883 99.94960356503725,154.7380914973328 93.16520607098937,160.1058697726112 93.30887391325086,181.20588831685018 99.93747465591878,186.41167399601545 108.18172860238701,181.74076020531356 107.51627131551504,160.1919917325722 99.5505017535761,154.50015022826847 93.24070302117616,159.7359930163948 94.32805662415922,181.85711985907983 89.52690693270415,180.68801345629618 91.3134695161134,183.61575385311153" stroke="#4dd2ff" stroke-linecap="round" stroke-linejoin="round" stroke-width="0.5"><title>2016-12-05 3.5 km</title></polyline><polyline fill="none" points="143.12254613731056,181.28851071931422 142.06953963823617,162.67250400956254 135.8398582758382,157.7282794129569 127.8019268848002,160.64680876210332 128.3627940295264,180.21739114332013 135.22412552684546,185.73763377545401 142.26114741433412,181.26729565148707 140.49986887257546,162.4904067510506 138.25654232222587,158.72842961002607 133.97673924360424,158.20624315424357 128.4461491899565,162.88732276076917 129.29783882759511,182.01086327421945 137.40509061608464,186.59999999997672 142.17367764469236,181.17660525103565 140.79710519034415,160.1905038204277 137.83479079138488,155.65841476095375 134.1038590706885,155.2123004050227 128.2906370619312,161.589283078094 129.16370080970228,181.63407891185489 133.939154420048,185.50715921260417 145.9252971317619,179.50150571088307 139.80489037558436,157.4232691678917 134.18418032769114,156.69048104796093 130.04536023736,158.90580808534287 128.75306429341435,163.53321163821965 130.0664593335241,183.44735041982494 133.15993608999997,184.7267393306829 145.92610222194344,177.74751552729867 145.20640363823622,173.16444619139656 142.33953319955617,174.27705974376295 140.20469192508608,158.43662414117716 131.7420315258205,156.6137268950697 127.63388063013554,161.28554913646076 130.3874189723283,182.98963207181077 138.41677819751203,184.64820483897347 141.4364725612104,177.00136356567964 140.43890600651503,159.53194320679177 132.46593179088086,155.89481041266117 128.15365541167557,162.4585430844454 130.06173635367304,182.81856698321644 135.6932911062613,185.40687495248858 141.54901029821485,181.15026521135587 140.75533601362258,159.54638835962396 135.11786059848964,154.19999999995343 128.60673581343144,161.2284046660643 128.53784992732108,178.8234310427215 132.52071452047676,184.89882377989125 141.0565868234262,183.0367071214132 141.51852148026228,162.46673500619363 137.4624407440424,156.9752022702014 128.23029537685215,159.97508767154068 126.07389777712524,179.62742241926026 133.911620602943,186.20609687792603 139.69036486186087,184.73020289628766 142.03534729778767,180.28146824636497 140.87751010153443,160.0302336284658 133.93871368002146,155.48099507275037 128.24575653951615,161.5835739034228 127.84394717589021,181.98793539777398 134.00281070824713,186.15309889789205 141.7699929960072,181.5218170217704 141.732200874947,161.4291883383412 134.42324034590274,156.18793105403893 128.25373411085457,160.7123900189763 127.57765983231366,182.54233285796363 135.48794253077358,185.95503152383026 141.57246968336403,181.59947783185635 141.21324185002595,160.31623443134595 134.36930785421282,156.40401658089831 128.6584420548752,160.98827114736196 128.5682838773355,180.90225232380908 134.3298685392365,186.02157138718758 142.40620283409953,181.14087589050177 141.14429319929332,159.81652720679995 137.08916508965194,156.7879101219587 130.2367760008201,157.46292430954054 127.39086609520018,177.5057487183949 129.616550472565,184.5068067208631 132.74011443927884,186.33171894412953 141.8611941849813,182.77865851076785 141.71018260810524,166.44415690691676" stroke="#4dd2ff" stroke-linecap="round" stroke-linejoin="round" stroke-width="0.5"><title>2016-12-05 5.1 km</title></polyline><polyline fill="none" points="179.30296076927334,171.05811733356677 177.10554839484394,158.13926131126937 171.69430966861546,155.43060348613653 167.09266704507172,157.2913353429176 164.7907629404217,163.39622456138022 166.95875608641654,182.8902494785143 174.9659372717142,185.04349489940796 179.50226306263357,178.4926437945105 178.25528226792812,159.00952966313343 173.2327960403636,154.41261382645462 167.69669084995985,156.07817704544868 164.9069197382778,162.6971814641729 166.60876016225666,183.17984468559735 176.4602864915505,183.583907347871 180.0125855812803,172.2738951293286 178.68858742434531,158.5081477240892 168.37336000427604,155.15457345056348 164.79049791488796,160.0411454461282 167.00908700656146,182.68179993529338 174.41598168946803,185.4426411690656 179.41490960959345,179.83920921536628 178.3701925734058,159.7988461041823 171.80917074996978,154.82499353413004 166.59013144951314,156.43925204931293 164.31731703318655,176.59626524953637 168.4864041050896,184.8802585331723 174.63181555084884,185.7817157804966 178.53856448922306,182.03527736791875 178.89983487594873,163.2266289134277 172.40312463138252,154.19999999995343 165.31305744498968,158.73529232293367 164.43885431904346,175.367602620041 169.90548847988248,185.7081354969414 175.40798157732934,185.56480265711434 179.25618577748537,180.28287328011356 178.17221968527883,159.44984408619348 169.66838541720062,154.65404049842618 163.80540920980275,164.34190117521212 165.5769392605871,182.09144086716697 174.7260274356231,185.61313834402245 178.18240294139832,183.27591195853893 179.56794500816613,176.65591064456385 176.95896776020527,157.61996158678085 168.48686029575765,155.44192012329586 164.24990613479167,162.80408373766113 165.41116589214653,181.35192382126115 169.21973676420748,185.49997134436853 173.94419837091118,185.76532432204112 179.07405675388873,180.13866545795463 178.4366677198559,158.94601035502274 170.12094708625227,155.0797638965305 164.65931440982968,160.70832761679776 165.46873643342406,181.82205056305975 174.54729128815234,185.5612814029446 179.54118553176522,179.65146213013213 178.36710405629128,160.12121508666314 169.75865676440299,154.90652023279108 164.3118560547009,162.72558589372784 165.42968523595482,181.0040895648999 173.64161442685872,185.97542661242187 179.06866957433522,180.3753169986885 178.0779454605654,159.5180284375092 171.29047672636807,155.03680970089044 164.40140951424837,161.9828242539661 165.1074497681111,180.36832903441973 167.48757059313357,184.46613715880085 173.03574733249843,185.95503198064398 179.2017100220546,179.98279426794033 178.20460116118193,158.91936515865382 170.46070313826203,154.630135221174 164.46631662454456,161.2324594493257 165.9205773063004,181.99952719034627 170.33493538107723,186.00880436284933 176.16676326375455,185.3681104342686 180.19459079019725,178.5836182620842 177.97048869449645,157.48616106563713 170.118728925474,154.55167313234415 165.95116225909442,156.7862064819783 164.4075325196609,178.92125249363016 170.604545885697,186.24602445436176 179.44300199858844,181.97771724150516 178.05958655662835,160.25067153188866 171.48995530419052,155.59539293299895 164.87022172566503,160.2689558751881 166.26707744505256,181.94593777530827 173.29182790964842,186.09075811482035 179.75572332646698,180.69787112833 179.50922487862408,160.21721791278105 170.32676449790597,154.92437800439075 164.1524342522025,160.96323903976008 165.62131429743022,182.200330950669 172.73893202561885,186.5875696160365 179.55995536781847,181.3207298448542 179.09305402822793,159.61822614294942 170.5581739069894,155.10825972724706 164.9777881493792,160.9653699885821 165.66472752019763,182.4157596899895 173.0118174739182,186.3116443270119 179.44002863951027,180.60378122562543 178.73797236010432,159.63921591150574 171.43816141225398,154.3146703967359 164.55247749295086,159.9932168762898 164.84156829491258,180.52242383896373 171.79759954288602,186.38169291766826 179.8950183633715,181.2852484236937 179.51630352903157,161.24014247616287 171.35096439067274,155.37752505217213 164.74228350259364,161.06212591624353 165.50974394474179,181.47562274162192 172.5949899032712,186.44021771405824 179.37715760059655,181.03246745234355 179.64474431890994,161.23484674515203 171.8833226300776,154.7582538801944 164.40203462541103,160.10110270616133 165.07121334131807,181.40565506042913 172.76780364848673,186.46995698555838 180.1113803042099,180.10062436189037 179.29013155587018,161.3015562267974 170.86966963205487,154.5351755269803 164.49718728847802,159.41962849989068 165.42714264709502,181.70532970118802 172.81792794913054,186.59999999997672 180.0059625795111,181.54237421322614 179.5293234186247,159.73639214679133 170.6040018638596,154.66492036741693 164.61090507917106,160.16860485239886 165.0796098364517,181.64532240491826 173.08449952863157,186.38088498823345 179.50498513318598,180.20575727964751 178.91725721769035,159.99535742984153 171.40084238629788,155.54889677872416 164.83853717986494,161.87601074844133 165.87318434007466,180.83429431857076 172.06202706228942,186.20195147558115 179.31856974214315,181.1694068282377 178.61463534832,159.8756035977276 171.22663430776447,155.17175917024724 165.16106401197612,161.0834132124437 165.7747837426141,181.5271658175625 173.01319813355803,186.56004530237988 179.70459032524377,180.0030073202215 178.9350554831326,159.63272808131296 170.5456431740895,155.03292239725124 164.8004959775135,160.6509369876003 165.9411834506318,182.66421119472943 172.38350513856858,186.4470048689982 179.34691370278597,181.01135492965113 179.00374865345657,160.61869824072346 170.47299273312092,155.29129836754873 164.66187596134841,160.9577623399673 165.38119875546545,181.1550022198353 172.84699115902185,186.58412928809412 180.03115625493228,180.08983024011832 179.33702942542732,161.14449951797724 170.5569508979097,155.57369946606923 165.06493716873229,160.43128479889128 165.12348184920847,181.40939927555155 173.13288447633386,186.49508178443648 179.3790086787194,180.77737738436554 179.14794867206365,161.40102074551396 170.74582734610885,154.77441760455258 165.04243311751634,160.8187818530714 165.93739669956267,182.52331556752324 174.2037960011512,185.63091259310022 179.62498688977212,179.49078332993668 179.12729312106967,160.68896507285535 169.85586614906788,155.3666881050449 164.8771548019722,161.78300343221053 165.9351917700842,182.2145475023426 173.53626236878335,186.0906495738309 179.5990768186748,179.56194159586448" stroke="#4dd2ff" stroke-linecap="round" stroke-linejoin="round" stroke-width="0.5"><title>2016-12-06 11.1 km</title></polyline><polyline fill="none" points="18.576194112189114,200.6347158307908 20.00967243220657,221.0252884386573 26.15556729119271,227.08166884898674 34.698805880732834,222.92755866318475 35.59838895872235,202.04931664373726 30.30358645506203,196.52523429132998 21.531937851570547,199.4946748878574 21.71087847929448,220.37763221329078 27.06496616266668,227.18806350929663 32.67940662894398,226.09582705714274 36.13281699363142,221.2584214269882 35.82183240074664,203.10114995925687 30.318251269869506,196.48873665509745 21.89293895289302,198.99688590643927 22.168745644390583,225.44933183141984 29.736789440736175,227.0932864502538 35.88020423054695,219.54928541125264 36.01665188744664,200.59057802287862 30.676420260220766,196.5360077220248 24.05279161222279,196.94350736949127 20.75088293850422,202.6798467617482 21.81799010746181,223.4037801201921 31.292624146677554,226.99497230595443 36.73592993803322,219.00230007059872 35.12051396910101,199.35569477593526 30.472041422501206,195.93586671794765 23.62581312470138,196.67260397807695 20.602498902007937,201.50538113527 20.87184743396938,222.94415099709295 30.513687848113477,227.21848642418627 37.19876566994935,217.97574158292264 35.57020981516689,199.72092211199924 27.484425250440836,195.2390762922587 20.96729884017259,201.59006269881502 22.132962776347995,223.45185851608403 29.368894637562335,227.06593201647047 36.64817622862756,220.6514783356106 34.75896677467972,199.58138642646372 25.825969014316797,195.15676417469513 21.16989582963288,201.9883569420781 22.166580739431083,222.4785149851814 29.310552841983736,227.40000000002328 36.728178408928216,221.82829530735034 34.57479835767299,198.76969776663464 24.59053300600499,195.34147361607756 20.569455375894904,202.30491236585658 22.10876575112343,224.23640028806403 32.05347563140094,225.78280659846496 37.17240126058459,217.9995167348534 35.506275525316596,198.80200162075926 24.007738914340734,195.10287790291477 20.68820225354284,199.49931191210635 22.383145918138325,224.53328703937586 28.371766007505357,227.19491314620245 33.92429128289223,224.9702704132069 36.81006318330765,213.52375565550756 34.362244023010135,197.82215006044134 22.385326365940273,197.34475963166915 22.42928451858461,224.62289632367902 28.306898850016296,226.99035648663994 33.85543762333691,225.1518259732984 37.423805887810886,214.92335681722034 35.31232849415392,199.66211044427473 23.13155521545559,197.6601160374703 20.953920543193817,203.02571930119302 22.971377956680954,224.21352195180953 31.784869430586696,226.66976491035894 36.12358935363591,219.01638138003182 34.63852539565414,199.39357676391955 24.340451494790614,196.7234007625375 21.43829559162259,202.06538389413618 22.33142837230116,223.0624861215474 31.64480761345476,226.55869428778533 36.41951872128993,219.05271204642486 35.0897401003167,199.4873581463471 24.43697740882635,195.53470008273143 21.03782004583627,200.94005969318096 22.132913636043668,223.8381194646936 31.54278232064098,225.92326662119012 36.328435802832246,218.30735506175552 34.61718613561243,198.99370171118062 25.805484137497842,195.60511787887663 20.979037513025105,202.41627015499398 22.784753824584186,224.23549959633965 31.93203985132277,226.1859721414512 35.71853438206017,219.44092287006788 34.82402019016445,199.43696595996153 25.02584877796471,195.0 21.21132712997496,202.00907651905436 22.27064338326454,222.56270163750742 30.437859307974577,226.61965046299156 35.46908730827272,220.82164594554342 35.48181873001158,202.47911164304242 33.17777594923973,197.63178254757077 27.54374062269926,195.48985411052126 20.9856692943722,201.27623188099824 20.75414306577295,221.95590960548725 30.151281205937266,226.86751197115518 36.58776813093573,220.3574744523503" stroke="#4dd2ff" stroke-linecap="round" stroke-linejoin="round" stroke-width="0.5"><title>2016-12-07 6.3 km</title></polyline><polyline fill="none" points="53.36274215672165,195.0 59.399299564771354,199.6064700538991 62.90103970700875,221.80218435265124 65.72963365260512,225.61072952265386 71.52836450235918,225.4674103378784 73.91264867316931,222.65371276822407 73.34856584109366,204.79715470573865 68.10384471993893,199.79632747813594 62.43085811799392,204.24520533776376 62.54827872524038,221.69922982074786 65.5533078443259,225.78031839220785 73.11073982203379,224.62924176093657 73.7394151831977,206.37755613413174 67.06090976530686,200.4595712859882 62.059874824248254,204.36171751713846 62.500816653482616,221.91134634404443 69.24671989725903,226.67564853967633 73.85719826631248,223.55880605813581 73.59038162976503,204.44547556573525 67.2570102326572,200.44927326519974 61.67257575131953,205.3792000170797 62.47320884699002,221.17219068144914 67.42114283377305,226.57872324972413 73.39113443018869,224.20655687409453 74.09246879722923,207.37366336770356 68.89405087474734,200.96908971702214 62.76813395880163,204.3554874327965 62.68926837481558,222.1378107201308 64.89342577988282,225.5775209495332 69.18523544585332,226.40173036127817 73.6694789356552,222.98341807874385 74.16000858368352,211.18227988050785 70.6907632322982,203.01237024529837 62.75965153798461,204.57597282947972 62.259302601683885,221.2993120335741 64.76908292993903,226.4787027388811 73.29044619901106,224.92200853745453 74.06976151606068,207.66651318001095 67.87054566014558,200.85268994548824 62.04745937883854,205.15746838843916 62.802318308502436,222.0975042382488 67.95005916245282,227.40000000002328 74.49931392958388,224.48265390121378 73.55947701400146,206.05076163890772 66.8622343572788,200.79077702376526 61.88248964725062,204.64058441703673 63.24852982535958,223.12619370501488 69.49477867363021,226.6369974508416 74.52546196198091,222.34133459755685 73.50655708042905,205.6164043257013 66.91167918872088,200.82887764193583 62.43804251495749,204.54471552430186 62.58074753684923,220.79587331344374 67.8385590724647,225.72331840894185 74.04281296906993,222.40616374532692 73.65671211434528,205.460449349368 67.04177826689556,200.8166100764647 62.41298252111301,204.13951822405215 62.87182738631964,222.80801992490888 68.16854607872665,226.48793244420085 74.10213544638827,222.19194770953618 73.73832179652527,206.1255060089752 67.62223920738325,200.98906456888653 62.12158063426614,205.26021304517053 62.4452665024437,221.3943413856905 67.79707395331934,226.49588407797273 74.49761393945664,221.57243730407208 73.95819900464267,205.47172016953118 67.91309216804802,200.88242490659468 63.412002264522016,202.3634200001834 61.7194272428751,205.88965858053416 62.83336576772854,224.1579706876073 69.8798886272125,226.44083302421495 74.63725784327835,220.94818896008655 72.7706651207991,203.06517980759963 63.86985673196614,202.05457695643418 62.00121814990416,212.30204299010802 63.84694546600804,224.28272519260645 72.93769637448713,226.85673761961516" stroke="#4dd2ff" stroke-linecap="round" stroke-linejoin="round" stroke-width="0.5"><title>2016-12-10 5.2 km</title></polyline><polyline fill="none" points="107.29056127835065,218.67483586841263 105.60338210128248,199.79238317837007 96.21600917447358,197.0587141084252 92.30173493735492,203.86962468130514 94.65353256091475,224.96164908260107 103.45558474306017,226.2595328920288 107.38975201360881,219.39951213262975 104.94467534124851,198.82997552421875 99.4254132527858,195.4001405137824 93.85600041318685,198.24068681523204 92.99145595077425,220.38754864851944 97.79225553385913,226.51703125005588 103.17122418992221,226.17452741565648 106.56090048793703,222.40972860425245 106.97921002749354,202.520635019755 100.08519814349711,195.83473227755167 95.74184012319893,195.9257361331256 92.33810984529555,200.63219397049397 93.0977537073195,220.7425102731213 99.55278792697936,226.67257616505958 106.80595336668193,222.46087212848943 107.03903932310641,202.29323183197994 100.36750568263233,195.36212068004534 92.74889545049518,199.8814230688149 93.17658910807222,221.234711087076 98.62174613773823,226.9000247074291 106.98257672879845,221.79947836673819 106.53404666762799,201.07991840643808 98.20530882105231,195.5106437675422 92.82307381369174,199.6316559520783 92.42916860152036,218.18265836581122 97.77142352517694,226.4913365500979 105.95332761947066,223.85787115397397 106.73826156929135,203.30267453251872 102.2599274571985,196.43911778647453 93.76475815288723,197.8403590626549 92.61725851241499,220.834439342143 97.46760908234864,226.59156580653507 103.7136750575155,226.3891362522263 106.85326364263892,222.53442016802728 107.20156542304903,206.00451042037457 101.96829817350954,196.31453380861785 96.94011837244034,195.93315881874878 93.59565833117813,199.27632534515578 92.42717856261879,220.5902532847831 97.59520479198545,226.3377101320075 106.48523922171444,223.41617638932075 107.33793525304645,204.95102368819062 104.63550827372819,197.86597725644242 98.55385638959706,195.0 95.05243180971593,196.8783146282658 92.34226605016738,203.79160221014172 93.90826396178454,224.20425331848674 102.28673010133207,226.7243341335561 107.55933917406946,220.74516006186604 106.39913653023541,199.31433925998863 96.25687200948596,196.79190215736162 92.64720701426268,201.95902379299514 93.3893287749961,222.65851952589583 98.12287232838571,226.82191754400264 103.47535692714155,226.51267282560002 107.84564414061606,218.16779296670575 106.16197250969708,200.2470969283022 102.71183778811246,196.3469189115567 97.65573916770518,196.00111192371696 92.7097482085228,200.99646530637983 92.04563083406538,222.35367300990038 100.30186141747981,227.29352726764046 107.31272059399635,221.23937037284486 105.87932698708028,199.7688927067211 97.32263236586004,195.6278668581508 92.339730149135,202.0976108739851 93.80423422995955,223.25975555949844 101.57666077557951,227.0538927584421 107.36202565487474,220.7226762882201 106.00990161579102,200.24470003857277 98.05408740602434,196.2453330482822 92.38411291316152,202.7791205312824 93.36064900457859,223.42565355426632 100.51437727361917,227.3636438169051 107.69930474739522,220.79117090220097 106.67602666467428,200.90995138615835 102.91655279602855,196.45146344497334 97.74124055728316,196.20082630985416 92.58036298770458,202.11789574869908 93.1578201726079,222.37679831671994 101.7146924464032,227.18391415441874 107.58108293544501,221.13485347654205 106.75336834974587,201.19200118805747 98.43477964121848,196.2084286796162 92.70108533464372,201.3416902750032 93.22051298897713,222.98916075134184 101.92482097446918,226.94517500395887 107.7883344842121,218.87875554163475 106.47072379570454,200.98742856353056 96.37336077541113,196.45266848010942 92.70389455650002,201.79137965699192 93.9633157895878,223.10425513901282 101.73925258312374,227.04906711215153 107.74772895965725,218.58713709772564 105.9023518897593,199.10413998062722 96.73765425942838,196.6285886077676 92.36329165380448,202.7367629490327 93.92990502901375,224.34332096099388 102.08569588791579,226.5058364479337 107.68103108834475,219.77731208200566 106.3905106112361,200.2837447001366 97.619488469325,196.22255937790032 92.62940744310617,202.42170797474682 94.12062671780586,223.58689704781864 101.45216528791934,227.16056127403863 107.11177418008447,221.97444193961564 106.65593529678881,201.5915662579937 103.75876980833709,197.25247884180862 98.19816053844988,196.1149313095957 92.85053002275527,201.85112916026264 93.70892310328782,223.36763518420048 101.19545140303671,227.40000000002328 107.55702735856175,220.13960573344957 106.85461958497763,200.94765787827782 102.8704087510705,196.56549369660206 97.7059306902811,196.01183926756494 92.60450269281864,202.0999232897302 93.56670371163636,223.50883329252247 101.10454024840146,227.35905793937854 107.95436916686594,220.02390732918866 106.11474409420043,199.6509777305182 97.01791808195412,195.99100977240596 92.55631112400442,201.75449401093647 93.31249827053398,222.81378801038954 100.76018246542662,227.17673795390874 107.63871571887285,220.42101225582883 106.59584046155214,200.1853823197307 98.47368477564305,195.4035705368733 92.76608378905803,201.6183426543139 93.1201024223119,220.98091006302275 95.01498452480882,225.24968348175753 100.0096793230623,226.89982517191675 107.57806798163801,221.11510697356425 106.43636066932231,200.75768787728157 98.87860954552889,196.09603305975907 92.76453682687134,201.20617456058972 93.00443009380251,221.81133487145416 100.17337771039456,226.75174740247894 107.19389642775059,221.49830941436812 106.36533058527857,200.88688366406132 97.56148551311344,195.69027539948002 92.4184334333986,202.56951891235076 93.50156867131591,222.09140656364616 100.34284622129053,226.74645133072045 107.3937385333702,221.31488602678291 105.87377430126071,199.69360571191646 97.88322898745537,195.72897381649818 92.4823853187263,202.07762953219935 93.20718881674111,223.23633319605142 102.36784427706152,226.16472638060804 107.44354597758502,221.09233267372474 106.77799974381924,200.4762005378725 98.96723944414407,195.92176639346872 92.77588345576078,201.1798548810184 93.12347868084908,221.9627915417077 100.92952450551093,226.6144810912665 107.70075498428196,220.27286380308215 106.21183244138956,200.25976475467905 98.69106434378773,195.96700713632163 92.67142440285534,202.5348059515236 92.98115330561996,221.2649103582371 98.879777520895,226.97910715616308 107.30103416461498,221.8357188545633 106.59218405745924,200.4949597363593 98.17072225362062,195.69465279590804 92.63804693333805,203.32081700721756 93.48863498028368,221.94390690082218 100.31014809571207,227.10402500617784 106.8199718054384,220.79183969693258" stroke="#4dd2ff" stroke-linecap="round" stroke-linejoin="round" stroke-width="0.5"><title>2016-12-13 11.1 km</title></polyline><polyline fill="none" points="119.79999999981374,223.87140356376767 125.90650492394343,222.91174589598086 129.27801032084972,217.84173119568732 149.3502420913428,215.56352994852932 150.93341026641428,212.731253414182 151.15197420632467,203.38007578416727 149.38956914516166,200.77723857748788 146.68894542893395,200.54354900016915 144.6446157032624,203.4526941482909 144.32796471798792,214.37041668460006 148.0585165116936,216.49732165160822 151.12326127430424,215.44092114496743 151.05735541600734,201.45126941578928 146.2872256678529,199.17684891726822 144.54024073388427,201.1513726648409 144.65587804932147,214.21102284576045 149.0261635161005,216.37240113964071 151.956721493043,213.47875879326602 151.58032425725833,203.98719806515146 146.11288371868432,199.77398350590374 141.60823344346136,210.60173933772603 141.84756086114794,215.22818431357155 146.71219199663028,217.58990331488894 151.2363644107245,216.62970772135304 151.56191296689212,204.26408088719472 150.54166928771883,201.66026235715253 146.40790713159367,199.0388460822287 144.19540546135977,200.7920337007381 142.13631379744038,209.35920657537645 142.5188784901984,215.05989304184914 148.6345122414641,217.38600357348332 152.111541362945,214.5486882518744 151.09591133566573,203.84248991054483 145.62488835211843,199.85683720739326 144.06921207951382,201.4602144783712 141.6526202429086,215.666520460858 149.91820058459416,217.1316593530355 152.1999999997206,213.68307481973898 151.2362160324119,203.09868224605452 147.20013427222148,200.53639339481015 143.74703379906714,202.76215898775263 142.13183067599311,214.94573739083717 144.36601513670757,216.91972540831193 148.29292728425935,217.23077582742553 152.00773640628904,214.27399188507115 151.1376006938517,203.43478327535558 144.66416244581342,201.02802557166433 142.2018819525838,211.3454651690554 143.0675445315428,216.06920753244776 145.5748821888119,217.71486263361294 148.453130654525,217.24715154833393 151.31281852629036,212.78825507167494 150.85866536200047,203.60586912330473 144.4541397113353,201.4512320853537 142.70770243555307,215.76746359094977 143.88213274488226,217.63607011106797 147.31435790238902,217.8582948060357 151.03719904553145,214.4854808935197 150.93683335883543,204.73047322861385 146.04360783612356,201.89016624639044 143.74879477079958,204.14191700035008 142.95210464997217,215.6900069921394 147.24048367328942,217.8025140639511 151.0475207110867,214.85231446888065 151.18098228564486,204.13492947997293 146.31829884368926,201.57935583783546 142.34429954970255,208.84019010019256 143.25169925624505,215.55400144291343 146.96545566432178,217.68515460478375 151.3760588024743,214.3638075926574 151.53359975572675,204.7456007389119 147.2615891220048,198.52859643631382 144.02465992886573,202.5205236444599 142.54404035303742,207.72640270506963 142.76851357193664,216.3328631577897 145.86935273511335,218.16833200783003 151.3747772281058,215.34025464899605 151.46838109195232,204.46555154008092 149.84380609262735,200.80919979134342 147.54088093573228,199.79925434227334 144.11869111983106,202.54960581031628 143.12703722715378,213.27904201491037 145.38293201010674,217.33502155542374 151.0222486006096,216.03024167072726 151.6467782491818,204.0851015635999 148.61339944321662,198.8378389145946 144.34521782724187,202.23526817193488 143.88987895473838,213.88770054047927 148.2647850252688,217.26681462134002 150.63920082803816,216.27722695708508 151.8513941843994,213.54800703376532 151.279738498386,203.01116701069986 148.56888242904097,200.68610895663733 145.10511916922405,201.27409488352714" stroke="#4dd2ff" stroke-linecap="round" stroke-linejoin="round" stroke-width="0.5"><title>2016-12-14 6.3 km</title></polyline><polyline fill="none" points="180.24982318654656,214.53308999422006 179.356608803384,200.97481122624595 174.47480423282832,196.10053396958392 169.283019579947,195.93992002913728 164.77387242857367,202.93516251596157 166.06753313541412,222.8990563021507 170.09520718362182,225.98005686153192 175.95470659434795,224.57608162867837 179.75180444400758,214.03494214639068 177.26370823662728,199.19494729756843 168.08027562871575,197.6325534596108 165.07083993777633,204.96011380525306 166.06767205614597,222.650269628386 174.166389323771,225.45235642802436 178.95487389620394,219.42623540305067 177.47099765762687,198.82052664505318 173.59263966418803,196.05253985256422 167.69838072918355,197.20723954157438 164.52786047011614,202.77655690710526 167.02276340406388,224.23359594494104 174.64475984778255,225.83655281655956 180.00077664945275,218.4775660324376 177.4163063261658,199.05483010446187 173.17125368770212,196.10710282670334 167.07060941308737,197.3746935443487 164.67949886154383,203.48702727735508 165.8220036914572,223.4294294208521 173.95323584135622,226.26675764808897 179.02277162391692,219.34959670703392 177.57832187600434,199.5795527541777 173.75287556741387,196.74827649397776 167.77974460460246,197.75693765026517 164.34355185832828,202.91886297042947 164.1864944268018,212.05084496096242 164.69197824969888,221.2751344180433 168.07919055968523,225.7671730312286 174.50213610194623,226.1470227211248 177.96120095811784,222.36155169503763 178.1789971459657,203.2030779669294 172.91001816373318,196.60248571715783 164.87953779567033,200.78425446583424 165.28012800309807,220.95470065355767 170.34260605555028,226.61018445610534 178.74084220919758,221.2029589668382 178.92051890864968,204.62955305690411 174.27721235528588,196.5726201350335 168.71171677205712,197.1555953164352 164.95574478060007,201.3174169905251 165.38603161647916,221.08808663475793 169.24742969498038,226.63826465199236 174.42720468249172,226.70714909164235 178.08343547862023,222.96181611868087 178.34430755954236,202.63178408378735 172.10205954313278,196.85156828165054 165.21460485551506,200.34734693798237 164.6518995091319,220.9737241229741 170.0338474167511,226.8244284039829 178.19808132667094,222.81502385181375 178.29456372000277,202.3075990214711 173.12949307262897,196.63918827753514 165.1310657840222,200.5995568265207 164.59609157405794,220.027882014052 167.83427995070815,226.1094173557358 174.28792513348162,226.22627162677236 177.6458808425814,222.35386998171452 177.76720380131155,201.2525637402432 172.11573045235127,195.9470915242564 164.87915636971593,201.41743654664606 165.36049465741962,221.56969609519 171.8433074662462,226.51132167200558 177.84070123545825,220.28127378586214 177.27865182422101,200.4251067789737 172.05856375582516,196.35133429954294 164.9087457805872,200.4697910345858 165.09123026859015,221.5004468957195 172.33466515224427,226.36123177944683 179.58960111625493,219.99403014790732 177.55239921156317,200.47226435237098 171.05374037660658,196.16183520504273 164.80094601027668,201.9173837020062 165.56853243522346,222.014252649853 172.9745141118765,226.24390114773996 179.04267120268196,221.01237228466198 178.15406648628414,200.04911218280904 170.64080904610455,195.66021578584332 164.17795359902084,200.84068570670206 165.45733319967985,223.2603433188051 171.90894435718656,225.91793680284172 176.8764633797109,223.90792960091494 179.21297136694193,219.03017876436934 177.25466833729297,198.63332722673658 168.84668376948684,196.22282380552497 164.71410663984716,203.65345025551505 166.47578074410558,223.6809249650687 170.9674297356978,226.38771312322933 178.43870615586638,221.47363410994876 178.64191132504493,202.5181722624693 174.02520126942545,195.78158012672793 165.36818665079772,201.13369343895465 165.0992699507624,221.14423884393182 167.92552556749433,225.85200695390813 174.41840320825577,225.58569930226076 177.40371380001307,222.4265152378939 172.18404140137136,198.0983013205696 168.6351103791967,195.9139414980309 164.61578365974128,197.5430321067106 164.5720190992579,219.43089573900215 169.4760884018615,226.62327856640331 178.45109006762505,221.86052594822831 179.67906336393207,200.99149756657425 177.818255700171,197.58777614322025 171.19900052528828,195.82692464371212 164.97189754154533,201.48413584567606 166.03167262207717,221.8305659648031 172.264731076546,226.62929494131822 178.07044847216457,222.40679635549895 177.89560214616358,198.95878802635707 169.12501293607056,196.59761528752279 164.72293867450207,200.6585830176482 165.7379413638264,220.53418060648255 172.6771640405059,226.17675323667936 179.24008668027818,221.662555166753 178.2951903361827,200.27797216549516 172.35591691639274,195.98207125323825 163.4583139149472,199.98656467942055 165.27684638556093,222.4365913802758 173.8534265132621,226.84048195392825 180.5482748374343,219.7901287790155 179.58609726466238,201.12571668613236 171.95019092503935,195.06876031134743 164.11876769457012,201.94596584653482 164.94158163666725,221.419716940145 169.05867573060095,226.3171787461033 174.5827161865309,226.6959049385041 180.68360786605626,221.42378146748524 179.70215266942978,200.7499483685242 172.19729043077677,195.34169060038403 164.85978049132973,200.7198746027425 165.37617245595902,222.4024279533187 171.4258599821478,226.83269069099333 178.91366983484477,222.61121459840797 179.46403292473406,202.99912630405743 172.47369126509875,195.8381587866461 165.10912698786706,200.89355328772217 165.74561357684433,221.9528614814626 173.07485426496714,226.48822053463664 179.65056175831705,220.7349387347931 178.9361831722781,200.48412262403872 174.65223946981132,196.03770216810517 169.12990597169846,195.62138839659747 164.05339478049427,202.87741319427732 166.31551508884877,223.01672282104846 177.44110317900777,222.68050316674635 180.06692938692868,218.3306114039151 178.55234051682055,198.30034534970764 174.29563003685325,195.0 168.13035831972957,196.0506350734504 163.31639213394374,209.53877798642498 166.13634985219687,223.92150090355426 171.30930116213858,227.40000000002328 177.66042580921203,224.81097052211408 179.91833812836558,206.37852652010042 175.06905198283494,195.1829461257439 167.01236769836396,197.27104099246208 165.28601377643645,213.1513323385734 169.82483736611903,218.95528782124165 170.20949829556048,225.73685909097549 177.14707747194916,224.84160048060585 179.40521391108632,220.4441808119882" stroke="#4dd2ff" stroke-linecap="round" stroke-linejoin="round" stroke-width="0.5"><title>2016-12-22 10.1 km</title></polyline><polyline fill="none" points="21.537059164606035,236.71554948436096 24.043752569705248,265.08827079308685 32.413413835689425,266.7216002281057 37.13794375117868,258.68753388896585 34.86718886718154,239.84497490816284 25.747490279376507,236.60281769151334 20.991054040379822,242.74065220635384 23.164239855483174,263.574751221342 30.66089459042996,267.26742682943586 37.20414519589394,260.7355641963659 35.75210080202669,241.46414968464524 32.2778076371178,237.22542434255593 25.70287728961557,236.84653489827178 21.542524223215878,241.89585389150307 23.241970761679113,264.67683344276156 31.217067394405603,267.52386183151975 36.82803869061172,261.2033272316912 34.94454419706017,240.36936574580614 25.987317866645753,237.22169126581866 21.53811680804938,243.10763472679537 23.24419281166047,264.3629972358467 30.332721426151693,267.49761774612125 36.95645466633141,261.2745676204795 35.5432020612061,242.54717823746614 30.13608218356967,237.44556717050727 22.652022572234273,242.16870333440602 22.681592458859086,262.6744668512838 29.648711684159935,266.8007796749007 35.89983465708792,260.83891434047837 35.02586714271456,241.7070855080383 31.527161131612957,237.7193849250907 26.11504682712257,237.41541868040804 21.21056610904634,242.31166540132836 22.855556714348495,264.22778737032786 31.010394730605185,267.16975600179285 37.07512554433197,260.5841925011482 35.126724290661514,239.97231935267337 26.849574083462358,237.19684180116747 21.01806977391243,243.36475030810107 22.549718257039785,264.70747118466534 31.12901157606393,266.72846516920254 36.56994236540049,260.346585391555 34.435194563120604,239.5265004322864 25.653901265002787,237.09405743784737 21.04449938610196,244.22555836837273 22.728779929690063,262.9181829720037 29.779345206916332,266.866459414945 36.592118547298014,260.57858269440476 35.29949136264622,241.08490087185055 26.31524369586259,236.63274045253638 20.77122449874878,242.2235903213732 22.580802312120795,262.58408573584165 29.70471498556435,266.65932104876265 35.70288164820522,261.88841782987583 32.92896583955735,258.9351990725845 35.92838999442756,255.8677797249984 33.98046446219087,241.38513581093866 30.62386421766132,236.662439388223 25.92689268104732,235.90892649593297 21.19907254446298,242.90707835229114 22.00649777520448,263.37337337469216 30.28412160743028,267.17645231750794 36.80560853984207,261.47130604519043 35.544393627904356,240.52128524531145 26.425282954238355,236.16517965693492 22.467462107539177,239.63235578045715 19.913371991366148,249.659276689752 21.89711013622582,263.57238197757397 30.292097109369934,267.1802324160235 36.50270813796669,261.4317097639432 35.22974664159119,240.53942377970088 26.498794020153582,235.98458300170023 22.00626345165074,238.40652786253486 18.852538605220616,245.96442515100352 22.366906560957432,263.9540839167312 31.401511793024838,267.18156338238623 35.946337153203785,260.8489886658499 34.18839903920889,239.1813299175119 25.578836764208972,236.11738341930322 18.466815501451492,247.27759734587744 22.92953895777464,263.143775064731 30.31798947416246,266.9744241272565 36.42391456104815,259.9815297187306 34.8148481072858,240.16303597181104 30.088094029575586,236.28380119020585 23.753752431832254,236.74049759923946 20.482730933465064,242.27925997273996 22.453243703581393,263.01402359851636 29.358794892206788,266.9111528825015 35.9417126532644,260.8234460847452 35.19319836422801,240.19271595263854 27.26789431553334,236.21685033699032 22.787126561626792,242.2280267921742 24.014063387177885,263.9175108538475 30.908581416122615,266.2163051920943 36.55565521121025,259.53153868892696 34.96307349298149,240.37837011984084 31.383660042658448,236.89700035832357 25.299123108386993,236.68761767691467 20.537948336452246,242.71311304171104 23.06716824695468,264.3303888440132 29.86817529425025,267.57269184978213 36.31885944586247,260.4647015747614 34.75724429823458,239.56230969983153 25.51220402121544,236.5299715786241 21.063231990672648,242.2941339762183 22.633681369945407,265.11766076483764 31.863364782184362,266.8398476592265 36.82623997796327,260.4963218992343 35.01302201207727,240.13084826490376 27.01825509686023,236.28069697972387 21.95427782740444,241.76220831926912 22.75443776883185,263.47547924204264 30.433633027598262,267.4097168726148 36.44852420501411,260.37365477357525 34.478328904137015,239.883184177801 31.337979704141617,236.93303308682516 24.435020280070603,236.792616757215 20.37248678226024,241.3967685563257 22.48345472291112,265.2326250165934 31.507622078992426,267.1068906887667 37.53318449947983,258.8198796667857 34.91963291168213,240.82787898753304 26.430412974208593,235.79999999993015 21.395612835884094,242.49272909003776 23.549235469661653,264.9700116107706 31.574694398790598,266.82683253928553 36.78821766655892,261.297657752526 34.94960817415267,241.62176796072163 31.78835749067366,237.2840969475219 26.64773496054113,236.19854087010026 21.491614136844873,242.5724189186003 21.873482869938016,261.2488292985363 24.06831217650324,265.8125609809067 28.429104565642774,267.1817368360935 36.33850496355444,260.9269572967896 35.011274660006166,240.07416114455555 26.605647931806743,236.9695490890881 20.587613003328443,244.49112321354914 22.604293439537287,264.35536950000096 29.936593945138156,267.850500853383 36.573887462727726,261.55811216973234 35.98410361073911,242.7734869752312 32.49296594038606,237.41676414490212 28.153619579970837,236.7118614912033 21.501045618206263,243.53228811570443 21.394643001258373,264.13412939268164 29.647910077124834,267.5697412333684 36.56815189216286,261.03213353827596 35.253516824916005,240.2037722322857 26.495831223204732,236.11103559145704 21.937052393332124,239.7535166281741 22.168485750444233,264.5112995817326 28.27404543943703,267.9105978796724 36.5626833261922,263.07198132853955 35.45578604750335,241.7301906660432 29.860047939233482,236.70727224752773 22.1844953102991,240.15258717385586 20.41568029485643,261.4446834741393 30.10604488197714,268.19999999995343 36.152741679921746,264.1980829023523 35.95510053448379,259.47283361130394" stroke="#4dd2ff" stroke-linecap="round" stroke-linejoin="round" stroke-width="0.5"><title>2016-12-28 10.4 km</title></polyline></g></g></svg>