<?xml version="1.0" encoding="utf-8" ?>
<svg baseProfile="full" height="300mm" version="1.1" viewBox="0,0,200,300" width="200mm" xmlns="http://www.w3.org/2000/svg" xmlns:ev="http://www.w3.org/2001/xml-events" xmlns:xlink="http://www.w3.org/1999/xlink"><defs /><rect fill="#222222" height="300" width="200" x="0" y="0" /><g id="header"><text fill="#FFFFFF" style="font-size:12px; font-family:Arial; font-weight:bold;" x="10" y="20">Just Keep Running</text></g><g id="footer"><text fill="#FFFFFF" style="font-size:4px; font-family:Arial" x="10" y="280">ATHLETE</text><text fill="#FFFFFF" style="font-size:9px; font-family:Arial" x="10" y="290">Wilson Xie</text><text fill="#FFFFFF" style="font-size:4px; font-family:Arial" x="120" y="280">STATISTICS</text><text fill="#FFFFFF" style="font-size:3px; font-family:Arial" x="120" y="285">Number: 14</text><text fill="#FFFFFF" style="font-size:3px; font-family:Arial" x="120" y="290">Weekly: 1.4</text><text fill="#FFFFFF" style="font-size:3px; font-family:Arial" x="141" y="285">Total: 77.3 km</text><text fill="#FFFFFF" style="font-size:3px; font-family:Arial" x="141" y="290">Avg: 5.5 km</text><text fill="#FFFFFF" style="font-size:3px; font-family:Arial" x="167" y="285">Min: 1.1 km</text><text fill="#FFFFFF" style="font-size:3px; font-family:Arial" x="167" y="290">Max: 10.1 km</text></g><g id="tracks"><g id="year2020"><polyline fill="none" points="32.03974065836519,71.79488616390154 45.9968842221424,74.2059540762566 51.957722349092364,60.50623675901443 35.132971675135195,37.36162805184722 19.489713948220015,35.029727653600276 17.10246742144227,49.08129046019167 33.20910328626633,73.11606300156564 46.16913473326713,73.76556210941635 52.2124590203166,61.88128168648109 34.2013632748276,34.52596079651266 21.804178568534553,33.309315828373656 15.787540980614722,46.13474709261209 34.727819063700736,73.81942300242372 42.23163360264152,75.57782200328074 49.06100247707218,71.61429358436726 50.60883101820946,57.92406477290206 33.49052665755153,33.778231158154085 18.381002907641232,36.398452105233446 17.184953581541777,48.89119100919925 34.6234983317554,73.24596283840947 50.07024491112679,71.80439103674144 51.64476015139371,59.21673530526459 33.96360904723406,35.10576792387292 20.290314917452633,34.80794351734221 16.687610555440187,47.05039379512891 33.87627075985074,72.91646079765633 46.84358039870858,74.04753971053287 51.800028218887746,67.09630588209257 51.10860010795295,59.11218110029586 34.23290210030973,34.142590971663594 19.159769305959344,35.520821017213166 17.09761529415846,48.02940662205219 34.39059623144567,73.0748752465006 48.43265201989561,71.56676921830513 51.95287022087723,59.644457002868876 35.22516209073365,35.24200673471205 21.006003662012517,34.773091721581295 16.99572062585503,48.18148624501191 33.74041120149195,71.80122274626046 48.291940335184336,72.27329801372252 51.89464469626546,60.240098929265514 33.408040495589375,33.77506281086244 22.126845018938184,34.51962410565466 16.58328982349485,48.51732870726846 34.34450102318078,73.2808140127454 47.57139946240932,72.59646357432939 51.92375745810568,61.18425441393629 34.57982918713242,34.652694607619196 27.36714227311313,32.4000000001397 19.213142704218626,36.889545157784596 17.40087323728949,49.781489960383624 35.445933871902525,73.9271447842475 43.73336693737656,75.60000000009313 50.35166828241199,71.36716687190346 51.07220915611833,57.638916755793616 33.408040495589375,34.10773916589096 18.662426279857755,36.25904502440244 17.41057749092579,49.88287629489787 34.494916963391006,73.84160101623274 48.99307269882411,71.71884718490764 51.9407399026677,60.265445390716195 35.132971675135195,34.47843561577611 19.974926657043397,35.6285447080154 17.347499839030206,48.70425986638293 34.05579946283251,73.47724789567292 42.43542294111103,75.13109374325722 49.99746300559491,71.10736696328968 50.60883101820946,57.695946362335235 35.11598923057318,34.9631924147252 20.39463564939797,34.92517227702774 16.97873818129301,48.38742738380097 34.349353150464594,73.44873330066912 48.2773839533329,70.69232070469297 50.44628476165235,58.28525220556185 33.58999526221305,34.27249315101653 23.54124006535858,32.691488042706624 17.369334410876036,37.3236079569906 16.369796231389046,48.742279761238024 35.96025934256613,74.91565029509366 44.33017856813967,75.03287688014098 52.09358190651983,68.36045626900159 48.25554938148707,53.187434517778456" stroke="#4dd2ff" stroke-linecap="round" stroke-linejoin="round" stroke-width="0.5"><title>2020-08-26 5.2 km</title></polyline><polyline fill="none" points="118.94444747455418,70.30174470774364 114.72439847607166,55.23794342158362 100.10605943202972,34.38870774325915 93.72016518097371,32.40000000002328 85.07464680913836,35.55218833114486 81.15156422089785,45.82228069275152 97.62761795800179,70.87910067476332 110.20515023637563,73.39847020886373 117.13585504703224,62.1604245363269 101.33188318926841,36.66026444826275 87.66472979262471,34.36246381292585 81.65841666795313,40.39272682846058 81.94198609795421,47.516461758408695 98.57433794345707,71.73638649983332 111.18089701514691,73.53551915381104 116.75180825963616,60.67037271754816 101.15772243682295,36.63110455835704 88.61814826913178,34.99231805768795 83.04277136549354,39.73954641725868 82.30593741312623,47.516461758408695 98.62569303717464,72.04255991836544 112.42011775355786,72.51494167302735 116.96839278470725,61.24773148004897 100.03237603697926,35.81171147665009 86.83634980395436,35.16144555318169 81.73656572215259,45.349892599042505 98.32202813588083,71.91717461962253 104.99149181693792,75.10720745055005 113.01181774400175,72.31082611356396 117.34797391109169,62.10502145520877 101.26489828433841,37.462161253904924 87.34543507918715,34.96899012674112 82.57387703098357,47.28609987429809 97.18775041587651,70.48253295803443 109.9640045799315,73.38680646766443 116.00604298524559,68.21684676315635 116.71831580717117,60.05802233086433 101.94591148197651,37.607960638357326 87.93490224145353,35.310161097557284 112.0673305876553,50.75318921729922 99.86491377558559,34.91067029640544 88.19614337012172,34.02712466544472 81.89509666431695,45.67648191039916 97.67450738977641,71.75388212467078 110.39494079910219,73.55593069817405 117.01081655733287,60.79867467877921 99.6639590607956,35.2576732597081 85.21084944810718,35.86711529013701 81.98217703960836,48.65369092533365 100.73795036692172,73.12728822464123 113.6705026421696,71.43896084709559 116.37445996142924,57.76316468254663 100.34273942932487,35.5988441798836 87.87461582757533,33.68303748161998 82.27021212968975,38.975558343110606 81.99334119074047,47.92469794442877 98.71723907347769,72.22917988465633 111.92219662759453,72.7161412743153 117.49980636220425,62.670715998043306 100.58835074678063,36.91687146143522 87.99518865533173,34.09710849216208 82.04246345441788,39.56167135760188 81.60706157330424,48.26003474870231 99.20846170838922,72.5470169725595 104.68336125463247,75.59999999997672 113.42935698479414,72.21460019994993 116.87238108739257,60.47791975864675 100.05247150827199,34.98940206691623 86.4299747152254,35.1497815878829 81.06671667471528,47.67975624301471 96.42858816217631,70.75663124071434 108.23356120754033,74.63191037846263 116.17127241846174,69.06830185244326 117.5913523985073,60.55665051715914 99.52998925186694,33.9367288852809 89.31925693899393,32.712011464172974 82.14517364092171,37.847071605036035 81.05555252544582,48.37958959618118 101.78961337171495,75.38713696121704" stroke="#4dd2ff" stroke-linecap="round" stroke-linejoin="round" stroke-width="0.5"><title>2020-09-02 5.1 km</title></polyline><polyline fill="none" points="169.76909958943725,75.60000000009313 176.21124688256532,73.59251370816492 182.5124082462862,64.28262154129334 168.3956237817183,38.96306202933192 156.37543649505824,35.70232165209018 147.92765068728477,43.53640490001999 163.53160928934813,70.96139700547792 173.10273458063602,73.51827231305651 183.77445969264954,63.69759658607654 169.24608727917075,39.815367619972676 155.66141099110246,32.83951794030145 147.86625359021127,44.00561741623096 164.04552573431283,70.26055721798912 175.44492014870048,72.79961546743289 182.6897776387632,62.073186305584386 166.14894481096417,36.08244466269389 154.50396200735122,34.48176994174719 148.0913762813434,43.64034439064562 163.9454712048173,71.3830886259675 172.18405208643526,73.98450822988525 181.03660394251347,68.23821731563658 181.95301247015595,60.21120070712641 165.56226143613458,35.68450338370167 151.91846201755106,34.99256052845158 148.15732131153345,43.76210207352415 164.88461939804256,70.93467006948777 176.59099929966033,71.58502542693168 183.89952785428613,62.14445844711736 165.6441242331639,36.56947716418654 152.70298048481345,35.342986553907394 147.03625579271466,45.46076946333051 164.82094833347946,71.09206202416681 177.5051338598132,70.78618708183058 185.01149750687182,62.1919732070528 165.14385158754885,34.46692137629725 150.93383449316025,35.657775982050225 148.84405921492726,49.60052283690311 165.69415149651468,71.91762717347592 176.28628777805716,72.80258512520231 183.4219948751852,66.96423123264685 175.89743949472904,48.33246441697702 161.14621835760772,33.326551222475246 149.02142860833555,37.99790718220174 150.01515199802816,50.078643017914146 167.03806573990732,71.25539328576997 174.85823677200824,71.65926689351909 181.92572487238795,63.789656362263486 166.61283399164677,37.17232821020298 155.73645188845694,33.75122039113194 148.5211559617892,39.64906411804259 148.22099237516522,45.65379975899123 163.8636084087193,69.5983227880206 169.3529637074098,72.85306929168291 176.94346411619335,70.22195162856951 181.04115187563002,59.314358547795564 165.64639819972217,36.239839325193316 153.48522498458624,34.594619035720825 147.40691234357655,44.70349659002386 164.2001554602757,68.89748252788559 176.67286209575832,70.79509606142528 181.1343845045194,60.63586423895322 166.41272493358701,36.622931943740696 154.72681073192507,34.149162048473954 148.080006448552,46.19725418300368 165.16431728564203,69.64583737310022 174.84004504047334,71.87011264148168 182.91035239677876,61.88312724768184 166.92209344450384,37.73657286725938 156.6119290171191,33.03254943829961 147.06581735797226,42.33070641825907 158.48112953826785,63.06505672307685 172.1522165555507,72.54422495746985 180.49539989978075,69.0251780168619 182.62610657513142,63.71244493778795 168.66167787089944,39.11154735018499 160.10474166832864,32.4000000001397 151.55690133292228,34.383769407868385 146.9885024940595,41.7040992884431 157.81940526608378,62.55427321512252" stroke="#4dd2ff" stroke-linecap="round" stroke-linejoin="round" stroke-width="0.5"><title>2020-09-21 5.0 km</title></polyline><polyline fill="none" points="15.821295363130048,87.26341812722967 12.815882010851055,83.77383762178943 12.399999999906868,85.47080582845956 27.362533344421536,111.3479529026954 24.52613608073443,112.16929820127552 22.075914970366284,110.73194295863505 24.77658719336614,120.22616237823968 30.79663295694627,118.71124734080513 32.80587572744116,116.79034121788573 29.326192988548428,111.81882204962312 28.740270548965782,112.82343045138987 24.74124746583402,113.0214089434885 23.18681162316352,115.57706277954276 26.170713836560026,118.70790315204067 28.549231152050197,118.05444817667012 45.05185957998037,89.68142691717367 42.952987065538764,89.62390320526902 41.40162424254231,93.91140649715089 45.68951118597761,100.63287307854625 51.097513841697946,103.01469253539108 53.59229373908602,101.45624425463029 53.63736469601281,97.74872122050147 51.792528483550996,94.36289630891406 50.142316857818514,93.43851224528044 48.221679490758106,94.02645283236052 47.44420548458584,95.8404353982769 50.78969969297759,101.57329527608817 53.267065811669454,102.66354049032088 54.8706699705217,101.80806609126739 55.30550227034837,100.36198296787916 51.943618623306975,94.24985667935107 49.993787568062544,93.57563156250399 47.44215680472553,95.60900587053038 49.559979608049616,99.79277877896675 52.70675187022425,102.83945097710239 55.5999999998603,101.29571709077572 51.26909077982418,93.82980384654365 47.860599665669724,94.15888985674246 47.64753696043044,97.06112388407928 51.4519354570657,102.06959127334994 54.76413861778565,101.70238579643774 55.27272339281626,99.08177419452113 51.298796637682244,93.96424755032058 48.26572610763833,94.18765142769553 47.80426096962765,97.17282507836353 51.26089606038295,102.23480019831914 52.78818689472973,102.67825543863 54.916253097355366,101.76592774881283 55.081171825993806,99.58141723071458 51.40737667027861,94.05922765505966 48.110026438720524,94.22310173345613 47.79606625018641,97.15409673628164 51.249628321034834,102.14784814006998 53.18767946679145,102.59732321737101 55.08014748618007,101.6334929324803 55.48681043810211,99.42557146964828 51.23682407196611,93.85856543821865 47.860599665669724,94.65118068069569 48.11463596811518,97.76544293272309 51.68189977109432,102.18864872335689 53.398181322496384,102.42007491373806 55.000248971628025,101.28233982471284" stroke="#4dd2ff" stroke-linecap="round" stroke-linejoin="round" stroke-width="0.5"><title>2020-09-28 5.0 km</title></polyline><polyline fill="none" points="106.40899960882962,92.43085688492283 94.20718276873231,81.26896553719416 80.13104690611362,89.25792399677448 82.13188246265054,98.63596145692281 97.82930428069085,119.55816526152194 105.57492764294147,122.5994859971106 115.70562196336687,116.93907664925791 117.08793224301189,110.05171462590806 103.18517088890076,86.33282440993935 97.81524688843638,81.34545896598138 89.00126168318093,81.26590580004267 80.89483190700412,87.90246517909691 82.14125405717641,96.9011041955091 101.5474846418947,122.1344151054509 111.02216730453074,121.36949565005489 116.03362779133022,113.72334536560811 111.13696934469044,96.83685019589029 96.24784760549664,81.35463817603886 81.59535864181817,85.45774151943624 81.70313198585063,94.08004574826919 101.57794232666492,123.60000000009313 108.52463720552623,123.1349293300882 119.86895309295505,114.24655221961439 118.76076197065413,108.90738839120604 101.02033241745085,83.46891540288925 84.88478852808475,83.8697405110579 82.01708042249084,93.89646263699979 98.69851972721517,121.65098604257219 106.13722335081547,122.97276650718413 117.28004994243383,116.59639191464521 117.81657376140356,108.02007617405616 99.64505083393306,82.84166984958574 85.52205699495971,83.09868756262586 80.53402549494058,93.29369797394611 98.28851244132966,121.8927005880978 109.19704915583134,121.66016507614404 118.01337725948542,110.6697729183361 101.01798951905221,82.22360331565142 87.59552241582423,81.53516265447251 81.08929250575602,91.61697099194862 98.57434609346092,121.72135863476433 109.41962453909218,122.04568446357735 117.5330830104649,110.46783310035244 100.2260897308588,82.4377848089207 89.43704085517675,80.90791651979089 80.64648463763297,91.6077918256633 97.52472743950784,120.99621485429816 108.10994412191212,122.07016188255511 118.14926538988948,115.9844547486864 118.7303042858839,110.05477431975305 100.98987473361194,83.50563220959157 86.6372768143192,82.79271409125067 82.18576913513243,93.20802582544275 97.52004164271057,120.50972584798001 111.22131370101124,119.83353653619997 116.78804119862616,107.62537509994581 100.8633581995964,82.86614772956818 84.5895832804963,83.24861454754137 81.79450503829867,93.92094038636424 100.45335091277957,123.19918252155185 117.25427805632353,114.63819235260598 115.54396194778383,104.36985332425684 98.30725563131273,82.31845512264408 90.46557341888547,80.4000000001397 84.61769806686789,83.81466530985199 82.60280511714518,97.40901670022868 98.26508345361799,119.89167046849616 111.39703110884875,119.13898891676217 115.56504803616554,107.69574816548266 99.84419723041356,83.61272289254703 86.28584199771285,83.11704596946947 81.19003715459257,92.89593439595774 97.24592248443514,119.62241856264882 111.95698391646147,120.02323672780767 116.18825911171734,107.46933046914637 100.70638398081064,83.90339757781476 89.654930440709,81.37605633516796 81.7663902528584,93.30287713231519 98.18073909729719,120.04465448949486 111.32908704411238,121.33583918795921 117.57291228882968,114.31386537314393 116.78569830022752,106.89716672315262 99.1881855726242,82.85696852370165 85.23856624402106,84.06556343636476 81.09632120188326,95.65580012323335 99.10149831790477,121.06352778966539 110.2630680995062,120.98397613875568 116.24917448032647,114.89520615013316 116.23980288486928,107.51828564889729 100.57049585320055,83.65861889836378 87.02385511342436,83.08338889013976 81.89056388940662,94.064747155644 96.99523231573403,119.92532695364207 108.63943924661726,122.64844082226045 115.66344978567213,114.98087740899064 116.11797214765102,107.27045004069805 98.52748811710626,81.81665841932409 85.42834104504436,82.17770727863535 81.02603423967957,90.28905122168362 83.08778516482562,100.78693768009543 96.73985634930432,120.65047110617161 104.52765188924968,123.20530187315308 112.4864790411666,119.69891058444045 115.5978486193344,106.9522413148079 98.19948228728026,81.90845050779171 82.76212223339826,84.18489302275702 81.78981924057007,96.97453733626753 97.51535584498197,121.32971983007155 111.23771399166435,120.4821887309663 117.67834273446351,110.51678820932284 97.9722211053595,81.3056823827792 83.28927445970476,83.77182904118672 83.15104343183339,98.0484967250377 98.0823373477906,121.13390040118247 109.42899613454938,122.26904090098105 117.4674818450585,110.50760912662372 99.82311114203185,82.58465210604481 85.10033521521837,82.5968910465017 81.70313198585063,92.81332195061259 98.74303480423987,120.07525129243731 110.78084872942418,121.06352778966539 117.3128505256027,115.32356240903027 117.78611607849598,108.69932900834829 100.0316291321069,83.19353932933882 85.92503558564931,83.04361234116368 81.58832994569093,89.3558352093678 82.71292136050761,97.27132958779112 99.07338353339583,120.88912608823739 109.16190567426383,122.48933763802052 116.6662104614079,117.34601469826885 117.05044586211443,106.8329130297061 98.62354696821421,82.18688648636453 83.5961941992864,83.38324285089038 81.55318646505475,95.7506513199769 100.6079822331667,122.87791654770263 115.7923092180863,117.89675779617392 117.04341716505587,107.91604644106701 100.4439793182537,84.18489302275702 84.28266354184598,84.43579110503197 81.95147925708443,96.80931276525371 97.81056109070778,120.9747971012257 110.13655156642199,121.63262797426432 118.61081644892693,116.51378040807322 117.79548767302185,110.44335554586723 100.64546861220151,84.6469126387965 89.03171936608851,82.33987327222712 82.94721123762429,87.61179105238989 82.51377496309578,95.1784843604546 98.23228287044913,119.6315976048354 109.65860021486878,121.47046503447928 116.36163362115622,109.93544621253386 99.57944966852665,84.10839969990775 87.2558020921424,83.44749726471491 81.52038588095456,96.26162381912582 99.95431347284466,120.45771129219793 113.77038757223636,118.00384671497159 115.84385299030691,108.14246408827603 98.39394288603216,83.03137340326793 80.33487909846008,85.70863944874145" stroke="#4dd2ff" stroke-linecap="round" stroke-linejoin="round" stroke-width="0.5"><title>2020-10-01 10.1 km</title></polyline><polyline fill="none" points="162.3142498768866,118.82772053394001 173.78823572956026,122.87350536359008 181.9165433375165,113.29042246576864 168.37853741459548,87.87818418908864 158.91746256127954,84.2764400067972 148.8784620910883,95.75681331497617 162.0115269338712,118.11149242392275 170.93595656752586,122.55774965067394 183.76629846543074,115.01810241595376 169.3889243816957,89.20284376502968 159.28898617532104,84.74880032124929 151.20392470341176,89.72654611128382 149.4426275761798,96.3703642420005 163.31677391100675,119.64406619546935 173.21620731055737,121.2639207674656 180.46190062072128,117.62117121892516 182.43549695424736,111.28805724042468 168.08760887105018,87.19018230948132 160.03989633265883,83.35995794471819 151.583311249502,88.75358917552512 148.96495436038822,95.75681331497617 162.46561134885997,119.51827710901853 173.2810765132308,122.16241314902436 182.99376523960382,114.13757629529573 168.41392061579973,88.03734876471572 159.87084326148033,84.21226060565095 153.27777343895286,87.26719745830633 149.46621637698263,94.48350191838108 159.0452352333814,115.0643107717624 170.51922108698636,122.97619013662916 183.06846310943365,113.39567493321374 167.34456164576113,86.60229989141226 157.94639026373625,83.80151238746475 150.80291508883238,88.78952954744454 149.57040024735034,96.65275162563194 160.75542329158634,117.7366919334745 172.49674888607115,122.5859879689524 180.16310914419591,117.70588641020004 182.17405441217124,111.68853046896402 168.00897953566164,88.16827445360832 158.49089841451496,84.38939574523829 150.74001162033528,89.72911327914335 149.37186117377132,98.14683684404008 163.64111992064863,121.53346853039693 172.09967073891312,122.6424646039959 182.31951868347824,115.12592191109434 179.4652737872675,103.67904850281775 162.58552108611912,80.39999999990687 156.0907379342243,80.7671069377102 150.3350705401972,89.56994885753375 152.8846267592162,104.68023575213738 165.94889093190432,121.58994519955013 172.671699157916,122.41399093298241 181.43493865430355,116.33760720444843 180.4029286187142,106.7724585395772 163.73547512479126,85.19805593730416 156.47995314747095,84.35602245968767 149.9930329285562,89.2875603310531 150.41369987558573,101.88461146201007 165.06627663597465,121.80301625176799 172.3984622163698,123.06347218889277 179.9527756711468,117.54159027687274 180.21618394646794,106.6877428193111 164.06375260278583,85.55746034753975 150.20729786902666,89.84977016982157 152.71360795293003,105.20393347006757 164.9463668987155,121.22027969756164 173.97104893624783,122.00325167516712 181.10076397564262,116.81252599903382 181.16759891156107,107.89429966837633 163.3128424435854,83.94270709797274 155.4263200443238,84.86945755500346 149.69817291852087,91.04350279015489 155.68186538666487,110.17135256226175 165.7994951941073,122.16498026938643 181.64527212828398,116.68673670850694 180.03140500653535,105.71736245183274 163.33643124438822,83.82975132996216 157.17778850346804,83.52169010776561 150.04021053016186,89.89084485417698 151.23537643719465,102.79081523325294 166.29682574421167,121.7234354999382 175.2192896446213,122.15727890830021 182.31362148281187,116.10399845265783 180.16310914419591,106.28213416028302 164.59646635316312,84.59220262244344 151.46340151131153,87.92952760274056 151.13512403331697,102.41344431519974 165.80342666059732,121.88516412081663 171.55712832137942,122.7964917809004 180.9297451702878,117.75722894910723 180.58574182540178,107.23967850196641 162.77816295903176,83.84258721396327 154.58302041701972,85.17751854006201 149.0553780971095,93.01251804351341 159.6310237860307,117.07180593570229 170.33247641380876,123.59999999997672 182.70873389672488,114.40455802320503 172.8957927664742,94.6811733043287 162.01938986685127,84.4022316240007 155.51281231455505,85.22116050845943 148.91581102553755,93.43866707687266 154.92898949421942,109.06491573120002 166.7273213583976,123.06347218889277 181.2737485151738,115.31588957563508 178.25438201334327,103.80227157962508 163.5841136528179,84.63584460574202 149.44459330942482,91.31818953563925 153.4999013133347,106.83406997099519 166.81184789538383,123.55892610677984 173.21817304380238,122.51154149265494 180.88060183543712,115.3415608801879 180.27712168172002,106.15634411410429 162.8351692268625,84.0659315638477 153.33674544095993,86.06832791736815 149.72569318581372,90.55574117251672 154.25081147253513,107.52719841722865 167.64728458970785,122.54234693106264 181.61185465939343,115.66758641472552 180.078582608141,107.35263275937177 163.47992978338152,84.1249766178662 150.44318587705493,89.18744075216819 149.7335561197251,99.57417479646392 165.95282239932567,122.35751429060474 173.60149105638266,122.19321859453339 182.40207948628813,116.2426234295126 180.16310914419591,106.6415342426626 164.92277809698135,84.86689038027544 159.3479581773281,83.59613824193366 152.4482339443639,87.54958630970214 148.74282648600638,94.67603898339439 150.27020133845508,100.45470824069344 166.38921521417797,122.20348707598168 174.6472612246871,121.84665730712004 182.4610514882952,116.72781076387037 181.15383877791464,108.31787793920375 164.82449142821133,84.71285986702424 155.55212698318064,84.03255827235989 149.58219464775175,89.49806814570911 148.2337015355006,96.35496129223611 164.38809861429036,120.12925258744508 175.0836540395394,120.76333195553161 181.54108825698495,116.63282701082062 181.9519265377894,111.40101123740897 167.3072127122432,87.67537769267801 156.76301875617355,85.19805593730416 151.59903711639345,89.9165165311424 151.38477217499167,97.37925713998266 163.84752192813903,117.19502807059325 177.3226243816316,118.16283495083917 181.3582750512287,110.82597263262141 166.8609912302345,87.68307920603547 156.10253233462572,86.41232911171392 150.70462841913104,96.04690227424726 161.59675718471408,115.12848904251587 171.26619977876544,122.4011553330347" stroke="#4dd2ff" stroke-linecap="round" stroke-linejoin="round" stroke-width="0.5"><title>2020-10-18 10.0 km</title></polyline><polyline fill="none" points="12.400000000023283,134.48640851298114 15.04909942788072,136.17273910032236 40.711265499005094,159.640377105854 44.22016738168895,165.4598801479151 44.94165378971957,163.74216400057776 55.59999999997672,162.47765292102122 44.8738308630418,163.8783741173247 44.116296836640686,165.51359148701886 43.29013882542495,164.73214295310027 42.520321906893514,164.86800144221343" stroke="#4dd2ff" stroke-linecap="round" stroke-linejoin="round" stroke-width="0.5"><title>2020-10-24 2.3 km</title></polyline><polyline fill="none" points="84.37314003054053,129.27161322522443 84.44008151511662,131.0053147529252 92.53735002316535,128.39999999996508 115.62685996922664,169.76342383917654 113.58746443851851,171.59999999997672 108.43429568596184,157.57367555686506 111.25577985029668,161.78351198643213" stroke="#4dd2ff" stroke-linecap="round" stroke-linejoin="round" stroke-width="0.5"><title>2020-11-01 1.1 km</title></polyline><polyline fill="none" points="164.29836063459516,170.42679069493897 179.10262312274426,170.79280592058785 183.83217959664762,158.3351824884303 166.64812440704554,132.64519935823046 154.3863113252446,131.13536032801494 147.8299949420616,142.76959136896767 165.8323384737596,169.9561996019911 180.52649488672614,170.5509744391311 184.76307642646134,158.93322843615897 165.0741079924628,130.9850299791433 153.4128735102713,130.53403887152672 147.23692357446998,136.91653497051448 147.93259378615767,143.30881689698435 166.44042430631816,170.158815223258 179.86335601471364,170.1457432487514 183.78463379107416,158.41361475293525 166.9809450469911,132.45565252262168 154.1335678305477,130.22357392474078 147.8224877100438,142.35128299030475 165.1266586203128,169.1555409168359 179.42042929772288,171.60000000009313 184.03237246349454,159.37440976989456 166.5580376163125,132.32166250864975 153.64810012839735,129.80199513910338 147.4946718905121,140.33490478480235 165.18921889085323,169.1228609646205 179.08510624524206,170.4333266809117 183.61947467643768,158.4560988957528 166.83830763027072,132.6125188700389 153.11258421093225,130.64188457885757 147.95761789567769,143.6486923149787 164.83888137433678,169.76338794501498 179.61061252094805,170.81894986354746 184.6955113345757,158.8351881285198 164.76380904950202,131.25627821031958 153.267733681947,130.9948341322597 147.99014923721552,136.8969267157372 148.55819649528712,144.2500102338381 166.01000964362174,170.48561457474716 179.50300885550678,171.4300644285977 184.28761836793274,159.45937801757827 167.44138864055276,133.52757234312594 157.4142284328118,130.07651156676002 148.18533727992326,141.42642903211527 164.48103662393987,169.1490049266722 177.3859692895785,170.30587493721396 181.63005806319416,157.5671997522004 165.802309544757,130.87064818502404 153.42038074322045,128.4000000001397 147.45963813830167,141.45584135502577 164.79634039010853,170.2535870396532" stroke="#4dd2ff" stroke-linecap="round" stroke-linejoin="round" stroke-width="0.5"><title>2020-12-01 3.3 km</title></polyline><polyline fill="none" points="32.2563543189317,219.43791818292812 46.55838595237583,217.72493510786444 51.72483365610242,208.6324364207685 36.305798021145165,180.4457659542095 20.475490760058165,179.51139491144568 16.766745446249843,190.49499640241265 33.18840776756406,216.3488271306269 43.51886961515993,219.60000000009313 50.5810604961589,213.39321119827218 51.33059694990516,205.23823279864155 34.98924210574478,180.56653497111984 23.04046291206032,177.4424290272873 16.265432103537023,182.4956601979211 16.063446630723774,188.03513215482235 33.08376469090581,216.51090917666443 46.5997564708814,218.25249590235762 51.19675115402788,204.10047421534546 33.826000466011465,179.00607162970118 18.840138495899737,179.3683788999915 17.19991911109537,192.849980102852 34.480628084391356,217.3594561687205 48.03068970143795,217.01940179639496 50.71977341081947,203.54430709290318 34.81645935215056,179.1776908703614 22.234954580664635,177.6331172096543 16.019642552360892,188.63261881726794 33.14217013027519,216.27573130023666 47.26655188854784,216.90816904627718 51.05073755979538,203.54430709290318 34.05962221790105,178.73910833825357 18.428866868838668,179.44465410732664 16.961430240422487,190.76513636298478 33.82843402586877,216.13907387433574 46.50241407379508,217.6677297130227 51.47417698521167,205.09204038814642 35.32263981550932,179.99447114719078 19.404724396765232,178.98700282373466 16.087782229296863,190.02145686070435 33.51207123696804,216.440991432406 47.80923575069755,217.05436065932736 51.663994658738375,204.75834028446116 35.41998221166432,180.23600922431797 20.560665357857943,178.86941185314208 16.49905385542661,189.63690454047173 33.37092476058751,216.36153944814578 47.96985070500523,216.6348542640917 51.561785141937435,204.4659553898964 32.928016857244074,177.6076921201311 20.171295770443976,179.20629407581873 16.185124626383185,188.23535376763903 33.76029434707016,216.05008763819933 47.28602036740631,216.6571008178871 50.308501784689724,203.88436357909814 33.79193062707782,178.96475588413887 20.0593520142138,176.6923886795994 15.328511535190046,182.33039747737348 17.05147195700556,190.78102694731206 34.804291552864015,217.7567158821039 50.734374769963324,214.70575941656716 51.53744954243302,203.4521422421094 32.385332994163036,177.17546554282308 23.860572604462504,176.39999999990687 17.014968558214605,181.5453993869014 20.054484894499183,197.4900214720983 37.1405090726912,218.05227706185542 50.60052897501737,213.37414269591682 48.60987696237862,200.28357583563775 31.565223302692175,178.16068776044995 17.238856070674956,181.6343870384153 19.480164754204452,196.32683395175263 35.74607924092561,218.69424851750955 46.8577138222754,218.38279704237357 52.671488464809954,211.54992180364206 51.54475022293627,203.239209639607 36.06244202889502,180.9351982444059 24.5444029411301,176.57161944685504 15.705713322386146,187.22471115132794 29.163299664855003,215.9579233189579" stroke="#4dd2ff" stroke-linecap="round" stroke-linejoin="round" stroke-width="0.5"><title>2020-12-03 5.0 km</title></polyline><polyline fill="none" points="97.06460520811379,215.38572909496725 105.10643076524138,219.60000000009313 114.60760357789695,216.61712911888026 117.86801144760102,201.2296142068226 101.54027936886996,178.29242872772738 85.8445885302499,179.745302911615 84.31073234602809,188.3987769286614 101.33987604733557,218.18405952630565 114.29158295691013,213.92281158431433 110.64578408747911,194.0558965820819 98.41347371321172,176.97712381975725 82.96443311497569,182.05714930896647 102.91997915226966,217.95589842065237 114.09631818346679,212.6310143810697 105.48668321967125,183.1543528046459 96.97981918882579,176.671785073122 82.74090633448213,181.91957941511646 103.5520203942433,217.48951020627283 114.42004662472755,212.53706546500325 106.68910314142704,185.91245835321024 97.83538721036166,176.4000000001397 83.4294715905562,182.60407344182022 95.66178196575493,209.03411027626134 104.52834426425397,217.54990580724552 114.66155831795186,211.35934837092645 106.48356127552688,184.808545461623 99.66214055661112,176.8261321366299 83.78660058416426,181.97997595439665 91.20152344647795,201.08197945845313 105.59973124694079,217.23450653767213 115.89480952266604,210.5909799109213 108.3334380807355,187.00294928974472 96.825662788935,176.47717354237102 83.74035366438329,181.98668668186292 92.31658807583153,204.0447386004962 103.16662939358503,216.44936348730698 115.062364959158,213.34234176320024 110.3297634664923,191.74406230426393 99.6801254702732,177.74214819516055 84.25163905974478,183.3053440710064 97.42173420358449,211.65797185129486 105.09615367278457,217.99951745709404 115.36040066741407,211.50698245526291 106.63771767634898,184.97966877068393 95.6052579516545,177.09456178871915 84.08463629242033,182.1477441135794 90.6979458713904,201.61212237225845 103.1923221256584,218.4860374261625 114.36866115778685,211.8559357097838 111.67349342349917,195.310795487836 99.1431473409757,178.11459417943843 83.83541677799076,182.3188676214777 92.63003942370415,204.39033766114153 103.63937568664551,217.09358344622888 115.07007278036326,211.43652073456906 106.00824570748955,184.67433109134436 98.5419373800978,177.75892504234798 83.05178841017187,180.75862339045852 101.57881846744567,217.45260178274475 114.5896186651662,213.24503755848855 108.06366437952965,189.18728495552205 100.03468519169837,178.3159163077362 85.04811379406601,181.7719434206374 87.49406201578677,196.8072783104144 100.53312421869487,217.54319518525153 114.3558147912845,214.09057740145363 110.29636291321367,193.817667032592 96.64581365417689,177.47036324907094 83.15969789028168,184.97631341265514 97.32924036402255,212.75516115757637 105.48411394562572,217.86866034474224 115.16770516708493,209.6850429684855 104.60542246419936,183.7516070867423 93.80162806715816,176.89323955285363 83.4603028697893,184.33208441268653 96.09085061307997,209.87629635236226 106.29857359454036,217.2881915224716 115.57365035451949,209.5910939318128 104.94713581725955,183.91601975471713 97.008081195876,176.82277676579542 82.1319885533303,185.0769741765689" stroke="#4dd2ff" stroke-linecap="round" stroke-linejoin="round" stroke-width="0.5"><title>2020-12-05 5.1 km</title></polyline><polyline fill="none" points="161.29554120916873,217.53020522813313 177.6500180317089,219.36503173643723 183.3017188059166,207.63732130848803 168.49246354494244,179.68961351620965 158.06750986725092,176.98743132175878 148.70621897652745,185.49480263935402 164.52092662267387,214.34085179725662 170.7415017746389,218.71886889194138 180.75898264255375,216.61451914790086 181.78295651916414,203.4147783999797 167.1086435513571,178.95705292164348 156.70750322006643,177.27423597266898 148.3516647135839,186.72149255871773 165.6798427933827,216.70436006272212 182.1216352172196,214.80042303423397 180.61874849535525,200.8473856835626 168.22787081077695,180.114636776736 149.31478226184845,178.7911901131738 153.22546285483986,195.08024433837272 166.71440037805587,216.69744922360405 180.57641365658492,215.4915074328892 179.85672142263502,199.23714871681295 166.13494229409844,178.31087899813429 159.133818580769,176.5243972337339 150.11385231558233,181.97022523311898 150.76739636529237,192.2882379454095 165.8941629063338,216.6663504454773 172.37668486405164,219.60000000009313 182.18513747304678,215.33946888241917 180.21656753960997,201.68360272911377 165.40202042460442,178.29014614247717 149.91011591162533,180.8713853182271 151.6749494401738,193.8777469403576 168.16436855588108,218.10380462929606 181.19026879686862,215.99945433693938 181.38342149183154,202.785888383165 169.36826549004763,180.85065248515457 156.46936976071447,177.1982154659927 149.46560011990368,187.9067162971478 162.629088582471,213.54264890938066 174.85856469813734,218.67394847259857 183.0133127272129,209.31320571806282 170.53776536975056,183.51482009910978 158.5199634404853,176.5313081908971 148.16380387358367,185.145800601691 161.00978105794638,210.81631752545945 172.23909664154053,218.87781805731356 181.65330608002841,215.35329056880437 182.7090310845524,208.39406101359054 169.95566135738045,181.8734720540233 157.47217621840537,176.42073287279345 149.28038520738482,186.4692436978221 165.1665328918025,215.9130688169971 171.6596385575831,219.07823220686987 181.48661265801638,215.74720860947855 182.93393490742892,204.92134940461256 167.81246022228152,178.9397755456157 153.63028973527253,179.04689527093433 148.68240563105792,183.50099822459742 165.6269242465496,215.20470743183978 171.95069056469947,218.8674518079497 181.89408546686172,215.08031224017031 182.58996435347944,204.17843033769168 167.9209432406351,179.33024419564754 154.40554644353688,177.85130064655095 149.52645644918084,185.87490380904637 165.7645124681294,215.3187363522593 172.2470344249159,219.11969720153138 182.4312087148428,214.7831459220033 182.57408879045397,204.62072636862285 169.36826549004763,180.77808756614104 156.04602138791233,176.41036643646657 149.00520876422524,182.93084587343037 163.28527856059372,212.10519194416702 175.1602004142478,218.43552470160648 181.53688527736813,215.71610981901176 183.2196950595826,208.41133817355148 170.19379481766373,183.2487490195781 158.5093797314912,176.4000000001397 149.29890669882298,184.99721556063741 165.45758489798754,214.12661555060185 177.89079741761088,217.20539586688392 183.21175727713853,212.92067244485952 182.69050959311426,205.48458556691185 168.95285489968956,181.28258647886105 153.9160498874262,177.6266946529504 148.59509002789855,181.375884211855 165.17182474583387,214.91445197397843 171.11986938212067,219.10933095333166 183.83619612641633,212.51638765539974" stroke="#4dd2ff" stroke-linecap="round" stroke-linejoin="round" stroke-width="0.5"><title>2020-12-08 5.0 km</title></polyline><polyline fill="none" points="29.726690681651235,263.67425860394724 46.302944528870285,266.76676854817197 52.92033234331757,252.1571740016807 38.46497146319598,230.14709372306243 22.456138445995748,231.24710884061642 21.306165563873947,237.41574650607072 36.96445860154927,264.03653368423693 49.23840162344277,261.60928952903487 50.13366559986025,247.9909850168042 33.930648564361036,227.41681435564533 20.87240386288613,234.89625692670234 40.633779969997704,265.76886644330807 49.667119584046304,260.6245587908197 49.86634734272957,247.39816698455252 35.418552074581385,227.56831365893595 20.761441566050053,233.37468145950697 39.66285988222808,265.23533444292843 52.80684817675501,257.4497049122583 50.66325837466866,247.84607395669445 35.141146334819496,228.0063441984821 20.125930236652493,233.03874907456338 41.2062445404008,264.1320425593294 52.41848014201969,257.4497049122583 51.709834571927786,248.1161354710348 37.584838709793985,228.9153396305628 20.81187897361815,232.9004239605274 39.31736364495009,263.24282184103504 48.267481536604464,262.2515049944632 52.975813491269946,254.36376898898743 37.27464865706861,229.00096961599775 31.325556486845016,225.42756167706102 22.029942355118692,227.71981295384467 18.506889468990266,239.67834454332478 35.34037409350276,264.507491201628 49.65703210234642,263.8488093314227 50.95579533558339,251.61046505649574 36.89636810217053,229.33031568443403 24.05248238146305,225.17396476888098 17.76041584368795,237.33341029006988 33.5801085839048,262.94970826641656 46.28781330771744,266.2661708483938 53.74750581942499,255.1739510819316 34.57372550480068,226.52428563986905 21.432259081862867,226.3563189408742 17.389700901694596,238.32473813090473 34.634250393137336,264.3823416605592 50.06557510048151,265.02126292604953 53.036338379606605,252.98053059284575 36.27094425447285,227.81861683400348 23.67167995776981,225.88864689180627 19.276059927418828,240.775061549386 34.851131243631244,263.82575546228327 49.805822452530265,265.4362323107198 52.70849523227662,251.93322095577605 34.687209671363235,226.1883522302378 22.123251559212804,227.04465297819115 18.796904559247196,239.4774443730712 35.673260980285704,265.0970113114454 50.12609998881817,264.49431756604463 52.61518603004515,252.10777259571478 36.28355360683054,227.4201078186743 30.205846049822867,224.67006433242932 19.992271108552814,228.43120080488734 18.965869872830808,241.1900354125537 37.14855513814837,266.26287744240835 50.58003665227443,265.0970113114454 53.4751438209787,255.0389207538683 35.05540274363011,226.66919807554223 28.06729998718947,224.4000000001397 19.510593870654702,228.36862503062002 18.912910596467555,241.2427305013407 35.96075420174748,264.67874845606275 52.118377570062876,262.66976830223575 52.10324634797871,250.09878119966015 35.18906187172979,226.6132091805339 19.457634593360126,228.30934271682054 27.689019434154034,250.0921943394933 40.32611178699881,266.7338344932068 53.432272024452686,258.2565924739465 49.66207584366202,245.21791265159845 36.97202421352267,227.81861683400348 18.991088576614857,231.91568063921295 39.942787491716444,267.0829354599118 52.43108949344605,261.9583912913222 51.08945446461439,246.34426787332632 35.89266370050609,227.56172673287801 19.452590852044523,230.9605780087877 39.37788853235543,266.36826644139364 51.37946955580264,260.7562953692395 49.709991379641,244.75024452852085 37.1788175823167,228.0293984345626 19.054135335609317,229.67612900258973 37.940422429703176,264.78084412100725 50.04540013708174,263.3383307494223 51.75018449872732,248.48829335719347 35.63543292507529,226.8865667108912 20.120886497199535,228.6913842689246 22.004723651334643,239.56307395617478 39.16605142317712,266.8655707130674 52.90520112030208,258.3059937446378 49.548591677099466,243.2286757354159 35.34037409350276,226.66261114622466 18.928041817620397,229.10306690214202 37.28473613690585,265.68982467404567 52.118377570062876,261.1251577481162 50.35559019166976,244.48676948715 35.27732733543962,226.37607972999103 18.837254484184086,229.7222374419216 36.20033188536763,265.93683019606397 51.20041676051915,262.49851089389995 49.820953676477075,245.7185150415171 37.82946013472974,228.07550690649077 19.682081053964794,229.30726146069355 25.618563871830702,248.5475751380436 39.89991569612175,266.8655707130674 52.849719973281026,257.8152744146064 47.43526431918144,241.62806329503655 34.780518874526024,226.42877516616136 18.736379670910537,230.12074604979716 37.108205212280154,266.65479275700636 52.36047712434083,261.5598883314524 50.58003665227443,248.392783816671 34.77547513321042,226.76141507481225 19.24327561352402,230.75638360064477 21.543221375904977,243.07388404710218 37.51170447003096,266.2661708483938 52.731192065402865,260.65090610762127 47.700060706585646,241.66758460365236 35.10331828054041,226.60332878748886 19.28866927884519,230.40727698942646 19.29371301922947,239.78373478958383 37.28977987822145,266.842516875593 51.87627801578492,261.91228351485915 48.552452887408435,242.3987286866177 34.35180091485381,225.86229916731827 19.02135102171451,231.75100780115463 22.824331518262625,245.59007101901807 38.477580815553665,267.60000000009313 49.84365050960332,262.56767254089937 52.67318904772401,256.4649723514449 39.206401348114014,229.2315118694678 30.359680140390992,226.06320055527613 17.866334399208426,234.68218251899816 32.536054257303476,262.6104868927505 41.88967140670866,267.3266474236734 50.332893358543515,262.1263553285971 52.125943180173635,255.06856155837886 39.171095163561404,230.1997890707571 30.306720863096416,225.67457162495703 18.287486747838557,231.9453217489645 18.436277098953724,243.27478389558382 14.25249417964369,237.43221374880522" stroke="#4dd2ff" stroke-linecap="round" stroke-linejoin="round" stroke-width="0.5"><title>2020-12-12 10.0 km</title></polyline><polyline fill="none" points="96.65055374801159,265.27483694278635 113.01141085196286,267.3238443916198 117.3346244096756,255.58549606893212 99.93212345894426,227.1479680230841 86.82150842994452,225.80125953489915 80.62385807652026,237.74772989330813 97.86972085572779,264.8179864503909 109.9439133098349,267.60000000009313 116.98218852188438,255.65027363970876 105.90525909792632,232.13930610287935 86.67531280219555,227.10705537279136 90.62259474676102,249.9634778785985 101.84310916252434,267.06814472517 114.20447159931064,259.9596827502828 114.84668810479343,250.39646581443958 101.83527725283056,229.3163375214208 85.62583704851568,228.02758985687979 93.54650729894638,255.29911099513993 102.50360012147576,266.6010665958747 111.6669332049787,263.7576838422101 116.42351237498224,253.83650096296333 102.2503684097901,229.95389231969602 84.9157440001145,228.12987144314684 102.90563809685409,267.3443003636785 114.97199864313006,260.15742443152703 113.38995310198516,246.40070006716996 103.63139496278018,230.47893731645308 87.60469929128885,226.61610349826515 83.95502987597138,231.3005984039046 101.98147288057953,264.87594509962946 108.16345941647887,266.50560536119156 113.99562070239335,261.89959611045197 117.46254558395594,256.1650848009158 113.83637189306319,245.64723152527586 105.22649368457496,231.15740437665954 85.4639776032418,229.10495567857288 104.64954308234155,266.0112524733413 114.11309933103621,262.5746446689591 117.18320751003921,253.0284852355253 104.9419343387708,231.2596858253237 87.83965655136853,227.94235519715585 88.75076858699322,240.77184093859978 100.9293864890933,263.26333037088625 112.956587491557,263.26333037088625 116.21205084118992,250.68285149149597 103.13015281036496,229.8993421830237 84.93140781763941,230.83010370796546 101.07819275278598,264.7088878117502 111.46852485369891,264.6134264981374 117.69228156935424,253.50579413794912 101.92142824735492,228.89016443141736 85.75375822279602,229.45612227893434 92.13154247403145,252.63640999235213 102.31041304208338,267.18747123959474 117.66095393523574,259.83694652537815 117.55913912318647,252.88529254542664 102.74377865251154,228.92425828170963 85.70415613427758,229.76978560420685 101.01553748361766,266.1135323890485 110.44254482537508,265.35325157037005 118.17524926830083,254.86271462473087 101.4306286405772,228.5458165165037 85.26295861508697,230.32892447174527 101.44107118528336,266.4783307213802 111.220514414832,265.4418941901531 119.37614192347974,255.47298765112646 102.47488312330097,228.94130520592444 85.07499280851334,229.41180028370582 101.96580906305462,264.63729182770476 114.5099160335958,263.5224397892598 117.46515621989965,250.87036590394564 103.67577577847987,229.84138266276568 94.37407897599041,226.12515152059495 83.87932142615318,228.6651450076606 102.14594296179712,264.8793544319924 115.4184174342081,263.88723852764815 118.46241925098002,251.40904358611442 100.71009304746985,227.55709449923597 90.3328141272068,224.39999999990687" stroke="#4dd2ff" stroke-linecap="round" stroke-linejoin="round" stroke-width="0.5"><title>2020-12-15 5.0 km</title></polyline></g></g></svg>