<?xml version="1.0" encoding="utf-8" ?>
<svg baseProfile="full" height="300mm" version="1.1" viewBox="0,0,200,300" width="200mm" xmlns="http://www.w3.org/2000/svg" xmlns:ev="http://www.w3.org/2001/xml-events" xmlns:xlink="http://www.w3.org/1999/xlink"><defs /><rect fill="#222222" height="300" width="200" x="0" y="0" /><g id="header"><text fill="#FFFFFF" style="font-size:12px; font-family:Arial; font-weight:bold;" x="10" y="20">Workouts 2024</text></g><g id="footer"><text fill="#FFFFFF" style="font-size:4px; font-family:Arial" x="10" y="280">ATHLETE</text><text fill="#FFFFFF" style="font-size:9px; font-family:Arial" x="10" y="290">Walson Xie</text><text fill="#FFFFFF" style="font-size:4px; font-family:Arial" x="120" y="280">STATISTICS</text><text fill="#FFFFFF" style="font-size:3px; font-family:Arial" x="120" y="285">Number: 23</text><text fill="#FFFFFF" style="font-size:3px; font-family:Arial" x="120" y="290">Weekly: 1.8</text><text fill="#FFFFFF" style="font-size:3px; font-family:Arial" x="141" y="285">Total: 312.4 km</text><text fill="#FFFFFF" style="font-size:3px; font-family:Arial" x="141" y="290">Avg: 13.6 km</text><text fill="#FFFFFF" style="font-size:3px; font-family:Arial" x="167" y="285">Min: 1.4 km</text><text fill="#FFFFFF" style="font-size:3px; font-family:Arial" x="167" y="290">Max: 37.5 km</text></g><g id="tracks"><g id="year2024"><polyline fill="none" points="20.972096800920554,51.7625750011357 20.2788398557459,52.262656016042456 20.711142939515412,52.85367721207149 21.202239242673386,52.74097485629318 20.73330829758197,53.113569730790914 20.30886526987888,52.78983308355964 12.304970175435301,40.95147900278971 12.184396915370598,40.240920096985064 17.607678401400335,38.696607146412134 23.375859147752635,37.70065792092646 45.87196841998957,37.30030527764757 46.256639564060606,37.63947589871532 48.0,48.32970465965627 47.71452276362106,48.638670542117325 43.4559443857288,49.231759950649575 42.58253495540703,49.606622365739895 43.3624097185093,57.19234103358758 34.890998489107005,58.860437848590664 33.1261014995398,59.67703030134726 29.298411395342555,62.25527990124829 27.0785743604647,62.69969472235243 12.0,40.428979378106305 17.63455979322316,38.669506580903544 18.940115106175654,38.65492975950474 23.38686322630383,37.705380022132886 34.89634332724381,37.51259497564752 35.683292140834965,42.70106866021524 41.56198527547531,42.483448982588015 41.83771604235517,42.6741741712176 43.366811349929776,55.921650950520416 43.2797219287022,57.381814512220444 34.77702767617302,58.9316692048742 33.07501113502076,59.72568083264923 29.16070321307052,62.321788259767345 27.00123140879441,62.683478224804276 20.821183724387083,53.5849059590837 20.768049745471217,53.22647707280703 21.68641869642306,52.201069780567195 21.140302000800148,51.404141450999305 20.623581914871465,51.74204618566728" stroke="#4dd2ff" stroke-linecap="round" stroke-linejoin="round" stroke-width="0.5"><title>2024-03-26 11.0 km</title></polyline><polyline fill="none" points="93.75573638564674,62.7492793451529 94.2381687684101,62.869547065129154 94.0869536799728,63.004217930254526 93.79698689118959,62.8603289457169 87.94007688004058,54.20816639127588 87.64768359088339,54.133550635073334 87.42499703832436,54.28782369005785 87.46900493063731,54.628779246413615 92.42810982163064,62.14966694707255 89.14196660910966,63.68952413613442 87.49955677561229,64.14912887836545 87.27532608655747,64.0952611820976 87.04800712427823,63.59849592841056 85.80641102627851,63.631479260242486 85.67460794048384,64.66677576949587 83.35928544879425,64.7763828999814 79.90207396331243,65.4734871494802 79.218242053641,60.07800171767303 78.80143547512125,47.42827252388088 78.58558724168688,46.2781247024177 78.06157346698456,45.28081002354156 75.6073889794643,42.86505668317113 75.0743309762911,43.26626975724503 71.11141476407647,43.704648991304566 68.03814180730842,45.42270793423086 65.90447595348815,45.16786778368987 64.73799107014202,45.39576895577193 63.79628835321637,45.753898300892615 63.81812685611658,46.70554217972676 59.16663602902554,47.49842764785717 59.127701728313696,43.69758999185433 58.66666666668607,40.84787369760306 58.764719338854775,34.54754774994217 60.51841730083106,34.526512850519794 61.67585795576451,34.82143325553625 68.4489924304653,37.929785726555565 73.47648051241413,41.16712209986872 77.66186268621823,45.081288249071804 78.34415045933565,46.12816079901677 78.63499961188063,47.35105861278862 78.98132738558343,56.0143401594396 80.64248744875658,55.955426489847014 85.13625575473998,54.56525529710052 87.30819413636345,54.21162349057704 92.1109000518918,52.79823591895547 92.33810871868627,53.17664895475173 92.60954586864682,58.75904421144514 91.66376221930841,59.50977331485774 91.67479176627239,59.87807787866768 93.7277213364141,62.93810680133174 93.99066573532764,63.072345474065514 94.66666666668607,62.42981299797975 94.30015482218005,61.823573057103204 94.0064379874384,61.90740118337271 94.07746826962102,62.12503710175224" stroke="#4dd2ff" stroke-linecap="round" stroke-linejoin="round" stroke-width="0.5"><title>2024-03-28 11.8 km</title></polyline><polyline fill="none" points="108.62788134871516,41.202995609201025 105.33333333331393,36.4059188549727 105.45692730037263,36.16448802148807 107.14240628073458,35.52005657777772 113.01306102756644,34.358720997712226 116.7788623929955,34.05520191676624 132.56626042502467,33.804261486009636 134.53413929586532,33.83246740443428 134.96501626924146,34.057194721724954 138.161909792223,48.02030615633703 140.84670409566024,58.58773820093484 141.32758204708807,59.62895923102769 141.33333333331393,60.36335558402061 139.84797563852044,60.68013138391689 135.87771017948398,62.48437118938455 133.74351350113284,62.991630831318616 121.77238730539102,64.39386145251046 112.32654525060207,66.19573851399036 111.84625416510971,64.8611142345544 108.67612172901863,65.36928183071723 108.1405478719389,64.79077359172516 107.8847916952218,59.69194710039301 108.30111439316534,59.46896067700436 111.77406965452246,59.317390939853794 111.33262909419136,53.61397932476393 115.70442822953919,53.171964965047664 115.73729272221681,52.90007309590874 116.27204496698687,52.700061996773 111.80892949132249,45.99280163534422 112.55988314846763,44.901936437796394 112.12149429105921,44.45513365136139 111.74859967263183,44.737930147879524" stroke="#4dd2ff" stroke-linecap="round" stroke-linejoin="round" stroke-width="0.5"><title>2024-04-08 9.4 km</title></polyline><polyline fill="none" points="173.73577037095674,67.06458434266096 172.88969143200666,65.60612124428735 172.3902338935295,65.04700061583571 170.43738688583835,62.0828387798756 170.35221575119067,61.70410856525268 172.95141957336455,60.977258720682585 173.42964141338598,61.017816192987084 175.67035011120606,60.52873917398392 181.3089227883611,60.351497586590995 181.17595230374718,59.97683339040668 181.34941523123416,59.76817763798317 181.0790596724837,58.61951572578255 180.82004504225915,56.009083066332096 181.12860963551793,53.66220249395701 180.9610074563243,52.20036908170732 180.437269674876,49.71466293488629 179.35074782761512,42.79532593234035 178.58862220545416,40.4767247090349 177.85488696146058,37.13928323615255 177.50811333372258,36.35280325016356 176.9081097104936,35.665359164784604 174.91157348803245,34.72144222525094 174.1752503812313,34.16853070522484 173.77063040644862,33.591250464116456 173.114683276508,32.0 172.36146294724313,32.199293711892096 168.2997360221052,33.88371984517289 169.2742186287942,40.45922402938595 169.0515101926867,40.57526538349339 163.16876504017273,40.92935435416439 163.594772940618,45.740445641706174 161.9902218329662,46.076908971575904 159.1890124778729,46.35172588944988 159.15004230724298,46.66323011508939 158.84437003129278,46.71165084767563 158.65058476876584,46.927306626574136 158.89947628820664,49.284064386447426 159.1708974376088,49.86081328657747 160.70831633725902,50.9709491402682 165.9133458660799,56.18534188030026 168.55311824480304,59.57115194070502 169.6542539060465,61.59386884804553 172.49694518107572,65.85332564165583 172.61073503480293,65.95829032429174 172.9314016927383,65.75700847459666 174.48031374820857,68.0 175.0249066600809,67.4995427978647 174.75934625903028,67.08913531696453 174.51517378367134,67.18743852180341" stroke="#4dd2ff" stroke-linecap="round" stroke-linejoin="round" stroke-width="0.5"><title>2024-04-11 11.9 km</title></polyline><polyline fill="none" points="32.94074286255636,105.6940232805864 32.17959328604047,104.7469616137605 30.312861191428965,101.72345761122415 32.955291003221646,100.97430012854602 33.3951627939241,101.00911708504282 35.87984810722992,100.45572431624896 41.24498909316026,100.37554515856755 41.16691661081859,99.97972135263262 41.34804476980935,99.8909864705929 40.74578221590491,95.78438424455089 41.11946377521963,93.56006988640002 39.36827895444003,82.94129147120111 38.5612760760705,80.44102114706766 37.895793853502255,77.26905673377769 37.24607846394065,76.04604550688236 36.5984196178033,75.47155100831151 35.00566480992711,74.74708192701655 34.20803062946652,74.17466626712849 33.82132429504418,73.6427492616931 33.09384109621169,72.0 28.724752648297,73.7440576304216 28.496933336457005,73.93781692783523 28.42624917687499,74.29577756342042 28.633579222630942,75.65983209032856 28.478576782072196,77.03828844358941 28.541034767928068,78.21083000568615 29.235384766943753,80.48868506003782 26.41822493125801,80.41385568695841 23.842975538398605,80.7535724167683 23.39670561256935,81.22304340963456 23.289765353838447,82.00654922798276 23.588649666664423,85.8330998038291 22.049364988168236,86.11408510222827 19.164720060449326,86.3518869063555 19.124884052434936,86.72520420753426 18.889600249560317,86.7069960819208 18.651955230161548,86.92638874541444 18.816021695471136,89.13221568268636 19.117800402804278,89.91284433230612 20.527142003382323,90.85862071688462 25.99846156523563,96.38387612068618 28.64416661291034,99.87009595459676 29.94435907478328,102.22759983091237 30.33319812096306,102.6382322408972 32.398120068304706,105.8393489772352 32.65389313723426,106.00506564777606 32.886434882180765,105.79428909227136 34.42602423380595,108.0 34.99553442929755,107.59168778531603 34.771142689860426,107.17919546002668 34.51087569267838,107.34968330818083 34.084181013546186,107.17531620997033" stroke="#4dd2ff" stroke-linecap="round" stroke-linejoin="round" stroke-width="0.5"><title>2024-04-11 11.8 km</title></polyline><polyline fill="none" points="93.13328479723714,80.89498819717119 93.09371692501009,80.97492376023365 92.96038672301802,80.89741718086952 92.16437920775206,79.76764683144575 92.06583998746646,79.79166135951164 92.03832002505078,79.90091346745248 92.40343510254752,80.34399127862343 94.46578362297441,83.526037765816 94.46345858775021,83.63240863311148 88.1969390950253,84.02388616576354 88.02805699074815,84.11248140485986 88.18577892593748,86.17484240548947 87.99415374979435,89.27802396542029 88.326126506945,90.03486278026321 89.09770001564175,90.65807195187517 89.46256145295047,91.27453776135008 89.53899170190562,91.95495639660294 89.30293721622729,92.30076263436058 88.14933928289975,92.47349900142945 87.31777986534871,92.12968110684233 86.79714106778556,92.01632537009209 83.9737873806007,92.07250659091369 82.67320494755404,92.23553099517449 81.91308752151963,92.55920464297742 79.28960231720703,94.12190494177412 78.66112415843236,94.64113511834512 77.1945342101244,95.39499669955694 75.59393768593145,95.637083446607 74.51617817442457,96.19309899985456 72.54771880382032,96.62704589113127 70.66537028338644,97.4172865433211 70.1436323782691,97.76994008875408 69.16572256144718,99.03667354230129 68.91867700013972,99.18659078350174 68.61959292313259,99.10592136676496 67.99136840457504,98.73600960018302 67.54005793016404,98.8353299417904 66.15573195554316,98.89530826577902 64.71302645998367,98.80266461389328 62.97609832471062,98.5520455648948 61.22154219506774,98.59563640429405 61.157836229831446,99.48377498357513 60.51494285267836,99.47273959287486 59.880842335987836,99.58116216651979 58.66666666667152,100.23235316855789 59.91495694377227,99.58827997342087 60.42109597619856,99.48978927016287 61.19080945668975,99.49116869353747 61.22483951775939,99.0743046467469 61.32760607483215,98.99771813651023 62.1344778456114,99.01460249580487 64.04679818378645,99.47836764252861 64.11866290903708,99.38986370535713 63.967366525757825,98.85657342533159 64.04988413966203,98.79168420170026 65.90936276812863,98.9900484414029 67.20051824017719,98.93934013008402 67.95336464693537,99.03860475825059 68.78234538905963,99.28408908886195 68.84406450601819,99.69328126324763 69.23496633786999,99.9560315010749 69.48459057460423,99.8673079800792 69.6012650696648,99.73030476965141 69.64818850789743,99.33590047958205 69.33367465164338,99.06100685605634 68.80982307813247,99.17285161323525 68.84554407389078,98.9902691520656 68.80508846091107,99.15370505033206 68.87724909973622,99.18063162594262 69.26806638484413,99.01294716680786 70.2072537967615,97.7902461226513 70.65425238767057,97.47721194432597 72.57278691089596,96.66357578034513 74.61425238767697,96.21130897748662 75.73377798653382,95.62775758978387 77.25760607482516,95.4364942419088 78.8337685924489,94.58937245657944 79.36472209174826,94.12339493127001 80.38143886017497,93.50802426039809 81.81797244402696,92.68315463353065 82.5867559104372,92.32995679162923 83.83529982776963,92.13646919516032 86.72802411144949,92.05628137464373 87.28425708469877,92.13613806892317 88.18878033505462,92.52614756414914 89.15320494753541,92.33851084098569 90.65116173477145,92.36191029509791 90.72070142476878,92.19590630642779 90.538376389537,91.42266465870125 90.4341725379636,90.45569015334695 90.73723031156987,89.02905251722768 90.91444026929094,88.72880544321742 90.93891654921754,88.4990927388535 91.8348160325695,88.21727605657725 91.93842805699387,88.09353214692601 91.77106779394671,87.86238052572298 91.6768404571776,86.02702605232116 91.78746986064652,85.94522452018646 93.06539376858564,85.90261258557803 92.89093157977914,84.07505615170885 92.92665257553745,83.83582069024851 94.50175825894985,83.68037754557736 94.47546422418964,83.60111012680136 94.66666666667152,83.48209828509425 93.08128855486575,81.07782398668496 93.12859245341679,80.94169090172 93.36232190385635,80.74604703384466 93.21373101611971,80.51313897096043 93.09993111006042,80.57745243400495" stroke="#4dd2ff" stroke-linecap="round" stroke-linejoin="round" stroke-width="0.5"><title>2024-04-16 22.4 km</title></polyline><polyline fill="none" points="116.2308751665405,87.5204271211187 116.36341080488637,87.63117365887592 116.55506971798604,87.3509074032263 115.48888385374448,85.7765532647245 114.84338727896102,84.65679861298486 114.89105614236905,84.54808547388893 117.14196367305703,83.04428499629284 120.06023529107915,82.80879516027562 119.9993186489155,81.89085049329151 122.76596394303488,81.83849315640327 123.64471398520982,86.90973047916123 124.42615938151721,87.00907116050803 124.58062038299977,89.38034815775245 125.02329288615147,91.12508208803047 125.34129742739606,93.17204948106519 126.53596939062118,92.67706533391538 127.51399099780247,92.41563504210353 127.71658366717747,92.94045822240514 128.84316551848315,92.75826632488679 133.9350563159096,91.73791936897396 134.74398072931217,91.49053431037464 135.20909925064188,91.4793547438021 137.03972244585748,90.94990884542858 137.42888317879988,91.01358767390047 137.88329934611102,90.77541485538677 139.99524982602452,90.21514163093161 140.05055496364366,90.67321095833904 140.5138222669775,91.79230615394044 141.01226271223277,92.47311809486928 141.21311986472574,92.29742067825646 140.76900109753478,93.08812987250349 141.04338631476276,93.17635498383606 141.09741874004249,93.87353955087747 141.33333333334303,93.93948078837639 141.16151716312743,95.30806344412849 140.70883651269833,95.34817092586309 140.93537931490573,94.8838739306484 141.05906381719979,94.24856505219577 141.04384911927627,93.19712714135676 140.77924064706895,93.11252775657704 140.2261314204079,93.91175979731634 137.9039519968792,95.17829928759238 136.12001420548768,95.49576014736886 135.46398882838548,90.95557422483398 134.94877172005363,90.93208178089844 134.63244484510506,91.00452307679006 134.45299240067834,91.17682568748933 133.7228604531847,91.3065999171231 133.24692387669347,91.18883623816146 132.6138073222537,91.42451440240984 131.65678546921117,91.56252159646101 131.5766045897908,91.37481057154218 131.30985564677394,91.37035384273622 131.2868889735255,91.58291671694678 129.99427600824856,91.88838933385341 129.14358348879614,91.95788334608005 126.68238916393602,92.59813029450379 125.06702791128191,93.32855805302097 124.19018693765975,93.5963286149381 120.2981746540463,94.01486368047335 119.86955983756343,94.23957655748745 119.5082830756437,94.17552404562593 118.78156431135722,94.2739443229184 117.70351908184239,94.5849904412753 117.31979630174465,94.47433437574728 115.63113838658319,94.96990552617717 115.53059410920832,94.90932842118855 115.55413928808412,94.74315644605304 115.74336847756058,94.3506107939611 115.07721925203805,94.47728017170812 114.93860930463416,94.37311974607655 114.8181644337892,92.4282495939915 114.56900206173304,91.04939281694533 112.89538529276615,91.03217009301443 110.59553618635982,91.31332278739137 108.88038271359983,91.3237470114982 108.75768167086062,91.45661791512975 108.91248977571377,95.46245064146933 108.69873194780666,96.06352907308246 108.7292191941815,96.360742320383 108.48514767162851,96.52947710921217 108.35978550298023,96.90176422206423 108.30939766316442,98.76610501382675 108.17171332475846,98.85243223847283 107.43978800982586,98.68362952506868 106.70444951174431,97.56936669801144 106.48918756921194,96.89149218521925 106.41675866514561,90.78100471530342 105.74997308340971,87.4286417815747 105.35872973021469,84.17669125485918 105.33333333334303,82.1101009856211 106.10656394978287,82.02548340095746 107.89310501643922,81.56552395698964 108.49723843912943,81.30577500646905 109.55035007625702,81.14756776152717 114.93508042031317,89.26884996965236 115.20194506447297,89.2327414261199 115.24064709071536,89.10840093421211 114.1077595280367,87.33239920060805 114.23555142030818,87.32152090700401 114.79247878410388,88.24072861739478 115.10249994779588,88.37579819146777 116.60377989147673,87.35287153861282 116.13947127797292,86.74073756464713 115.630386329256,87.05772158404216 116.07236462566652,87.72159886146983 116.57196208217647,87.3955536931644 116.43508765162551,87.45976571749998 116.33014673151774,87.25096303020473" stroke="#4dd2ff" stroke-linecap="round" stroke-linejoin="round" stroke-width="0.5"><title>2024-05-01 20.9 km</title></polyline><polyline fill="none" points="152.0,84.26292194575944 153.11904211342335,86.1450767017086 153.4472525055753,86.37084779395082 155.4519449317013,84.97842907646555 155.44159001053777,85.19717665257485 155.13073933910346,85.14600302459439 159.574421765632,82.22667195355461 164.64234350586776,81.7865103198128 164.76193269295618,81.54707209769549 164.61574557126733,80.17672022047918 166.16065919562243,80.10552393340186 167.3279227554449,89.77471288325614 172.0727100452641,88.9322430146276 172.31615221058019,89.06295561242587 172.74517080548685,93.49832245585276 173.93375332053984,99.7114207570412 174.2201379527687,99.89447606659814 176.22097266325727,99.0233362622821 177.9612085253466,98.5807378252648 177.97917735902593,98.32066549637966 179.13476625288604,98.67816534001759 180.09503290901193,98.4094772319877 180.42730405455222,98.07968037744286 177.6316783883376,97.22018806957931 175.7411946511129,89.6527507759456 175.62850874470314,88.4164169134965 179.01253757608356,87.7218831107748 187.67371846572496,86.87700783048786 188.0,86.67417295430641 187.48793899844168,84.46695540657674" stroke="#4dd2ff" stroke-linecap="round" stroke-linejoin="round" stroke-width="0.5"><title>2024-05-02 6.8 km</title></polyline><polyline fill="none" points="48.0,127.37245813072514 35.40764557168586,128.89569846244558 22.69931317056762,131.18021602803492 19.822185006109066,131.941359997807 15.963040970033035,134.3811594358922 15.135432280658279,134.55408716342936 14.436112717958167,134.45778253096796 12.078124051215127,130.86124303926044 12.0,130.2782846591508 12.762486137158703,129.59450631376967 12.621310568996705,129.14916898622323 13.646703122823965,128.35194422853965 12.212856398662552,126.09110369594418 13.024126921256538,125.44591283657792" stroke="#4dd2ff" stroke-linecap="round" stroke-linejoin="round" stroke-width="0.5"><title>2024-05-02 3.4 km</title></polyline><polyline fill="none" points="92.15809975471348,137.0769255462801 78.80358436983079,115.37335836282 69.11179864313453,112.71393882401753 62.81916661374271,117.21684622264002 61.757053108885884,124.67747008171864 72.95219802297652,144.64200332132168 85.162598493509,147.45435785187874 92.12490870710462,137.68886430410203 78.31157590821385,116.08474602550268 69.07665518205613,113.3743319750065 62.42673129308969,123.52752638503443 72.77843313012272,145.20549448474776 85.03959637787193,148.0 92.62277441192418,138.4512377056526 79.2682590270415,117.00776471022982 70.28910460416228,113.21879538614303 62.5087327035144,122.16595126851462 72.52266682684422,145.43242073827423 77.56965838652104,147.3600178374909 66.43894315231591,132.125313176075 70.58196678478271,143.14020923839416 82.83141554426402,147.22233240131754 91.73247338552028,138.17586541187484 80.07655864302069,117.90528517076746 70.67568268161267,113.1779989018105 62.56925755273551,119.0220855526859 63.80708836577833,128.45876516925637 73.10643877182156,145.2462902177358 85.8127525318414,146.69198839669116 72.16927979700267,113.2876394521445 62.46773199830204,119.81251461233478 75.6855783648789,146.24833511561155 63.52789308782667,129.78973828768358 71.97794317267835,144.61395624477882 84.986881185323,146.51860666833818 91.52551744598895,139.101422114647 88.23179413471371,126.51329879707191 79.50840601418167,114.33559877751395 60.71055892109871,123.51987708942033 71.38440915569663,143.95867442595772 84.07510359957814,147.08719668525737 92.6130123399198,140.7052092864178 87.77492913417518,125.55203872546554 76.17758682649583,112.0 61.2338060149923,115.02148908830713 63.07688533235341,125.86820920556784" stroke="#4dd2ff" stroke-linecap="round" stroke-linejoin="round" stroke-width="0.5"><title>2024-05-07 3.2 km</title></polyline><polyline fill="none" points="133.7723635053262,147.16923935338855 136.12207658216357,134.58304120518733 122.94649032689631,116.92977473186329 112.61539412941784,115.61749803449493 109.40985059831291,124.64873542869464 123.85772052034736,143.47447012318298 128.48837458435446,146.06155786046293 133.4781717872247,143.93600486812647 136.7276530424133,133.0986370705068 123.40306059177965,116.73268381005619 115.4140361296013,115.3580363629153 108.36489689629525,121.555167795741 122.07346684951335,143.65658925415482 131.80089692305773,145.97424059465993 136.7200116990134,142.04495901206974 137.56629047356546,136.04000131459907 123.60555619094521,115.67238415265456 113.65079615265131,114.69441306043882 113.14073648490012,132.28283794422168 125.21596929896623,146.18629680294544 132.4771558092907,145.79711127106566 136.5595434885472,141.73311087931506 136.48695072717965,134.54811406345107 122.32181050814688,114.70688718510792 112.31356106884778,115.3605311869178 117.63002569694072,137.14768933015876 124.7498473552987,145.6549088434549 131.27937524020672,146.478185894317 136.05139415618032,142.9156386977993 137.43829797301441,136.08490759972483 124.39643522631377,116.2761313325027 114.65372246690094,114.02330502145924 109.2646650755778,124.10237187612802 126.67164520546794,148.0 131.7015594597906,147.97754701471422 136.94925199914724,143.83122401847504 138.46032764483243,136.17721495882142 125.06505276821554,115.43038625607733 115.83622034825385,112.0 108.20633902214468,118.89319824182894" stroke="#4dd2ff" stroke-linecap="round" stroke-linejoin="round" stroke-width="0.5"><title>2024-05-09 2.3 km</title></polyline><polyline fill="none" points="163.23131892824313,120.17026839785831 166.98658454825636,120.03575809974427 168.1363793751225,120.15814516152022 169.08973839497776,124.83896114479285 170.0134817554208,130.72531982396322 170.17570484534372,130.89686928969604 171.02421559017967,130.7758842409894 171.15699983056402,130.90460401452583 171.41505389017402,134.40593205792538 171.82171667684452,135.92566547504248 172.5570690810855,140.3120069290744 175.8807417175558,139.16116279616108 176.20801685587503,139.90476932245656 176.38792093648226,139.96433141678426 185.55648708183435,138.15932601541135 186.5708455197455,137.83992221082008 187.3083196428488,137.8021754522706 188.0,137.49027340970497 185.90391854959307,138.0687110452127 182.03611342355725,138.75772850078647 177.84819396049716,139.74328194485133 176.19652421193314,139.92750911961048 174.10459779432858,131.71905474561208 171.5150398927508,120.02432760028023 171.247791717964,119.68799307093286 156.861742019566,119.79906560098607 152.63174179857015,120.49101391548174 152.76655935283634,125.58316470173304 152.0,126.27182958448975 153.76146870091907,128.9902941674227 153.89911521371687,129.06637334427796 154.45085052930517,128.48867772454105 154.1668938182993,127.98417188869644 153.85385187747306,128.15064762700058" stroke="#4dd2ff" stroke-linecap="round" stroke-linejoin="round" stroke-width="0.5"><title>2024-05-16 10.3 km</title></polyline><polyline fill="none" points="46.41358668425528,160.67583765924428 46.376212325223605,160.77987476460476 46.54551102464029,160.93387111041375 46.34993676349404,160.9487491551954 45.465438293875195,159.71994548379735 45.36533891387808,159.89316191741455 45.79373567251605,160.5740512089542 45.76708174269879,160.6593673786083 44.63513054283976,161.22215276369025 43.99573051316838,161.4095264134885 43.878856814539176,161.40079733665334 43.780354988673935,161.1764209336252 43.33152635321312,161.19234198524282 43.267960514262086,161.25882602763886 43.27460297626385,161.58685250267445 42.39498125092359,161.72410122134534 42.38199061319756,161.87381155019466 43.20906121506414,163.88131050834636 41.550631839680136,164.0109202718777 41.40382502111606,164.11346592543487 41.54277019161964,166.35337064853593 41.35947187290003,169.29313842402917 41.66405818461499,169.99284788087243 42.40132942664786,170.58002729866348 42.80832736780576,171.2631922188084 42.88131036811683,171.88119683324476 42.70448634780769,172.24200582708 41.498332961593405,172.4050657642838 40.66218152560759,172.04425834059293 40.125277207174804,171.9490889035187 37.32539538881974,172.00336954055456 36.09326072715339,172.15677091576435 35.355989485105965,172.47811594691666 32.83328331245866,173.96274360905227 32.021851924961084,174.60803420664888 30.59590871987166,175.321254533108 29.189598614524584,175.50049044025582 27.974616639563465,176.1004250903934 25.981835996120935,176.5412600817108 24.099412711992045,177.33039280310186 23.578652098716702,177.69136883873216 22.638113111039274,178.9345090195493 22.325707192139816,179.11531899059628 21.455418546349392,178.64993046673044 20.99856009922223,178.7506800819101 19.615708815385005,178.7985854411745 20.105821613469743,178.77548332251536 19.876488510577474,178.83321115529543 18.322614850476384,178.72505370764338 16.473782244487666,178.4749898596965 14.771966661559418,178.51214011336197 14.705205714286421,178.56789286215644 14.64903907351254,179.382334487731 13.874225308871246,179.39841242549664 13.347747133346274,179.52379815408494 12.160133783487254,180.13442340055553 12.035650682169944,180.05985170970598 12.0,180.27939604973653 12.069871973784757,180.28005451619902 12.137852107131039,180.14221528316193 13.444987732247682,179.49850154852174 14.07795550438459,179.39566875059245 14.68342852871865,179.39451640709012 14.737367001871462,178.98652970150215 14.827754934260156,178.89999314746456 15.718559538683621,178.93308229097238 17.53350718024012,179.3935835575394 17.59228035673732,179.29223206037204 17.460398057242855,178.78859830374495 17.55633538828988,178.69251312578854 18.62728524400154,178.8380400954411 19.83680190211453,178.91502868230236 20.727774670143845,178.85867283273546 21.443647094682092,178.96776275495722 22.23317517391115,179.1912095319385 22.36236685588665,179.70219086820725 22.56504602894711,179.834050578389 22.828978791527334,179.82905714795925 23.052342086783028,179.65938986379842 23.13671817065915,179.38617563389926 23.052342086783028,179.14840794400516 22.7614611080935,178.94586797208467 22.76595948424074,178.86169091834745 23.678457192436326,177.68846041087818 24.08902861000388,177.4037077672947 26.02610506254132,176.59449139291246 27.98121706067468,176.1620533985988 29.13246503304981,175.55855259253804 30.703197093564086,175.35643225425156 32.132713775048614,174.59683858084463 32.73759822679858,174.08156177179626 33.95758306872449,173.3464197955036 35.104164501375635,172.67953832738567 35.98550990356307,172.2752655016302 37.401867783715716,172.07395071642168 40.14604541118024,172.02883585884047 40.60513202594302,172.09145877913033 41.51842851120455,172.46927968146338 42.32729540389846,172.29590185252528 42.95450357289519,172.31747121774606 42.95000519671885,171.66001162826797 42.85028418479487,171.2911288818359 41.830960552804754,169.60429887894134 41.64022099500289,169.06205798748488 41.64909162465483,166.21981670820242 41.54020569677232,164.10018111889804 46.55169103677326,163.80791418330773 47.7926122462959,163.68670288437352 47.96262564098288,163.60940851794658 48.0,163.40733350099617 46.42582058580592,161.08270619265386 46.702533781615784,160.70136657992043 46.546814292509225,160.50630322409415 46.38277070542972,160.627360112514" stroke="#4dd2ff" stroke-linecap="round" stroke-linejoin="round" stroke-width="0.5"><title>2024-05-20 22.6 km</title></polyline><polyline fill="none" points="68.02296371920966,163.09744433571905 67.8999901401985,163.4210466694749 68.18578348582378,163.551761072129 68.05758868224802,163.64452596270712 67.80463409124059,163.4213158140301 64.22074431707733,158.09507206118724 63.844060443516355,158.18192353603445 63.532779277913505,157.94101805723403 62.95294854789972,158.03926454021348 59.358822425536346,159.1414087963276 58.850783533504,159.16087827792217 58.699368020606926,159.32004330071504 58.666666666656965,161.19383489604297 59.04506804828998,164.19770323265402 59.146194924396696,166.17011720187293 59.80400052157347,168.5655287679765 59.94854600215331,169.79531398105973 60.05922222323716,173.61126751083793 59.80180211120751,177.1991591771839 59.954522930289386,177.72700999589506 60.402655140234856,178.46115008504785 61.485921840619994,179.30739594285478 62.110201679955935,179.39314102846402 62.67141462233849,180.59562248185102 62.76704547260306,181.94480959226348 63.02261067589279,182.05243475166571 63.92196661035996,182.05898194276233 64.14613576579723,181.91494357700503 64.0702906086808,181.21026282802995 64.37600704815122,180.44530238039806 64.1742341981153,179.1637098711799 64.46806548157474,177.57148059290193 65.17712152004242,176.96344114794556 66.30243281836738,176.45531681487046 68.24287345464109,176.0354495545762 68.41977678754483,175.7231260035478 69.12924502795795,175.50193323133863 71.27283252068446,175.1495121148655 71.72536155136186,174.96590071661922 76.67851747243549,174.19978585772333 81.4740748515178,173.64158607630088 84.60179447787232,172.3620936791849 92.82247518358054,170.73479259586748 93.64557375901495,170.4790455727998 94.1314911468653,170.46621782653165 94.66666666665697,170.26142204530697 94.65285790161579,169.76409645503736 94.13973518568673,169.77638611516522 93.24182195798494,170.13287489087816 92.43005893597729,170.2411487506797 91.9450346523081,170.10246488254415 91.07817397086183,170.4058466490751 89.20609015642549,170.59628925475408 87.87275427865097,170.97672416981004 87.14164543634979,170.99089736549286 86.2703192338231,171.28108834027444 85.31524733707192,171.42443410089618 83.8552967631258,171.8933105365286 81.73238806775771,172.79140475142412 80.43828007465345,173.0723480189372 76.46671437518671,173.46972087329777 75.69974396406906,173.17900206987906 74.14484954308136,173.3582235133399 73.13481738750124,171.40846694267384 67.99459048564313,163.78340389201549 68.20618748190464,163.50501971519043 68.02619263439556,163.55283764806518 67.8655712781474,163.38498128754873 67.76966562660527,163.19038934527998 67.90273815314868,163.0943940144789" stroke="#4dd2ff" stroke-linecap="round" stroke-linejoin="round" stroke-width="0.5"><title>2024-05-23 13.6 km</title></polyline><polyline fill="none" points="105.33333333334303,160.82508044216956 108.78837191293132,160.2030118532566 110.97789244999876,160.0791724713199 123.01897879244643,159.89105582155025 124.51551946913241,160.03099349459808 125.01242943381658,161.54936443616316 129.13650040555513,178.92833480365516 130.50458756732405,178.72566365682724 131.85207286305376,178.29272966313874 132.9901938965486,178.2342155651495 134.58014730754076,177.77702237737685 136.74096609969274,177.58113089267863 137.9159767992678,177.1884267716814 138.92995838378556,177.13474019485875 137.80328283135896,177.22337475910172 136.74343128022156,177.5781419342893 134.49342577758944,177.80001430359698 132.90849076982704,178.25686248056445 131.74941570163355,178.30974357733066 129.42853625828866,178.86441815137368 129.3191878925718,179.1238780514177 129.5276717331435,179.78913529219426 139.06545527171693,177.96854491711565 139.8930515983957,177.67873181678442 141.04085726980702,177.56917505848105 141.33333333334303,177.44237412834627 141.3018142391811,176.93424867116846 140.80270322045544,176.73467632444954 139.70067947352072,177.1677338770387 138.5247883523698,177.3543146129232 137.89018044568365,177.17647087766818 136.63830893830163,177.5994095201968 134.53101978093036,177.7700098385394 132.82326595662744,178.2585868647002 131.7645589535823,178.29859256641794 130.66526451372192,178.67554184038454 129.4075822236191,178.85970487097075 125.88334250438493,180.10894417845702 125.2625572171819,176.2486189688716 124.81319002024247,174.5103759682388 124.52793341403594,170.5193990436892 120.10663210193161,171.06700059698778 119.28449438934331,163.28927445648878 119.09106575849,162.80957274581306 117.74578151686,162.95008011830942 117.80239262725809,164.39768233579525 113.32007809664356,164.74802335243294 108.04943404381629,168.3361979300753 107.51352140115341,167.91136975437985 107.11759579679347,168.15499950922094" stroke="#4dd2ff" stroke-linecap="round" stroke-linejoin="round" stroke-width="0.5"><title>2024-06-14 12.2 km</title></polyline><polyline fill="none" points="176.37080612838326,166.95071705018017 175.8060637403687,166.136459894582 175.7285489092319,166.28436681898165 176.05143786332337,166.73817410302036 175.77416868475848,166.888064787041 175.1782174771215,167.1311142218965 174.7118455272721,167.2458196917869 174.58471285001724,167.07641075963693 174.27602599740203,167.08786576746752 174.22449862504436,167.12655560434723 174.25812418881105,167.3143544153263 174.21963530038192,167.36788852215068 172.6749479107093,167.63657044591127 172.4727171464474,166.21847898355372 172.46504920511506,164.73784935815456 172.36208396941947,162.75962533251732 172.31022839724028,162.4811517656708 172.17035559953365,162.19460853804594 171.52430916421872,161.58176275369806 171.1966165581689,161.67049883484287 170.29347031531506,161.7629757793202 169.45166760319262,162.21253462954883 168.86290695534262,162.14309044251968 168.5523105764878,162.21705512028348 168.31338110464276,162.3094522235915 168.3109941968287,162.57366485840976 167.04482911231753,162.80440061692025 167.0382651158434,161.77014633383806 166.91450394585263,160.95561352516052 166.9551410513377,159.26540069675502 167.41524736818974,159.27709291618885 167.72497849295905,159.3611987963668 169.6589407102001,160.259415844439 171.10349731720635,161.22135949789117 172.01923449875903,162.0998728405757 172.24619959521806,162.44003906212674 172.3533120832144,163.33519047296613 172.4262917895394,166.36443726845755 172.55602022903622,167.21480562578654 172.59665733450674,168.12736769705407 172.88225085407612,169.2268655878197 172.9670457540342,170.496758085259 172.96355490136193,171.2431364076292 172.84355311118998,172.82651571559472 172.90227104332007,173.07438009582256 173.0669378458988,173.3527816666101 173.59883041518333,173.78625182331962 173.90319099738554,174.26821030014253 173.95826889511955,174.75763870503215 173.85930173001543,174.93829452215505 173.770747450224,175.00334278020273 172.9670457540342,175.1113147471042 172.3095123249077,174.8450843756309 172.03734516179247,174.7902020262154 169.99221271327406,174.84181247153356 169.10091150041262,174.92914101199312 168.6035992580728,175.14321547162035 167.72306896671944,175.64914260296973 166.74583907268243,176.23876206269597 166.2761552882439,176.62326574244253 165.23767137252435,177.15712929004076 164.21792468312196,177.285812677399 163.38459549371328,177.70792409104615 161.98407733580098,178.02039439035252 160.6016698409221,178.60182162564706 160.25419573638646,178.84176521771406 159.5761349000677,179.7330932829409 159.39079150857287,179.83384142398972 159.2027031730977,179.78987368922026 158.7404188028595,179.51582338001572 158.3915423899889,179.5909470155566 157.6224806934042,179.63230581608696 156.47288621909684,179.56590582727767 155.20117157390632,179.39096735053317 153.98143184631772,179.4109848569642 153.90609506855253,180.0395035300353 153.09603823031648,180.07217721570487 152.18286697464646,180.55456699616116 152.0,180.5447144466816 152.0205572435225,180.73459930324316 152.1325628925406,180.5522304235019 152.68101463472703,180.3307613456036 153.03905080634286,180.11774116801826 153.45726689111325,180.0407497261731 153.93503632575448,180.0409833879403 153.9762999945233,179.74598376990616 154.0489515010122,179.68090816618133 154.6015504955285,179.70271688414869 155.6652162886603,179.99366683782318 155.9955046569521,180.03529761765458 156.0261465859803,179.97302667024815 155.90945663038292,179.6064468372224 155.97569332213607,179.54892609678245 156.58175905160897,179.6380306167539 157.5980148883391,179.69777098003215 158.18767062661937,179.6543871832764 158.75462090433575,179.73979166366553 159.3041169187054,179.89942292341948 159.4014430846728,180.26650498177514 159.51670089557592,180.3406918607161 159.72137824034144,180.33819949648932 159.8916841126338,180.21307472346962 159.93652814313828,180.02525015757783 159.86587567193783,179.84412261985926 159.66835905059997,179.6679787035173 160.30888576159487,178.83931165842296 160.60340034909314,178.63430234893895 161.98258551843173,178.04668332328583 163.38569943857146,177.7373680400906 164.22072929979186,177.3054812395494 165.26094372366788,177.18715806595537 166.36438136819925,176.60651782518835 166.79089195760025,176.24074847159318 168.50033565890044,175.24016383662092 169.21575160245993,174.93778815784754 170.03070160170319,174.8478888645368 172.1557954618911,174.81291063449135 172.98476854452747,175.12736249120462 173.65724998383666,175.00521242838113 174.48631257552188,175.02106548161646 174.75033441573032,175.10488785658163 175.3062750811805,176.02979880714702 175.46184179773263,176.13885718822712 177.5401522648317,176.5098081339056 178.67279969368246,176.51942848542967 179.56660715972248,176.40819052401093 179.49574583409412,176.2052267841027 178.89060503139626,171.3889891948602 178.93986484134803,171.27126299564043 179.73709205011255,171.14048579588416 180.20185283718456,171.2827551525388 182.03007503841945,171.0747658223081 182.53508505845093,170.94020883139274 183.43936508250772,170.5417930412059 184.774631148146,170.17960231212055 185.1183458728774,170.17009654083813 185.757977493442,169.99260290843085 186.51304594300746,169.9243477984146 186.85789444895636,169.80630344455312 187.17693451418018,169.85141748721435 187.48445774923312,169.78740850756185 187.66135745435895,169.68296017029388 187.91896447981708,169.66270158664156 187.99185467709322,169.71810098453898 188.0,169.88901246428577 187.9508595354564,169.93116552561878 187.58088882478478,169.96564371925342 184.05005544587038,170.67997508129702 183.98960700556927,170.6576914741272 183.8905204950861,170.39336439431463 182.77335813063837,170.79645726937997 182.5643545154744,169.50974878180205 182.3986732770718,168.83103444341396 182.3065983082779,167.53238639121628 180.81976359667897,167.73510465296386 180.72921028159908,167.31938054783313 180.50648194651876,165.05109557399373 180.3874349194666,164.93396475538066 179.99392333053402,164.9949071352712 180.0257288771245,165.47266093809776 178.50810305472987,165.59247795376177 176.70163155093906,166.81898348244613 176.53902345633833,166.66570260876506 176.31253574145376,166.76455211935536 176.19745694861922,166.57285308840983 176.37993605075462,166.42825967294448 176.53356340472237,166.63188251049723 176.38864826427016,166.7419535249901 176.45333346593543,166.74943444110795" stroke="#4dd2ff" stroke-linecap="round" stroke-linejoin="round" stroke-width="0.5"><title>2024-06-18 37.5 km</title></polyline><polyline fill="none" points="44.221201210224535,201.12443861753127 44.328531580234994,201.08949308944284 44.43699059388018,201.32911881172186 44.18825209731585,201.52861538404613 44.05656486925727,201.43324134167415 43.1093779947405,200.08818073828297 40.88241844851291,196.58719571807887 39.90960044086387,195.42035448412207 38.50738813744101,194.0203558882058 38.325203208165476,194.1003438490916 37.925117239385145,193.73483244941235 37.359921627430595,193.7571360863658 36.894956852906034,193.30026513504345 36.60460417284048,193.61794021629976 36.51161849948403,193.6317789851637 35.75651949206076,193.17214798652276 33.540555119441706,192.14790594463557 33.008599883294664,192.02278041293175 32.46663248575351,192.0 32.52033407862473,194.22665023932495 32.67637816473143,195.2105963159156 32.67728836121387,196.4932336943748 32.50977579933533,196.84730172204218 32.06326980960148,197.26351453961615 31.313522757511237,197.3021255801723 31.277005674361135,197.3568086254454 32.095782028191024,197.28010968460148 32.55907204121468,196.80888034491363 32.71850205824012,196.37920451654645 34.26022927951999,196.1097745158877 34.27661281633482,195.77652654724443 34.828774414549116,195.61051946759835 35.67252656003984,195.68132579943267 36.75518708000891,195.10008160490543 38.14742362991092,194.94077617367657 38.79420925513841,195.579372241089 39.04473173682345,195.97810203341578 39.12541155361396,196.3181954131178 39.19520542040118,197.63188671987155 39.25385848217411,200.78838944881136 39.413943840700085,201.770092076913 39.47259690245846,202.8754704091407 39.84126288845437,204.29657502721966 39.944369946751976,205.79871742504838 39.94589907684713,206.73710515889616 39.79855646917713,208.61969341362783 40.07409115038172,209.29580894444007 40.702964108699234,209.7938552290325 41.03169067275303,210.32193374880444 41.11328068605508,210.6003241587532 41.10934863721195,210.9318513672879 40.94467588838597,211.24512364278416 39.89900575373031,211.3792532539228 39.17572721555189,211.0655069698878 38.78248592434102,210.98442010171493 36.317127713700756,211.03009684429708 35.253180833518854,211.16655632391848 34.57581260625739,211.46138479030924 33.505093864223454,212.0749407153453 32.28699610664626,212.81253279648809 31.741351515287533,213.26033649922465 30.577610692067537,213.87062662941753 30.27571672051272,213.95698168469607 29.30144239847141,214.04048495109964 28.24055377850891,214.56754386600005 26.515658615753637,214.9585789798948 24.86430732932058,215.65224124852102 24.42599310798687,215.94056581129917 23.582568633224582,217.03362863374423 23.335177227447275,217.17481501262955 23.116329583586776,217.1127044867426 22.555066020489903,216.77396955001677 22.170198537001852,216.8609821866885 21.165778507231153,216.92295062897028 19.819961978282663,216.84468218565598 18.264836664689938,216.620805833154 17.024348073493456,216.6290746963823 16.73719928508217,216.69508296016647 16.657611704067676,217.422067901829 15.674890758600668,217.47533893885702 14.775871482270304,217.94655333264745 14.477727520265034,218.06768226872737 14.403127816010965,218.0127014777354 14.48846783884801,218.06549634450494 14.79891765739012,217.94512772458984 15.616164881110308,217.5049920027668 16.55836387888121,217.4171732347968 16.692053539212793,217.44810941881587 16.72762401800719,217.76355226627857 17.26307440866367,218.49322188763108 17.868173034701613,218.34244226774535 18.184011216450017,218.38402196813695 18.609473463366157,218.6679029793886 19.54289816696837,218.65958711630083 19.589463819371304,219.09343472977707 19.46709700334759,219.5015218038061 18.23549192988139,221.05404000664566 18.054581275689998,221.53617842474705 18.116620268381666,222.96957969556024 18.026073921646457,224.19505719099834 18.22675404358597,226.63090855260816 17.144566825780203,226.62824812926192 17.194518409116426,226.70578037744053 18.258756552138948,226.7410783923624 18.316863496002043,228.0 18.381960748913116,227.96061787110375 18.39572291984223,227.81206748100885 18.336487332344404,226.7642619936414 18.40923023574578,226.70321497514306 29.825315089794458,226.6863023178048 29.91658959373308,226.41142289357958 29.800812600311474,225.60876735805505 29.096830227717874,224.333124217781 28.753140033368254,223.08484582341043 32.469071812331094,220.7297436062545 34.32736537256278,219.7728008823542 34.09380895343202,219.0289044222627 34.195896591671044,218.7719223668355 34.32124885216763,218.02477159885893 34.29896724210994,216.61624370080608 34.51089739265444,216.0799985940248 34.8663109177578,215.91642401440913 35.91918980861374,215.1734371772909 37.58579598819779,214.88425035396722 37.83162185602123,214.78910566238847 39.265254142228514,213.05188184021245 39.662500297956285,212.8510302796749 40.22500172829314,212.75198234162235 40.34147047105944,212.67422664676997 40.71526996525063,212.07745974512363 41.12074429723725,211.72555414422095 41.18609640518844,211.28400322568996 42.025916501836036,211.31166568783374 42.11027351244411,211.26118880615832 41.90329483081587,209.7075366267636 42.1659047218709,208.4163426373816 42.30804100562818,208.19982352121224 42.35209451572155,207.93980853480025 43.10027602982882,207.72114715262796 43.18987577223743,207.60159579557148 43.07955995773955,207.45190641764202 43.04377103179286,207.1965439667838 42.96771501314652,205.8058005952298 44.15570347085304,205.70668361026765 44.02205021838017,204.01190269356812 43.97249912151892,203.96027347564814 43.88493821925658,204.0207452585455 43.85821485033375,203.93835718058835 43.95786316196609,203.97605700218264 45.415306188340764,203.78670171791964 45.37198083545081,203.7171966889946 45.54393515617994,203.6377553962775 44.826227020530496,202.49569994207195 45.14490501533146,202.28394317148195 45.37766046154138,202.35478247852006 45.59687218400359,202.16812770272736 45.59148382078274,202.06048931011537 44.88116648061259,201.0803644554835 44.45683287734573,201.29498176338166 44.28983002551831,201.08721093119675 44.13440487302432,201.17117523094566" stroke="#4dd2ff" stroke-linecap="round" stroke-linejoin="round" stroke-width="0.5"><title>2024-06-24 34.9 km</title></polyline><polyline fill="none" points="61.57035752106458,208.85074697202072 73.63728036731482,225.97704540367704 77.61330468673259,228.0 82.58586620446295,226.34159301186446 84.33884600643069,218.48774140700698 74.263551203534,204.23999952420127 68.97713109012693,202.9045607825974 62.124310709536076,205.8285464933142 73.09923706110567,224.96651133918203 79.32000119332224,227.4012359919725 83.55926175508648,224.33185776497703 84.27954553533345,218.85040227591526 74.9418907482177,205.19766124885064 67.36300117429346,203.39378107665107 64.00167686678469,210.99461613909807 73.92655096109957,225.96760116366204 81.87715324852616,226.18292981688865 83.9063864685595,218.16474648576695 74.27656838018447,203.7526684323093 66.4749404489994,203.45422526984476 64.46450981870294,210.97194969956763 74.35756414663047,225.84293718996923 82.0160031337291,226.72880667925347 84.57894060015678,218.64451669121627 74.40384744200855,204.18711088749114 67.07806963846087,203.5222249837825 64.29239381477237,210.90206150861923 74.36913497094065,226.00160042732023 82.14906760770828,225.66727429779712 84.23904765211046,218.24030086037237 73.94535354990512,203.93777871353086 70.4900162992999,202.5551176017616 72.89964035153389,224.5925190920243 76.72669031564146,227.42956867988687 81.38105417974293,226.79491631884594 84.55145989358425,223.56498427886982 84.27809918206185,218.14396903163288 74.4617015607655,204.09644464810845 67.13592375721782,203.08778230415192 63.687818272039294,208.99430131865665 73.81084272358567,225.60683114698622 82.31684455182403,225.9713788595982 84.8146961349994,221.8706833573524 82.85633421037346,214.17169146321248 91.76297581288964,207.1280935680261 82.79124832712114,192.0 65.64473384339362,202.93289400916547 64.89696935657412,212.69270909728948 74.60055144596845,226.24903948383871 63.016710492782295,210.14273551409133" stroke="#4dd2ff" stroke-linecap="round" stroke-linejoin="round" stroke-width="0.5"><title>2024-06-28 3.3 km</title></polyline><polyline fill="none" points="107.08291051723063,201.43538410181645 124.79735534172505,227.03969999426045 134.99013792257756,227.73100034659728 138.8572822920978,214.2636159849353 123.26688755303621,192.64213977288455 111.21140828449279,192.0954532227479 108.56908111926168,205.40390127443243 125.53711835388094,226.91532375477254 136.8439751714468,225.4343781573698 139.40213768463582,214.15080889838282 122.25248198583722,192.0 110.7152797980234,193.06734031741507 108.2922237040475,204.70970059500542 124.81728907581419,226.91821622557472 138.4696819121018,224.03152827639133" stroke="#4dd2ff" stroke-linecap="round" stroke-linejoin="round" stroke-width="0.5"><title>2024-06-30 1.4 km</title></polyline><polyline fill="none" points="109.55690837558359,204.18326491804328 127.5570700513199,228.0 136.84840489085764,225.62817383615766 139.58375614881516,216.02224871446379 121.15612662304193,192.35867269185837 114.07522138301283,192.0607429613592 108.59565943013877,197.57098944624886" stroke="#4dd2ff" stroke-linecap="round" stroke-linejoin="round" stroke-width="0.5"><title>2024-06-30 1.4 km</title></polyline><polyline fill="none" points="186.24971467701835,196.8386267668211 186.38814461046422,197.09908450168223 186.50546239882533,197.08158496826218 186.4074868751195,197.14778599043711 186.1072393025679,196.80913048856382 184.11966358222708,193.77886974444482 183.88304742505716,193.65432570900884 183.72439028673398,193.62911966306274 182.9806612469838,193.79741647885749 181.11128825521155,194.39580516140995 180.791529857961,194.3988320274002 180.6994539356965,194.4929949547368 180.7194283005083,196.16802095340972 180.93813495339418,197.606072159655 180.94239109441696,198.5081003527339 181.44250873527199,200.6075211716634 181.54857514089963,202.63667181663914 181.36197917581012,205.37528458271117 181.45510859832575,205.76156284001263 181.686372974189,206.19977285943605 182.40852632872702,206.76302889979706 182.8317805910192,207.46271339637678 182.89035520516336,208.10219976133158 182.68740891611378,208.42089360658792 181.49320316751255,208.60287741693173 180.59292398994148,208.23296744048275 180.0759924850281,208.1520972845392 177.40520077958354,208.1933575899384 176.0930030024756,208.35812329092732 175.04793074990448,208.84234872343586 172.71017154495348,210.2223184504801 172.00849823537283,210.7891998338746 170.60650009656092,211.51482852629852 169.2060611381312,211.68513552652075 167.94995171457413,212.29825633714063 165.95685565291205,212.74398107329762 164.09211806225358,213.52936346251226 163.51888750372746,213.92397368593447 162.59420926027815,215.13429120485307 162.31064913173032,215.30815701093525 161.93728864150762,215.1873695890863 161.3857601882337,214.86103259528682 160.91880673538253,214.95607929362086 159.71819570523803,215.01702346207094 158.28640457920847,214.92912741863256 156.39402314189647,214.67473376853377 154.87875265569892,214.69508532393593 154.65271364108776,214.79249761615938 154.58625884504,215.59191791902776 153.3729636718199,215.65814132317973 152.41162361948227,216.19298453800002 152.0,216.31178866123082 152.4372026056517,216.19760470537585 153.4014503186918,215.6823425380935 153.94745843064447,215.5985182635486 154.59022000597906,215.63074992929614 154.65473636155366,215.97237088484326 155.42429722753877,217.0534259082051 155.8426211086189,217.96714202834846 155.54237353608187,217.2813482677484 156.22647446140763,216.85063764650477 156.37653503766342,216.81637198728276 156.8573525538668,217.04066573524324 157.90752374764998,217.02125046374567 157.96479202150658,217.5282442636235 157.82547714782413,217.99827167507829 156.5417660175881,219.5835945824183 156.29267641740444,219.99392520188485 156.18349165101245,220.39539701056856 156.2470387863723,222.0327526117071 156.14999034290668,223.40569395561033 156.3988692430721,226.2242294542266 155.10828929117997,226.26684459910393 155.24090390323545,226.36147754160993 156.53211595526955,226.37088033693726 156.23477604342042,223.521780703908 156.28302635507134,223.30208994186978 161.27059154040762,223.24863807785368 156.2377679841302,223.21261851754753 156.30194721963198,222.29001108117882 156.41146910609677,221.85660818471297 156.29128579706594,221.43540903105895 156.25635172861803,220.87424277649916 156.31787614348286,220.12118672998258 156.51374291082902,219.74402058393025 157.77608905590023,218.16827429085242 158.01148315277533,217.56311427351102 157.98801116709365,217.13444190530936 157.39438484364655,214.92082183693128 159.77238775833393,215.1216403871622 160.6644917739177,215.05811121660372 161.3730760451581,215.16179296768314 162.19173002299794,215.39297199034263 162.3142731726257,215.87408161250278 162.53437044582097,216.03034328417561 162.7190279704373,216.04997907656798 162.98476287466474,215.88755721344933 163.0851403789129,215.59312798227984 163.0070549400407,215.36514037747838 162.70625954735442,215.13583130409825 162.71266482888313,215.038914935285 163.6099099257408,213.89020040553805 164.04968307202216,213.5919051139099 166.0276087300008,212.76961434787881 167.98324232263258,212.33604660697893 169.16729232875514,211.7340381367976 170.62786508172576,211.5539397952307 172.2187347461877,210.71174580303705 172.73254789036582,210.2494937454976 175.23701297560183,208.78387011431914 176.0991133039497,208.41126626437108 178.17071620457864,208.21816876509183 180.07978508593806,208.2088164393681 180.63995224131213,208.26856125665654 181.50567661054083,208.6503537012686 182.55572138428397,208.46677473500313 184.00639123487053,208.5027534223991 184.05927694766433,208.32918619510383 183.86509578072582,207.44752931388211 183.77731813951686,206.60117205126517 184.08161115304392,205.18420714361127 184.2482748933253,204.91791850642403 184.29922216564592,204.63292155081217 185.13949396870157,204.37999869594205 185.271476480586,204.25196857444826 185.12407072498172,204.00883668666938 185.050157147125,203.17186554679574 184.99583867398906,203.16834419835504 185.01539163872076,202.17272470340322 186.37546046738862,202.05349068993746 186.26973118184833,199.98424981266362 187.83493758010445,199.83012240471726 187.81833441609342,199.72309675282668 188.0,199.6262506557723 186.42560707950906,197.25542431095528 186.71797447015706,196.8806148990734 186.34516180005448,196.3767542126734 186.0358962653263,196.58278980601244 186.2637051603815,196.8467162271554 186.51852580197738,196.67017849288095 186.3866697101039,196.77715781747247" stroke="#4dd2ff" stroke-linecap="round" stroke-linejoin="round" stroke-width="0.5"><title>2024-07-06 30.2 km</title></polyline><polyline fill="none" points="35.27322930376977,267.6066307638539 43.75198347866535,261.83805098675657 42.595701394602656,252.326070160605 28.858292900025845,233.73593540256843 21.083024631254375,233.41362004273105 16.005100115202367,238.47421805781778 15.993440128862858,246.2858844465809 31.460413422435522,266.5635673882207 41.8125389078632,263.60441093705595 43.5595936877653,254.27009183552582 29.167282565496862,234.2993526585633 24.145714656449854,232.85020249779336 17.67442164570093,236.42866216565017 16.230526538565755,245.8544418035308 33.04617170896381,268.0 43.950203265063465,262.18573979858775 43.23505736980587,252.51387391635217 29.27416578307748,233.80445913260337 17.5617084344849,235.23584309860598 17.410128597170115,247.8822212909581 31.23304366786033,266.42906038684305 42.984367640689015,264.1399018871598 43.87052668444812,254.46297115192283 29.005986073054373,233.5278262796346 21.5882907519117,232.9542571034981 15.944856848567724,237.51742608682252 15.65335716214031,244.95348770194687 31.895719618536532,266.67269570287317 43.060157558880746,263.92164493270684 43.30501729436219,252.49357080832124 28.32193347811699,232.95933293749113 21.496954184025526,232.6217899278272 15.427930738776922,237.34231025760528 15.416270752437413,246.27573285624385 30.461541167460382,266.1803492991021 42.160395197570324,265.1271335844649 45.34745842125267,261.23911243502516 44.29805955570191,253.90463623020332 31.34187021665275,234.97697587311268 24.077698062174022,232.0 19.609979555010796,233.87298285996076 14.897401311434805,245.25295982242096 30.778304158709943,266.5077342942823 40.20540397614241,266.9061795155285 45.47377495281398,256.71153633017093 29.631738729774952,234.32980764086824 17.855151450261474,235.12417488824576 15.20056098420173,244.50427942560054 29.165339234285057,265.233724120073 39.076328529044986,265.94178965117317 44.461299379356205,257.6886207398493 31.567296639084816,235.41857288137544 20.270712175406516,232.81467165565118 14.526225046254694,242.94600800354965 28.240313567221165,264.3200907484861 36.35760813206434,267.95685628184583 43.01351761072874,263.6475547635928" stroke="#4dd2ff" stroke-linecap="round" stroke-linejoin="round" stroke-width="0.5"><title>2024-07-08 3.5 km</title></polyline><polyline fill="none" points="73.17417096113786,233.13258867795594 72.99554780178005,233.3113031837238 73.0703535291832,233.4150056812141 73.219170867902,233.41445260184264 73.0505006291205,233.50017982861027 72.00163221391267,232.0 71.82311493670568,232.03878583910046 71.80225615637028,232.2281515366958 76.2678880810854,238.83653124006014 76.90148676844547,239.9099227199331 77.155445065815,240.55402883404895 77.66839106191765,243.69438677220387 78.72445946221706,252.33682620902982 78.79232990986202,252.4684752417379 80.04888613009825,253.08407644835097 80.21819166166824,255.6264907088771 80.36076195453643,255.8375289155083 80.50057931191986,258.12737790492247 79.99419800809119,260.31727289620903 79.9528510349337,263.23342817402954 80.07625666158856,264.0274181173845 77.56573833341827,267.2073204026383 76.83938689707429,267.99578585917334 76.57489332740079,267.95702956291643 76.1565530176158,267.52283251829795 75.54857780665043,267.3789283049082 75.28302541561425,267.17740640093325 73.97649282834027,263.94064088982486 73.87934597078129,262.5583327640379 74.33696855211747,258.1248903508713 74.4160095647967,258.0211730499432 74.66806198380073,258.0201365667526 79.89355704013724,258.26522965371623 80.41052655733074,258.30786342133797 80.46161468676291,258.3850463354247 80.01886854521581,260.2380202726454 79.9528510349337,263.1098237697879 80.06561550716287,264.0049638341552 77.28605067759054,267.5670468788594 76.89291031559696,267.96338532134905 76.66288138038362,268.0 76.17344121792121,267.5338170273644 75.5263425585581,267.371467104731 75.23511375015369,267.10901172997546 73.94615759706357,263.8446053963198 73.86605776302167,262.5438924845148 74.35581557187834,258.12565043685026 74.81010286600213,258.04901988929487 79.93151578499237,258.25914898357223 80.38172661696444,258.3121475255284 80.46134998142952,258.4344516259807 80.00346269478905,260.28700905041114 79.94295105544734,262.4617417194022 80.05852140422212,264.05222145170046 78.20171936874976,266.46430073030933 76.88248092544382,267.9924007294103 76.56319335164153,267.95136464708776 76.06872378784465,267.477927265958 75.40420751748024,267.30873770851395 75.15485509292921,266.98610832980194 74.06601617229171,264.19820850063843 73.86701070220442,263.32808308871245 73.86642835050588,262.5639983270448 74.22992171504302,258.8880105063399 74.80216170597123,254.79773855029998 75.20340205114917,254.24677235795025 75.74551857507322,254.00988186851828 77.6846969104663,253.86856244260707 79.49094022720237,254.01575577192125 81.53107717697276,253.81583533082085 81.36013047228334,253.66456416806614 81.30676587700145,253.4497845439364 78.85834742014413,252.18741620577566 78.66468899784377,250.46550434087112 78.4341835930245,249.537141376637 77.39685633036424,241.31383877806002 77.63715583251906,240.7967933124346 76.99048070167191,239.44304743332395 74.0159868641349,235.03197466245183 74.05145737892599,234.72523253059262 74.35597439509002,234.49930533943552 74.37625082366867,234.35025363794557 73.2915942473046,232.9767573725112 73.15188277201378,232.94253525556996 72.87542452127673,233.119038150111 72.68256021494744,232.92338468635717 72.85673632469843,233.12270232385345 72.96505374732078,233.0783865431622" stroke="#4dd2ff" stroke-linecap="round" stroke-linejoin="round" stroke-width="0.5"><title>2024-07-16 23.6 km</title></polyline><polyline fill="none" points="125.91535062529147,244.51559915556572 124.63004876265768,247.99973631717148 125.64787033805624,251.28118764434475 125.0151559234364,252.4415452174726 119.50414891855326,249.9268216037308 115.27924943994731,250.1975624943152 110.24250969162676,254.19917981672916 107.83142734237481,256.7809644943336 105.33333333337214,258.1273225338955 106.23218526283745,258.65051679257886 105.51514473359566,257.88183610502165 109.74863795621786,255.06985400427948 110.04377935768571,254.31312170097954 109.40811084350571,254.19917981672916 109.68660186557099,252.91292862940463 108.75606050435454,253.46636289628805 110.61741178110242,252.13293644873193 108.85300868086051,253.56801396078663 110.56692353403196,253.90784713471658 114.42578322184272,250.450032274588 117.12207045592368,249.88961547170766 119.03605841565877,250.18693218240514 119.45661477104295,249.12755299528362 123.35736896167509,247.55990310397465 123.8979691809509,247.9695061125094 124.84113260393497,247.5329948546423 124.18585961067583,248.20636465589632 125.23349073622376,251.31573601189302 125.0943795023486,252.68637236696668 127.35936820076313,254.67022786772577 130.85433653369546,259.56303151126485 128.71879110694863,261.07181296724593 127.89862564753275,261.137585276505 128.87535838363692,261.11001405789284 129.897208276554,259.86399125517346 131.32269559113774,260.03971703810384 133.73780625802465,258.68240669442457 136.80093894619495,258.38244215081795 139.98357838927768,257.0457188928267 141.09082861500792,254.91305978244054 141.33333333337214,242.8615479140426 141.00301129184663,241.92007282044506 137.07379032368772,239.5534140317759 132.59242129244376,238.86241472349502 129.64933246804867,239.6650368255505 126.56176131975371,243.6561848037236 125.58851979242172,242.947589399555 125.74696695047896,242.6349829401879" stroke="#4dd2ff" stroke-linecap="round" stroke-linejoin="round" stroke-width="0.5"><title>2024-07-19 4.6 km</title></polyline></g></g></svg>