<?xml version="1.0" encoding="utf-8" ?>
<svg baseProfile="full" height="200mm" version="1.1" viewBox="0,0,200,200" width="200mm" xmlns="http://www.w3.org/2000/svg" xmlns:ev="http://www.w3.org/2001/xml-events" xmlns:xlink="http://www.w3.org/1999/xlink"><defs /><rect fill="#1a1a1a" height="200" width="200" x="0" y="0" /><text alignment-baseline="middle" fill="#e1ed5e" style="dominant-baseline: central; font-size:9.0px; font-family:Arial;" text-anchor="middle" x="100.0" y="100.0">2022</text><line stroke="#e1ed5e" stroke-width="0.3" x1="100.0" x2="100.0" y1="15.0" y2="10.0" /><path d="M 100.0 14.0 a86.0,86.0 0 0,1 42.46469731375804,11.215312516191453" fill="none" id="id73" stroke="none" /><text fill="#e1ed5e" style="font-size:6.75px; font-family:Arial;" text-anchor="middle"><textPath startOffset="22.20632615414155" xlink:href="#id73">January</textPath></text><path d="M 103.2404852339499 79.25152402106235 l 4.782530131449673 -30.62202244013159 a51.99323882368777,51.99323882368777 0 0,0 0.8830699888883701,0.14571411460221992 l -5.3089293264769175 30.535162062589748" fill="#8fff24" stroke="none" /><path d="M 104.66035177308747 79.52364482259891 l 6.789766004183043 -29.832439060922745 a51.59534838362245,51.59534838362245 0 0,0 0.8642867344892775,0.20454874606917117 l -7.302276425634844 29.711144402712705" fill="#93ff23" stroke="none" /><path d="M 108.43124777332544 80.76684994638697 l 12.407312685448138 -28.303249181728166 a51.90332218900548,51.90332218900548 0 0,0 0.815173512805426,0.36574459345823906 l -12.892668316720345 28.085484257753397" fill="#90ff24" stroke="none" /><line stroke="#e1ed5e" stroke-width="0.3" x1="143.23703022742887" x2="145.7803849466894" y1="26.81831364943548" y2="22.513508569990506" /><path d="M 143.74570117128098 25.957352633546492 a86.0,86.0 0 0,1 28.547481713284135,27.462654790039103" fill="none" id="id74" stroke="none" /><text fill="#e1ed5e" style="font-size:6.75px; font-family:Arial;" text-anchor="middle"><textPath startOffset="19.985693538727396" xlink:href="#id74">February</textPath></text><path d="M 116.60985879189232 87.15038557335679 l 9.830493805679037 -7.605004751042134 a33.42878536812296,33.42878536812296 0 0,0 0.34817522138536217,0.458157778702435 l -9.959944967288513 7.434662196458666" fill="#ff860c" stroke="none" /><path d="M 117.04232023915458 87.72973835380427 l 15.028093059746105 -10.820042769928047 a39.5180157294312,39.5180157294312 0 0,0 0.39271005586304497,0.5554605239428311 l -15.212115735413033 10.559755745653424" fill="#ffd814" stroke="none" /><path d="M 117.65298651832404 88.62581576622439 l 10.418586897596962 -6.712910968682883 a33.393955245047565,33.393955245047565 0 0,0 0.30718050502575306,0.4858857893928955 l -10.53259499886867 6.5325775315757815" fill="#ff860c" stroke="none" /><line stroke="#e1ed5e" stroke-width="0.3" x1="172.23445277983987" x2="176.4835382374775" y1="55.19839476539836" y2="52.563006222186495" /><path d="M 173.08426987136738 54.67131705675599 a86.0,86.0 0 0,1 12.851231095245387,41.99856678651699" fill="none" id="id75" stroke="none" /><text fill="#e1ed5e" style="font-size:6.75px; font-family:Arial;" text-anchor="middle"><textPath startOffset="22.20632615414155" xlink:href="#id75">March</textPath></text><line stroke="#e1ed5e" stroke-width="0.3" x1="184.98032266829074" x2="189.97916517819016" y1="98.17113171792111" y2="98.06355123074" /><path d="M 185.9800911702706 98.14961562048488 a86.0,86.0 0 0,1 -9.607161424134198,41.387399972396054" fill="none" id="id76" stroke="none" /><text fill="#e1ed5e" style="font-size:6.75px; font-family:Arial;" text-anchor="middle"><textPath startOffset="21.466115282336823" xlink:href="#id76">April</textPath></text><path d="M 120.99824983174949 100.27111621757518 l 8.700519278981062 0.1123356421015014 a29.70124445239918,29.70124445239918 0 0,0 -0.011000686548953852,0.5111586775621151 l -8.697296529747101 -0.2620841354537314" fill="#ff5207" stroke="none" /><path d="M 120.9764740272857 100.99374915477107 l 12.489863623331479 0.5917005595290491 a33.50387151571728,33.50387151571728 0 0,0 -0.03224930965371481,0.5758330877279207 l -12.477827962790235 -0.8066053635923932" fill="#ff870c" stroke="none" /><path d="M 120.8583938346157 102.4346265915055 l 18.255525130142907 2.130815405833565 a39.37946060337509,39.37946060337509 0 0,0 -0.08438172827738488,0.6726053982937921 l -18.216141892618676 -2.4447385584147523" fill="#ffd614" stroke="none" /><line stroke="#e1ed5e" stroke-width="0.3" x1="174.80103733775053" x2="179.2010983576182" y1="140.37084112569926" y2="142.7455964860345" /><path d="M 175.68104954172406 140.8457921977663 a86.0,86.0 0 0,1 -30.038265399797805,32.042727171017184" fill="none" id="id77" stroke="none" /><text fill="#e1ed5e" style="font-size:6.75px; font-family:Arial;" text-anchor="middle"><textPath startOffset="22.206326154141568" xlink:href="#id77">May</textPath></text><line stroke="#e1ed5e" stroke-width="0.3" x1="143.8653032363475" x2="146.44561519142675" y1="172.8068346515853" y2="177.08958963109032" /><path d="M 144.38136562736335 173.6633856474863 a86.0,86.0 0 0,1 -40.68145358897372,12.25698825130547" fill="none" id="id78" stroke="none" /><text fill="#e1ed5e" style="font-size:6.75px; font-family:Arial;" text-anchor="middle"><textPath startOffset="21.466115282336833" xlink:href="#id78">June</textPath></text><line stroke="#e1ed5e" stroke-width="0.3" x1="102.19456741930631" x2="102.32365962044197" y1="184.97166512339345" y2="189.96999836594603" /><path d="M 102.22038585953345 185.97133177190398 a86.0,86.0 0 0,1 -42.740103519485714,-10.115201625700543" fill="none" id="id79" stroke="none" /><text fill="#e1ed5e" style="font-size:6.75px; font-family:Arial;" text-anchor="middle"><textPath startOffset="22.20632615414155" xlink:href="#id79">July</textPath></text><path d="M 100.18074693466247 120.99922214144158 l 0.15557297322031913 18.074505274232415 a39.075174794680464,39.075174794680464 0 0,0 -0.6726398157655367,0.0 l 0.15557297322030667 -18.074505274232415" fill="#ffd213" stroke="none" /><path d="M 99.45781275523022 120.99299961872073 l -0.4646601532546017 17.991220771433873 a38.99722017158473,38.99722017158473 0 0,0 -0.670900094726507,-0.02310715578176335 l 0.7742805996557518 -17.980556817226017" fill="#ffd113" stroke="none" /><path d="M 96.22490169976321 120.6578951692458 l -3.2588734448988124 17.83303655704431 a39.128360349870185,39.128360349870185 0 0,0 -0.6615159577577484,-0.12678110772551815 l 3.565357017228256 -17.774298250970325" fill="#ffd313" stroke="none" /><path d="M 95.51606077576429 120.51570834832081 l -3.991995725987316 18.2648818252122 a39.69604070292071,39.69604070292071 0 0,0 -0.6662883093647779,-0.15164504996292377 l 4.305804184744956 -18.19346004167159" fill="#ffda14" stroke="none" /><path d="M 95.16358092515715 120.4354850818985 l -4.138389222699568 17.48607594066163 a38.96911564772016,38.96911564772016 0 0,0 -0.6514276211711484,-0.16010506012858766 l 4.438770128613927 -17.412249622219015" fill="#ffd113" stroke="none" /><path d="M 94.81253420990036 120.34920634021253 l -2.71718129678715 10.658862170737502 a31.99974622318119,31.99974622318119 0 0,0 -0.5325817682194656,-0.1406596855471269 l 2.900253507818105 -10.610511135886794" fill="#ff720a" stroke="none" /><path d="M 94.46302465271185 120.25689768951611 l -7.89879125716372 28.897547186222457 a50.95762234731254,50.95762234731254 0 0,0 -0.8441223124821826,-0.23855739721734404 l 8.395044737750517 -28.757300995666593" fill="#9aff22" stroke="none" /><path d="M 94.11515582081647 120.15858648285463 l -8.44393564821999 28.924777247699 a51.132089009232104,51.132089009232104 0 0,0 -0.842766457868766,-0.2539186204371884 l 8.940577080529001 -28.775143258156085" fill="#98ff23" stroke="none" /><path d="M 93.76903079525671 120.05430185196036 l -5.356268326881573 17.23908725878596 a39.05202869224374,39.05202869224374 0 0,0 -0.640227614744556,-0.20498066451949948 l 5.65221728671707 -17.144333747606755" fill="#ffd213" stroke="none" /><path d="M 93.42475214034765 119.94407469862007 l -10.507112008269301 31.870224702186434 a54.55757180312919,54.55757180312919 0 0,0 -0.8893670536029379,-0.30172159196698134 l 11.054148794809464 -31.68464012332133" fill="#72ff27" stroke="none" /><path d="M 92.7421414339146 119.70592522655815 l -10.404131825444862 28.24842092645678 a51.10347561128974,51.10347561128974 0 0,0 -0.8228384250870315,-0.311127084882685 l 10.888840471292177 -28.065145591467463" fill="#99ff23" stroke="none" /><path d="M 92.06813273071674 119.44442032107085 l -12.10217525979133 29.66763998458984 a53.04109093451625,53.04109093451625 0 0,0 -0.8424151260024566,-0.3521295909909178 l 12.61106184529125 -29.45492535057895" fill="#83ff25" stroke="none" /><path d="M 91.07499286063937 119.00905698771935 l -10.4103798638836 22.172699809240246 a45.49499185019329,45.49499185019329 0 0,0 -0.706011500638582,-0.33892842455476196 l 10.790504032522424 -21.990217108185924" fill="#dbff1b" stroke="none" /><path d="M 90.7491055286396 118.85261126421891 l -13.27265692518791 27.048653752193758 a51.12960490381187,51.12960490381187 0 0,0 -0.7867777155424367,-0.39450667981042725 l 13.736288548413107 -26.816179231474027" fill="#98ff23" stroke="none" /><path d="M 90.42595943632237 118.69057910512821 l -13.847987598039595 27.034239715877238 a51.374609092644675,51.374609092644675 0 0,0 -0.7836073653104337,-0.4099463379591669 l 14.311285865876524 -26.791863958973355" fill="#96ff23" stroke="none" /><line stroke="#e1ed5e" stroke-width="0.3" x1="58.666819895761336" x2="56.23545636021788" y1="174.27360380694188" y2="178.64263932499728" /><path d="M 58.180547188652646 175.14741091055294 a86.0,86.0 0 0,1 -31.652253787137756,-30.449443065178592" fill="none" id="id80" stroke="none" /><text fill="#e1ed5e" style="font-size:6.75px; font-family:Arial;" text-anchor="middle"><textPath startOffset="22.20632615414155" xlink:href="#id80">August</textPath></text><path d="M 88.54995079064634 117.60387380957326 l -8.322268720125349 12.795068883962918 a36.26348401890384,36.26348401890384 0 0,0 -0.5203383450826086,-0.34485188193802124 l 8.541281763947918 -12.64991898093358" fill="#ffad10" stroke="none" /><path d="M 88.24862548938628 117.40417183066458 l -35.25412353184113 52.212515491993734 a84.0,84.0 0 0,0 -1.191372461508439,-0.8194368425395955 l 36.14765287797246 -51.59793786008904" fill="#4dd2ff" stroke="none" /><path d="M 87.65650970185807 116.9893568818739 l -17.73980718513084 24.416749882258713 a51.18076264408175,51.18076264408175 0 0,0 -0.7082808976100123,-0.5239692754470938 l 18.157473053159414 -24.107770658071853" fill="#98ff23" stroke="none" /><path d="M 86.79598089348748 116.32954008644616 l -18.96373349612102 23.45263542983319 a51.160392847517244,51.160392847517244 0 0,0 -0.6800187561490815,-0.559609140869471 l 19.364622380814787 -23.122731170106537" fill="#98ff23" stroke="none" /><path d="M 86.51685102203217 116.09983520530335 l -19.34489758221027 23.099178363005652 a51.1296714803224,51.1296714803224 0 0,0 -0.6698827521671508,-0.5708886141927981 l 19.739645810954475 -22.762765358589903" fill="#98ff23" stroke="none" /><path d="M 86.24171649860922 115.8653595955263 l -19.739994327903798 22.763167250782747 a51.13020344028202,51.13020344028202 0 0,0 -0.6599634590443018,-0.5823410199709697 l 20.12890013985469 -22.42000308903949" fill="#98ff23" stroke="none" /><path d="M 85.70375840098266 115.38237550388516 l -28.696769680166376 30.87696048723514 a63.15318824248999,63.15318824248999 0 0,0 -0.7899085473939668,-0.7469078351666019 l 29.22401406195116 -30.37841801532261" fill="#32ff4b" stroke="none" /><path d="M 85.44109423537348 115.13401014063109 l -20.854919526812044 21.67872838133693 a51.08147158470791,51.08147158470791 0 0,0 -0.6284238388868477,-0.6150449920360513 l 21.224993318074684 -21.31653328637831" fill="#99ff23" stroke="none" /><path d="M 85.18274418774928 114.88116024355367 l -21.30497407618425 21.396858988580558 a51.19482563228481,51.19482563228481 0 0,0 -0.6191145675221912,-0.6271597882336951 l 21.670129268761976 -21.026958706366198" fill="#98ff23" stroke="none" /><path d="M 84.67929136418377 114.36230785411682 l -24.601257780191666 23.0623038552926 a54.72079096761055,54.72079096761055 0 0,0 -0.6382883002300511,-0.6927358864293908 l 24.994592488417446 -22.63541671406187" fill="#70ff27" stroke="none" /><path d="M 84.43433777217949 114.09645910891817 l -25.089309222433716 22.72119337736401 a54.84857553502758,54.84857553502758 0 0,0 -0.6277318923446923,-0.705263435589369 l 25.476699964426746 -22.285955772033777" fill="#6fff27" stroke="none" /><path d="M 83.95833913139862 113.55231037782056 l -23.069685223259047 19.489723478457115 a51.2003261168978,51.2003261168978 0 0,0 -0.5629695289117687,-0.678133063881877 l 23.40175075206435 -19.089729157461477" fill="#98ff23" stroke="none" /><path d="M 83.72743513129214 113.27417163493432 l -25.0463839042848 20.431321150808426 a53.322750975872836,53.322750975872836 0 0,0 -0.574062803600192,-0.7162316136824487 l 25.39436461993985 -19.997161703547718" fill="#80ff26" stroke="none" /><path d="M 83.50135304334701 112.99209946851258 l -23.646163598259292 18.620515386773825 a51.09758538794638,51.09758538794638 0 0,0 -0.5382113116395895,-0.6957106719090942 l 23.96318172711695 -18.210726720751477" fill="#99ff23" stroke="none" /><path d="M 83.06392112726016 112.41649034213515 l -14.618992466742897 10.717745243099163 a39.12691379795966,39.12691379795966 0 0,0 -0.3935426121955594,-0.5465962681300732 l 14.801314871314064 -10.464515369517951" fill="#ffd313" stroke="none" /><path d="M 82.85270091963577 112.12312394758628 l -24.61642646890269 17.40378982313826 a51.14731086360546,51.14731086360546 0 0,0 -0.5020695363104746,-0.7232686131707037 l 24.912356912375298 -16.977479947780544" fill="#98ff23" stroke="none" /><path d="M 82.44556493220864 111.52570212397912 l -25.518526147795622 16.754679366589812 a51.52727399282418,51.52727399282418 0 0,0 -0.48041855482063867,-0.7456202657785037 l 25.80314956599331 -16.312937500889863" fill="#94ff23" stroke="none" /><path d="M 82.24976979558568 111.22182372390057 l -35.74498087796775 22.598235054269587 a63.28928807079044,63.28928807079044 0 0,0 -0.574230824177457,-0.925842927648926 l 36.12867634181316 -21.979595795255396" fill="#32ff4c" stroke="none" /><path d="M 82.05923443525364 110.91462005526583 l -36.72771970850674 22.344035691674062 a63.99047948066454,63.99047948066454 0 0,0 -0.5643933606218546,-0.9459557362476796 l 37.10689394482683 -21.708517861540273" fill="#33ff55" stroke="none" /><line stroke="#e1ed5e" stroke-width="0.3" x1="26.63291911575756" x2="22.317208475507996" y1="142.92168965132927" y2="145.44649492493687" /><path d="M 25.769776987707644 143.4266507060508 a86.0,86.0 0 0,1 -11.730757126820373,-40.83630448921669" fill="none" id="id81" stroke="none" /><text fill="#e1ed5e" style="font-size:6.75px; font-family:Arial;" text-anchor="middle"><textPath startOffset="21.46611528233685" xlink:href="#id81">September</textPath></text><path d="M 81.51974371655577 109.97397251340807 l -3.9886179081551036 2.1526955455734513 a25.53245749336796,25.53245749336796 0 0,0 -0.20541165011234425,-0.3885614306110535 l 4.025082066492335 -2.0837190998762716" fill="#ff1502" stroke="none" /><path d="M 81.02952815118164 109.00673069616217 l -16.261140367014 7.720404282264037 a39.000814657046305,39.000814657046305 0 0,0 -0.2827101883203703,-0.6089325945630132 l 16.391625172174198 -7.439351620422197" fill="#ffd113" stroke="none" /><path d="M 80.87730276802145 108.67885076344099 l -27.49459057499391 12.4784409598475 a51.193774187321196,51.193774187321196 0 0,0 -0.35728114349550466,-0.8055746591151227 l 27.705312803220696 -12.003317964239683" fill="#98ff23" stroke="none" /><path d="M 80.73074385275274 108.34839909993369 l -27.738893831782313 12.017866934188307 a51.23037142773386,51.23037142773386 0 0,0 -0.3436070261309526,-0.8121855098989124 l 27.94165183910557 -11.538606898623236" fill="#97ff23" stroke="none" /><path d="M 80.32549172779594 107.34259656027581 l -56.76174317049341 21.183684714892944 a81.58583981305404,81.58583981305404 0 0,0 -0.47970818392505865,-1.3199508956948165 l 57.11797561542369 -20.20348602219201" fill="#4ae9ff" stroke="none" /><path d="M 79.97269907076064 106.31721596034903 l -57.532619153370646 18.14752678059245 a81.32690108814732,81.32690108814732 0 0,0 -0.4096289909603829,-1.3386912434333353 l 57.83647491683716 -17.154508564607067" fill="#4aebff" stroke="none" /><path d="M 79.86692584326677 105.97154293290107 l -57.81361308046246 17.147727660887462 a81.30305482601511,81.30305482601511 0 0,0 -0.38641159596614666,-1.345149457997092 l 58.10021731331471 -16.150020727385773" fill="#4aecff" stroke="none" /><path d="M 79.50377843672027 104.57218783832718 l -58.95492493483646 13.151350358130008 a81.40398323218832,81.40398323218832 0 0,0 -0.2933100306153827,-1.3702468150979474 l 59.17256900417628 -12.134589723615898" fill="#4aebff" stroke="none" /><path d="M 79.35854240842038 103.8639653848113 l -59.84559080776518 11.202759799730284 a81.88510956104884,81.88510956104884 0 0,0 -0.24742388195685058,-1.3876845279492251 l 60.02956113206122 -10.170956521047845" fill="#4ae6ff" stroke="none" /><path d="M 79.23777060512086 103.15116336523772 l -31.8818843660126 4.838836144142747 a53.24699809218931,53.24699809218931 0 0,0 -0.12973491370972418,-0.907365684320996 l 31.960453330738922 -4.289324987841351" fill="#81ff25" stroke="none" /><path d="M 79.07016306316243 101.71520430193888 l -60.79851824557584 4.9824506689194425 a82.00233303346549,82.00233303346549 0 0,0 -0.10318018268082911,-1.4078116156430185 l 60.875274986921006 -3.9351659167796633" fill="#4ae5ff" stroke="none" /><path d="M 79.0095281055655 100.63252640178507 l -60.677411832692464 1.8284517455913116 a81.70495484307787,81.70495484307787 0 0,0 -0.030261715099702675,-1.4061429895569515 l 60.69989561047717 -0.7837189402442312" fill="#4ae8ff" stroke="none" /><line stroke="#e1ed5e" stroke-width="0.3" x1="15.007084014347285" x2="10.007500721073583" y1="101.09737516637583" y2="101.16192664675087" /><path d="M 14.007167355692545 101.11028546245083 a86.0,86.0 0 0,1 10.666146001902534,-42.60595125391555" fill="none" id="id82" stroke="none" /><text fill="#e1ed5e" style="font-size:6.75px; font-family:Arial;" text-anchor="middle"><textPath startOffset="22.20632615414155" xlink:href="#id82">October</textPath></text><path d="M 79.08570108090925 98.10471618934814 l -58.698146195979994 -5.31931032595919 a79.93867515637331,79.93867515637331 0 0,0 0.13598282122572727,-1.3693284522293967 l 58.59788624907203 6.328914308893017" fill="#48f9ff" stroke="none" /><path d="M 81.10775173730289 90.83032412892265 l -2.840159768212438 -1.3785201281736799 a24.157027914471538,24.157027914471538 0 0,0 0.1847897452983216,-0.37252485049831124 l 2.8160100099607033 1.4272045671709526" fill="#ff0000" stroke="none" /><line stroke="#e1ed5e" stroke-width="0.3" x1="26.266209847984243" x2="21.928928074336255" y1="57.711370442889674" y2="55.22380399835377" /><path d="M 25.398753493254645 57.213857153982495 a86.0,86.0 0 0,1 29.58750427330803,-30.492523968695096" fill="none" id="id83" stroke="none" /><text fill="#e1ed5e" style="font-size:6.75px; font-family:Arial;" text-anchor="middle"><textPath startOffset="21.46611528233685" xlink:href="#id83">November</textPath></text><line stroke="#e1ed5e" stroke-width="0.3" x1="56.762969772571076" x2="54.21961505331055" y1="26.818313649435495" y2="22.513508569990535" /><path d="M 56.25429882871897 25.957352633546506 a86.0,86.0 0 0,1 42.265352541879196,-11.944610805530505" fill="none" id="id84" stroke="none" /><text fill="#e1ed5e" style="font-size:6.75px; font-family:Arial;" text-anchor="middle"><textPath startOffset="22.20632615414155" xlink:href="#id84">December</textPath></text></svg>