<?xml version="1.0" encoding="utf-8" ?>
<svg baseProfile="full" height="200mm" version="1.1" viewBox="0,0,200,200" width="200mm" xmlns="http://www.w3.org/2000/svg" xmlns:ev="http://www.w3.org/2001/xml-events" xmlns:xlink="http://www.w3.org/1999/xlink"><defs /><rect fill="#1a1a1a" height="200" width="200" x="0" y="0" /><text alignment-baseline="middle" fill="#e1ed5e" style="dominant-baseline: central; font-size:9.0px; font-family:Arial;" text-anchor="middle" x="100.0" y="100.0">2020</text><line stroke="#e1ed5e" stroke-width="0.3" x1="100.0" x2="100.0" y1="15.0" y2="10.0" /><path d="M 100.0 14.0 a86.0,86.0 0 0,1 42.35913384403234,11.155469271406648" fill="none" id="id49" stroke="none" /><text fill="#e1ed5e" style="font-size:6.75px; font-family:Arial;" text-anchor="middle"><textPath startOffset="22.145653131862478" xlink:href="#id49">January</textPath></text><line stroke="#e1ed5e" stroke-width="0.3" x1="143.13028292997686" x2="145.6673583964461" y1="26.7553504044142" y2="22.446841604673864" /><path d="M 143.63769802327073 25.89364864446614 a86.0,86.0 0 0,1 29.32050498858742,28.57503671076993" fill="none" id="id50" stroke="none" /><text fill="#e1ed5e" style="font-size:6.75px; font-family:Arial;" text-anchor="middle"><textPath startOffset="20.669276256404974" xlink:href="#id50">February</textPath></text><line stroke="#e1ed5e" stroke-width="0.3" x1="172.87174338648825" x2="177.1583165268699" y1="56.24261187166439" y2="53.66864786411523" /><path d="M 173.72905801456457 55.72781907015455 a86.0,86.0 0 0,1 12.242430191666344,42.057860355516425" fill="none" id="id51" stroke="none" /><text fill="#e1ed5e" style="font-size:6.75px; font-family:Arial;" text-anchor="middle"><textPath startOffset="22.145653131862474" xlink:href="#id51">March</textPath></text><line stroke="#e1ed5e" stroke-width="0.3" x1="184.99686870605535" x2="189.99668451229388" y1="99.2704041080226" y2="99.22748670261217" /><path d="M 185.99683186730306 99.26182062694052 a86.0,86.0 0 0,1 -10.086455211305974,41.156179273409016" fill="none" id="id52" stroke="none" /><text fill="#e1ed5e" style="font-size:6.75px; font-family:Arial;" text-anchor="middle"><textPath startOffset="21.40746469413373" xlink:href="#id52">April</textPath></text><line stroke="#e1ed5e" stroke-width="0.3" x1="174.33088141563837" x2="178.70328620479359" y1="141.23008692659167" y2="143.65538615756765" /><path d="M 175.20536237346943 141.71514677278685 a86.0,86.0 0 0,1 -30.301960400862466,31.631185727798858" fill="none" id="id53" stroke="none" /><text fill="#e1ed5e" style="font-size:6.75px; font-family:Arial;" text-anchor="middle"><textPath startOffset="22.145653131862474" xlink:href="#id53">May</textPath></text><line stroke="#e1ed5e" stroke-width="0.3" x1="143.1302829299769" x2="145.66735839644613" y1="173.24464959558577" y2="177.55315839532614" /><path d="M 143.63769802327073 174.10635135553383 a86.0,86.0 0 0,1 -40.68552437913181,11.842963189579606" fill="none" id="id54" stroke="none" /><text fill="#e1ed5e" style="font-size:6.75px; font-family:Arial;" text-anchor="middle"><textPath startOffset="21.407464694133747" xlink:href="#id54">June</textPath></text><line stroke="#e1ed5e" stroke-width="0.3" x1="101.45913802915013" x2="101.54496967792366" y1="184.9874750549273" y2="189.98673829345242" /><path d="M 101.47630435890484 185.9873277026323 a86.0,86.0 0 0,1 -42.54439059252881,-10.42667462771756" fill="none" id="id55" stroke="none" /><text fill="#e1ed5e" style="font-size:6.75px; font-family:Arial;" text-anchor="middle"><textPath startOffset="22.145653131862474" xlink:href="#id55">July</textPath></text><line stroke="#e1ed5e" stroke-width="0.3" x1="58.13341422392154" x2="55.67067388415222" y1="173.97424548756322" y2="178.32567169271397" /><path d="M 57.64086615596768 174.84453072859336 a86.0,86.0 0 0,1 -31.369924170532247,-30.572349798747897" fill="none" id="id56" stroke="none" /><text fill="#e1ed5e" style="font-size:6.75px; font-family:Arial;" text-anchor="middle"><textPath startOffset="22.145653131862474" xlink:href="#id56">August</textPath></text><path d="M 82.98947788004972 112.3143062007846 l -26.208951951898595 18.97326003643408 a53.35573764924972,53.35573764924972 0 0,0 -0.5307241905583236,-0.7465300384315563 l 26.53079124098688 -18.520552771293023" fill="#80ff25" stroke="none" /><line stroke="#e1ed5e" stroke-width="0.3" x1="26.387840678322732" x2="22.057713659400548" y1="142.50000000000003" y2="145.00000000000006" /><path d="M 25.521815274538298 143.00000000000003 a86.0,86.0 0 0,1 -11.493303480769221,-40.785679425670985" fill="none" id="id57" stroke="none" /><text fill="#e1ed5e" style="font-size:6.75px; font-family:Arial;" text-anchor="middle"><textPath startOffset="21.40746469413373" xlink:href="#id57">September</textPath></text><path d="M 81.63589988554817 110.18625677009913 l -27.358173852777693 15.175117859769104 a52.28504241033872,52.28504241033872 0 0,0 -0.4286244379285488,-0.7886206888119532 l 27.61464364032157 -14.703242337482564" fill="#8cff24" stroke="none" /><path d="M 79.34024301695615 103.76489593502545 l -30.832821990818438 5.618767262067432 a52.340603974122416,52.340603974122416 0 0,0 -0.15349550706252452,-0.8853212948929713 l 30.9247323153732 -5.088652934253868" fill="#8cff24" stroke="none" /><path d="M 79.03789590574601 101.26102812881392 l -52.683601175707004 3.169314621808001 a73.77884413297588,73.77884413297588 0 0,0 -0.06520086089710957,-1.264879282853953 l 52.730243626060684 -2.264463545577317" fill="#40ffc5" stroke="none" /><line stroke="#e1ed5e" stroke-width="0.3" x1="15.003131293944662" x2="10.003315487706104" y1="100.72959589197737" y2="100.7725132973878" /><path d="M 14.003168132696942 100.73817937305945 a86.0,86.0 0 0,1 10.791469493833604,-42.45332614584628" fill="none" id="id58" stroke="none" /><text fill="#e1ed5e" style="font-size:6.75px; font-family:Arial;" text-anchor="middle"><textPath startOffset="22.145653131862435" xlink:href="#id58">October</textPath></text><path d="M 79.00077361379809 100.18025310272382 l -62.99767915860572 0.5407593081714642 a84.0,84.0 0 0,0 0.0,-1.4420248217905405 l 62.99767915860572 0.540759308171441" fill="#4dd2ff" stroke="none" /><path d="M 79.83685265289637 94.1308016681162 l -59.990310316007495 -17.46230502483928 a83.48015227727444,83.48015227727444 0 0,0 0.4123270762312514,-1.3725027346601475 l 59.681706919772616 18.48954536309015" fill="#4cd7ff" stroke="none" /><path d="M 80.5471966667186 92.08871423366112 l -10.900960544876376 -4.433325753648824 a32.767978502653605,32.767978502653605 0 0,0 0.21638436881439596,-0.5192437131909835 l 10.823250331525502 4.619801976281072" fill="#ff7b0b" stroke="none" /><line stroke="#e1ed5e" stroke-width="0.3" x1="26.387840678322718" x2="22.05771365940052" y1="57.49999999999999" y2="54.99999999999999" /><path d="M 25.521815274538284 56.99999999999999 a86.0,86.0 0 0,1 29.574782752854787,-30.34633250058573" fill="none" id="id59" stroke="none" /><text fill="#e1ed5e" style="font-size:6.75px; font-family:Arial;" text-anchor="middle"><textPath startOffset="21.40746469413373" xlink:href="#id59">November</textPath></text><path d="M 81.81346652052679 89.5 l -2.895529468154668 -1.6717347178855921 a24.343469435771183,24.343469435771183 0 0,0 0.2120505022121303,-0.3601081114239732 l 2.8664052558127584 1.721193997603138" fill="#ff0000" stroke="none" /><line stroke="#e1ed5e" stroke-width="0.3" x1="56.869717070023135" x2="54.33264160355391" y1="26.7553504044142" y2="22.446841604673864" /><path d="M 56.362301976729285 25.89364864446614 a86.0,86.0 0 0,1 42.16139366436587,-11.88097634709845" fill="none" id="id60" stroke="none" /><text fill="#e1ed5e" style="font-size:6.75px; font-family:Arial;" text-anchor="middle"><textPath startOffset="22.145653131862474" xlink:href="#id60">December</textPath></text><path d="M 89.34428304082924 81.90426304109057 l -10.431635783435896 -17.715198133687412 a41.55838685388672,41.55838685388672 0 0,0 0.6178495904454657,-0.3567156273623877 l 10.12599372513003 17.891660658325975" fill="#fff116" stroke="none" /><path d="M 89.97174638481275 81.54914285379989 l -14.930590050262682 -27.47060402507874 a52.265901630237295,52.265901630237295 0 0,0 0.7919806881781369,-0.42168510796518976 l 14.456820546297983 27.722859600766505" fill="#8dff24" stroke="none" /><path d="M 90.61103034731259 81.2157712731953 l -20.78495401540037 -41.58383131951501 a67.48902387265392,67.48902387265392 0 0,0 1.0407442223079806,-0.5090801514888903 l 20.068049543830337 41.93450522110112" fill="#38ff7e" stroke="none" /><path d="M 91.5904679813234 80.7573450057729 l -12.513217749720026 -28.632691033310778 a52.247585734916285,52.247585734916285 0 0,0 0.824926992224951,-0.35211227978973136 l 12.019855682324645 28.843277962759913" fill="#8dff24" stroke="none" /><path d="M 92.93061703081487 80.22567764915836 l -21.013272506393243 -58.77786307499971 a83.42110868201041,83.42110868201041 0 0,0 1.3525907617062345,-0.47050127948398424 l 20.001175972642006 59.12992278705227" fill="#4cd7ff" stroke="none" /><path d="M 93.95794788825049 79.88797359093562 l -9.007083557623012 -29.981651768162347 a52.30538287517588,52.30538287517588 0 0,0 0.8621421228946562,-0.2509570069807107 l 8.491081422346731 30.131852469445576" fill="#8cff24" stroke="none" /></svg>