<?xml version="1.0" encoding="utf-8" ?>
<svg baseProfile="full" height="200mm" version="1.1" viewBox="0,0,200,200" width="200mm" xmlns="http://www.w3.org/2000/svg" xmlns:ev="http://www.w3.org/2001/xml-events" xmlns:xlink="http://www.w3.org/1999/xlink"><defs /><rect fill="#1a1a1a" height="200" width="200" x="0" y="0" /><text alignment-baseline="middle" fill="#e1ed5e" style="dominant-baseline: central; font-size:9.0px; font-family:Arial;" text-anchor="middle" x="100.0" y="100.0">2016</text><line stroke="#e1ed5e" stroke-width="0.3" x1="100.0" x2="100.0" y1="15.0" y2="10.0" /><path d="M 100.0 14.0 a86.0,86.0 0 0,1 42.35913384403234,11.155469271406648" fill="none" id="id1" stroke="none" /><text fill="#e1ed5e" style="font-size:6.75px; font-family:Arial;" text-anchor="middle"><textPath startOffset="22.145653131862478" xlink:href="#id1">January</textPath></text><line stroke="#e1ed5e" stroke-width="0.3" x1="143.13028292997686" x2="145.6673583964461" y1="26.7553504044142" y2="22.446841604673864" /><path d="M 143.63769802327073 25.89364864446614 a86.0,86.0 0 0,1 29.32050498858742,28.57503671076993" fill="none" id="id2" stroke="none" /><text fill="#e1ed5e" style="font-size:6.75px; font-family:Arial;" text-anchor="middle"><textPath startOffset="20.669276256404974" xlink:href="#id2">February</textPath></text><line stroke="#e1ed5e" stroke-width="0.3" x1="172.87174338648825" x2="177.1583165268699" y1="56.24261187166439" y2="53.66864786411523" /><path d="M 173.72905801456457 55.72781907015455 a86.0,86.0 0 0,1 12.242430191666344,42.057860355516425" fill="none" id="id3" stroke="none" /><text fill="#e1ed5e" style="font-size:6.75px; font-family:Arial;" text-anchor="middle"><textPath startOffset="22.145653131862474" xlink:href="#id3">March</textPath></text><line stroke="#e1ed5e" stroke-width="0.3" x1="184.99686870605535" x2="189.99668451229388" y1="99.2704041080226" y2="99.22748670261217" /><path d="M 185.99683186730306 99.26182062694052 a86.0,86.0 0 0,1 -10.086455211305974,41.156179273409016" fill="none" id="id4" stroke="none" /><text fill="#e1ed5e" style="font-size:6.75px; font-family:Arial;" text-anchor="middle"><textPath startOffset="21.40746469413373" xlink:href="#id4">April</textPath></text><line stroke="#e1ed5e" stroke-width="0.3" x1="174.33088141563837" x2="178.70328620479359" y1="141.23008692659167" y2="143.65538615756765" /><path d="M 175.20536237346943 141.71514677278685 a86.0,86.0 0 0,1 -30.301960400862466,31.631185727798858" fill="none" id="id5" stroke="none" /><text fill="#e1ed5e" style="font-size:6.75px; font-family:Arial;" text-anchor="middle"><textPath startOffset="22.145653131862474" xlink:href="#id5">May</textPath></text><line stroke="#e1ed5e" stroke-width="0.3" x1="143.1302829299769" x2="145.66735839644613" y1="173.24464959558577" y2="177.55315839532614" /><path d="M 143.63769802327073 174.10635135553383 a86.0,86.0 0 0,1 -40.68552437913181,11.842963189579606" fill="none" id="id6" stroke="none" /><text fill="#e1ed5e" style="font-size:6.75px; font-family:Arial;" text-anchor="middle"><textPath startOffset="21.407464694133747" xlink:href="#id6">June</textPath></text><line stroke="#e1ed5e" stroke-width="0.3" x1="101.45913802915013" x2="101.54496967792366" y1="184.9874750549273" y2="189.98673829345242" /><path d="M 101.47630435890484 185.9873277026323 a86.0,86.0 0 0,1 -42.54439059252881,-10.42667462771756" fill="none" id="id7" stroke="none" /><text fill="#e1ed5e" style="font-size:6.75px; font-family:Arial;" text-anchor="middle"><textPath startOffset="22.145653131862474" xlink:href="#id7">July</textPath></text><line stroke="#e1ed5e" stroke-width="0.3" x1="58.13341422392154" x2="55.67067388415222" y1="173.97424548756322" y2="178.32567169271397" /><path d="M 57.64086615596768 174.84453072859336 a86.0,86.0 0 0,1 -31.369924170532247,-30.572349798747897" fill="none" id="id8" stroke="none" /><text fill="#e1ed5e" style="font-size:6.75px; font-family:Arial;" text-anchor="middle"><textPath startOffset="22.145653131862474" xlink:href="#id8">August</textPath></text><line stroke="#e1ed5e" stroke-width="0.3" x1="26.387840678322732" x2="22.057713659400548" y1="142.50000000000003" y2="145.00000000000006" /><path d="M 25.521815274538298 143.00000000000003 a86.0,86.0 0 0,1 -11.493303480769221,-40.785679425670985" fill="none" id="id9" stroke="none" /><text fill="#e1ed5e" style="font-size:6.75px; font-family:Arial;" text-anchor="middle"><textPath startOffset="21.40746469413373" xlink:href="#id9">September</textPath></text><line stroke="#e1ed5e" stroke-width="0.3" x1="15.003131293944662" x2="10.003315487706104" y1="100.72959589197737" y2="100.7725132973878" /><path d="M 14.003168132696942 100.73817937305945 a86.0,86.0 0 0,1 10.791469493833604,-42.45332614584628" fill="none" id="id10" stroke="none" /><text fill="#e1ed5e" style="font-size:6.75px; font-family:Arial;" text-anchor="middle"><textPath startOffset="22.145653131862435" xlink:href="#id10">October</textPath></text><path d="M 79.2786578344484 96.59031103205396 l -11.14427885295025 -1.833786844357496 a32.29414562252731,32.29414562252731 0 0,0 0.09470670724265269,-0.5462431200475545 l 11.111157328215365 2.0248229973256433" fill="#ff870c" stroke="none" /><path d="M 79.56144815229197 95.17655741523228 l -3.6084298766376275 -0.8515796256413264 a24.707553645386465,24.707553645386465 0 0,0 0.10096268057342218,-0.4119621903387876 l 3.5932796695479072 0.9133976405882317" fill="#ff1c02" stroke="none" /><path d="M 80.83023694016515 91.42560881287825 l -10.031603239390376 -4.487008532137369 a31.989372553518287,31.989372553518287 0 0,0 0.22851918297939644,-0.4993556559563279 l 9.953099591555933 4.658553170308369" fill="#ff830c" stroke="none" /><path d="M 81.29705330413844 90.45014215332179 l -19.60788076181367 -10.011923628663869 a43.016076006311856,43.016076006311856 0 0,0 0.3414491797434704,-0.6547738239200257 l 19.43312351309526 10.347043695688381" fill="#eeff19" stroke="none" /><line stroke="#e1ed5e" stroke-width="0.3" x1="26.387840678322718" x2="22.05771365940052" y1="57.49999999999999" y2="54.99999999999999" /><path d="M 25.521815274538284 56.99999999999999 a86.0,86.0 0 0,1 29.574782752854787,-30.34633250058573" fill="none" id="id11" stroke="none" /><text fill="#e1ed5e" style="font-size:6.75px; font-family:Arial;" text-anchor="middle"><textPath startOffset="21.40746469413373" xlink:href="#id11">November</textPath></text><path d="M 82.78059297857968 87.97951657250589 l -9.841943841288408 -6.870441165097503 a33.00278385951114,33.00278385951114 0 0,0 0.32827539308240977,-0.46176045142418304 l 9.722553349676026 7.038378843231206" fill="#ff900d" stroke="none" /><path d="M 82.98947788004972 87.6856937992154 l -31.325345389384154 -22.677134320162764 a59.672078877905115,59.672078877905115 0 0,0 0.6077970075818557,-0.8245933715799423 l 30.93144636221848 23.21153400101157" fill="#37ff2e" stroke="none" /><path d="M 83.2033758604659 87.39550010848427 l -11.072964369269837 -8.309358894488577 a34.843987328820255,34.843987328820255 0 0,0 0.3631208441906621,-0.4753368413812679 l 10.928691547724869 8.498216649110729" fill="#ffa90f" stroke="none" /><path d="M 83.64595745247003 86.82634096563983 l -13.759355734685071 -11.083563006174645 a38.66819852575395,38.66819852575395 0 0,0 0.42084475082729467,-0.5133621676099954 l 13.567064164619147 11.318127455483133" fill="#ffda14" stroke="none" /><path d="M 85.08716467003674 85.21462403516908 l -18.3606515288521 -18.2037238262722 a46.85515588247592,46.85515588247592 0 0,0 0.5712046899753951,-0.5663226279439977 l 18.045454918746728 18.516226464444873" fill="#c0ff1e" stroke="none" /><path d="M 85.34317274990677 84.96080404539775 l -13.003502620120813 -13.342739234300296 a39.631150545954625,39.631150545954625 0 0,0 0.4912894716155433,-0.47064420039023475 l 12.772540662639969 13.5639955649961" fill="#ffe715" stroke="none" /><path d="M 87.25179093698888 83.31218511350988 l -38.244627189033366 -50.06344465947034 a84.0,84.0 0 0,0 1.1533880443569906,-0.8655238909439964 l 37.37958615576562 50.71258757767834" fill="#4dd2ff" stroke="none" /><path d="M 88.4268655584334 82.4767994020092 l -13.252985583540736 -20.06670933231015 a45.04816937533836,45.04816937533836 0 0,0 0.6489389750742328,-0.42063440338484936 l 12.906560976209477 20.291257577398905" fill="#d5ff1c" stroke="none" /><path d="M 89.03521579738668 82.08984904055464 l -11.050443838727334 -18.050069537466022 a42.16405725139265,42.16405725139265 0 0,0 0.620548997478212,-0.37262184316477387 l 10.738962084691687 18.23710538116672" fill="#f8ff18" stroke="none" /><line stroke="#e1ed5e" stroke-width="0.3" x1="56.869717070023135" x2="54.33264160355391" y1="26.7553504044142" y2="22.446841604673864" /><path d="M 56.362301976729285 25.89364864446614 a86.0,86.0 0 0,1 42.16139366436587,-11.88097634709845" fill="none" id="id12" stroke="none" /><text fill="#e1ed5e" style="font-size:6.75px; font-family:Arial;" text-anchor="middle"><textPath startOffset="22.145653131862474" xlink:href="#id12">December</textPath></text><path d="M 89.34428304082924 81.90426304109057 l -0.8979745170534651 -1.5249570459375075 a22.769703993675737,22.769703993675737 0 0,0 0.33851776625784297,-0.1954433234744354 l 0.8716642829352224 1.540147266688117" fill="#ff0000" stroke="none" /><path d="M 89.97174638481275 81.54914285379989 l -1.7320137612345705 -3.186710239896049 a24.62698136501475,24.62698136501475 0 0,0 0.3731705192268389,-0.19869228257520472 l 1.6770544262211697 3.2159729901938294" fill="#ff1b02" stroke="none" /><path d="M 90.61103034731259 81.2157712731953 l -13.140338276664927 -26.28947891697683 a50.39056297098364,50.39056297098364 0 0,0 0.7770698739080075,-0.3801038147963667 l 12.687108153494865 26.51117648187041" fill="#98ff23" stroke="none" /><path d="M 90.93487009805054 81.0573650232925 l -16.27168503181351 -34.0015635018439 a58.69448307570309,58.69448307570309 0 0,0 0.9125910075092366,-0.42713867093561614 l 15.685605310432752 34.27587840435005" fill="#40ff2d" stroke="none" /><path d="M 91.26138138417902 80.90454125486306 l -8.981424824120584 -19.626034129815483 a42.5834938676761,42.5834938676761 0 0,0 0.667317004353912,-0.29848240811788157 l 8.643194416911053 19.77732028884321" fill="#f3ff19" stroke="none" /><path d="M 92.25597844496254 80.48000691201159 l -6.502890146375453 -16.39153117111676 a38.63433793453895,38.63433793453895 0 0,0 0.6185683825614496,-0.23927553873708943 l 6.220549501320474 16.500746597991892" fill="#ffda14" stroke="none" /><path d="M 93.27111125876988 80.10723608172694 l -12.086064078867594 -35.73030089632311 a58.71905814121399,58.71905814121399 0 0,0 0.9576162990526151,-0.3147874981751707 l 11.470925042167217 35.932509315900305" fill="#40ff2d" stroke="none" /><path d="M 93.61358852112211 79.99465700312896 l -6.569804853616479 -20.57982013119495 a42.60303988902811,42.60303988902811 0 0,0 0.6986074216157625,-0.21643036500815513 l 6.215556799129101 20.68956708400975" fill="#f3ff19" stroke="none" /><path d="M 96.41257539226777 79.30868818359171 l -5.91625347740948 -34.12337787451749 a55.632455482914715,55.632455482914715 0 0,0 0.9423674274129138,-0.155066201567933 l 5.3296085469434935 34.219910074581094" fill="#60ff29" stroke="none" /><path d="M 98.5590905019552 79.04949213459386 l -2.429914440956296 -35.33042267859052 a56.41388500063544,56.41388500063544 0 0,0 0.9667073874108201,-0.05815471588042449 l 1.8230627014129923 35.366929372295644" fill="#58ff2a" stroke="none" /></svg>