<?xml version="1.0" encoding="utf-8" ?>
<svg baseProfile="full" height="300mm" version="1.1" viewBox="0,0,200,300" width="200mm" xmlns="http://www.w3.org/2000/svg" xmlns:ev="http://www.w3.org/2001/xml-events" xmlns:xlink="http://www.w3.org/1999/xlink"><defs /><rect fill="#222222" height="300" width="200" x="0" y="0" /><g id="header"><text fill="#FFFFFF" style="font-size:12px; font-family:Arial; font-weight:bold;" x="10" y="20">Just Keep Running</text></g><g id="footer"><text fill="#FFFFFF" style="font-size:4px; font-family:Arial" x="10" y="280">ATHLETE</text><text fill="#FFFFFF" style="font-size:9px; font-family:Arial" x="10" y="290">Wilson Xie</text><text fill="#FFFFFF" style="font-size:4px; font-family:Arial" x="120" y="280">STATISTICS</text><text fill="#FFFFFF" style="font-size:3px; font-family:Arial" x="120" y="285">Number: 26</text><text fill="#FFFFFF" style="font-size:3px; font-family:Arial" x="120" y="290">Weekly: 2.4</text><text fill="#FFFFFF" style="font-size:3px; font-family:Arial" x="141" y="285">Total: 157.2 km</text><text fill="#FFFFFF" style="font-size:3px; font-family:Arial" x="141" y="290">Avg: 6.0 km</text><text fill="#FFFFFF" style="font-size:3px; font-family:Arial" x="167" y="285">Min: 1.1 km</text><text fill="#FFFFFF" style="font-size:3px; font-family:Arial" x="167" y="290">Max: 18.4 km</text></g><g id="tracks"><g id="year2016"><text alignment-baseline="middle" fill="#FFFFFF" style="dominant-baseline: central; font-size:9.0px; font-family:Arial;" text-anchor="middle" x="100.0" y="150.0">2016</text><line stroke="#FFFFFF" stroke-width="0.3" x1="100.0" x2="100.0" y1="65.0" y2="60.0" /><path d="M 100.0 64.0 a86.0,86.0 0 0,1 42.35913384403234,11.155469271406648" fill="none" id="id1" stroke="none" /><text fill="#FFFFFF" style="font-size:6.75px; font-family:Arial;" text-anchor="middle"><textPath startOffset="22.145653131862478" xlink:href="#id1">January</textPath></text><line stroke="#FFFFFF" stroke-width="0.3" x1="143.13028292997686" x2="145.6673583964461" y1="76.7553504044142" y2="72.44684160467386" /><path d="M 143.63769802327073 75.89364864446614 a86.0,86.0 0 0,1 29.32050498858742,28.57503671076993" fill="none" id="id2" stroke="none" /><text fill="#FFFFFF" style="font-size:6.75px; font-family:Arial;" text-anchor="middle"><textPath startOffset="20.669276256404974" xlink:href="#id2">February</textPath></text><line stroke="#FFFFFF" stroke-width="0.3" x1="172.87174338648825" x2="177.1583165268699" y1="106.2426118716644" y2="103.66864786411523" /><path d="M 173.72905801456457 105.72781907015455 a86.0,86.0 0 0,1 12.242430191666344,42.057860355516425" fill="none" id="id3" stroke="none" /><text fill="#FFFFFF" style="font-size:6.75px; font-family:Arial;" text-anchor="middle"><textPath startOffset="22.145653131862474" xlink:href="#id3">March</textPath></text><line stroke="#FFFFFF" stroke-width="0.3" x1="184.99686870605535" x2="189.99668451229388" y1="149.2704041080226" y2="149.22748670261217" /><path d="M 185.99683186730306 149.2618206269405 a86.0,86.0 0 0,1 -10.086455211305974,41.156179273409016" fill="none" id="id4" stroke="none" /><text fill="#FFFFFF" style="font-size:6.75px; font-family:Arial;" text-anchor="middle"><textPath startOffset="21.40746469413373" xlink:href="#id4">April</textPath></text><line stroke="#FFFFFF" stroke-width="0.3" x1="174.33088141563837" x2="178.70328620479359" y1="191.23008692659167" y2="193.65538615756765" /><path d="M 175.20536237346943 191.71514677278685 a86.0,86.0 0 0,1 -30.301960400862466,31.631185727798858" fill="none" id="id5" stroke="none" /><text fill="#FFFFFF" style="font-size:6.75px; font-family:Arial;" text-anchor="middle"><textPath startOffset="22.145653131862474" xlink:href="#id5">May</textPath></text><line stroke="#FFFFFF" stroke-width="0.3" x1="143.1302829299769" x2="145.66735839644613" y1="223.24464959558577" y2="227.55315839532614" /><path d="M 143.63769802327073 224.10635135553383 a86.0,86.0 0 0,1 -40.68552437913181,11.842963189579606" fill="none" id="id6" stroke="none" /><text fill="#FFFFFF" style="font-size:6.75px; font-family:Arial;" text-anchor="middle"><textPath startOffset="21.407464694133747" xlink:href="#id6">June</textPath></text><line stroke="#FFFFFF" stroke-width="0.3" x1="101.45913802915013" x2="101.54496967792366" y1="234.9874750549273" y2="239.98673829345242" /><path d="M 101.47630435890484 235.9873277026323 a86.0,86.0 0 0,1 -42.54439059252881,-10.42667462771756" fill="none" id="id7" stroke="none" /><text fill="#FFFFFF" style="font-size:6.75px; font-family:Arial;" text-anchor="middle"><textPath startOffset="22.145653131862474" xlink:href="#id7">July</textPath></text><line stroke="#FFFFFF" stroke-width="0.3" x1="58.13341422392154" x2="55.67067388415222" y1="223.97424548756322" y2="228.32567169271397" /><path d="M 57.64086615596768 224.84453072859336 a86.0,86.0 0 0,1 -31.369924170532247,-30.572349798747897" fill="none" id="id8" stroke="none" /><text fill="#FFFFFF" style="font-size:6.75px; font-family:Arial;" text-anchor="middle"><textPath startOffset="22.145653131862474" xlink:href="#id8">August</textPath></text><line stroke="#FFFFFF" stroke-width="0.3" x1="26.387840678322732" x2="22.057713659400548" y1="192.50000000000003" y2="195.00000000000006" /><path d="M 25.521815274538298 193.00000000000003 a86.0,86.0 0 0,1 -11.493303480769221,-40.785679425670985" fill="none" id="id9" stroke="none" /><text fill="#FFFFFF" style="font-size:6.75px; font-family:Arial;" text-anchor="middle"><textPath startOffset="21.40746469413373" xlink:href="#id9">September</textPath></text><line stroke="#FFFFFF" stroke-width="0.3" x1="15.003131293944662" x2="10.003315487706104" y1="150.72959589197737" y2="150.7725132973878" /><path d="M 14.003168132696942 150.73817937305947 a86.0,86.0 0 0,1 10.791469493833604,-42.45332614584628" fill="none" id="id10" stroke="none" /><text fill="#FFFFFF" style="font-size:6.75px; font-family:Arial;" text-anchor="middle"><textPath startOffset="22.145653131862435" xlink:href="#id10">October</textPath></text><path d="M 79.2786578344484 146.59031103205396 l -11.22565195880897 -1.8471767579604499 a32.37661302301616,32.37661302301616 0 0,0 0.0949485534288454,-0.5476380245813911 l 11.192288587887889 2.0396078154624337" fill="#4dd2ff" stroke="none"><title>2016-10-11 3.3 km</title></path><path d="M 79.56144815229197 145.17655741523228 l -3.6205616510074914 -0.8544426913595052 a24.720018680270808,24.720018680270808 0 0,0 0.10101361654844533,-0.41217002649882617 l 3.605360507942748 0.916468542466449" fill="#4dd2ff" stroke="none"><title>2016-10-15 1.1 km</title></path><path d="M 80.83023694016515 141.42560881287827 l -10.075783783728983 -4.506769927666192 a32.0377712441132,32.0377712441132 0 0,0 0.22886492371605888,-0.500111161862204 l 9.99693439515788 4.679070071743067" fill="#4dd2ff" stroke="none"><title>2016-10-26 3.2 km</title></path><path d="M 81.29705330413844 140.4501421533218 l -24.96409585763091 -12.746845221131695 a49.030129237669826,49.030129237669826 0 0,0 0.38918699623978287,-0.7463173815187484 l 24.741600792416186 13.173508845754931" fill="#4dd2ff" stroke="none"><title>2016-10-29 8.2 km</title></path><line stroke="#FFFFFF" stroke-width="0.3" x1="26.387840678322718" x2="22.05771365940052" y1="107.5" y2="105.0" /><path d="M 25.521815274538284 107.0 a86.0,86.0 0 0,1 29.574782752854787,-30.34633250058573" fill="none" id="id11" stroke="none" /><text fill="#FFFFFF" style="font-size:6.75px; font-family:Arial;" text-anchor="middle"><textPath startOffset="21.40746469413373" xlink:href="#id11">November</textPath></text><path d="M 82.78059297857968 137.97951657250587 l -9.941013485036422 -6.939599470569889 a33.12360465874774,33.12360465874774 0 0,0 0.3294771854987939,-0.4634509229624149 l 9.820421201007655 7.109227620241824" fill="#4dd2ff" stroke="none"><title>2016-11-06 3.5 km</title></path><path d="M 82.98947788004972 137.68569379921541 l -31.835589977112793 -23.04651205273773 a60.30199113261095,60.30199113261095 0 0,0 0.6142130532542834,-0.8332979697718403 l 31.43527490427469 23.589616331778434" fill="#4dd2ff" stroke="none"><title>2016-11-07 11.5 km</title></path><path d="M 83.2033758604659 137.39550010848427 l -11.147584130130328 -8.365354954164475 a34.93728077666148,34.93728077666148 0 0,0 0.364093086409036,-0.4766095376545138 l 11.002339066366986 8.555485405059873" fill="#4dd2ff" stroke="none"><title>2016-11-08 4.1 km</title></path><path d="M 83.64595745247003 136.82634096563984 l -13.84867136032168 -11.155509351866094 a38.78288748616956,38.78288748616956 0 0,0 0.4220929663844947,-0.5148847876327689 l 13.655131574698556 11.391596421197354" fill="#4dd2ff" stroke="none"><title>2016-11-10 5.2 km</title></path><path d="M 85.08716467003674 135.2146240351691 l -18.46380999147234 -18.306000597928737 a47.000421867588244,47.000421867588244 0 0,0 0.572975607400111,-0.5680784094132991 l 18.14684246394225 18.62025901757071" fill="#4dd2ff" stroke="none"><title>2016-11-16 7.6 km</title></path><path d="M 85.34317274990677 134.96080404539777 l -13.164497543687064 -13.507934208757927 a39.86182075426112,39.86182075426112 0 0,0 0.49414898599237006,-0.4733835504784027 l 12.930676071829394 13.731929889541899" fill="#4dd2ff" stroke="none"><title>2016-11-17 5.5 km</title></path><path d="M 87.25179093698888 133.31218511350988 l -38.244627189033366 -50.06344465947034 a84.0,84.0 0 0,0 1.1533880443569906,-0.8655238909439964 l 37.37958615576562 50.71258757767834" fill="#4dd2ff" stroke="none"><title>2016-11-24 18.4 km</title></path><path d="M 88.4268655584334 132.4767994020092 l -13.276442638855126 -20.10222630377433 a45.09073331202201,45.09073331202201 0 0,0 0.6495521275692093,-0.4210318414241948 l 12.92940487902889 20.32717198690243" fill="#4dd2ff" stroke="none"><title>2016-11-28 7.0 km</title></path><path d="M 89.03521579738668 132.08984904055464 l -11.088916696595286 -18.112912059445804 a42.237741329464555,42.237741329464555 0 0,0 0.6216334419970354,-0.3732730209397055 l 10.776350498040815 18.300599080921433" fill="#4dd2ff" stroke="none"><title>2016-11-30 6.2 km</title></path><line stroke="#FFFFFF" stroke-width="0.3" x1="56.869717070023135" x2="54.33264160355391" y1="76.7553504044142" y2="72.44684160467386" /><path d="M 56.362301976729285 75.89364864446614 a86.0,86.0 0 0,1 42.16139366436587,-11.88097634709845" fill="none" id="id12" stroke="none" /><text fill="#FFFFFF" style="font-size:6.75px; font-family:Arial;" text-anchor="middle"><textPath startOffset="22.145653131862474" xlink:href="#id12">December</textPath></text><path d="M 89.34428304082924 131.90426304109056 l -1.9128867644006406 -3.2484999229434446 a24.769865716810443,24.769865716810443 0 0,0 0.36825422127974666,-0.2126116737860766 l 1.8568400752604943 3.2808584940056953" fill="#4dd2ff" stroke="none"><title>2016-12-01 1.1 km</title></path><path d="M 89.97174638481275 131.54914285379988 l -3.4822088367553863 -6.406872050274685 a28.292035919506173,28.292035919506173 0 0,0 0.4287067739883423,-0.22826221014371548 l 3.3717132469804825 6.465704728140976" fill="#4dd2ff" stroke="none"><title>2016-12-03 2.1 km</title></path><path d="M 90.61103034731259 131.2157712731953 l -13.13665842074583 -26.282116740100882 a50.38233235813051,50.38233235813051 0 0,0 0.7769429501168277,-0.38004173000986835 l 12.68355522136695 26.503752220207964" fill="#4dd2ff" stroke="none"><title>2016-12-05 8.6 km</title></path><path d="M 90.93487009805054 131.0573650232925 l -16.359654405348614 -34.18538565883767 a58.8982702099437,58.8982702099437 0 0,0 0.9157595217614909,-0.4286216955933347 l 15.770406169715601 34.461183586001546" fill="#4dd2ff" stroke="none"><title>2016-12-06 11.1 km</title></path><path d="M 91.26138138417902 130.90454125486306 l -9.02907509234543 -19.730158565391026 a42.69800345743095,42.69800345743095 0 0,0 0.6691114601269036,-0.2992850453605847 l 8.689050229362907 19.882247361661456" fill="#4dd2ff" stroke="none"><title>2016-12-07 6.3 km</title></path><path d="M 92.25597844496254 130.4800069120116 l -6.540903234291495 -16.4873489846521 a38.737420659782345,38.737420659782345 0 0,0 0.6202188240607157,-0.23991396496452713 l 6.25691214773725 16.59720283775467" fill="#4dd2ff" stroke="none"><title>2016-12-10 5.2 km</title></path><path d="M 93.27111125876988 130.10723608172694 l -12.145058045270154 -35.904706075451415 a58.903170755064004,58.903170755064004 0 0,0 0.9606188887647993,-0.3157745090525754 l 11.526916418857596 36.10790150590602" fill="#4dd2ff" stroke="none"><title>2016-12-13 11.1 km</title></path><path d="M 93.61358852112211 129.99465700312896 l -6.56863433980661 -20.576153513356992 a42.59919096853676,42.59919096853676 0 0,0 0.6985443067669754,-0.2164108118666657 l 6.214449400168019 20.6858809130303" fill="#4dd2ff" stroke="none"><title>2016-12-14 6.3 km</title></path><path d="M 96.41257539226777 129.3086881835917 l -5.910502887213532 -34.090209998427135 a55.59879278409322,55.59879278409322 0 0,0 0.9417972093520207,-0.15497237240300646 l 5.324428174808439 34.18664836932581" fill="#4dd2ff" stroke="none"><title>2016-12-22 10.1 km</title></path><path d="M 98.5590905019552 129.04949213459386 l -2.4534333129100783 -35.67238191511564 a56.75665205970445,56.75665205970445 0 0,0 0.9725810379874354,-0.058508060113552605 l 1.840707922790159 35.70924195305389" fill="#4dd2ff" stroke="none"><title>2016-12-28 10.4 km</title></path></g></g></svg>