<?xml version="1.0" encoding="utf-8" ?>
<svg baseProfile="full" height="300mm" version="1.1" viewBox="0,0,200,300" width="200mm" xmlns="http://www.w3.org/2000/svg" xmlns:ev="http://www.w3.org/2001/xml-events" xmlns:xlink="http://www.w3.org/1999/xlink"><defs /><rect fill="#222222" height="300" width="200" x="0" y="0" /><g id="header"><text fill="#FFFFFF" style="font-size:12px; font-family:Arial; font-weight:bold;" x="10" y="20">Just Keep Running</text></g><g id="footer"><text fill="#FFFFFF" style="font-size:4px; font-family:Arial" x="10" y="280">ATHLETE</text><text fill="#FFFFFF" style="font-size:9px; font-family:Arial" x="10" y="290">Wilson Xie</text><text fill="#FFFFFF" style="font-size:4px; font-family:Arial" x="120" y="280">STATISTICS</text><text fill="#FFFFFF" style="font-size:3px; font-family:Arial" x="120" y="285">Number: 14</text><text fill="#FFFFFF" style="font-size:3px; font-family:Arial" x="120" y="290">Weekly: 1.4</text><text fill="#FFFFFF" style="font-size:3px; font-family:Arial" x="141" y="285">Total: 77.3 km</text><text fill="#FFFFFF" style="font-size:3px; font-family:Arial" x="141" y="290">Avg: 5.5 km</text><text fill="#FFFFFF" style="font-size:3px; font-family:Arial" x="167" y="285">Min: 1.1 km</text><text fill="#FFFFFF" style="font-size:3px; font-family:Arial" x="167" y="290">Max: 10.1 km</text></g><g id="tracks"><g id="year2020"><text alignment-baseline="middle" fill="#FFFFFF" style="dominant-baseline: central; font-size:9.0px; font-family:Arial;" text-anchor="middle" x="100.0" y="150.0">2020</text><line stroke="#FFFFFF" stroke-width="0.3" x1="100.0" x2="100.0" y1="65.0" y2="60.0" /><path d="M 100.0 64.0 a86.0,86.0 0 0,1 42.35913384403234,11.155469271406648" fill="none" id="id1" stroke="none" /><text fill="#FFFFFF" style="font-size:6.75px; font-family:Arial;" text-anchor="middle"><textPath startOffset="22.145653131862478" xlink:href="#id1">January</textPath></text><line stroke="#FFFFFF" stroke-width="0.3" x1="143.13028292997686" x2="145.6673583964461" y1="76.7553504044142" y2="72.44684160467386" /><path d="M 143.63769802327073 75.89364864446614 a86.0,86.0 0 0,1 29.32050498858742,28.57503671076993" fill="none" id="id2" stroke="none" /><text fill="#FFFFFF" style="font-size:6.75px; font-family:Arial;" text-anchor="middle"><textPath startOffset="20.669276256404974" xlink:href="#id2">February</textPath></text><line stroke="#FFFFFF" stroke-width="0.3" x1="172.87174338648825" x2="177.1583165268699" y1="106.2426118716644" y2="103.66864786411523" /><path d="M 173.72905801456457 105.72781907015455 a86.0,86.0 0 0,1 12.242430191666344,42.057860355516425" fill="none" id="id3" stroke="none" /><text fill="#FFFFFF" style="font-size:6.75px; font-family:Arial;" text-anchor="middle"><textPath startOffset="22.145653131862474" xlink:href="#id3">March</textPath></text><line stroke="#FFFFFF" stroke-width="0.3" x1="184.99686870605535" x2="189.99668451229388" y1="149.2704041080226" y2="149.22748670261217" /><path d="M 185.99683186730306 149.2618206269405 a86.0,86.0 0 0,1 -10.086455211305974,41.156179273409016" fill="none" id="id4" stroke="none" /><text fill="#FFFFFF" style="font-size:6.75px; font-family:Arial;" text-anchor="middle"><textPath startOffset="21.40746469413373" xlink:href="#id4">April</textPath></text><line stroke="#FFFFFF" stroke-width="0.3" x1="174.33088141563837" x2="178.70328620479359" y1="191.23008692659167" y2="193.65538615756765" /><path d="M 175.20536237346943 191.71514677278685 a86.0,86.0 0 0,1 -30.301960400862466,31.631185727798858" fill="none" id="id5" stroke="none" /><text fill="#FFFFFF" style="font-size:6.75px; font-family:Arial;" text-anchor="middle"><textPath startOffset="22.145653131862474" xlink:href="#id5">May</textPath></text><line stroke="#FFFFFF" stroke-width="0.3" x1="143.1302829299769" x2="145.66735839644613" y1="223.24464959558577" y2="227.55315839532614" /><path d="M 143.63769802327073 224.10635135553383 a86.0,86.0 0 0,1 -40.68552437913181,11.842963189579606" fill="none" id="id6" stroke="none" /><text fill="#FFFFFF" style="font-size:6.75px; font-family:Arial;" text-anchor="middle"><textPath startOffset="21.407464694133747" xlink:href="#id6">June</textPath></text><line stroke="#FFFFFF" stroke-width="0.3" x1="101.45913802915013" x2="101.54496967792366" y1="234.9874750549273" y2="239.98673829345242" /><path d="M 101.47630435890484 235.9873277026323 a86.0,86.0 0 0,1 -42.54439059252881,-10.42667462771756" fill="none" id="id7" stroke="none" /><text fill="#FFFFFF" style="font-size:6.75px; font-family:Arial;" text-anchor="middle"><textPath startOffset="22.145653131862474" xlink:href="#id7">July</textPath></text><line stroke="#FFFFFF" stroke-width="0.3" x1="58.13341422392154" x2="55.67067388415222" y1="223.97424548756322" y2="228.32567169271397" /><path d="M 57.64086615596768 224.84453072859336 a86.0,86.0 0 0,1 -31.369924170532247,-30.572349798747897" fill="none" id="id8" stroke="none" /><text fill="#FFFFFF" style="font-size:6.75px; font-family:Arial;" text-anchor="middle"><textPath startOffset="22.145653131862474" xlink:href="#id8">August</textPath></text><path d="M 82.98947788004972 162.3143062007846 l -26.247520271217653 19.001180525317107 a53.40335139678721,53.40335139678721 0 0,0 -0.5311977997470374,-0.7471962290671857 l 26.56983316949465 -18.547807069540415" fill="#4dd2ff" stroke="none"><title>2020-08-26 5.2 km</title></path><line stroke="#FFFFFF" stroke-width="0.3" x1="26.387840678322732" x2="22.057713659400548" y1="192.50000000000003" y2="195.00000000000006" /><path d="M 25.521815274538298 193.00000000000003 a86.0,86.0 0 0,1 -11.493303480769221,-40.785679425670985" fill="none" id="id9" stroke="none" /><text fill="#FFFFFF" style="font-size:6.75px; font-family:Arial;" text-anchor="middle"><textPath startOffset="21.40746469413373" xlink:href="#id9">September</textPath></text><path d="M 81.63589988554817 160.18625677009913 l -27.95457740373744 15.505932855919884 a52.96705102998779,52.96705102998779 0 0,0 -0.43421543580831157,-0.7989074951835016 l 28.21663818916108 -15.023770527261796" fill="#4dd2ff" stroke="none"><title>2020-09-02 5.1 km</title></path><path d="M 79.34024301695615 153.76489593502546 l -30.826158844292678 5.617553014809349 a52.333831093049525,52.333831093049525 0 0,0 -0.15347564472362082,-0.885206734200386 l 30.918049306508532 -5.087553247688371" fill="#4dd2ff" stroke="none"><title>2020-09-21 5.0 km</title></path><path d="M 79.03789590574601 151.2610281288139 l -30.782921956781177 1.8518241441814631 a51.8385722247035,51.8385722247035 0 0,0 -0.045811500253864594,-0.8887308662843245 l 30.810175046491615 -1.3231214845204078" fill="#4dd2ff" stroke="none"><title>2020-09-28 5.0 km</title></path><line stroke="#FFFFFF" stroke-width="0.3" x1="15.003131293944662" x2="10.003315487706104" y1="150.72959589197737" y2="150.7725132973878" /><path d="M 14.003168132696942 150.73817937305947 a86.0,86.0 0 0,1 10.791469493833604,-42.45332614584628" fill="none" id="id10" stroke="none" /><text fill="#FFFFFF" style="font-size:6.75px; font-family:Arial;" text-anchor="middle"><textPath startOffset="22.145653131862435" xlink:href="#id10">October</textPath></text><path d="M 79.00077361379809 150.1802531027238 l -62.99767915860572 0.5407593081714642 a84.0,84.0 0 0,0 0.0,-1.4420248217905405 l 62.99767915860572 0.540759308171441" fill="#4dd2ff" stroke="none"><title>2020-10-01 10.1 km</title></path><path d="M 79.83685265289637 144.1308016681162 l -59.82337361378185 -17.413712183782962 a83.30628702268946,83.30628702268946 0 0,0 0.4114683169917724,-1.3696442044482275 l 59.515628976786445 18.438093991821912" fill="#4dd2ff" stroke="none"><title>2020-10-18 10.0 km</title></path><path d="M 80.5471966667186 142.08871423366114 l -13.30590751844419 -5.41139675117108 a35.36420515336559,35.36420515336559 0 0,0 0.23352863253722317,-0.5603837049757044 l 13.211053041370487 5.639012965588048" fill="#4dd2ff" stroke="none"><title>2020-10-24 2.3 km</title></path><line stroke="#FFFFFF" stroke-width="0.3" x1="26.387840678322718" x2="22.05771365940052" y1="107.5" y2="105.0" /><path d="M 25.521815274538284 107.0 a86.0,86.0 0 0,1 29.574782752854787,-30.34633250058573" fill="none" id="id11" stroke="none" /><text fill="#FFFFFF" style="font-size:6.75px; font-family:Arial;" text-anchor="middle"><textPath startOffset="21.40746469413373" xlink:href="#id11">November</textPath></text><path d="M 81.81346652052679 139.5 l -5.706355164044765 -3.294565690052857 a27.589131380105712,27.589131380105712 0 0,0 0.24032273543356275,-0.40812054433452233 l 5.648958718481422 3.392037402680952" fill="#4dd2ff" stroke="none"><title>2020-11-01 1.1 km</title></path><line stroke="#FFFFFF" stroke-width="0.3" x1="56.869717070023135" x2="54.33264160355391" y1="76.7553504044142" y2="72.44684160467386" /><path d="M 56.362301976729285 75.89364864446614 a86.0,86.0 0 0,1 42.16139366436587,-11.88097634709845" fill="none" id="id12" stroke="none" /><text fill="#FFFFFF" style="font-size:6.75px; font-family:Arial;" text-anchor="middle"><textPath startOffset="22.145653131862474" xlink:href="#id12">December</textPath></text><path d="M 89.34428304082924 131.90426304109056 l -10.434811769804329 -17.720591652877953 a41.56464600228496,41.56464600228496 0 0,0 0.617942645363309,-0.356769352644254 l 10.12907665658062 17.897107902798382" fill="#4dd2ff" stroke="none"><title>2020-12-01 3.3 km</title></path><path d="M 89.97174638481275 131.54914285379988 l -14.962294248119822 -27.528936178217652 a52.33229286649319,52.33229286649319 0 0,0 0.7929867088405361,-0.42222075730357816 l 14.487518723492723 27.781727403243806" fill="#4dd2ff" stroke="none"><title>2020-12-03 5.0 km</title></path><path d="M 90.61103034731259 131.2157712731953 l -14.24575326776651 -28.50104938732632 a52.86300836934413,52.86300836934413 0 0,0 0.8151973073136383,-0.39875385306511363 l 13.754395711190819 28.741396990488646" fill="#4dd2ff" stroke="none"><title>2020-12-05 5.1 km</title></path><path d="M 91.5904679813234 130.7573450057729 l -12.4612227007456 -28.513716185887542 a52.117745450577274,52.117745450577274 0 0,0 0.8228769691717741,-0.35123724685023605 l 11.969910656403393 28.723428082397184" fill="#4dd2ff" stroke="none"><title>2020-12-08 5.0 km</title></path><path d="M 92.93061703081487 130.22567764915834 l -20.980590161795647 -58.68644474046171 a83.32402393790457,83.32402393790457 0 0,0 1.3510166286114473,-0.4699537142808617 l 19.970067761139195 59.037956887311154" fill="#4dd2ff" stroke="none"><title>2020-12-12 10.0 km</title></path><path d="M 93.95794788825049 129.88797359093562 l -9.009528438523306 -29.989789981525004 a52.313880401836784,52.313880401836784 0 0,0 0.8622821864076654,-0.25099777742804014 l 8.493386239734015 30.140031453255567" fill="#4dd2ff" stroke="none"><title>2020-12-15 5.0 km</title></path></g></g></svg>