<?xml version="1.0" encoding="utf-8" ?>
<svg baseProfile="full" height="300mm" version="1.1" viewBox="0,0,200,300" width="200mm" xmlns="http://www.w3.org/2000/svg" xmlns:ev="http://www.w3.org/2001/xml-events" xmlns:xlink="http://www.w3.org/1999/xlink"><defs /><rect fill="#222222" height="300" width="200" x="0" y="0" /><g id="header"><text fill="#FFFFFF" style="font-size:12px; font-family:Arial; font-weight:bold;" x="10" y="20">Just Keep Running</text></g><g id="footer"><text fill="#FFFFFF" style="font-size:4px; font-family:Arial" x="10" y="280">ATHLETE</text><text fill="#FFFFFF" style="font-size:9px; font-family:Arial" x="10" y="290">Wilson Xie</text><text fill="#FFFFFF" style="font-size:4px; font-family:Arial" x="120" y="280">STATISTICS</text><text fill="#FFFFFF" style="font-size:3px; font-family:Arial" x="120" y="285">Number: 62</text><text fill="#FFFFFF" style="font-size:3px; font-family:Arial" x="120" y="290">Weekly: 3.0</text><text fill="#FFFFFF" style="font-size:3px; font-family:Arial" x="141" y="285">Total: 288.4 km</text><text fill="#FFFFFF" style="font-size:3px; font-family:Arial" x="141" y="290">Avg: 4.7 km</text><text fill="#FFFFFF" style="font-size:3px; font-family:Arial" x="167" y="285">Min: 1.4 km</text><text fill="#FFFFFF" style="font-size:3px; font-family:Arial" x="167" y="290">Max: 10.8 km</text></g><g id="tracks"><g id="year2022"><text alignment-baseline="middle" fill="#FFFFFF" style="dominant-baseline: central; font-size:9.0px; font-family:Arial;" text-anchor="middle" x="100.0" y="150.0">2022</text><line stroke="#FFFFFF" stroke-width="0.3" x1="100.0" x2="100.0" y1="65.0" y2="60.0" /><path d="M 100.0 64.0 a86.0,86.0 0 0,1 42.46469731375804,11.215312516191453" fill="none" id="id1" stroke="none" /><text fill="#FFFFFF" style="font-size:6.75px; font-family:Arial;" text-anchor="middle"><textPath startOffset="22.20632615414155" xlink:href="#id1">January</textPath></text><path d="M 103.2404852339499 129.25152402106235 l 4.591591394309881 -29.39946238662853 a50.755858249344556,50.755858249344556 0 0,0 0.8620539168998307,0.14224628265145747 l -5.0969745173485865 29.31606984103745" fill="#4dd2ff" stroke="none"><title>2022-01-10 5.1 km</title></path><path d="M 104.66035177308747 129.5236448225989 l 6.52730895551023 -28.67927208789045 a50.41269130310819,50.41269130310819 0 0,0 0.8444757465192312,0.19986012528401126 l -7.020008388991984 28.56266605046557" fill="#4dd2ff" stroke="none"><title>2022-01-14 5.1 km</title></path><path d="M 108.43124777332544 130.76684994638697 l 11.799761731325775 -26.91731924822292 a50.39007404595661,50.39007404595661 0 0,0 0.7914070224828329,0.355081262027056 l -12.261350872275388 26.710217655679333" fill="#4dd2ff" stroke="none"><title>2022-01-25 5.0 km</title></path><line stroke="#FFFFFF" stroke-width="0.3" x1="143.23703022742887" x2="145.7803849466894" y1="76.81831364943548" y2="72.5135085699905" /><path d="M 143.74570117128098 75.95735263354649 a86.0,86.0 0 0,1 28.547481713284135,27.462654790039103" fill="none" id="id2" stroke="none" /><text fill="#FFFFFF" style="font-size:6.75px; font-family:Arial;" text-anchor="middle"><textPath startOffset="19.985693538727396" xlink:href="#id2">February</textPath></text><path d="M 116.60985879189232 137.1503855733568 l 9.457969389445115 -7.31681475658819 a32.95779926047881,32.95779926047881 0 0,0 0.3432696978824112,0.45170268479155307 l -9.58251502755164 7.152927295915604" fill="#4dd2ff" stroke="none"><title>2022-02-23 2.1 km</title></path><path d="M 117.04232023915458 137.72973835380427 l 14.441902438169452 -10.397992708647868 a38.79569606401219,38.79569606401219 0 0,0 0.38553200830873885,0.5453076847275502 l -14.618747066282072 10.147858523588525" fill="#4dd2ff" stroke="none"><title>2022-02-25 3.1 km</title></path><path d="M 117.65298651832404 138.62581576622438 l 10.01430772499668 -6.4524255382849836 a32.91302457556604,32.91302457556604 0 0,0 0.3027565748608584,0.47888819428115925 l -10.123891896103494 6.279089696289618" fill="#4dd2ff" stroke="none"><title>2022-02-28 2.0 km</title></path><line stroke="#FFFFFF" stroke-width="0.3" x1="172.23445277983987" x2="176.4835382374775" y1="105.19839476539836" y2="102.56300622218649" /><path d="M 173.08426987136738 104.67131705675598 a86.0,86.0 0 0,1 12.851231095245387,41.99856678651699" fill="none" id="id3" stroke="none" /><text fill="#FFFFFF" style="font-size:6.75px; font-family:Arial;" text-anchor="middle"><textPath startOffset="22.20632615414155" xlink:href="#id3">March</textPath></text><line stroke="#FFFFFF" stroke-width="0.3" x1="184.98032266829074" x2="189.97916517819016" y1="148.1711317179211" y2="148.06355123074" /><path d="M 185.9800911702706 148.1496156204849 a86.0,86.0 0 0,1 -9.607161424134198,41.387399972396054" fill="none" id="id4" stroke="none" /><text fill="#FFFFFF" style="font-size:6.75px; font-family:Arial;" text-anchor="middle"><textPath startOffset="21.466115282336823" xlink:href="#id4">April</textPath></text><path d="M 120.99824983174949 150.27111621757518 l 8.28448132852012 0.10696402130450734 a29.28517182588582,29.28517182588582 0 0,0 -0.010846582415263126,0.503998064010073 l -8.28141268341985 -0.24955190110469516" fill="#4dd2ff" stroke="none"><title>2022-04-03 1.4 km</title></path><path d="M 120.9764740272857 150.99374915477105 l 12.027610026289416 0.5698015444346675 a33.041099482378584,33.041099482378584 0 0,0 -0.03180386624890657,0.5678793965031159 l -12.01601980915298 -0.7767526572732067" fill="#4dd2ff" stroke="none"><title>2022-04-05 2.1 km</title></path><path d="M 120.8583938346157 152.43462659150552 l 17.613951990137394 2.0559299165941733 a38.73353186854813,38.73353186854813 0 0,0 -0.0829976416963703,0.6615728664281714 l -17.575952839194176 -2.3588205373097395" fill="#4dd2ff" stroke="none"><title>2022-04-09 3.0 km</title></path><line stroke="#FFFFFF" stroke-width="0.3" x1="174.80103733775053" x2="179.2010983576182" y1="190.37084112569926" y2="192.7455964860345" /><path d="M 175.68104954172406 190.8457921977663 a86.0,86.0 0 0,1 -30.038265399797805,32.042727171017184" fill="none" id="id5" stroke="none" /><text fill="#FFFFFF" style="font-size:6.75px; font-family:Arial;" text-anchor="middle"><textPath startOffset="22.206326154141568" xlink:href="#id5">May</textPath></text><line stroke="#FFFFFF" stroke-width="0.3" x1="143.8653032363475" x2="146.44561519142675" y1="222.8068346515853" y2="227.08958963109032" /><path d="M 144.38136562736335 223.6633856474863 a86.0,86.0 0 0,1 -40.68145358897372,12.25698825130547" fill="none" id="id6" stroke="none" /><text fill="#FFFFFF" style="font-size:6.75px; font-family:Arial;" text-anchor="middle"><textPath startOffset="21.466115282336833" xlink:href="#id6">June</textPath></text><line stroke="#FFFFFF" stroke-width="0.3" x1="102.19456741930631" x2="102.32365962044197" y1="234.97166512339345" y2="239.96999836594603" /><path d="M 102.22038585953345 235.97133177190398 a86.0,86.0 0 0,1 -42.740103519485714,-10.115201625700543" fill="none" id="id7" stroke="none" /><text fill="#FFFFFF" style="font-size:6.75px; font-family:Arial;" text-anchor="middle"><textPath startOffset="22.20632615414155" xlink:href="#id7">July</textPath></text><path d="M 100.18074693466247 170.99922214144158 l 0.1500193532417556 17.42928437553895 a38.429929995549415,38.429929995549415 0 0,0 -0.6615325758084102,0.0 l 0.15001935324174362 -17.42928437553895" fill="#4dd2ff" stroke="none"><title>2022-07-02 3.0 km</title></path><path d="M 99.45781275523022 170.99299961872075 l -0.4471052352257183 17.31151022670591 a38.31728296877745,38.31728296877745 0 0,0 -0.659202595987767,-0.02270427027356673 l 0.7450281828881283 -17.301249158006247" fill="#4dd2ff" stroke="none"><title>2022-07-04 3.0 km</title></path><path d="M 96.22490169976321 170.65789516924582 l -3.136541394364688 17.163617518177347 a38.44785540485843,38.44785540485843 0 0,0 -0.6500111342375922,-0.12457618091616951 l 3.4315201431739752 -17.10708413891271" fill="#4dd2ff" stroke="none"><title>2022-07-13 3.0 km</title></path><path d="M 95.51606077576429 170.5157083483208 l -3.852753849380784 17.627797871243267 a39.04391781219719,39.04391781219719 0 0,0 -0.6553425865505055,-0.1491538390866094 l 4.155616585324152 -17.55886729857897" fill="#4dd2ff" stroke="none"><title>2022-07-15 3.1 km</title></path><path d="M 95.16358092515715 170.4354850818985 l -3.987929931815645 16.850335210441443 a38.315813057587384,38.315813057587384 0 0,0 -0.6405066817266312,-0.1574209589182619 l 4.277389898285486 -16.77919299320915" fill="#4dd2ff" stroke="none"><title>2022-07-16 3.0 km</title></path><path d="M 94.46302465271185 170.2568976895161 l -7.6333601225720065 27.92647345014922 a49.95092582496736,49.95092582496736 0 0,0 -0.8274462008964033,-0.23384456151002647 l 8.112937491573025 -27.790940095300673" fill="#4dd2ff" stroke="none"><title>2022-07-18 5.0 km</title></path><path d="M 94.11515582081647 170.15858648285464 l -8.130017452528508 27.849447654644866 a50.011875472764984,50.011875472764984 0 0,0 -0.8243029369667629,-0.24835571304798632 l 8.608195363935517 -27.70537657249115" fill="#4dd2ff" stroke="none"><title>2022-07-19 5.0 km</title></path><path d="M 93.76903079525671 170.05430185196036 l -5.166577470054862 16.62856944424372 a38.412720767189555,38.412720767189555 0 0,0 -0.6297466589107296,-0.2016249934391846 l 5.452045474056532 -16.537171604144827" fill="#4dd2ff" stroke="none"><title>2022-07-20 3.0 km</title></path><path d="M 93.42475214034765 169.94407469862006 l -9.10377744093198 27.61362327277492 a50.075607542143615,50.075607542143615 0 0,0 -0.816304576344414,-0.2769348328193515 l 9.577751750213618 -27.452825453057443" fill="#4dd2ff" stroke="none"><title>2022-07-21 5.0 km</title></path><path d="M 92.7421414339146 169.70592522655815 l -10.01432088998421 27.19003916319442 a49.97559063390461,49.97559063390461 0 0,0 -0.8046778775436494,-0.3042603197380598 l 10.480868988288142 -27.013630593349728" fill="#4dd2ff" stroke="none"><title>2022-07-23 5.0 km</title></path><path d="M 92.06813273071674 169.44442032107085 l -11.895746151218297 29.161593398416855 a52.49455994340633,52.49455994340633 0 0,0 -0.8337349505832043,-0.34850127696168726 l 12.395952561298964 -28.952507078435197" fill="#4dd2ff" stroke="none"><title>2022-07-25 5.4 km</title></path><path d="M 91.07499286063937 169.00905698771936 l -10.116298207951226 21.5463456932858 a44.80303556622081,44.80303556622081 0 0,0 -0.6952734155317125,-0.33377349115110727 l 10.485684291483182 -21.36901792563513" fill="#4dd2ff" stroke="none"><title>2022-07-28 4.1 km</title></path><path d="M 90.7491055286396 168.85261126421892 l -12.800840647839138 26.087128475635367 a50.05855800613094,50.05855800613094 0 0,0 -0.7702965431770037,-0.3862426778428732 l 13.247991098698902 -25.86291795688319" fill="#4dd2ff" stroke="none"><title>2022-07-29 5.0 km</title></path><path d="M 90.42595943632237 168.69057910512822 l -13.412913481160913 26.184881793897514 a50.4203039177622,50.4203039177622 0 0,0 -0.769051525820867,-0.402331410689685 l 13.861655909508276 -25.950120964263114" fill="#4dd2ff" stroke="none"><title>2022-07-30 5.1 km</title></path><line stroke="#FFFFFF" stroke-width="0.3" x1="58.666819895761336" x2="56.23545636021788" y1="224.27360380694188" y2="228.64263932499728" /><path d="M 58.180547188652646 225.14741091055294 a86.0,86.0 0 0,1 -31.652253787137756,-30.449443065178592" fill="none" id="id8" stroke="none" /><text fill="#FFFFFF" style="font-size:6.75px; font-family:Arial;" text-anchor="middle"><textPath startOffset="22.20632615414155" xlink:href="#id8">August</textPath></text><path d="M 88.54995079064634 167.60387380957326 l -8.025541692684314 12.338866028284832 a35.71927084895769,35.71927084895769 0 0,0 -0.5125295261595751,-0.3396766225577159 l 8.23674591758385 -12.198891384635798" fill="#4dd2ff" stroke="none"><title>2022-08-05 2.5 km</title></path><path d="M 88.24862548938628 167.40417183066458 l -35.25412353184113 52.212515491993734 a84.0,84.0 0 0,0 -1.191372461508439,-0.8194368425395955 l 36.14765287797246 -51.59793786008904" fill="#4dd2ff" stroke="none"><title>2022-08-06 10.8 km</title></path><path d="M 87.65650970185807 166.9893568818739 l -17.06619023729097 23.489595693928948 a50.03473704168252,50.03473704168252 0 0,0 -0.6924212659746629,-0.5122366991135057 l 17.4679964736842 -23.192349046075677" fill="#4dd2ff" stroke="none"><title>2022-08-08 5.0 km</title></path><path d="M 86.79598089348748 166.32954008644617 l -18.263229117070242 22.586314785628822 a50.0462932812109,50.0462932812109 0 0,0 -0.6652102576380573,-0.547422754752344 l 18.64930950325299 -22.268596912019298" fill="#4dd2ff" stroke="none"><title>2022-08-11 5.0 km</title></path><path d="M 86.51685102203217 166.09983520530335 l -18.602092755743115 22.212216770030093 a49.972753212839066,49.972753212839066 0 0,0 -0.6547252209212782,-0.5579710372294476 l 18.98168345324145 -21.888721342577693" fill="#4dd2ff" stroke="none"><title>2022-08-12 5.0 km</title></path><path d="M 86.24171649860922 165.8653595955263 l -19.005282490659305 21.91593456395845 a50.00877367903493,50.00877367903493 0 0,0 -0.6454885965460083,-0.5695686367796301 l 19.3797134401119 -21.58554278540653" fill="#4dd2ff" stroke="none"><title>2022-08-13 5.0 km</title></path><path d="M 85.70375840098266 165.38237550388516 l -27.681058974615436 29.784082798516266 a61.66119297444445,61.66119297444445 0 0,0 -0.7712469430047272,-0.7292621234179598 l 28.18964175201098 -29.303186038352376" fill="#4dd2ff" stroke="none"><title>2022-08-15 7.0 km</title></path><path d="M 85.44109423537348 165.1340101406311 l -20.123837446128245 20.918767172604838 a50.0269470247879,50.0269470247879 0 0,0 -0.6154506736355987,-0.6023480193483657 l 20.48093807213964 -20.5692690503339" fill="#4dd2ff" stroke="none"><title>2022-08-16 5.0 km</title></path><path d="M 85.18274418774928 164.88116024355367 l -20.53298691316026 20.621542369599858 a50.10071410253042,50.10071410253042 0 0,0 -0.6058831446547646,-0.6137564267253773 l 20.884910682870558 -20.265045448893815" fill="#4dd2ff" stroke="none"><title>2022-08-17 5.0 km</title></path><path d="M 84.67929136418377 164.36230785411684 l -21.451853797272154 20.109913686215943 a50.40392252415645,50.40392252415645 0 0,0 -0.5879343749236717,-0.6380866455303457 l 21.794834580191555 -19.737675785884253" fill="#4dd2ff" stroke="none"><title>2022-08-19 5.1 km</title></path><path d="M 84.43433777217949 164.09645910891817 l -21.648571963539183 19.605218524212564 a50.20659619748015,50.20659619748015 0 0,0 -0.5746052897782735,-0.64557513441475 l 21.982836102965795 -19.22966922005695" fill="#4dd2ff" stroke="none"><title>2022-08-20 5.0 km</title></path><path d="M 83.95833913139862 163.55231037782056 l -22.172062933692878 18.731394526742328 a50.02525651311475,50.02525651311475 0 0,0 -0.550049135010958,-0.6625696171009223 l 22.491208068597373 -18.346963652527645" fill="#4dd2ff" stroke="none"><title>2022-08-22 5.0 km</title></path><path d="M 83.72743513129214 163.27417163493433 l -25.78412464024842 21.033125305855656 a54.2748169581095,54.2748169581095 0 0,0 -0.5843125686061732,-0.7290197715008266 l 26.142355120909457 -20.586177700776567" fill="#4dd2ff" stroke="none"><title>2022-08-23 5.7 km</title></path><path d="M 83.50135304334701 162.99209946851258 l -22.81158095269402 17.9633111460645 a50.03530218357711,50.03530218357711 0 0,0 -0.5270222734019596,-0.6812473316894245 l 23.11741004331405 -17.56798582026182" fill="#4dd2ff" stroke="none"><title>2022-08-24 5.0 km</title></path><path d="M 83.06392112726016 162.41649034213515 l -14.192265702149713 10.404895451177717 a38.597791199760096,38.597791199760096 0 0,0 -0.3882206414788704,-0.539204516277305 l 14.369266136004192 -10.159057329449274" fill="#4dd2ff" stroke="none"><title>2022-08-26 3.0 km</title></path><path d="M 82.85270091963577 162.1231239475863 l -23.725373396769236 16.77381615867227 a50.056053609206124,50.056053609206124 0 0,0 -0.49135759438311166,-0.7078372618899564 l 24.01059189831448 -16.362937634595298" fill="#4dd2ff" stroke="none"><title>2022-08-27 5.0 km</title></path><path d="M 82.44556493220864 161.52570212397913 l -24.861556568730677 16.323333348129122 a50.74135515766455,50.74135515766455 0 0,0 -0.4730909793108943,-0.73424770586327 l 25.138852411418615 -15.892964042344405" fill="#4dd2ff" stroke="none"><title>2022-08-29 5.1 km</title></path><path d="M 82.24976979558568 161.22182372390057 l -34.439831099093475 21.773109938530382 a61.745187231492956,61.745187231492956 0 0,0 -0.5602210237105733,-0.9032546684787277 l 34.80951676247201 -21.17705893868639" fill="#4dd2ff" stroke="none"><title>2022-08-30 7.0 km</title></path><path d="M 82.05923443525364 160.91462005526583 l -36.0291769688289 21.91906338107602 a63.17282220286921,63.17282220286921 0 0,0 -0.5571816575279395,-0.9338685070458909 l 36.401139502055074 -21.295632780144015" fill="#4dd2ff" stroke="none"><title>2022-08-31 7.2 km</title></path><line stroke="#FFFFFF" stroke-width="0.3" x1="26.63291911575756" x2="22.317208475507996" y1="192.92168965132927" y2="195.44649492493687" /><path d="M 25.769776987707644 193.4266507060508 a86.0,86.0 0 0,1 -11.730757126820373,-40.83630448921669" fill="none" id="id9" stroke="none" /><text fill="#FFFFFF" style="font-size:6.75px; font-family:Arial;" text-anchor="middle"><textPath startOffset="21.46611528233685" xlink:href="#id9">September</textPath></text><path d="M 81.02952815118164 159.00673069616215 l -15.709919341446234 7.4586975956346055 a38.39062205724315,38.39062205724315 0 0,0 -0.27828700725815425,-0.59940545605966 l 15.835980965544216 -7.187172072296118" fill="#4dd2ff" stroke="none"><title>2022-09-06 3.0 km</title></path><path d="M 80.87730276802145 158.678850763441 l -26.477110917179733 12.016657038997721 a50.0764070839836,50.0764070839836 0 0,0 -0.3494830429896899,-0.7879920011129204 l 26.680035044900702 -11.559116701392105" fill="#4dd2ff" stroke="none"><title>2022-09-07 5.0 km</title></path><path d="M 80.73074385275274 158.3483990999337 l -26.727736983951814 11.579783551321144 a50.12839355987133,50.12839355987133 0 0,0 -0.33621595463398923,-0.7947152001673158 l 26.92310391977811 -11.11799382548767" fill="#4dd2ff" stroke="none"><title>2022-09-08 5.0 km</title></path><path d="M 80.32549172779594 157.3425965602758 l -55.7374206841474 20.801403914742874 a80.49250767404163,80.49250767404163 0 0,0 -0.47327961279023506,-1.3022622288932222 l 56.08722455794286 -19.838893888843536" fill="#4dd2ff" stroke="none"><title>2022-09-11 10.2 km</title></path><path d="M 79.97269907076064 156.31721596034902 l -55.51935009074975 17.51248087501576 a79.21585025486638,79.21585025486638 0 0,0 -0.3989960071489663,-1.3039420371172998 l 55.81257287040484 -16.554211865346414" fill="#4dd2ff" stroke="none"><title>2022-09-14 10.0 km</title></path><path d="M 79.86692584326677 155.9715429329011 l -55.82682917987477 16.55844033852451 a79.23072043795605,79.23072043795605 0 0,0 -0.3765623468822217,-1.3108629298358596 l 56.1035841636431 -15.595019933184055" fill="#4dd2ff" stroke="none"><title>2022-09-15 10.0 km</title></path><path d="M 79.50377843672027 154.57218783832718 l -56.88536878314229 12.689684804881708 a79.28355927739267,79.28355927739267 0 0,0 -0.28566984409865237,-1.3345544072408433 l 57.095372665965385 -11.708616578224701" fill="#4dd2ff" stroke="none"><title>2022-09-19 10.0 km</title></path><path d="M 79.35854240842038 153.8639653848113 l -57.7386691676828 10.808355855645 a79.74159066247168,79.74159066247168 0 0,0 -0.24094702957456943,-1.3513589001657678 l 57.916162639596564 -9.812878204746019" fill="#4dd2ff" stroke="none"><title>2022-09-21 10.1 km</title></path><path d="M 79.23777060512086 153.15116336523772 l -30.865107851334074 4.6845160640226755 a52.21857737675711,52.21857737675711 0 0,0 -0.1272291936211872,-0.8898406838578261 l 30.94117109597186 -4.152529908184449" fill="#4dd2ff" stroke="none"><title>2022-09-23 5.4 km</title></path><path d="M 79.07016306316243 151.71520430193888 l -58.72744000843443 4.812725395248309 a79.92431192363924,79.92431192363924 0 0,0 -0.10056549368607831,-1.3721362616897241 l 58.801582060784845 -3.8011159970618245" fill="#4dd2ff" stroke="none"><title>2022-09-27 10.1 km</title></path><path d="M 79.0095281055655 150.63252640178507 l -58.48725823319164 1.762453706928055 a79.51380707751896,79.51380707751896 0 0,0 -0.02945016224406443,-1.3684333172911565 l 58.508930458120716 -0.7554305738467697" fill="#4dd2ff" stroke="none"><title>2022-09-30 10.1 km</title></path><line stroke="#FFFFFF" stroke-width="0.3" x1="15.007084014347285" x2="10.007500721073583" y1="151.09737516637583" y2="151.16192664675089" /><path d="M 14.007167355692545 151.11028546245083 a86.0,86.0 0 0,1 10.666146001902534,-42.60595125391555" fill="none" id="id10" stroke="none" /><text fill="#FFFFFF" style="font-size:6.75px; font-family:Arial;" text-anchor="middle"><textPath startOffset="22.20632615414155" xlink:href="#id10">October</textPath></text><path d="M 79.08570108090925 148.10471618934815 l -56.24815760194021 -5.097288840250829 a77.4786471786785,77.4786471786785 0 0,0 0.13179809407023238,-1.327188820861372 l 56.15208238218774 6.064753191816631" fill="#4dd2ff" stroke="none"><title>2022-10-07 9.7 km</title></path><line stroke="#FFFFFF" stroke-width="0.3" x1="26.266209847984243" x2="21.928928074336255" y1="107.71137044288967" y2="105.22380399835377" /><path d="M 25.398753493254645 107.2138571539825 a86.0,86.0 0 0,1 29.58750427330803,-30.492523968695096" fill="none" id="id11" stroke="none" /><text fill="#FFFFFF" style="font-size:6.75px; font-family:Arial;" text-anchor="middle"><textPath startOffset="21.46611528233685" xlink:href="#id11">November</textPath></text><line stroke="#FFFFFF" stroke-width="0.3" x1="56.762969772571076" x2="54.21961505331055" y1="76.8183136494355" y2="72.51350856999053" /><path d="M 56.25429882871897 75.9573526335465 a86.0,86.0 0 0,1 42.265352541879196,-11.944610805530505" fill="none" id="id12" stroke="none" /><text fill="#FFFFFF" style="font-size:6.75px; font-family:Arial;" text-anchor="middle"><textPath startOffset="22.20632615414155" xlink:href="#id12">December</textPath></text></g></g></svg>