<?xml version="1.0" encoding="utf-8" ?>
<svg baseProfile="full" height="300mm" version="1.1" viewBox="0,0,200,300" width="200mm" xmlns="http://www.w3.org/2000/svg" xmlns:ev="http://www.w3.org/2001/xml-events" xmlns:xlink="http://www.w3.org/1999/xlink"><defs /><rect fill="#222222" height="300" width="200" x="0" y="0" /><g id="header"><text fill="#FFFFFF" style="font-size:12px; font-family:Arial; font-weight:bold;" x="10" y="20">Just Keep Running</text></g><g id="footer"><text fill="#FFFFFF" style="font-size:4px; font-family:Arial" x="10" y="280">ATHLETE</text><text fill="#FFFFFF" style="font-size:9px; font-family:Arial" x="10" y="290">Wilson Xie</text><text fill="#FFFFFF" style="font-size:4px; font-family:Arial" x="120" y="280">STATISTICS</text><text fill="#FFFFFF" style="font-size:3px; font-family:Arial" x="120" y="285">Number: 43</text><text fill="#FFFFFF" style="font-size:3px; font-family:Arial" x="120" y="290">Weekly: 3.3</text><text fill="#FFFFFF" style="font-size:3px; font-family:Arial" x="141" y="285">Total: 619.9 km</text><text fill="#FFFFFF" style="font-size:3px; font-family:Arial" x="141" y="290">Avg: 14.4 km</text><text fill="#FFFFFF" style="font-size:3px; font-family:Arial" x="167" y="285">Min: 1.8 km</text><text fill="#FFFFFF" style="font-size:3px; font-family:Arial" x="167" y="290">Max: 60.3 km</text></g><g id="tracks"><g id="year2023"><text alignment-baseline="middle" fill="#FFFFFF" style="dominant-baseline: central; font-size:9.0px; font-family:Arial;" text-anchor="middle" x="100.0" y="150.0">2023</text><line stroke="#FFFFFF" stroke-width="0.3" x1="100.0" x2="100.0" y1="65.0" y2="60.0" /><path d="M 100.0 64.0 a86.0,86.0 0 0,1 42.46469731375804,11.215312516191453" fill="none" id="id1" stroke="none" /><text fill="#FFFFFF" style="font-size:6.75px; font-family:Arial;" text-anchor="middle"><textPath startOffset="22.20632615414155" xlink:href="#id1">January</textPath></text><line stroke="#FFFFFF" stroke-width="0.3" x1="143.23703022742887" x2="145.7803849466894" y1="76.81831364943548" y2="72.5135085699905" /><path d="M 143.74570117128098 75.95735263354649 a86.0,86.0 0 0,1 28.547481713284135,27.462654790039103" fill="none" id="id2" stroke="none" /><text fill="#FFFFFF" style="font-size:6.75px; font-family:Arial;" text-anchor="middle"><textPath startOffset="19.985693538727396" xlink:href="#id2">February</textPath></text><path d="M 111.90073688211348 132.69761687909136 l 2.2094433000883846 -3.2122913766382557 a24.898776164994594,24.898776164994594 0 0,0 0.3510358230919859,0.2459230272975203 l -2.2644102627640215 3.1737835065768" fill="#4dd2ff" stroke="none"><title>2023-02-05 3.7 km</title></path><path d="M 112.48926042617603 133.11751280151074 l 1.1741685084112128 -1.5871944483257843 a22.97429934481598,22.97429934481598 0 0,0 0.31590082383437507,0.23792995120115026 l -1.2013154860039708 1.5667479076187867" fill="#4dd2ff" stroke="none"><title>2023-02-07 1.9 km</title></path><path d="M 113.6212207817346 134.01681056812373 l 3.194079738849124 -3.7479446478836245 a25.92435117164952,25.92435117164952 0 0,0 0.33714767004935753,0.29237113715849367 l -3.2581212075452455 3.6924085173054597" fill="#4dd2ff" stroke="none"><title>2023-02-11 4.7 km</title></path><path d="M 117.65298651832404 138.62581576622438 l 4.437222649016938 -2.858994303531144 a26.278521882551253,26.278521882551253 0 0,0 0.24172786853122283,0.382355436943202 l -4.485778113794117 2.7821912188737357" fill="#4dd2ff" stroke="none"><title>2023-02-28 5.1 km</title></path><line stroke="#FFFFFF" stroke-width="0.3" x1="172.23445277983987" x2="176.4835382374775" y1="105.19839476539836" y2="102.56300622218649" /><path d="M 173.08426987136738 104.67131705675598 a86.0,86.0 0 0,1 12.851231095245387,41.99856678651699" fill="none" id="id3" stroke="none" /><text fill="#FFFFFF" style="font-size:6.75px; font-family:Arial;" text-anchor="middle"><textPath startOffset="22.20632615414155" xlink:href="#id3">March</textPath></text><path d="M 118.03404312379186 139.2402003453031 l 3.2847892760106765 -1.9598308751487752 a24.8250199538017,24.8250199538017 0 0,0 0.21578891541178966,0.36885320544340383 l -3.3180378658927934 1.902998257351476" fill="#4dd2ff" stroke="none"><title>2023-03-02 3.7 km</title></path><path d="M 118.73160827565052 140.50648371742162 l 4.097429970816406 -2.0766512715961305 a25.59362741954181,25.59362741954181 0 0,0 0.19577904653097597,0.3946786112070943 l -4.13256903030079 2.005813071890086" fill="#4dd2ff" stroke="none"><title>2023-03-06 4.4 km</title></path><path d="M 119.04729006885535 141.15688171328213 l 3.1910784386097224 -1.4815275030101227 a24.518224743181605,24.518224743181605 0 0,0 0.17442695089539376,0.38432666512949293 l -3.216107706468463 1.4263788290385668" fill="#4dd2ff" stroke="none"><title>2023-03-08 3.4 km</title></path><path d="M 119.196687751892 141.48605970444007 l 10.607048237714906 -4.7043415288727815 a32.60346075692455,32.60346075692455 0 0,0 0.2231152477166496,0.5149807534528095 l -10.686454195274237 4.521061630833369" fill="#4dd2ff" stroke="none"><title>2023-03-09 11.1 km</title></path><path d="M 119.7369772167798 142.82701384747503 l 11.933504575449891 -4.336979372810025 a33.69716194794975,33.69716194794975 0 0,0 0.19343281229896472,0.5468606083118114 l -12.006390468558665 4.130921138071598" fill="#4dd2ff" stroke="none"><title>2023-03-13 12.2 km</title></path><path d="M 120.18372546131832 144.20196356495316 l 10.833780245990791 -3.11214362858474 a32.27192230204595,32.27192230204595 0 0,0 0.1487785246710704,0.5352355121306877 l -10.885745541228225 2.9251968130351003" fill="#4dd2ff" stroke="none"><title>2023-03-17 10.8 km</title></path><path d="M 120.37134235888165 144.90015583598534 l 10.93111270459586 -2.7365389256449553 a32.26844577801868,32.26844577801868 0 0,0 0.13025265659705845,0.5399813522758785 l -10.976598161453737 2.547972341709671" fill="#4dd2ff" stroke="none"><title>2023-03-19 10.8 km</title></path><path d="M 120.45610955862082 145.25157060432593 l 11.45129033584797 -2.6581615381612553 a32.755759146854146,32.755759146854146 0 0,0 0.12276486204127476,0.5503308047606473 l -11.495349584891281 2.4606525638506445" fill="#4dd2ff" stroke="none"><title>2023-03-20 11.3 km</title></path><path d="M 120.53481517161879 145.60439243477597 l 22.186836532355116 -4.749233226350035 a43.68944537778997,43.68944537778997 0 0,0 0.15108372782944723,0.7367379131902064 l -22.26529955609956 4.366619656996416" fill="#4dd2ff" stroke="none"><title>2023-03-21 21.7 km</title></path><path d="M 120.6074358757038 145.95851677861256 l 16.502558121684302 -3.2364439788159802 a37.81692582452521,37.81692582452521 0 0,0 0.11977930691299246,0.6398658470679026 l -16.555823152507156 2.951900054285515" fill="#4dd2ff" stroke="none"><title>2023-03-22 16.1 km</title></path><path d="M 120.73433829027371 146.67025291283417 l 12.838126212610504 -2.061686886875945 a34.00261656246285,34.00261656246285 0 0,0 0.08783055029318387,0.5786935876388529 l -12.871712656342988 1.8403941868450102" fill="#4dd2ff" stroke="none"><title>2023-03-24 12.5 km</title></path><path d="M 120.78858239683441 147.0276538004421 l 26.595940595303524 -3.802680790978617 a47.86641839447513,47.86641839447513 0 0,0 0.10960042415133092,0.8166504638951904 l -26.657457018512694 3.344311985018762" fill="#4dd2ff" stroke="none"><title>2023-03-25 25.7 km</title></path><path d="M 120.83666639777658 147.38593545837742 l 13.97094414506649 -1.7527251723195465 a35.08045900651858,35.08045900651858 0 0,0 0.07000998349691732,0.5998027842251815 l -13.999044481566996 1.5119786497695122" fill="#4dd2ff" stroke="none"><title>2023-03-26 13.5 km</title></path><path d="M 120.91429891909075 148.10471618934812 l 11.51529619249161 -1.043532682253507 a32.562482729057066,32.562482729057066 0 0,0 0.045782100509247484,0.5586575880210312 l -11.531552776820352 0.845161177024707" fill="#4dd2ff" stroke="none"><title>2023-03-28 11.1 km</title></path><path d="M 120.96714384426684 148.82574320788734 l 11.040650848238718 -0.6183273861324595 a32.057951885822064,32.057951885822064 0 0,0 0.026114089723361558,0.551227160494505 l -11.049658546195577 0.42818911901495466" fill="#4dd2ff" stroke="none"><title>2023-03-30 10.6 km</title></path><path d="M 120.98425023603335 149.18683210126434 l 28.026594591587177 -1.0860682071748606 a49.047629998839824,49.047629998839824 0 0,0 0.025430741983516057,0.8439225198397137 l -28.041137028026338 0.6034755399101479" fill="#4dd2ff" stroke="none"><title>2023-03-31 26.9 km</title></path><line stroke="#FFFFFF" stroke-width="0.3" x1="184.98032266829074" x2="189.97916517819016" y1="148.1711317179211" y2="148.06355123074" /><path d="M 185.9800911702706 148.1496156204849 a86.0,86.0 0 0,1 -9.607161424134198,41.387399972396054" fill="none" id="id4" stroke="none" /><text fill="#FFFFFF" style="font-size:6.75px; font-family:Arial;" text-anchor="middle"><textPath startOffset="21.466115282336823" xlink:href="#id4">April</textPath></text><path d="M 120.99513854157772 149.54816195383933 l 14.511439153718124 -0.31230183602792666 a35.51479930101859,35.51479930101859 0 0,0 0.00789272931207688,0.6113005833132306 l -14.514664890147916 0.06246499465423334" fill="#4dd2ff" stroke="none"><title>2023-04-01 13.9 km</title></path><path d="M 120.99980553446 149.90962569577886 l 62.99941660337998 -0.27112291266339017 a84.0,84.0 0 0,0 -0.006222810841987947,1.4459620871852612 l -62.994749495248485 -0.8133486527255557" fill="#4dd2ff" stroke="none"><title>2023-04-02 60.3 km</title></path><path d="M 120.9764740272857 150.99374915477105 l 25.928036528057593 1.228326760308465 a46.95711588043592,46.95711588043592 0 0,0 -0.045198793511464636,0.807054820979256 l -25.9030513836586 -1.6744532976231443" fill="#4dd2ff" stroke="none"><title>2023-04-05 24.9 km</title></path><path d="M 120.95626037817324 151.35467743843563 l 12.529865035643422 0.8099692008078282 a33.556017199641644,33.556017199641644 0 0,0 -0.04222216437777176,0.5760878872689158 l -12.514066312601312 -1.0255302245735143" fill="#4dd2ff" stroke="none"><title>2023-04-06 12.0 km</title></path><path d="M 120.89721153311464 152.0752229133903 l 36.46190422564729 3.620893581662857 a57.64125175386347,57.64125175386347 0 0,0 -0.10654765388968745,0.9864989472144404 l -36.39417427025655 -4.247988850762089" fill="#4dd2ff" stroke="none"><title>2023-04-08 35.1 km</title></path><path d="M 120.5718875245553 154.21870165774334 l 14.495218892181098 2.972551930239996 a35.79687249759953,35.79687249759953 0 0,0 -0.12898117943759116,0.6025571302868019 l -14.441903674019064 -3.221622879942967" fill="#4dd2ff" stroke="none"><title>2023-04-14 14.2 km</title></path><path d="M 120.32669344350535 155.2749913415812 l 13.175256327104595 3.4191179810799834 a34.61167686412861,34.61167686412861 0 0,0 -0.15461847560289088,0.5753928672031146 l -13.114449775159926 -3.6454017814586464" fill="#4dd2ff" stroke="none"><title>2023-04-17 13.0 km</title></path><path d="M 120.23288151984713 155.62410040840567 l 13.455020803006558 3.740069743356436 a34.96516045358984,34.96516045358984 0 0,0 -0.16618002217748754,0.5784944579706004 l -13.388648143942973 -3.9711216768316184" fill="#4dd2ff" stroke="none"><title>2023-04-18 13.4 km</title></path><path d="M 119.79798401119884 157.00284435728193 l 19.820913893168566 7.010955000995649 a42.024322048199046,42.024322048199046 0 0,0 -0.24709448669789147,0.6798979045333068 l -19.697295145465446 -7.351100702535087" fill="#4dd2ff" stroke="none"><title>2023-04-22 20.1 km</title></path><path d="M 119.54520255179757 157.68017299344265 l 15.28216382300147 6.005036865887465 a37.41965282439682,37.41965282439682 0 0,0 -0.24072844152247577,0.5974682498629859 l -15.176532767221602 -6.2672044835932645" fill="#4dd2ff" stroke="none"><title>2023-04-24 15.7 km</title></path><path d="M 119.26925614724726 158.34839909993366 l 18.102763864595453 7.843016689312637 a40.72873463570686,40.72873463570686 0 0,0 -0.2842456746893825,0.6408989577579628 l -17.965077105174796 -8.153463983563288" fill="#4dd2ff" stroke="none"><title>2023-04-26 18.9 km</title></path><path d="M 118.97047184881838 159.00673069616215 l 20.137303560149956 9.560714754938223 a43.29166349330892,43.29166349330892 0 0,0 -0.3254022903881178,0.6704250991742364 l -19.969748013147125 -9.905928810077734" fill="#4dd2ff" stroke="none"><title>2023-04-28 21.3 km</title></path><path d="M 118.81262510543309 159.33194174019687 l 21.916509503898688 10.871613541046289 a45.46477814778508,45.46477814778508 0 0,0 -0.3538054534658669,0.6980917252202228 l -21.726125380646554 -11.247259477969207" fill="#4dd2ff" stroke="none"><title>2023-04-29 23.4 km</title></path><line stroke="#FFFFFF" stroke-width="0.3" x1="174.80103733775053" x2="179.2010983576182" y1="190.37084112569926" y2="192.7455964860345" /><path d="M 175.68104954172406 190.8457921977663 a86.0,86.0 0 0,1 -30.038265399797805,32.042727171017184" fill="none" id="id5" stroke="none" /><text fill="#FFFFFF" style="font-size:6.75px; font-family:Arial;" text-anchor="middle"><textPath startOffset="22.206326154141568" xlink:href="#id5">May</textPath></text><path d="M 118.12598468904814 160.60418214915194 l 25.124162384125018 14.698301848787649 a50.10779298988429,50.10779298988429 0 0,0 -0.44194864468004175,0.7407313493222966 l -24.86743286374675 -15.12859529199605" fill="#4dd2ff" stroke="none"><title>2023-05-03 27.9 km</title></path><path d="M 117.75023020441432 161.22182372390054 l 10.617397915676591 6.712395639049295 a33.56126560960087,33.56126560960087 0 0,0 -0.31291107548909075,0.48564493800269887 l -10.500281976810449 -6.894162176973447" fill="#4dd2ff" stroke="none"><title>2023-05-05 12.0 km</title></path><path d="M 116.93607887273984 162.41649034213515 l 27.641388721298295 20.264964439533266 a55.27411784681649,55.27411784681649 0 0,0 -0.5691621537019906,0.7624857160336691 l -27.288465300901212 -20.73776303507625" fill="#4dd2ff" stroke="none"><title>2023-05-09 32.8 km</title></path><path d="M 116.71984013943494 162.70617746262582 l 11.966630470657895 9.093994267996843 a36.030002547160045,36.030002547160045 0 0,0 -0.3795043304308301,0.49056050478041024 l -11.808319323008996 -9.298632766890506" fill="#4dd2ff" stroke="none"><title>2023-05-10 14.4 km</title></path><path d="M 116.27256486870786 163.27417163493433 l 20.67285995901101 16.863665531214057 a47.678649779056244,47.678649779056244 0 0,0 -0.5242471882694719,0.6314895100980719 l -20.379516770847996 -17.2170162984259" fill="#4dd2ff" stroke="none"><title>2023-05-12 25.5 km</title></path><line stroke="#FFFFFF" stroke-width="0.3" x1="143.8653032363475" x2="146.44561519142675" y1="222.8068346515853" y2="227.08958963109032" /><path d="M 144.38136562736335 223.6633856474863 a86.0,86.0 0 0,1 -40.68145358897372,12.25698825130547" fill="none" id="id6" stroke="none" /><text fill="#FFFFFF" style="font-size:6.75px; font-family:Arial;" text-anchor="middle"><textPath startOffset="21.466115282336833" xlink:href="#id6">June</textPath></text><line stroke="#FFFFFF" stroke-width="0.3" x1="102.19456741930631" x2="102.32365962044197" y1="234.97166512339345" y2="239.96999836594603" /><path d="M 102.22038585953345 235.97133177190398 a86.0,86.0 0 0,1 -42.740103519485714,-10.115201625700543" fill="none" id="id7" stroke="none" /><text fill="#FFFFFF" style="font-size:6.75px; font-family:Arial;" text-anchor="middle"><textPath startOffset="22.20632615414155" xlink:href="#id7">July</textPath></text><line stroke="#FFFFFF" stroke-width="0.3" x1="58.666819895761336" x2="56.23545636021788" y1="224.27360380694188" y2="228.64263932499728" /><path d="M 58.180547188652646 225.14741091055294 a86.0,86.0 0 0,1 -31.652253787137756,-30.449443065178592" fill="none" id="id8" stroke="none" /><text fill="#FFFFFF" style="font-size:6.75px; font-family:Arial;" text-anchor="middle"><textPath startOffset="22.20632615414155" xlink:href="#id8">August</textPath></text><line stroke="#FFFFFF" stroke-width="0.3" x1="26.63291911575756" x2="22.317208475507996" y1="192.92168965132927" y2="195.44649492493687" /><path d="M 25.769776987707644 193.4266507060508 a86.0,86.0 0 0,1 -11.730757126820373,-40.83630448921669" fill="none" id="id9" stroke="none" /><text fill="#FFFFFF" style="font-size:6.75px; font-family:Arial;" text-anchor="middle"><textPath startOffset="21.46611528233685" xlink:href="#id9">September</textPath></text><line stroke="#FFFFFF" stroke-width="0.3" x1="15.007084014347285" x2="10.007500721073583" y1="151.09737516637583" y2="151.16192664675089" /><path d="M 14.007167355692545 151.11028546245083 a86.0,86.0 0 0,1 10.666146001902534,-42.60595125391555" fill="none" id="id10" stroke="none" /><text fill="#FFFFFF" style="font-size:6.75px; font-family:Arial;" text-anchor="middle"><textPath startOffset="22.20632615414155" xlink:href="#id10">October</textPath></text><line stroke="#FFFFFF" stroke-width="0.3" x1="26.266209847984243" x2="21.928928074336255" y1="107.71137044288967" y2="105.22380399835377" /><path d="M 25.398753493254645 107.2138571539825 a86.0,86.0 0 0,1 29.58750427330803,-30.492523968695096" fill="none" id="id11" stroke="none" /><text fill="#FFFFFF" style="font-size:6.75px; font-family:Arial;" text-anchor="middle"><textPath startOffset="21.46611528233685" xlink:href="#id11">November</textPath></text><line stroke="#FFFFFF" stroke-width="0.3" x1="56.762969772571076" x2="54.21961505331055" y1="76.8183136494355" y2="72.51350856999053" /><path d="M 56.25429882871897 75.9573526335465 a86.0,86.0 0 0,1 42.265352541879196,-11.944610805530505" fill="none" id="id12" stroke="none" /><text fill="#FFFFFF" style="font-size:6.75px; font-family:Arial;" text-anchor="middle"><textPath startOffset="22.20632615414155" xlink:href="#id12">December</textPath></text></g></g></svg>