<?xml version="1.0" encoding="utf-8" ?>
<svg baseProfile="full" height="200mm" version="1.1" viewBox="0,0,200,200" width="200mm" xmlns="http://www.w3.org/2000/svg" xmlns:ev="http://www.w3.org/2001/xml-events" xmlns:xlink="http://www.w3.org/1999/xlink"><defs /><rect fill="#1a1a1a" height="200" width="200" x="0" y="0" /><text alignment-baseline="middle" fill="#e1ed5e" style="dominant-baseline: central; font-size:9.0px; font-family:Arial;" text-anchor="middle" x="100.0" y="100.0">2018</text><line stroke="#e1ed5e" stroke-width="0.3" x1="100.0" x2="100.0" y1="15.0" y2="10.0" /><path d="M 100.0 14.0 a86.0,86.0 0 0,1 42.46469731375804,11.215312516191453" fill="none" id="id25" stroke="none" /><text fill="#e1ed5e" style="font-size:6.75px; font-family:Arial;" text-anchor="middle"><textPath startOffset="22.20632615414155" xlink:href="#id25">January</textPath></text><path d="M 100.72285384407766 79.0124445844662 l 0.5274508901820855 -15.31416741761125 a36.323247963019455,36.323247963019455 0 0,0 0.6246892380590483,0.026900432659541142 l -0.7909809606304653 15.302819258427514" fill="#ffc612" stroke="none" /><path d="M 103.2404852339499 79.25152402106235 l 1.2556741907141327 -8.03994584219942 a29.137410326309308,29.137410326309308 0 0,0 0.494879203435337,0.08165930885547014 l -1.3938826002883449 8.017140270404326" fill="#ff6709" stroke="none" /><path d="M 105.71112130821622 79.79150937346287 l 2.795312388954421 -9.891060119693382 a31.278464945857962,31.278464945857962 0 0,0 0.5168539671813137,0.1508838460891984 l -2.965156573859162 9.84147794468548" fill="#ff840c" stroke="none" /><path d="M 110.05341064243156 81.56283822128135 l 7.3025467015025844 -13.392294388532736 a36.25387614073065,36.25387614073065 0 0,0 0.5453202928868051,0.3034701525857531 l -7.531991083461425 13.264608838386803" fill="#ffc512" stroke="none" /><line stroke="#e1ed5e" stroke-width="0.3" x1="143.23703022742887" x2="145.7803849466894" y1="26.81831364943548" y2="22.513508569990506" /><path d="M 143.74570117128098 25.957352633546492 a86.0,86.0 0 0,1 28.547481713284135,27.462654790039103" fill="none" id="id26" stroke="none" /><text fill="#e1ed5e" style="font-size:6.75px; font-family:Arial;" text-anchor="middle"><textPath startOffset="19.985693538727396" xlink:href="#id26">February</textPath></text><path d="M 113.89432698308785 84.25364557470407 l 4.228063389411236 -4.791637964424207 a27.390329757296644,27.390329757296644 0 0,0 0.3508427500397805,0.31499008507252135 l -4.309917127047007 4.718148870582388" fill="#ff4f07" stroke="none" /><line stroke="#e1ed5e" stroke-width="0.3" x1="172.23445277983987" x2="176.4835382374775" y1="55.19839476539836" y2="52.563006222186495" /><path d="M 173.08426987136738 54.67131705675599 a86.0,86.0 0 0,1 12.851231095245387,41.99856678651699" fill="none" id="id27" stroke="none" /><text fill="#e1ed5e" style="font-size:6.75px; font-family:Arial;" text-anchor="middle"><textPath startOffset="22.20632615414155" xlink:href="#id27">March</textPath></text><path d="M 118.73160827565052 90.50648371742162 l 13.687881641026125 -6.937264826427433 a36.34547969568652,36.34547969568652 0 0,0 0.27802558988177384,0.5604826238501993 l -13.805267243861307 6.700622614078283" fill="#ffc612" stroke="none" /><path d="M 120.18372546131832 94.20196356495316 l 23.624502423656583 -6.7864441613974815 a45.57992959959653,45.57992959959653 0 0,0 0.2101304848521313,0.7559511557380671 l -23.737819679075077 6.378781702240462" fill="#c8ff1d" stroke="none" /><path d="M 120.67395015179393 96.31383870115 l 34.57337315293497 -6.16442572180574 a56.118631460404956,56.118631460404956 0 0,0 0.16137617561554776,0.9524513234644882 l -34.67436119007074 5.568388610025414" fill="#56ff2a" stroke="none" /><path d="M 120.73433829027371 96.67025291283417 l 13.09415286609994 -2.1028024504284684 a34.2619235944987,34.2619235944987 0 0,0 0.08850035402069299,0.5831067573251666 l -13.128409113559933 1.8770965807112197" fill="#ffab0f" stroke="none" /><path d="M 120.96714384426684 98.82574320788733 l 9.09988415265665 -0.5096354969977145 a30.114143949465124,30.114143949465124 0 0,0 0.02453068305297296,0.5178039482718119 l -9.107308443943118 0.3529204421029028" fill="#ff740a" stroke="none" /><path d="M 120.98425023603335 99.18683210126433 l 6.378542057735388 -0.2471770772719414 a27.38332948310111,27.38332948310111 0 0,0 0.01419800277303561,0.4711625907210286 l -6.381851754964069 0.13734433912591373" fill="#ff4f07" stroke="none" /><line stroke="#e1ed5e" stroke-width="0.3" x1="184.98032266829074" x2="189.97916517819016" y1="98.17113171792111" y2="98.06355123074" /><path d="M 185.9800911702706 98.14961562048488 a86.0,86.0 0 0,1 -9.607161424134198,41.387399972396054" fill="none" id="id28" stroke="none" /><text fill="#e1ed5e" style="font-size:6.75px; font-family:Arial;" text-anchor="middle"><textPath startOffset="21.466115282336823" xlink:href="#id28">April</textPath></text><path d="M 120.8583938346157 102.4346265915055 l 29.35862157665333 3.426787381003754 a50.5579351889766,50.5579351889766 0 0,0 -0.10833479900474359,0.8635349396273556 l -29.29528526840174 -3.9316400749185045" fill="#91ff24" stroke="none" /><path d="M 120.76222939487914 103.15116336523771 l 7.691979499992724 1.1674412966709056 a28.78006862498532,28.78006862498532 0 0,0 -0.07855347823551831,0.48915258395772304 l -7.670744267395917 -1.2996731103218335" fill="#ff6209" stroke="none" /><path d="M 120.41448212921028 104.9243191809786 l 7.9681726452098225 1.9220583282890071 a29.19671175052626,29.19671175052626 0 0,0 -0.12205433102307872,0.4875463805737372 l -7.933906999891683 -2.0589325482601404" fill="#ff6809" stroke="none" /><path d="M 120.32669344350535 105.2749913415812 l 7.464511515200166 1.9371194690986497 a28.711767890575864,28.711767890575864 0 0,0 -0.12826219892587212,0.4773113569123427 l -7.430061239932516 -2.0653217591865407" fill="#ff6109" stroke="none" /><path d="M 120.23288151984713 105.62410040840565 l 7.942089056176648 2.2076492792498046 a29.2432089574639,29.2432089574639 0 0,0 -0.1389851226206319,0.48382544497753704 l -7.9029112966699175 -2.344032199731924" fill="#ff6909" stroke="none" /><path d="M 120.13307415673323 105.97154293290107 l 7.285560913909492 2.1609238335381855 a28.59927559999235,28.59927559999235 0 0,0 -0.14404941353322853,0.470761818069878 l -7.247284727870131 -2.286012624160121" fill="#ff6008" stroke="none" /><path d="M 119.79798401119884 107.00284435728193 l 3.700995242642026 1.3090976150199225 a24.92569768980111,24.92569768980111 0 0,0 -0.14655804486707164,0.40326479529852927 l -3.6779129367697276 -1.372610207324583" fill="#ff2d04" stroke="none" /><line stroke="#e1ed5e" stroke-width="0.3" x1="174.80103733775053" x2="179.2010983576182" y1="140.37084112569926" y2="142.7455964860345" /><path d="M 175.68104954172406 140.8457921977663 a86.0,86.0 0 0,1 -30.038265399797805,32.042727171017184" fill="none" id="id29" stroke="none" /><text fill="#e1ed5e" style="font-size:6.75px; font-family:Arial;" text-anchor="middle"><textPath startOffset="22.206326154141568" xlink:href="#id29">May</textPath></text><path d="M 117.35343817320211 111.8261652097733 l 6.333162024064702 4.315975868834481 a28.66397996627189,28.66397996627189 0 0,0 -0.28136984892238043,0.40533425292765035 l -6.257931267980186 -4.42435138394915" fill="#ff6108" stroke="none" /><path d="M 114.55890576462653 115.13401014063108 l 22.391964323741327 23.276489361413464 a53.29852973848343,53.29852973848343 0 0,0 -0.666648278188356,0.630357557114607 l -21.987980211162164 -23.65848155527399" fill="#73ff27" stroke="none" /><path d="M 114.0293411484842 115.62618273729858 l 5.308486163213449 5.91270637493599 a28.94607588821283,28.94607588821283 0 0,0 -0.3736216772783964,0.32967768995064994 l -5.205922133028466 -6.003207206658929" fill="#ff6509" stroke="none" /><path d="M 113.75828350139079 115.86535959552629 l 16.75140694783895 19.31687880480124 a46.56856353985273,46.56856353985273 0 0,0 -0.6101247398108988,0.5199615396404007 l -16.416416731451005 -19.60236473466459" fill="#bdff1f" stroke="none" /><path d="M 112.92097659922987 116.55440617244103 l 2.818539410267382 3.6111238072654404 a25.580871048024562,25.580871048024562 0 0,0 -0.3494484287519419,0.2679421539215534 l -2.7559622530219468 -3.659105303014365" fill="#ff3605" stroke="none" /><path d="M 111.45004920935366 117.60387380957326 l 19.287463496898283 29.653503430254162 a56.37423516957333,56.37423516957333 0 0,0 -0.81801215961214,0.5220940631702568 l -18.77416953523921 -29.981111922248225" fill="#54ff2b" stroke="none" /><line stroke="#e1ed5e" stroke-width="0.3" x1="143.8653032363475" x2="146.44561519142675" y1="172.8068346515853" y2="177.08958963109032" /><path d="M 144.38136562736335 173.6633856474863 a86.0,86.0 0 0,1 -40.68145358897372,12.25698825130547" fill="none" id="id30" stroke="none" /><text fill="#e1ed5e" style="font-size:6.75px; font-family:Arial;" text-anchor="middle"><textPath startOffset="21.466115282336833" xlink:href="#id30">June</textPath></text><path d="M 110.8373102113329 117.98757091392108 l 3.8116307219179166 6.326475534167264 a28.385988183356744,28.385988183356744 0 0,0 -0.42069673977472893,0.24855504923849495 l -3.7021661111148054 -6.391149155699508" fill="#ff5d08" stroke="none" /><path d="M 106.2309692047433 120.05430185196036 l 3.2001881904490057 10.299768438189071 a31.78547330137185,31.78547330137185 0 0,0 -0.5238927504222007,0.15784458814444657 l -3.0224204655865594 -10.353328395439243" fill="#ff8b0c" stroke="none" /><line stroke="#e1ed5e" stroke-width="0.3" x1="102.19456741930631" x2="102.32365962044197" y1="184.97166512339345" y2="189.96999836594603" /><path d="M 102.22038585953345 185.97133177190398 a86.0,86.0 0 0,1 -42.740103519485714,-10.115201625700543" fill="none" id="id31" stroke="none" /><text fill="#e1ed5e" style="font-size:6.75px; font-family:Arial;" text-anchor="middle"><textPath startOffset="22.20632615414155" xlink:href="#id31">July</textPath></text><path d="M 93.08242187328487 119.8279376855182 l -7.368761088947883 21.12116885631911 a43.369676212299915,43.369676212299915 0 0,0 -0.7027548798508527,-0.25198289709350297 l 7.731235529428463 -20.991198418185647" fill="#e2ff1b" stroke="none" /><line stroke="#e1ed5e" stroke-width="0.3" x1="58.666819895761336" x2="56.23545636021788" y1="174.27360380694188" y2="178.64263932499728" /><path d="M 58.180547188652646 175.14741091055294 a86.0,86.0 0 0,1 -31.652253787137756,-30.449443065178592" fill="none" id="id32" stroke="none" /><text fill="#e1ed5e" style="font-size:6.75px; font-family:Arial;" text-anchor="middle"><textPath startOffset="22.20632615414155" xlink:href="#id32">August</textPath></text><path d="M 88.8546689885994 117.79835938074946 l -13.342216890148784 21.30664140022984 a46.139365928793026,46.139365928793026 0 0,0 -0.6695002114533042,-0.42730671125565806 l 13.706998903649012 -21.073820260150377" fill="#c2ff1e" stroke="none" /><path d="M 87.07902340077011 116.55440617244103 l -4.735188480123581 6.066742153816886 a28.695932062017818,28.695932062017818 0 0,0 -0.38676993141170835,-0.30727342508383937 l 4.838915904252647 -5.984334814727916" fill="#ff6109" stroke="none" /><path d="M 84.19399662182784 113.82643327865904 l -9.474040437298042 8.287495886943635 a33.58729638499333,33.58729638499333 0 0,0 -0.376909427447142,-0.4384308150655151 l 9.615292374315963 -8.12318797271659" fill="#ffa30f" stroke="none" /><line stroke="#e1ed5e" stroke-width="0.3" x1="26.63291911575756" x2="22.317208475507996" y1="142.92168965132927" y2="145.44649492493687" /><path d="M 25.769776987707644 143.4266507060508 a86.0,86.0 0 0,1 -11.730757126820373,-40.83630448921669" fill="none" id="id33" stroke="none" /><text fill="#e1ed5e" style="font-size:6.75px; font-family:Arial;" text-anchor="middle"><textPath startOffset="21.46611528233685" xlink:href="#id33">September</textPath></text><path d="M 81.51974371655577 109.97397251340807 l -3.4128473845673417 1.841946642083428 a24.87818188106625,24.87818188106625 0 0,0 -0.20014792517767754,-0.3786044467211984 l 3.4440478179699054 -1.7829271802761035" fill="#ff2c04" stroke="none" /><path d="M 81.18737489456691 109.33194174019688 l -10.699130817664685 5.307269182351218 a32.94313637314073,32.94313637314073 0 0,0 -0.24761746635226015,-0.5101653225565286 l 10.788901540631665 -5.122314903829405" fill="#ff9a0e" stroke="none" /><path d="M 81.02952815118164 109.00673069616217 l -15.427206957134974 7.324472451934764 a38.07766410248852,38.07766410248852 0 0,0 -0.2760184289450329,-0.5945191401953979 l 15.551000002919833 -7.057833244460539" fill="#ffdc14" stroke="none" /><path d="M 80.73074385275274 108.34839909993369 l -14.279436607565929 6.186561370673022 a36.56200023848469,36.56200023848469 0 0,0 -0.24522485043986766,-0.5796391081900729 l 14.383812439198103 -5.93984773681679" fill="#ffc912" stroke="none" /><path d="M 80.58989483394504 108.01547362559985 l -11.039520602245064 4.558810241858477 a32.94377519667324,32.94377519667324 0 0,0 -0.21193418597918406,-0.5260032690042403 l 11.116357402481636 -4.368107605011431" fill="#ff9a0e" stroke="none" /><path d="M 80.20201598880116 107.00284435728193 l -2.2153974666892196 0.7836193644749717 a23.349903241368285,23.349903241368285 0 0,0 -0.13076965322730194,-0.3800778241963517 l 2.22855795085975 -0.7453688371893231" fill="#ff1602" stroke="none" /><path d="M 79.67330655649465 105.27499134158121 l -7.656254256635301 1.9868787328811512 a28.909861967279934,28.909861967279934 0 0,0 -0.12085518028660852,-0.4827563694661534 l 7.689320751216968 -1.8547945240176058" fill="#ff6409" stroke="none" /><path d="M 79.18660465613746 102.79330883721812 l -22.703998742873 3.04704154612416 a43.907553800006355,43.907553800006355 0 0,0 -0.09408445969824307,-0.749945714320605 l 22.753084711818094 -2.6557780775161466" fill="#dcff1b" stroke="none" /><path d="M 79.1416061653843 102.43462659150553 l -7.75549764322858 0.9052346476087463 a28.80814917002457,28.80814917002457 0 0,0 -0.05325076422832077,-0.4930359414951758 l 7.769930708957953 -0.7716023842287884" fill="#ff6309" stroke="none" /><path d="M 79.10278846688536 102.07522291339032 l -15.333161450086177 1.5226781776845655 a36.40858166370953,36.40858166370953 0 0,0 -0.056564032178933125,-0.6241793816897543 l 15.357100078542185 -1.258517407446245" fill="#ffc712" stroke="none" /><path d="M 79.0235259727143 100.99374915477108 l -0.8191155089525028 0.0388051558914337 a21.820034180464617,21.820034180464617 0 0,0 -0.014544473316209523,-0.375328229376958 l 0.8196621151199133 -0.024699679500478935" fill="#ff0000" stroke="none" /><line stroke="#e1ed5e" stroke-width="0.3" x1="15.007084014347285" x2="10.007500721073583" y1="101.09737516637583" y2="101.16192664675087" /><path d="M 14.007167355692545 101.11028546245083 a86.0,86.0 0 0,1 10.666146001902534,-42.60595125391555" fill="none" id="id34" stroke="none" /><text fill="#e1ed5e" style="font-size:6.75px; font-family:Arial;" text-anchor="middle"><textPath startOffset="22.20632615414155" xlink:href="#id34">October</textPath></text><path d="M 79.01574976396665 99.18683210126434 l -62.95275070810006 -2.4395036962069616 a84.0,84.0 0 0,0 0.06842556706600478,-1.4443555735079636 l 62.90143153280056 3.522770376337934" fill="#4dd2ff" stroke="none" /><path d="M 79.91906864156998 93.8553929516997 l -0.8008689708556591 -0.24505960581449013 a21.837523324380495,21.837523324380495 0 0,0 0.11308147188620579,-0.35849916817806987 l 0.7965320152012494 0.2588089404189745" fill="#ff0000" stroke="none" /><path d="M 80.02781315780177 93.51064311812611 l -7.759352701897561 -2.521166522864535 a29.158666250586418,29.158666250586418 0 0,0 0.15921007534752024,-0.4760178606481975 l 7.714805332778269 2.6543574864350545" fill="#ff6709" stroke="none" /><path d="M 80.95270993114464 91.15688171328213 l -29.54908233682815 -13.71880353708711 a53.578425950893376,53.578425950893376 0 0,0 0.39556647288297525,-0.8331638739193505 l 29.308557670103422 14.225409826646992" fill="#70ff27" stroke="none" /><path d="M 81.10775173730289 90.83032412892265 l -10.082901652944155 -4.893908798562889 a32.2078208886293,32.2078208886293 0 0,0 0.24637447287372438,-0.4966759033393074 l 9.997167167117018 5.066744290401158" fill="#ff900d" stroke="none" /><line stroke="#e1ed5e" stroke-width="0.3" x1="26.266209847984243" x2="21.928928074336255" y1="57.711370442889674" y2="55.22380399835377" /><path d="M 25.398753493254645 57.213857153982495 a86.0,86.0 0 0,1 29.58750427330803,-30.492523968695096" fill="none" id="id35" stroke="none" /><text fill="#e1ed5e" style="font-size:6.75px; font-family:Arial;" text-anchor="middle"><textPath startOffset="21.46611528233685" xlink:href="#id35">November</textPath></text><path d="M 83.84228863543731 86.58626213691792 l -5.899126121959052 -4.8973106175647 a28.6670294304699,28.6670294304699 0 0,0 0.318462557570518,-0.3769592199020479 l 5.81395295090141 4.998128787095864" fill="#ff6108" stroke="none" /><path d="M 84.07557802195018 86.31012108654704 l -5.842687620248079 -5.022831356803967 a28.704922677528526,28.704922677528526 0 0,0 0.325333578696222,-0.37191252004537495 l 5.755362177974014 5.122659433052284" fill="#ff6109" stroke="none" /><path d="M 84.80347519578584 85.50635884689758 l -5.53621567219666 -5.280149529762796 a28.650468157291435,28.650468157291435 0 0,0 0.3434450808012438,-0.3539503454405938 l 5.444506327692299 5.374664070753514" fill="#ff6108" stroke="none" /><path d="M 85.31137513191541 84.99185889309783 l -27.622408828245053 -28.223268898887838 a60.491143017310094,60.491143017310094 0 0,0 0.7504264937641132,-0.7219096924389373 l 27.132499090868514 28.694561678089087" fill="#30ff35" stroke="none" /><line stroke="#e1ed5e" stroke-width="0.3" x1="56.762969772571076" x2="54.21961505331055" y1="26.818313649435495" y2="22.513508569990535" /><path d="M 56.25429882871897 25.957352633546506 a86.0,86.0 0 0,1 42.265352541879196,-11.944610805530505" fill="none" id="id36" stroke="none" /><text fill="#e1ed5e" style="font-size:6.75px; font-family:Arial;" text-anchor="middle"><textPath startOffset="22.20632615414155" xlink:href="#id36">December</textPath></text><path d="M 89.94658935756843 81.56283822128135 l -3.808582682376889 -6.9846400947992375 a28.955532622167937,28.955532622167937 0 0,0 0.4396483336661664,-0.23484491385846576 l 3.6877893021824173 7.049163735159453" fill="#ff6509" stroke="none" /></svg>