<?xml version="1.0" encoding="utf-8" ?>
<svg baseProfile="full" height="200mm" version="1.1" viewBox="0,0,200,200" width="200mm" xmlns="http://www.w3.org/2000/svg" xmlns:ev="http://www.w3.org/2001/xml-events" xmlns:xlink="http://www.w3.org/1999/xlink"><defs /><rect fill="#1a1a1a" height="200" width="200" x="0" y="0" /><text alignment-baseline="middle" fill="#e1ed5e" style="dominant-baseline: central; font-size:9.0px; font-family:Arial;" text-anchor="middle" x="100.0" y="100.0">2019</text><line stroke="#e1ed5e" stroke-width="0.3" x1="100.0" x2="100.0" y1="15.0" y2="10.0" /><path d="M 100.0 14.0 a86.0,86.0 0 0,1 42.46469731375804,11.215312516191453" fill="none" id="id37" stroke="none" /><text fill="#e1ed5e" style="font-size:6.75px; font-family:Arial;" text-anchor="middle"><textPath startOffset="22.20632615414155" xlink:href="#id37">January</textPath></text><path d="M 102.88285421437855 79.19881850522331 l 2.0766768689336215 -14.984223704841286 a36.127443500297446,36.127443500297446 0 0,0 0.615252116834167,0.09067216883945839 l -2.3342979661964445 14.946257051840858" fill="#ffc212" stroke="none" /><path d="M 103.2404852339499 79.25152402106235 l 1.144215556235137 -7.326288277614949 a28.41510142653819,28.41510142653819 0 0,0 0.4826112754022741,0.07963499561435117 l -1.2701560377762864 7.305507019060973" fill="#ff5c08" stroke="none" /><line stroke="#e1ed5e" stroke-width="0.3" x1="143.23703022742887" x2="145.7803849466894" y1="26.81831364943548" y2="22.513508569990506" /><path d="M 143.74570117128098 25.957352633546492 a86.0,86.0 0 0,1 28.547481713284135,27.462654790039103" fill="none" id="id38" stroke="none" /><text fill="#e1ed5e" style="font-size:6.75px; font-family:Arial;" text-anchor="middle"><textPath startOffset="19.985693538727396" xlink:href="#id38">February</textPath></text><path d="M 114.68862486808459 84.99185889309783 l 5.2494204050004925 -5.3636091108079675 a28.50497949910443,28.50497949910443 0 0,0 0.3477121554588077,0.3462189689607084 l -5.340968360626623 5.27245429119714" fill="#ff5d08" stroke="none" /><path d="M 116.60985879189232 87.15038557335679 l 49.829576375676965 -38.54884327992963 a84.0,84.0 0 0,0 0.874896239103546,1.1512608964758657 l -50.48574855500462 37.68539760757273" fill="#4dd2ff" stroke="none" /><line stroke="#e1ed5e" stroke-width="0.3" x1="172.23445277983987" x2="176.4835382374775" y1="55.19839476539836" y2="52.563006222186495" /><path d="M 173.08426987136738 54.67131705675599 a86.0,86.0 0 0,1 12.851231095245387,41.99856678651699" fill="none" id="id39" stroke="none" /><text fill="#e1ed5e" style="font-size:6.75px; font-family:Arial;" text-anchor="middle"><textPath startOffset="22.20632615414155" xlink:href="#id39">March</textPath></text><path d="M 118.21658344932153 89.55222093294921 l 2.373043761357163 -1.3610146493208777 a23.73563476527518,23.73563476527518 0 0,0 0.20021839655915113,0.356166186509676 l -2.3961197992087473 1.3199649528764077" fill="#ff1a02" stroke="none" /><path d="M 118.3937258080291 89.86733742301442 l 7.193332771232088 -3.9626345709171664 a29.212582364902612,29.212582364902612 0 0,0 0.23883637109368017,0.4425275226782084 l -7.2604772415442325 3.8382260649064994" fill="#ff6709" stroke="none" /><path d="M 118.56541770881063 90.18545643968196 l 6.695965406090158 -3.539798844669501 a28.57404308017057,28.57404308017057 0 0,0 0.22613030554289532,0.43681177447822805 l -6.75590514479317 3.4240143479309277" fill="#ff5e08" stroke="none" /><path d="M 118.73160827565052 90.50648371742162 l 4.834018196869055 -2.4499674447021214 a26.419416242342102,26.419416242342102 0 0,0 0.20209593728325498,0.4074130775017902 l -4.875474147105718 2.3663947787013813" fill="#ff4106" stroke="none" /><path d="M 119.47837535516314 92.15188598940014 l 6.84539761247045 -2.7581078981679874 a28.380150923304534,28.380150923304534 0 0,0 0.1786685241615083,0.45469190568350637 l -6.8918596865136585 2.6398669875886966" fill="#ff5c08" stroke="none" /><path d="M 119.85752413597 93.16781622104841 l 11.979556690317683 -4.121688702891326 a33.66878432447554,33.66878432447554 0 0,0 0.18383590124090343,0.5496459456351325 l -12.048729885330356 3.91486965433388" fill="#ffa30f" stroke="none" /><path d="M 120.28053869075195 94.5502522615342 l 7.420060116664364 -1.9939044251576807 a28.683290115020814,28.683290115020814 0 0,0 0.12402609316534179,0.4779231303935766 l -7.453282541700008 1.8658848692152539" fill="#ff6008" stroke="none" /><path d="M 120.67395015179393 96.31383870115 l 7.970627737661117 -1.4211613783714772 a29.09633288568025,29.09633288568025 0 0,0 0.0836701609311499,0.49382602611188997 l -7.993909760112491 1.2837495639437495" fill="#ff6609" stroke="none" /><path d="M 120.73433829027371 96.67025291283417 l 27.334956933250773 -4.3897467067464175 a48.685190024489,48.685190024489 0 0,0 0.12575641121982456,0.8285776251482151 l -27.406469237909896 3.91856996920612" fill="#a6ff21" stroke="none" /><path d="M 120.78858239683441 97.02765380044208 l 23.031102576605974 -3.292981161891415 a44.26532636407059,44.26532636407059 0 0,0 0.10135495212357898,0.7552121199413302 l -23.08437352778739 2.8960506998854205" fill="#d8ff1c" stroke="none" /><path d="M 120.87857604477298 97.74499172005257 l 4.7354286843372995 -0.511453983709514 a25.76296861231489,25.76296861231489 0 0,0 0.04382510903763868,0.4413128672163463 l -4.743530919057167 0.4298655857887327" fill="#ff3705" stroke="none" /><path d="M 120.91429891909075 98.10471618934814 l 23.841135750742684 -2.160517968627199 a44.938830209057876,44.938830209057876 0 0,0 0.06318295992716745,0.7709921476803165 l -23.874793194489346 1.7498119037391138" fill="#d0ff1d" stroke="none" /><path d="M 120.94382443527127 98.46500227214037 l 2.0550353878535255 -0.15061598041826046 a23.060547407580724,23.060547407580724 0 0,0 0.02560753984092574,0.39613730717371015 l -2.0573235186988668 0.11521960899151508" fill="#ff1101" stroke="none" /><path d="M 120.96714384426684 98.82574320788733 l 23.757170982921036 -1.3305111843216093 a44.79439919651997,44.79439919651997 0 0,0 0.03648907340956292,0.7702266683504277 l -23.776553664564094 0.9213734093481817" fill="#d2ff1c" stroke="none" /><path d="M 120.98425023603335 99.18683210126433 l 32.68464856404804 -1.266574058867341 a53.70918008146831,53.70918008146831 0 0,0 0.027847712536371864,0.9241300057505296 l -32.701607971040055 0.7037739056918123" fill="#6fff27" stroke="none" /><line stroke="#e1ed5e" stroke-width="0.3" x1="184.98032266829074" x2="189.97916517819016" y1="98.17113171792111" y2="98.06355123074" /><path d="M 185.9800911702706 98.14961562048488 a86.0,86.0 0 0,1 -9.607161424134198,41.387399972396054" fill="none" id="id40" stroke="none" /><text fill="#e1ed5e" style="font-size:6.75px; font-family:Arial;" text-anchor="middle"><textPath startOffset="21.466115282336823" xlink:href="#id40">April</textPath></text><path d="M 120.99513854157772 99.54816195383933 l 7.340597615333444 -0.1579775850297711 a28.342297342631316,28.342297342631316 0 0,0 0.006298728569792847,0.48784346917288185 l -7.342229351020952 0.03159785779642654" fill="#ff5b08" stroke="none" /><path d="M 120.9904718944345 100.63252640178507 l 4.45126360279177 0.1341342759815348 a25.453284143812503,25.453284143812503 0 0,0 -0.016966270949793506,0.43782406528393797 l -4.448295198990773 -0.2107355882794789" fill="#ff3304" stroke="none" /><path d="M 120.95626037817324 101.35467743843564 l 10.067877875972838 0.6508187417689758 a31.088891413834382,31.088891413834382 0 0,0 -0.039117880879248994,0.5337324052962952 l -10.055183436429253 -0.8240242835620413" fill="#ff810b" stroke="none" /><path d="M 120.89721153311464 102.0752229133903 l 38.34293655105693 3.807691776069425 a59.531536434717005,59.531536434717005 0 0,0 -0.11004177297628522,1.0188501504041354 l -38.27171247657959 -4.467138248358351" fill="#35ff2f" stroke="none" /><path d="M 120.81339534386255 102.79330883721812 l 10.187390934473889 1.3672218614659077 a31.278727045226518,31.278727045226518 0 0,0 -0.07620979772674819,0.5330111478011019 l -10.16234708573054 -1.542378481247419" fill="#ff830c" stroke="none" /><path d="M 120.64145759157962 103.86396538481128 l 7.759630220438768 1.452559366880274 a28.89441510640644,28.89441510640644 0 0,0 -0.09572316169436568,0.4880903392094424 l -7.733477125768738 -1.5859134331576614" fill="#ff6309" stroke="none" /><path d="M 120.5718875245553 104.21870165774334 l 11.666448529793215 2.392452597938258 a32.90923384318638,32.90923384318638 0 0,0 -0.1185766101707994,0.5539504465318144 l -11.623537880897972 -2.5929168638862414" fill="#ff990e" stroke="none" /><path d="M 120.41448212921028 104.9243191809786 l 3.657320346280289 0.8822076709162164 a24.762217762163587,24.762217762163587 0 0,0 -0.10351631202284955,0.41349620971286116 l -3.6415927199623783 -0.9450317200264735" fill="#ff2904" stroke="none" /><path d="M 120.13307415673323 105.97154293290107 l 7.348635005642145 2.179631838277209 a28.665065648549973,28.665065648549973 0 0,0 -0.14438078618908176,0.47184476308229995 l -7.310027446946931 -2.3058035739115663" fill="#ff6008" stroke="none" /><path d="M 118.81262510543309 109.33194174019688 l 1.1212095539940885 0.5561723671091082 a22.251574434823343,22.251574434823343 0 0,0 -0.17316104254707998,0.34166316473775177 l -1.1114698416607394 -0.5753897435495544" fill="#ff0500" stroke="none" /><line stroke="#e1ed5e" stroke-width="0.3" x1="174.80103733775053" x2="179.2010983576182" y1="140.37084112569926" y2="142.7455964860345" /><path d="M 175.68104954172406 140.8457921977663 a86.0,86.0 0 0,1 -30.038265399797805,32.042727171017184" fill="none" id="id41" stroke="none" /><text fill="#e1ed5e" style="font-size:6.75px; font-family:Arial;" text-anchor="middle"><textPath startOffset="22.206326154141568" xlink:href="#id41">May</textPath></text><path d="M 118.30583269289576 110.29060199501025 l 5.233628086947929 2.9420777812303087 a27.003889124833943,27.003889124833943 0 0,0 -0.23126645501065957,0.4032325578185903 l -5.18220963578489 -3.031730184907214" fill="#ff4906" stroke="none" /><path d="M 118.12598468904814 110.60418214915192 l 3.7633846212130497 2.201679892445943 a25.36009841127281,25.36009841127281 0 0,0 -0.22367501047346328,0.374892183316089 l -3.724928735041359 -2.266134169648136" fill="#ff3204" stroke="none" /><path d="M 117.94076556474637 110.91462005526583 l 7.169550921377902 4.36173829880972 a29.392092790331517,29.392092790331517 0 0,0 -0.26667776146278505,0.42996946352581605 l -7.093408520247154 -4.484504093700809" fill="#ff6a09" stroke="none" /><path d="M 117.75023020441432 111.22182372390056 l 2.8288349821812973 1.7884099050246256 a24.346747278299162,24.346747278299162 0 0,0 -0.2269987956990006,0.3523071719069652 l -2.797631323105246 -1.8368386768530438" fill="#ff2303" stroke="none" /><path d="M 117.55443506779139 111.5257021239791 l 3.1414583468460635 2.0625849251662083 a24.758060286702662,24.758060286702662 0 0,0 -0.23696634446101847,0.3542325329533975 l -3.1054888969743244 -2.1163543723254126" fill="#ff2904" stroke="none" /><path d="M 117.35343817320211 111.8261652097733 l 0.7506826303767008 0.511581435236929 a21.908427199300174,21.908427199300174 0 0,0 -0.2150563480175295,0.3098047089796071 l -0.7417653751970351 -0.5244274064035557" fill="#ff0000" stroke="none" /><path d="M 117.14729908036423 112.12312394758627 l 4.959258085401684 3.506190693684274 a27.073517427166912,27.073517427166912 0 0,0 -0.27230828438518717,0.37821239025542497 l -4.898170008640894 -3.59103668939083" fill="#ff4a06" stroke="none" /><path d="M 114.29624159901734 115.38237550388516 l 5.584360085697376 6.008622839236977 a29.2029644635906,29.2029644635906 0 0,0 -0.37115639867788064,0.3390425701589694 l -5.480104137552631 -6.103858175982529" fill="#ff6709" stroke="none" /><path d="M 114.0293411484842 115.62618273729858 l 2.519772158182038 2.806576572868066 a24.771753410354556,24.771753410354556 0 0,0 -0.3197415806566151,0.2821347692133425 l -2.471088224618835 -2.8495344838536973" fill="#ff2904" stroke="none" /><path d="M 113.48314897796784 116.09983520530334 l 4.770808148669705 5.696682957016258 a28.430532087554212,28.430532087554212 0 0,0 -0.3778957508097639,0.31098247590470557 l -4.6720422693152495 -5.777960551778142" fill="#ff5c08" stroke="none" /><path d="M 112.92097659922987 116.55440617244103 l 9.3979692337345 12.04071524288792 a36.27418244223021,36.27418244223021 0 0,0 -0.4955248019076936,0.379947287841284 l -9.189315703333312 -12.200701872556575" fill="#ffc412" stroke="none" /><path d="M 112.63410532772338 116.77436683061366 l 5.495166124066389 7.295960415810564 a30.133886857201674,30.133886857201674 0 0,0 -0.4170171628766334,0.30849932762379945 l -5.368763990771192 -7.389469692174131" fill="#ff740a" stroke="none" /><path d="M 112.04921762599082 117.19931262002967 l 10.213736089612222 14.579306763021016 a38.80102779612788,38.80102779612788 0 0,0 -0.5503151904110871,0.37851180600656187 l -9.961264014578251 -14.752959358392673" fill="#ffe415" stroke="none" /><path d="M 111.7513745106137 117.40417183066458 l 8.900525665255218 13.18197100444994 a36.90546185057277,36.90546185057277 0 0,0 -0.529549971917362,0.3509568459094398 l -8.672300994597892 -13.333225871450699" fill="#ffcc13" stroke="none" /><path d="M 111.45004920935366 117.60387380957326 l 9.163214252686602 14.087980273709547 a37.805822908535845,37.805822908535845 0 0,0 -0.5485772489915198,0.3501279553405965 l -8.919355201648152 -14.243622657873953" fill="#ffd814" stroke="none" /><path d="M 111.1453310114006 117.79835938074945 l 8.779437897538251 14.02018394083753 a37.54219113453987,37.54219113453987 0 0,0 -0.5506559880740551,0.3382578830089695 l -8.536802709531889 -14.169230290674879" fill="#ffd413" stroke="none" /><line stroke="#e1ed5e" stroke-width="0.3" x1="143.8653032363475" x2="146.44561519142675" y1="172.8068346515853" y2="177.08958963109032" /><path d="M 144.38136562736335 173.6633856474863 a86.0,86.0 0 0,1 -40.68145358897372,12.25698825130547" fill="none" id="id42" stroke="none" /><text fill="#e1ed5e" style="font-size:6.75px; font-family:Arial;" text-anchor="middle"><textPath startOffset="21.466115282336833" xlink:href="#id42">June</textPath></text><path d="M 110.21172684928248 118.3499491758327 l 12.90197990525624 23.184195878261438 a47.53239574552646,47.53239574552646 0 0,0 -0.7183665765172282,0.3917107346674984 l -12.500990516870363 -23.402847264688706" fill="#b3ff20" stroke="none" /><line stroke="#e1ed5e" stroke-width="0.3" x1="102.19456741930631" x2="102.32365962044197" y1="184.97166512339345" y2="189.96999836594603" /><path d="M 102.22038585953345 185.97133177190398 a86.0,86.0 0 0,1 -42.740103519485714,-10.115201625700543" fill="none" id="id43" stroke="none" /><text fill="#e1ed5e" style="font-size:6.75px; font-family:Arial;" text-anchor="middle"><textPath startOffset="22.20632615414155" xlink:href="#id43">July</textPath></text><path d="M 100.18074693466247 120.99922214144158 l 0.06838012048493522 7.9444187687234225 a28.944713047915734,28.944713047915734 0 0,0 -0.49825411029477584,0.0 l 0.06838012048492975 -7.9444187687234225" fill="#ff6409" stroke="none" /><path d="M 92.7421414339146 119.70592522655815 l -2.8406343661873477 7.712650764186939 a29.219135320255894,29.219135320255894 0 0,0 -0.4704695131149307,-0.17789131338408554 l 2.972974100062561 -7.66261120069622" fill="#ff6709" stroke="none" /><path d="M 90.10565033884886 118.52300852407294 l -4.115387530932296 7.704332364018518 a29.734595108247216,29.734595108247216 0 0,0 -0.44938486598476085,-0.24504045950573897 l 4.247395208785696 -7.632351252753014" fill="#ff6e0a" stroke="none" /><line stroke="#e1ed5e" stroke-width="0.3" x1="58.666819895761336" x2="56.23545636021788" y1="174.27360380694188" y2="178.64263932499728" /><path d="M 58.180547188652646 175.14741091055294 a86.0,86.0 0 0,1 -31.652253787137756,-30.449443065178592" fill="none" id="id44" stroke="none" /><text fill="#e1ed5e" style="font-size:6.75px; font-family:Arial;" text-anchor="middle"><textPath startOffset="22.20632615414155" xlink:href="#id44">August</textPath></text><path d="M 88.54995079064634 117.60387380957326 l -2.612759039328914 4.016985393005516 a25.791939215517516,25.791939215517516 0 0,0 -0.37008399305697187,-0.24527149053482267 l 2.6815177311258473 -3.9714158813793747" fill="#ff3805" stroke="none" /><path d="M 84.19399662182784 113.82643327865904 l -11.150725448371999 9.754190084096376 a35.81495535672163,35.81495535672163 0 0,0 -0.4019077380571245,-0.4675094978945154 l 11.316975695999902 -9.56080348704033" fill="#ffbe11" stroke="none" /><path d="M 83.95833913139862 113.55231037782056 l -11.285294119263318 9.53403826835694 a35.7734812776398,35.7734812776398 0 0,0 -0.3933447583209864,-0.47380910053462555 l 11.44773487747784 -9.338367910708552" fill="#ffbe11" stroke="none" /><path d="M 82.05923443525364 110.91462005526583 l -7.855024940979136 4.778759994717997 a30.194452888047305,30.194452888047305 0 0,0 -0.26631381536643406,-0.4463572728961843 l 7.936119632043802 -4.642840627935702" fill="#ff750a" stroke="none" /><line stroke="#e1ed5e" stroke-width="0.3" x1="26.63291911575756" x2="22.317208475507996" y1="142.92168965132927" y2="145.44649492493687" /><path d="M 25.769776987707644 143.4266507060508 a86.0,86.0 0 0,1 -11.730757126820373,-40.83630448921669" fill="none" id="id45" stroke="none" /><text fill="#e1ed5e" style="font-size:6.75px; font-family:Arial;" text-anchor="middle"><textPath startOffset="21.46611528233685" xlink:href="#id45">September</textPath></text><path d="M 80.73074385275274 108.34839909993369 l -50.49090357781979 21.875167923600728 a76.02594220720283,76.02594220720283 0 0,0 -0.5099133030388059,-1.205284422429057 l 50.85996786205091 -21.002808975505513" fill="#43ffe0" stroke="none" /><path d="M 79.67330655649465 105.27499134158121 l -13.807872497123814 3.583288549631651 a35.26524797284469,35.26524797284469 0 0,0 -0.14742332240928033,-0.5888828905154379 l 13.867507133828154 -3.345077819718821" fill="#ffb711" stroke="none" /><path d="M 79.23777060512086 103.15116336523772 l -2.00772062642715 0.30471947714775716 a23.03071319332254,23.03071319332254 0 0,0 -0.05611372839528005,-0.39245928570243804 l 2.012668405839029 -0.2701147194649185" fill="#ff1001" stroke="none" /><path d="M 79.07016306316243 101.71520430193888 l -13.678881083415545 1.1209870268358508 a34.72473677738695,34.72473677738695 0 0,0 -0.04369271643493719,-0.5961524017298524 l 13.696150358514819 -0.8853614886092377" fill="#ffb010" stroke="none" /><line stroke="#e1ed5e" stroke-width="0.3" x1="15.007084014347285" x2="10.007500721073583" y1="101.09737516637583" y2="101.16192664675087" /><path d="M 14.007167355692545 101.11028546245083 a86.0,86.0 0 0,1 10.666146001902534,-42.60595125391555" fill="none" id="id46" stroke="none" /><text fill="#e1ed5e" style="font-size:6.75px; font-family:Arial;" text-anchor="middle"><textPath startOffset="22.20632615414155" xlink:href="#id46">October</textPath></text><path d="M 79.00175016825051 100.2711162175752 l -14.788521731889283 0.19094010727581118 a35.78975432991123,35.78975432991123 0 0,0 -0.0026513437056697223,-0.6160789032229467 l 14.789617372884454 0.06364827415081087" fill="#ffbe11" stroke="none" /><path d="M 79.26566170972629 96.67025291283419 l -1.5299465307406401 -0.24569556707979387 a22.549549192058123,22.549549192058123 0 0,0 0.06484406186983567,-0.3827133237676597 l 1.5254906073505814 0.27199467916328157" fill="#ff0901" stroke="none" /><line stroke="#e1ed5e" stroke-width="0.3" x1="26.266209847984243" x2="21.928928074336255" y1="57.711370442889674" y2="55.22380399835377" /><path d="M 25.398753493254645 57.213857153982495 a86.0,86.0 0 0,1 29.58750427330803,-30.492523968695096" fill="none" id="id47" stroke="none" /><text fill="#e1ed5e" style="font-size:6.75px; font-family:Arial;" text-anchor="middle"><textPath startOffset="21.46611528233685" xlink:href="#id47">November</textPath></text><path d="M 81.78341655067845 89.55222093294921 l -6.428597064443051 -3.6870010244919844 a28.410859381446308,28.410859381446308 0 0,0 0.24695845333652527,-0.4221320495109439 l 6.364178936636201 3.79711248635682" fill="#ff5c08" stroke="none" /><line stroke="#e1ed5e" stroke-width="0.3" x1="56.762969772571076" x2="54.21961505331055" y1="26.818313649435495" y2="22.513508569990535" /><path d="M 56.25429882871897 25.957352633546506 a86.0,86.0 0 0,1 42.265352541879196,-11.944610805530505" fill="none" id="id48" stroke="none" /><text fill="#e1ed5e" style="font-size:6.75px; font-family:Arial;" text-anchor="middle"><textPath startOffset="22.20632615414155" xlink:href="#id48">December</textPath></text><path d="M 93.59665428221793 80.00007090966166 l -1.3940506290109358 -4.354116575516927 a25.571838613669236,25.571838613669236 0 0,0 0.4203701302913915,-0.13061104573847596 l 1.3188951260088155 4.3774677561379285" fill="#ff3505" stroke="none" /><path d="M 93.94186890950719 79.89281104454417 l -2.268978187647637 -7.53083293731227 a28.865221341178398,28.865221341178398 0 0,0 0.47697686537940803,-0.13924262657109568 l 2.1390111045448075 7.5687738928020645" fill="#ff6209" stroke="none" /></svg>