<?xml version="1.0" encoding="utf-8" ?>
<svg baseProfile="full" height="300mm" version="1.1" viewBox="0,0,200,300" width="200mm" xmlns="http://www.w3.org/2000/svg" xmlns:ev="http://www.w3.org/2001/xml-events" xmlns:xlink="http://www.w3.org/1999/xlink"><defs /><rect fill="#222222" height="300" width="200" x="0" y="0" /><g id="header"><text fill="#FFFFFF" style="font-size:12px; font-family:Arial; font-weight:bold;" x="10" y="20">Just Keep Running</text></g><g id="footer"><text fill="#FFFFFF" style="font-size:4px; font-family:Arial" x="10" y="280">ATHLETE</text><text fill="#FFFFFF" style="font-size:9px; font-family:Arial" x="10" y="290">Wilson Xie</text><text fill="#FFFFFF" style="font-size:4px; font-family:Arial" x="120" y="280">STATISTICS</text><text fill="#FFFFFF" style="font-size:3px; font-family:Arial" x="120" y="285">Number: 52</text><text fill="#FFFFFF" style="font-size:3px; font-family:Arial" x="120" y="290">Weekly: 1.9</text><text fill="#FFFFFF" style="font-size:3px; font-family:Arial" x="141" y="285">Total: 233.5 km</text><text fill="#FFFFFF" style="font-size:3px; font-family:Arial" x="141" y="290">Avg: 4.5 km</text><text fill="#FFFFFF" style="font-size:3px; font-family:Arial" x="167" y="285">Min: 1.0 km</text><text fill="#FFFFFF" style="font-size:3px; font-family:Arial" x="167" y="290">Max: 12.9 km</text></g><g id="tracks"><g id="year2021"><text alignment-baseline="middle" fill="#FFFFFF" style="dominant-baseline: central; font-size:9.0px; font-family:Arial;" text-anchor="middle" x="100.0" y="150.0">2021</text><line stroke="#FFFFFF" stroke-width="0.3" x1="100.0" x2="100.0" y1="65.0" y2="60.0" /><path d="M 100.0 64.0 a86.0,86.0 0 0,1 42.46469731375804,11.215312516191453" fill="none" id="id1" stroke="none" /><text fill="#FFFFFF" style="font-size:6.75px; font-family:Arial;" text-anchor="middle"><textPath startOffset="22.20632615414155" xlink:href="#id1">January</textPath></text><line stroke="#FFFFFF" stroke-width="0.3" x1="143.23703022742887" x2="145.7803849466894" y1="76.81831364943548" y2="72.5135085699905" /><path d="M 143.74570117128098 75.95735263354649 a86.0,86.0 0 0,1 28.547481713284135,27.462654790039103" fill="none" id="id2" stroke="none" /><text fill="#FFFFFF" style="font-size:6.75px; font-family:Arial;" text-anchor="middle"><textPath startOffset="19.985693538727396" xlink:href="#id2">February</textPath></text><path d="M 115.4437574822437 135.77008943001954 l 6.775366517451022 -6.24283693479503 a30.21295850637771,30.21295850637771 0 0,0 0.34911269130363776,0.3854989533392703 l -6.881822849370695 6.125285194186211" fill="#4dd2ff" stroke="none"><title>2021-02-18 1.9 km</title></path><line stroke="#FFFFFF" stroke-width="0.3" x1="172.23445277983987" x2="176.4835382374775" y1="105.19839476539836" y2="102.56300622218649" /><path d="M 173.08426987136738 104.67131705675598 a86.0,86.0 0 0,1 12.851231095245387,41.99856678651699" fill="none" id="id3" stroke="none" /><text fill="#FFFFFF" style="font-size:6.75px; font-family:Arial;" text-anchor="middle"><textPath startOffset="22.20632615414155" xlink:href="#id3">March</textPath></text><path d="M 120.28053869075195 144.5502522615342 l 23.616549095683457 -6.3461941019967725 a45.45435688725111,45.45435688725111 0 0,0 0.1965439208494653,0.7573639023441615 l -23.722289348403226 5.938733774103761" fill="#4dd2ff" stroke="none"><title>2021-03-18 5.0 km</title></path><path d="M 120.45610955862082 145.25157060432593 l 14.207538892388337 -3.2979631402280982 a35.58529129818909,35.58529129818909 0 0,0 0.13336962692071572,0.5978698863297532 l -14.26220290631109 3.052915084348381" fill="#4dd2ff" stroke="none"><title>2021-03-20 3.0 km</title></path><path d="M 120.6074358757038 145.95851677861256 l 23.87854653004487 -4.683005966117047 a45.333424117172775,45.333424117172775 0 0,0 0.1435866613257654,0.7670456863104216 l -23.955618915280493 4.2712822023440635" fill="#4dd2ff" stroke="none"><title>2021-03-22 5.0 km</title></path><path d="M 120.67395015179393 146.31383870115002 l 4.819688327473702 -0.8593494931935389 a25.895699860636704,25.895699860636704 0 0,0 0.07446633853404146,0.43950454532564276 l -4.833766527527966 0.7762591595520584" fill="#4dd2ff" stroke="none"><title>2021-03-23 1.0 km</title></path><path d="M 120.73433829027371 146.67025291283417 l 21.11343890123694 -3.39062721449016 a42.38395789239931,42.38395789239931 0 0,0 0.10947999658950165,0.7213363890990537 l -21.168674791265744 3.0266917129990243" fill="#4dd2ff" stroke="none"><title>2021-03-24 4.4 km</title></path><path d="M 120.83666639777658 147.38593545837742 l 24.323056216763824 -3.0514496698435196 a45.51371878788368,45.51371878788368 0 0,0 0.0908316137092442,0.7781897963291158 l -24.371978183476656 2.632316135189551" fill="#4dd2ff" stroke="none"><title>2021-03-26 5.0 km</title></path><path d="M 120.94382443527127 148.46500227214037 l 24.242962660431605 -1.7767954804700623 a45.307987179824245,45.307987179824245 0 0,0 0.05031216589585811,0.7783069377172038 l -24.26995541733188 1.3592294784998233" fill="#4dd2ff" stroke="none"><title>2021-03-29 5.0 km</title></path><path d="M 120.98425023603335 149.18683210126434 l 24.21500320991325 -0.9383639184911273 a45.23317782090568,45.23317782090568 0 0,0 0.02345298385029334,0.7782903558822215 l -24.227567888219188 0.5214034151839068" fill="#4dd2ff" stroke="none"><title>2021-03-31 5.0 km</title></path><line stroke="#FFFFFF" stroke-width="0.3" x1="184.98032266829074" x2="189.97916517819016" y1="148.1711317179211" y2="148.06355123074" /><path d="M 185.9800911702706 148.1496156204849 a86.0,86.0 0 0,1 -9.607161424134198,41.387399972396054" fill="none" id="id4" stroke="none" /><text fill="#FFFFFF" style="font-size:6.75px; font-family:Arial;" text-anchor="middle"><textPath startOffset="21.466115282336823" xlink:href="#id4">April</textPath></text><path d="M 120.9904718944345 150.63252640178507 l 5.956965748236026 0.17950707012393033 a26.95966976550561,26.95966976550561 0 0,0 -0.01797037503585626,0.4637355301090095 l -5.952993240348967 -0.28201984724694595" fill="#4dd2ff" stroke="none"><title>2021-04-04 1.2 km</title></path><path d="M 120.76222939487914 153.1511633652377 l 14.669530819982134 2.2264510822019163 a35.837527384973676,35.837527384973676 0 0,0 -0.09781639036837972,0.6091027561969365 l -14.629032675252466 -2.4786330680920576" fill="#4dd2ff" stroke="none"><title>2021-04-11 3.0 km</title></path><line stroke="#FFFFFF" stroke-width="0.3" x1="174.80103733775053" x2="179.2010983576182" y1="190.37084112569926" y2="192.7455964860345" /><path d="M 175.68104954172406 190.8457921977663 a86.0,86.0 0 0,1 -30.038265399797805,32.042727171017184" fill="none" id="id5" stroke="none" /><text fill="#FFFFFF" style="font-size:6.75px; font-family:Arial;" text-anchor="middle"><textPath startOffset="22.206326154141568" xlink:href="#id5">May</textPath></text><line stroke="#FFFFFF" stroke-width="0.3" x1="143.8653032363475" x2="146.44561519142675" y1="222.8068346515853" y2="227.08958963109032" /><path d="M 144.38136562736335 223.6633856474863 a86.0,86.0 0 0,1 -40.68145358897372,12.25698825130547" fill="none" id="id6" stroke="none" /><text fill="#FFFFFF" style="font-size:6.75px; font-family:Arial;" text-anchor="middle"><textPath startOffset="21.466115282336833" xlink:href="#id6">June</textPath></text><path d="M 103.7750983002368 170.65789516924582 l 2.615653300382595 14.31324097573987 a35.55027523510814,35.55027523510814 0 0,0 -0.6029174804493084,0.10482493221558892 l -2.368886848461236 -14.356144486476465" fill="#4dd2ff" stroke="none"><title>2021-06-22 3.0 km</title></path><path d="M 101.26447882468166 170.96189622390904 l 1.2295200169516876 20.382366630021355 a41.41941695819675,41.41941695819675 0 0,0 -0.7120430343460041,0.03680449163032777 l -0.8784889141922038 -20.400510928413887" fill="#4dd2ff" stroke="none"><title>2021-06-29 4.2 km</title></path><line stroke="#FFFFFF" stroke-width="0.3" x1="102.19456741930631" x2="102.32365962044197" y1="234.97166512339345" y2="239.96999836594603" /><path d="M 102.22038585953345 235.97133177190398 a86.0,86.0 0 0,1 -42.740103519485714,-10.115201625700543" fill="none" id="id7" stroke="none" /><text fill="#FFFFFF" style="font-size:6.75px; font-family:Arial;" text-anchor="middle"><textPath startOffset="22.20632615414155" xlink:href="#id7">July</textPath></text><path d="M 96.93821686468263 170.7755982833777 l -2.4426508332530505 16.574502574286026 a37.753527350328525,37.753527350328525 0 0,0 -0.642105047229158,-0.1002836028199363 l 2.727591744090726 -16.530000664118983" fill="#4dd2ff" stroke="none"><title>2021-07-11 3.4 km</title></path><path d="M 92.40401165467489 169.57807347666477 l -3.3743414615887417 8.69710458560653 a30.328762429838964,30.328762429838964 0 0,0 -0.48508533761506817,-0.19302546685746236 l 3.523547875245668 -8.637732274343" fill="#4dd2ff" stroke="none"><title>2021-07-24 1.9 km</title></path><path d="M 91.7346041902142 169.30500536409082 l -5.152085472226354 12.033427069497082 a34.089971418992135,34.089971418992135 0 0,0 -0.537451654206511,-0.2356030109559419 l 5.358457801090608 -11.942959505246687" fill="#4dd2ff" stroke="none"><title>2021-07-26 2.7 km</title></path><path d="M 90.42595943632237 168.69057910512822 l -3.1910050817200473 6.229525821211349 a27.999250344765652,27.999250344765652 0 0,0 -0.42706736227936154,-0.22342145949451045 l 3.2977633465259046 -6.173674942772123" fill="#4dd2ff" stroke="none"><title>2021-07-30 1.4 km</title></path><line stroke="#FFFFFF" stroke-width="0.3" x1="58.666819895761336" x2="56.23545636021788" y1="224.27360380694188" y2="228.64263932499728" /><path d="M 58.180547188652646 225.14741091055294 a86.0,86.0 0 0,1 -31.652253787137756,-30.449443065178592" fill="none" id="id8" stroke="none" /><text fill="#FFFFFF" style="font-size:6.75px; font-family:Arial;" text-anchor="middle"><textPath startOffset="22.20632615414155" xlink:href="#id8">August</textPath></text><path d="M 89.1626897886671 167.98757091392108 l -12.14306921258142 20.15484601940684 a44.53023476227006,44.53023476227006 0 0,0 -0.6531542161274544,-0.4012206662791129 l 12.488202628641183 -19.942836886299347" fill="#4dd2ff" stroke="none"><title>2021-08-03 4.8 km</title></path><path d="M 86.79598089348748 166.32954008644617 l -13.184485324136734 16.305382465969224 a41.968932987253154,41.968932987253154 0 0,0 -0.5578468033261211,-0.4590699411203778 l 13.463202256007543 -16.076017405991664" fill="#4dd2ff" stroke="none"><title>2021-08-11 4.3 km</title></path><path d="M 85.18274418774928 164.88116024355367 l -12.156776828836756 12.209207043956697 a38.229392313960005,38.229392313960005 0 0,0 -0.46231964650286117,-0.4683273610527965 l 12.36513710039515 -11.998139188923236" fill="#4dd2ff" stroke="none"><title>2021-08-17 3.5 km</title></path><path d="M 82.85270091963577 162.1231239475863 l -11.87070309751589 8.392575665807115 a35.5378443496851,35.5378443496851 0 0,0 -0.34884471407892254,-0.5025368286988997 l 12.013408718756946 -8.186997574921202" fill="#4dd2ff" stroke="none"><title>2021-08-27 3.0 km</title></path><line stroke="#FFFFFF" stroke-width="0.3" x1="26.63291911575756" x2="22.317208475507996" y1="192.92168965132927" y2="195.44649492493687" /><path d="M 25.769776987707644 193.4266507060508 a86.0,86.0 0 0,1 -11.730757126820373,-40.83630448921669" fill="none" id="id9" stroke="none" /><text fill="#FFFFFF" style="font-size:6.75px; font-family:Arial;" text-anchor="middle"><textPath startOffset="21.46611528233685" xlink:href="#id9">September</textPath></text><path d="M 81.87401531095188 160.60418214915194 l -22.87526898017732 13.382639516583636 a47.50232011251635,47.50232011251635 0 0,0 -0.40681892620794524,-0.7093230887129011 l 23.102239902537644 -12.986896582012427" fill="#4dd2ff" stroke="none"><title>2021-09-01 5.4 km</title></path><path d="M 81.02952815118164 159.00673069616215 l -13.36471949671106 6.345252258136228 a35.79452444133138,35.79452444133138 0 0,0 -0.25946834276751707,-0.5588717269338148 l 13.471962456318405 -6.114260463923586" fill="#4dd2ff" stroke="none"><title>2021-09-06 3.0 km</title></path><path d="M 80.32549172779594 157.3425965602758 l -13.623849852254502 5.084469287814712 a35.54170253909445,35.54170253909445 0 0,0 -0.2089779993403419,-0.5750177017052677 l 13.709352112600067 -4.849203789103327" fill="#4dd2ff" stroke="none"><title>2021-09-11 3.0 km</title></path><path d="M 80.0844068197444 156.66101706037122 l -23.51197697551458 7.863872210054254 a45.79220739331598,45.79220739331598 0 0,0 -0.24358782899544731,-0.7496862511555522 l 23.64385705552628 -7.4579870589208985" fill="#4dd2ff" stroke="none"><title>2021-09-13 5.1 km</title></path><path d="M 79.76711848015287 155.62410040840567 l -24.579681113856086 6.832373058445297 a46.51160608955506,46.51160608955506 0 0,0 -0.2077782495092751,-0.7732201618300708 l 24.693647439707135 -6.408261963439688" fill="#4dd2ff" stroke="none"><title>2021-09-16 5.2 km</title></path><path d="M 79.58551787078972 154.9243191809786 l -44.60441133521955 10.759340202904175 a66.88373254393427,66.88373254393427 0 0,0 -0.26033516412349034,-1.121517073439735 l 44.7830070652736 -9.989954472115866" fill="#4dd2ff" stroke="none"><title>2021-09-18 9.4 km</title></path><path d="M 79.50377843672027 154.57218783832718 l -5.00304950969942 1.1160536127194403 a26.126019904659728,26.126019904659728 0 0,0 -0.09413573382811777,-0.43977080904549753 l 5.021519282251979 -1.0297689842577789" fill="#4dd2ff" stroke="none"><title>2021-09-19 1.1 km</title></path><path d="M 79.29508885075956 153.50808413554452 l -18.34810756865515 3.108765095146258 a39.60960697510133,39.60960697510133 0 0,0 -0.10811205629769471,-0.6732138777667726 l 18.398901379314132 -2.792471987686272" fill="#4dd2ff" stroke="none"><title>2021-09-22 3.8 km</title></path><path d="M 79.23777060512086 153.15116336523772 l -23.934606693603804 3.6326472624784767 a45.20870760100787,45.20870760100787 0 0,0 -0.11014982984374577,-0.7703876533778452 l 23.993590574464147 -3.2201141371202313" fill="#4dd2ff" stroke="none"><title>2021-09-23 5.0 km</title></path><path d="M 79.04373962182676 151.35467743843563 l -27.331308888880773 1.7667802769450875 a48.38835442531032,48.38835442531032 0 0,0 -0.046576438927760894,-0.8316536053371326 l 27.357671678696065 -1.2960549552725174" fill="#4dd2ff" stroke="none"><title>2021-09-28 5.6 km</title></path><path d="M 79.0095281055655 150.63252640178507 l -14.696229014525612 0.4428558302603966 a35.702900004209376,35.702900004209376 0 0,0 -0.013223567533151789,-0.6144472222546629 l 14.70167464474377 -0.18981879221560485" fill="#4dd2ff" stroke="none"><title>2021-09-30 3.0 km</title></path><line stroke="#FFFFFF" stroke-width="0.3" x1="15.007084014347285" x2="10.007500721073583" y1="151.09737516637583" y2="151.16192664675089" /><path d="M 14.007167355692545 151.11028546245083 a86.0,86.0 0 0,1 10.666146001902534,-42.60595125391555" fill="none" id="id10" stroke="none" /><text fill="#FFFFFF" style="font-size:6.75px; font-family:Arial;" text-anchor="middle"><textPath startOffset="22.20632615414155" xlink:href="#id10">October</textPath></text><path d="M 80.95270993114464 141.15688171328213 l -22.79985048915516 -10.58532599998346 a46.137269319752185,46.137269319752185 0 0,0 0.3406288365020916,-0.7174512008571647 l 22.614263458811315 10.976219616481158" fill="#4dd2ff" stroke="none"><title>2021-10-27 5.2 km</title></path><path d="M 81.26839172434947 140.50648371742162 l -21.745654730806354 -11.021089285248156 a45.37904650934594,45.37904650934594 0 0,0 0.3591223553353215,-0.6937100841579501 l 21.55272294231092 11.393772091666442" fill="#4dd2ff" stroke="none"><title>2021-10-29 5.0 km</title></path><line stroke="#FFFFFF" stroke-width="0.3" x1="26.266209847984243" x2="21.928928074336255" y1="107.71137044288967" y2="105.22380399835377" /><path d="M 25.398753493254645 107.2138571539825 a86.0,86.0 0 0,1 29.58750427330803,-30.492523968695096" fill="none" id="id11" stroke="none" /><text fill="#FFFFFF" style="font-size:6.75px; font-family:Arial;" text-anchor="middle"><textPath startOffset="21.46611528233685" xlink:href="#id11">November</textPath></text><path d="M 83.6137871275137 136.86637796730983 l -19.082282515801936 -15.294533766515617 a45.45518900249938,45.45518900249938 0 0,0 0.4945990109535089,-0.6063199053836515 l 18.816185012772035 15.620737841507351" fill="#4dd2ff" stroke="none"><title>2021-11-10 5.0 km</title></path><path d="M 84.5562425177563 135.77008943001954 l -17.93575733273384 -16.5260444644456 a45.3885533957951,45.3885533957951 0 0,0 0.5343587432347323,-0.5700166501968952 l 17.64863126752865 16.832330531520544" fill="#4dd2ff" stroke="none"><title>2021-11-14 5.0 km</title></path><path d="M 85.05521093208273 135.24692304244772 l -20.712157664744645 -20.446461612557144 a50.10414519622614,50.10414519622614 0 0,0 0.6111851553567632,-0.6085605320656585 l 20.35713670922057 20.799957995272912" fill="#4dd2ff" stroke="none"><title>2021-11-16 6.0 km</title></path><path d="M 86.93701828274178 133.5574178227817 l -15.165306595179795 -19.088811829577587 a45.37968952203504,45.37968952203504 0 0,0 0.6157968652739481,-0.480639220954339 l 14.834477174746421 19.347029439755147" fill="#4dd2ff" stroke="none"><title>2021-11-23 5.0 km</title></path><path d="M 87.51073957382395 133.11751280151077 l -14.474112002172951 -19.565530883961394 a45.337418043471544,45.337418043471544 0 0,0 0.63138763101142,-0.4587299655863544 l 14.13517905480775 19.81178008436442" fill="#4dd2ff" stroke="none"><title>2021-11-25 5.0 km</title></path><path d="M 88.09926311788651 132.69761687909138 l -14.230305083854509 -20.689323100515256 a46.1107481596445,46.1107481596445 0 0,0 0.6578363660015139,-0.44417405084249134 l 13.872064023446455 20.93120906365641" fill="#4dd2ff" stroke="none"><title>2021-11-27 5.2 km</title></path><line stroke="#FFFFFF" stroke-width="0.3" x1="56.762969772571076" x2="54.21961505331055" y1="76.8183136494355" y2="72.51350856999053" /><path d="M 56.25429882871897 75.9573526335465 a86.0,86.0 0 0,1 42.265352541879196,-11.944610805530505" fill="none" id="id12" stroke="none" /><text fill="#FFFFFF" style="font-size:6.75px; font-family:Arial;" text-anchor="middle"><textPath startOffset="22.20632615414155" xlink:href="#id12">December</textPath></text><path d="M 89.3179101791058 131.91981866633114 l -12.923384853546597 -21.873729346469087 a46.40617861063447,46.40617861063447 0 0,0 0.691238300152592,-0.40040983979342293 l 12.544949820928684 22.092943343652557" fill="#4dd2ff" stroke="none"><title>2021-12-01 5.2 km</title></path><path d="M 89.94658935756843 131.56283822128137 l -11.875300865324357 -21.77836467764009 a45.8056432828148,45.8056432828148 0 0,0 0.6954931551277599,-0.37150835701598106 l 11.498662663668291 21.979551761157822" fill="#4dd2ff" stroke="none"><title>2021-12-03 5.1 km</title></path><path d="M 90.91171255644093 131.06846463323043 l -11.036015672236013 -22.988788845496792 a46.500550082315414,46.500550082315414 0 0,0 0.7245711034993995,-0.3401958485307488 l 10.638666357437005 23.17534967666755" fill="#4dd2ff" stroke="none"><title>2021-12-06 5.2 km</title></path><path d="M 91.90106846888425 130.62456947434976 l -24.29679459334727 -58.12629157695071 a84.0,84.0 0 0,0 1.338864521646478,-0.5461564552656921 l 23.29264620211241 58.53590891839998" fill="#4dd2ff" stroke="none"><title>2021-12-09 12.9 km</title></path><path d="M 92.57280143429618 130.35727306442388 l -8.726250152706294 -23.078331271852328 a45.672997710472146,45.672997710472146 0 0,0 0.7377660980162438,-0.2717254801636052 l 8.327701728917482 23.225120019822256" fill="#4dd2ff" stroke="none"><title>2021-12-11 5.1 km</title></path><path d="M 93.25333710446033 130.11325718540243 l -7.934772398695364 -23.388863565355297 a45.698168998893465,45.698168998893465 0 0,0 0.7470936385423584,-0.24630502653128028 l 7.530995937910596 23.52198231614581" fill="#4dd2ff" stroke="none"><title>2021-12-13 5.1 km</title></path><path d="M 93.94186890950719 129.89281104454417 l -7.217607139413804 -23.955538166909303 a46.01922584104403,46.01922584104403 0 0,0 0.7604343590303521,-0.2219916418840742 l 6.8041825626600305 24.076228137712075" fill="#4dd2ff" stroke="none"><title>2021-12-15 5.1 km</title></path><path d="M 94.63758080256005 129.69619591428918 l -6.322289721129748 -23.93817550336323 a45.758990160095834,45.758990160095834 0 0,0 0.7632841674205785,-0.19457812950642997 l 5.909296665024171 24.043456629038523" fill="#4dd2ff" stroke="none"><title>2021-12-17 5.1 km</title></path><path d="M 95.692805502759 129.44645832069477 l -5.15729111592353 -24.610125679567997 a46.14469999062458,46.14469999062458 0 0,0 0.7788205572256603,-0.1562240770160658 l 4.732904149230733 24.695253712661273" fill="#4dd2ff" stroke="none"><title>2021-12-20 5.2 km</title></path><path d="M 98.19473922651362 129.07773832637324 l -2.1481248538122912 -24.895921386629 a45.98842416153482,45.98842416153482 0 0,0 0.7892704401706391,-0.06126257658498701 l 1.719264224279318 24.92920922540245" fill="#4dd2ff" stroke="none"><title>2021-12-27 5.1 km</title></path><path d="M 98.91598698831166 129.02799685794201 l -1.2676014550779866 -24.52382158897551 a45.556559994771604,45.556559994771604 0 0,0 0.7834842517579776,-0.03373847998360583 l 0.8452763709306849 24.542007795483308" fill="#4dd2ff" stroke="none"><title>2021-12-29 5.0 km</title></path><path d="M 99.63851952072746 129.00311137660856 l -0.5160767280954087 -29.97673789398093 a50.98117992931088,50.98117992931088 0 0,0 0.8775572073679371,-0.007553411938513751 l 7.343271207018288e-15 29.981179929310883" fill="#4dd2ff" stroke="none"><title>2021-12-31 6.2 km</title></path></g></g></svg>