<?xml version="1.0" encoding="utf-8" ?>
<svg baseProfile="full" height="300mm" version="1.1" viewBox="0,0,200,300" width="200mm" xmlns="http://www.w3.org/2000/svg" xmlns:ev="http://www.w3.org/2001/xml-events" xmlns:xlink="http://www.w3.org/1999/xlink"><defs /><rect fill="#222222" height="300" width="200" x="0" y="0" /><g id="header"><text fill="#FFFFFF" style="font-size:12px; font-family:Arial; font-weight:bold;" x="10" y="20">Just Keep Running</text></g><g id="footer"><text fill="#FFFFFF" style="font-size:4px; font-family:Arial" x="10" y="280">ATHLETE</text><text fill="#FFFFFF" style="font-size:9px; font-family:Arial" x="10" y="290">Wilson Xie</text><text fill="#FFFFFF" style="font-size:4px; font-family:Arial" x="120" y="280">STATISTICS</text><text fill="#FFFFFF" style="font-size:3px; font-family:Arial" x="120" y="285">Number: 52</text><text fill="#FFFFFF" style="font-size:3px; font-family:Arial" x="120" y="290">Weekly: 1.7</text><text fill="#FFFFFF" style="font-size:3px; font-family:Arial" x="141" y="285">Total: 475.1 km</text><text fill="#FFFFFF" style="font-size:3px; font-family:Arial" x="141" y="290">Avg: 9.1 km</text><text fill="#FFFFFF" style="font-size:3px; font-family:Arial" x="167" y="285">Min: 1.5 km</text><text fill="#FFFFFF" style="font-size:3px; font-family:Arial" x="167" y="290">Max: 40.0 km</text></g><g id="tracks"><g id="year2018"><text alignment-baseline="middle" fill="#FFFFFF" style="dominant-baseline: central; font-size:9.0px; font-family:Arial;" text-anchor="middle" x="100.0" y="150.0">2018</text><line stroke="#FFFFFF" stroke-width="0.3" x1="100.0" x2="100.0" y1="65.0" y2="60.0" /><path d="M 100.0 64.0 a86.0,86.0 0 0,1 42.46469731375804,11.215312516191453" fill="none" id="id1" stroke="none" /><text fill="#FFFFFF" style="font-size:6.75px; font-family:Arial;" text-anchor="middle"><textPath startOffset="22.20632615414155" xlink:href="#id1">January</textPath></text><path d="M 100.72285384407766 129.0124445844662 l 0.545737991834026 -15.845120614379985 a36.8545159888273,36.8545159888273 0 0,0 0.6338260151056638,0.027293881498889463 l -0.8184048393290214 15.8333790063569" fill="#4dd2ff" stroke="none"><title>2018-01-03 10.1 km</title></path><path d="M 103.2404852339499 129.25152402106235 l 1.3684661410067658 -8.762140483528377 a29.86835979379326,29.86835979379326 0 0,0 0.5072938856658069,0.08370783779659977 l -1.5190892328114478 8.737286382792153" fill="#4dd2ff" stroke="none"><title>2018-01-10 5.6 km</title></path><path d="M 105.71112130821622 129.79150937346287 l 2.894364925930133 -10.24155210839071 a31.642684713611352,31.642684713611352 0 0,0 0.5228724349103103,0.1526408018565441 l -3.07022757856387 10.190212977615463" fill="#4dd2ff" stroke="none"><title>2018-01-17 6.8 km</title></path><path d="M 110.05341064243156 131.56283822128134 l 7.570407104821348 -13.883529230692371 a36.8133945638569,36.8133945638569 0 0,0 0.553736406771852,0.30815371085084853 l -7.808267600665235 13.751160122281343" fill="#4dd2ff" stroke="none"><title>2018-01-30 10.0 km</title></path><line stroke="#FFFFFF" stroke-width="0.3" x1="143.23703022742887" x2="145.7803849466894" y1="76.81831364943548" y2="72.5135085699905" /><path d="M 143.74570117128098 75.95735263354649 a86.0,86.0 0 0,1 28.547481713284135,27.462654790039103" fill="none" id="id2" stroke="none" /><text fill="#FFFFFF" style="font-size:6.75px; font-family:Arial;" text-anchor="middle"><textPath startOffset="19.985693538727396" xlink:href="#id2">February</textPath></text><path d="M 113.89432698308785 134.25364557470405 l 4.471310579914437 -5.067308493790837 a27.757975560276876,27.757975560276876 0 0,0 0.35555192534731056,0.3192180291602134 l -4.5578734928577385 4.989591455861326" fill="#4dd2ff" stroke="none"><title>2018-02-12 4.3 km</title></path><line stroke="#FFFFFF" stroke-width="0.3" x1="172.23445277983987" x2="176.4835382374775" y1="105.19839476539836" y2="102.56300622218649" /><path d="M 173.08426987136738 104.67131705675598 a86.0,86.0 0 0,1 12.851231095245387,41.99856678651699" fill="none" id="id3" stroke="none" /><text fill="#FFFFFF" style="font-size:6.75px; font-family:Arial;" text-anchor="middle"><textPath startOffset="22.20632615414155" xlink:href="#id3">March</textPath></text><path d="M 118.73160827565052 140.50648371742162 l 14.181488758239986 -7.187433799401198 a36.89886247568869,36.89886247568869 0 0,0 0.28225870429183836,0.5690163241927468 l -14.303107475485234 6.942257886709501" fill="#4dd2ff" stroke="none"><title>2018-03-06 10.1 km</title></path><path d="M 120.18372546131832 144.20196356495316 l 24.455781470734863 -7.025239829317555 a46.44482741155397,46.44482741155397 0 0,0 0.21411779677144968,0.770295638195327 l -24.573086038072677 6.6032328877032755" fill="#4dd2ff" stroke="none"><title>2018-03-17 16.1 km</title></path><path d="M 120.67395015179393 146.31383870115002 l 35.616015186633646 -6.3503285940171645 a57.17771705105935,57.17771705105935 0 0,0 0.16442170929699418,0.9704262356501616 l -35.72004875745087 5.736316570051166" fill="#4dd2ff" stroke="none"><title>2018-03-23 22.9 km</title></path><path d="M 120.73433829027371 146.67025291283417 l 13.579434624683355 -2.180734309139186 a34.75342309583712,34.75342309583712 0 0,0 0.08976992313141358,0.5914716315174142 l -13.614960441254068 1.9466635652296898" fill="#4dd2ff" stroke="none"><title>2018-03-24 8.7 km</title></path><path d="M 120.96714384426684 148.82574320788734 l 9.425558859935162 -0.5278747831819254 a30.440328998971466,30.440328998971466 0 0,0 0.024796390159888763,0.5234126053462103 l -9.433248858328549 0.36555107121271535" fill="#4dd2ff" stroke="none"><title>2018-03-30 6.0 km</title></path><path d="M 120.98425023603335 149.18683210126434 l 6.562571164000984 -0.25430845246833655 a27.56749671271894,27.56749671271894 0 0,0 0.0142934917762421,0.47433140586040745 l -6.56597635023287 0.14130689918293002" fill="#4dd2ff" stroke="none"><title>2018-03-31 4.2 km</title></path><line stroke="#FFFFFF" stroke-width="0.3" x1="184.98032266829074" x2="189.97916517819016" y1="148.1711317179211" y2="148.06355123074" /><path d="M 185.9800911702706 148.1496156204849 a86.0,86.0 0 0,1 -9.607161424134198,41.387399972396054" fill="none" id="id4" stroke="none" /><text fill="#FFFFFF" style="font-size:6.75px; font-family:Arial;" text-anchor="middle"><textPath startOffset="21.466115282336823" xlink:href="#id4">April</textPath></text><path d="M 120.8583938346157 152.43462659150552 l 30.199575062520974 3.5249448774603995 a51.40459784877894,51.40459784877894 0 0,0 -0.11014901528417953,0.8779960283977799 l -30.134424537989947 -4.044258660145575" fill="#4dd2ff" stroke="none"><title>2018-04-09 19.3 km</title></path><path d="M 120.76222939487914 153.1511633652377 l 7.838877647157955 1.1897365931424175 a28.92864906072748,28.92864906072748 0 0,0 -0.07895901965994574,0.49167789079475216 l -7.8172368731367206 -1.3244937136303747" fill="#4dd2ff" stroke="none"><title>2018-04-11 5.0 km</title></path><path d="M 120.41448212921028 154.9243191809786 l 8.250470103559834 1.9901532610968007 a29.487105922067244,29.487105922067244 0 0,0 -0.12326829876860051,0.49239557826710295 l -8.214990490496174 -2.1318766787612997" fill="#4dd2ff" stroke="none"><title>2018-04-16 5.4 km</title></path><path d="M 120.32669344350535 155.2749913415812 l 7.731536041030712 2.0064151499559815 a28.98763740462283,28.98763740462283 0 0,0 -0.12949457272546286,0.4818974782749261 l -7.695853391963473 -2.1392035614064557" fill="#4dd2ff" stroke="none"><title>2018-04-17 5.1 km</title></path><path d="M 120.23288151984713 155.62410040840567 l 8.673555541021923 2.4109738008765413 a30.002408588355962,30.002408588355962 0 0,0 -0.1425933946795073,0.49638631337530503 l -8.630769509456316 -2.5599175897564286" fill="#4dd2ff" stroke="none"><title>2018-04-18 5.7 km</title></path><path d="M 120.13307415673323 155.9715429329011 l 7.55385386478285 2.240500497402962 a28.879121187629856,28.879121187629856 0 0,0 -0.145458945485816,0.4753682500459068 l -7.514168146790901 -2.370195720000926" fill="#4dd2ff" stroke="none"><title>2018-04-19 5.0 km</title></path><path d="M 119.79798401119884 157.00284435728193 l 3.839996907988155 1.3582645921864522 a25.07313871059482,25.07313871059482 0 0,0 -0.14742496815281675,0.40565019585216394 l -3.816047678830112 -1.4241625850447472" fill="#4dd2ff" stroke="none"><title>2018-04-22 2.6 km</title></path><line stroke="#FFFFFF" stroke-width="0.3" x1="174.80103733775053" x2="179.2010983576182" y1="190.37084112569926" y2="192.7455964860345" /><path d="M 175.68104954172406 190.8457921977663 a86.0,86.0 0 0,1 -30.038265399797805,32.042727171017184" fill="none" id="id5" stroke="none" /><text fill="#FFFFFF" style="font-size:6.75px; font-family:Arial;" text-anchor="middle"><textPath startOffset="22.206326154141568" xlink:href="#id5">May</textPath></text><path d="M 117.35343817320211 161.82616520977328 l 6.5665802568963745 4.475047665264048 a28.94644750040208,28.94644750040208 0 0,0 -0.28414259183865404,0.4093285958994811 l -6.488576757895585 -4.587417523350549" fill="#4dd2ff" stroke="none"><title>2018-05-07 5.0 km</title></path><path d="M 114.55890576462653 165.1340101406311 l 25.006264362368114 25.994059207312176 a57.069438191270635,57.069438191270635 0 0,0 -0.713814112585499,0.6749557974800531 l -24.55511441539181 -26.42064964153815" fill="#4dd2ff" stroke="none"><title>2018-05-19 22.9 km</title></path><path d="M 114.0293411484842 165.62618273729856 l 5.492909542549143 6.118121112237539 a29.222132398996877,29.222132398996877 0 0,0 -0.37718487862496497,0.3328218008526801 l -5.3867823110175905 -6.211766054862507" fill="#4dd2ff" stroke="none"><title>2018-05-21 5.2 km</title></path><path d="M 113.75828350139079 165.8653595955263 l 17.202696136806175 19.837282768261847 a47.257390235955754,47.257390235955754 0 0,0 -0.6191495019420089,0.5276526377165659 l -16.85868115828712 -20.13045979620136" fill="#4dd2ff" stroke="none"><title>2018-05-22 16.7 km</title></path><path d="M 112.92097659922987 166.55440617244102 l 2.898861035848297 3.7140321907057787 a25.711414906241885,25.711414906241885 0 0,0 -0.35123172792309276,0.2693095116822142 l -2.8345005794317104 -3.7633810442153646" fill="#4dd2ff" stroke="none"><title>2018-05-25 3.0 km</title></path><path d="M 111.45004920935366 167.60387380957326 l 21.710152393128695 33.3782655539186 a60.817575620833324,60.817575620833324 0 0,0 -0.8824867641454698,0.5632448062937603 l -21.132383826936294 -33.74702478903617" fill="#4dd2ff" stroke="none"><title>2018-05-30 25.3 km</title></path><line stroke="#FFFFFF" stroke-width="0.3" x1="143.8653032363475" x2="146.44561519142675" y1="222.8068346515853" y2="227.08958963109032" /><path d="M 144.38136562736335 223.6633856474863 a86.0,86.0 0 0,1 -40.68145358897372,12.25698825130547" fill="none" id="id6" stroke="none" /><text fill="#FFFFFF" style="font-size:6.75px; font-family:Arial;" text-anchor="middle"><textPath startOffset="21.466115282336833" xlink:href="#id6">June</textPath></text><path d="M 110.8373102113329 167.98757091392108 l 3.703229236855763 6.1465527155244235 a28.17593318429206,28.17593318429206 0 0,0 -0.4175836033671083,0.24671575337540688 l -3.5968777624602724 -6.20938704119358" fill="#4dd2ff" stroke="none"><title>2018-06-01 4.6 km</title></path><path d="M 106.2309692047433 170.05430185196036 l 2.6142029438093295 8.413781743220062 a29.81054937299398,29.81054937299398 0 0,0 -0.49134176969894544,0.14803724467229623 l -2.4689861996701383 -8.457534356998083" fill="#4dd2ff" stroke="none"><title>2018-06-15 5.6 km</title></path><line stroke="#FFFFFF" stroke-width="0.3" x1="102.19456741930631" x2="102.32365962044197" y1="234.97166512339345" y2="239.96999836594603" /><path d="M 102.22038585953345 235.97133177190398 a86.0,86.0 0 0,1 -42.740103519485714,-10.115201625700543" fill="none" id="id7" stroke="none" /><text fill="#FFFFFF" style="font-size:6.75px; font-family:Arial;" text-anchor="middle"><textPath startOffset="22.20632615414155" xlink:href="#id7">July</textPath></text><path d="M 93.08242187328487 169.82793768551818 l -7.481255258157958 21.44361225142402 a43.71117977180266,43.71117977180266 0 0,0 -0.7082885456258102,-0.2539670727620047 l 7.849263364413495 -21.31165763762206" fill="#4dd2ff" stroke="none"><title>2018-07-22 14.4 km</title></path><line stroke="#FFFFFF" stroke-width="0.3" x1="58.666819895761336" x2="56.23545636021788" y1="224.27360380694188" y2="228.64263932499728" /><path d="M 58.180547188652646 225.14741091055294 a86.0,86.0 0 0,1 -31.652253787137756,-30.449443065178592" fill="none" id="id8" stroke="none" /><text fill="#FFFFFF" style="font-size:6.75px; font-family:Arial;" text-anchor="middle"><textPath startOffset="22.20632615414155" xlink:href="#id8">August</textPath></text><path d="M 88.8546689885994 167.79835938074945 l -13.86077060443584 22.134737520090496 a47.11642331622182,47.11642331622182 0 0,0 -0.6836776955673063,-0.4363554524016586 l 14.23973010205007 -21.892867638865035" fill="#4dd2ff" stroke="none"><title>2018-08-04 16.6 km</title></path><path d="M 87.07902340077011 166.55440617244102 l -4.890487031565257 6.2657112703394295 a28.948333229625348,28.948333229625348 0 0,0 -0.390171848522218,-0.3099761137819556 l 4.997616372804833 -6.180601242552344" fill="#4dd2ff" stroke="none"><title>2018-08-10 5.0 km</title></path><path d="M 84.19399662182784 163.82643327865904 l -8.396683916909202 7.345069285475506 a32.155910702803126,32.155910702803126 0 0,0 -0.3608467246994629,-0.41974626290262795 l 8.521873151179443 -7.199445923411348" fill="#4dd2ff" stroke="none"><title>2018-08-21 7.1 km</title></path><line stroke="#FFFFFF" stroke-width="0.3" x1="26.63291911575756" x2="22.317208475507996" y1="192.92168965132927" y2="195.44649492493687" /><path d="M 25.769776987707644 193.4266507060508 a86.0,86.0 0 0,1 -11.730757126820373,-40.83630448921669" fill="none" id="id9" stroke="none" /><text fill="#FFFFFF" style="font-size:6.75px; font-family:Arial;" text-anchor="middle"><textPath startOffset="21.46611528233685" xlink:href="#id9">September</textPath></text><path d="M 81.18737489456691 159.33194174019687 l -7.0306201192042845 3.4875163344919073 a28.84808189584614,28.84808189584614 0 0,0 -0.21683694191291417,-0.44674832532129 l 7.089610317731918 -3.365979053205333" fill="#4dd2ff" stroke="none"><title>2018-09-05 5.0 km</title></path><path d="M 81.02952815118164 159.00673069616215 l -16.1179723407921 7.652431494514847 a38.842330009188316,38.842330009188316 0 0,0 -0.2815613604039328,-0.6064581214355361 l 16.24730831803586 -7.373853305800484" fill="#4dd2ff" stroke="none"><title>2018-09-06 11.3 km</title></path><path d="M 80.73074385275274 158.3483990999337 l -14.774820863094602 6.401186441893931 a37.10187937479418,37.10187937479418 0 0,0 -0.24884587170767417,-0.5881981328347767 l 14.882817715994582 -6.145913783392996" fill="#4dd2ff" stroke="none"><title>2018-09-08 10.2 km</title></path><path d="M 80.58989483394504 158.01547362559984 l -11.29483996389077 4.664245302197827 a33.220007939808326,33.220007939808326 0 0,0 -0.2137112489055679,-0.5304137934516551 l 11.373453827053725 -4.469132140903366" fill="#4dd2ff" stroke="none"><title>2018-09-09 7.8 km</title></path><path d="M 80.20201598880116 157.00284435728193 l -2.175607038106014 0.7695448921387927 a23.307696974317324,23.307696974317324 0 0,0 -0.1305332797036423,-0.37939081209260306 l 2.188531148752885 -0.7319813769568928" fill="#4dd2ff" stroke="none"><title>2018-09-12 1.5 km</title></path><path d="M 79.67330655649465 155.2749913415812 l -7.822566213222058 2.0300384397678055 a29.081682883359022,29.081682883359022 0 0,0 -0.12157346278180862,-0.48562555098416166 l 7.856350990298925 -1.895085049386252" fill="#4dd2ff" stroke="none"><title>2018-09-17 5.1 km</title></path><path d="M 79.18660465613746 152.79330883721812 l -22.856085635120657 3.0674527117759807 a44.06100424307126,44.06100424307126 0 0,0 -0.09441327104792513,-0.7525666642979437 l 22.90550041541543 -2.6735682931906286" fill="#4dd2ff" stroke="none"><title>2018-09-24 14.6 km</title></path><path d="M 79.1416061653843 152.43462659150552 l -7.978250453195115 0.9312347279014624 a29.03241423311558,29.03241423311558 0 0,0 -0.05366530963798336,-0.49687411714030205 l 7.99309806433415 -0.7937642888763783" fill="#4dd2ff" stroke="none"><title>2018-09-25 5.1 km</title></path><path d="M 79.10278846688536 152.07522291339032 l -15.855136673576347 1.5745135597541933 a36.93312436051497,36.93312436051497 0 0,0 -0.05737895681003736,-0.6331720070874154 l 15.87989022666346 -1.3013601641182118" fill="#4dd2ff" stroke="none"><title>2018-09-26 10.1 km</title></path><line stroke="#FFFFFF" stroke-width="0.3" x1="15.007084014347285" x2="10.007500721073583" y1="151.09737516637583" y2="151.16192664675089" /><path d="M 14.007167355692545 151.11028546245083 a86.0,86.0 0 0,1 10.666146001902534,-42.60595125391555" fill="none" id="id10" stroke="none" /><text fill="#FFFFFF" style="font-size:6.75px; font-family:Arial;" text-anchor="middle"><textPath startOffset="22.20632615414155" xlink:href="#id10">October</textPath></text><path d="M 79.01574976396665 149.18683210126434 l -62.95275070810006 -2.4395036962069616 a84.0,84.0 0 0,0 0.06842556706600478,-1.4443555735079636 l 62.90143153280056 3.522770376337934" fill="#4dd2ff" stroke="none"><title>2018-10-04 40.0 km</title></path><path d="M 80.02781315780177 143.5106431181261 l -7.6348998905728385 -2.4807293532135746 a29.02780882077822,29.02780882077822 0 0,0 0.1584955769174308,-0.4738816012853068 l 7.591067019883635 2.6117840574212035" fill="#4dd2ff" stroke="none"><title>2018-10-20 5.1 km</title></path><path d="M 80.95270993114464 141.15688171328213 l -30.395816755126308 -14.111918389193514 a54.511966770610094,54.511966770610094 0 0,0 0.40245875168351486,-0.8476807708235243 l 30.14839980960104 14.633041575657572" fill="#4dd2ff" stroke="none"><title>2018-10-27 21.3 km</title></path><path d="M 81.10775173730289 140.83032412892265 l -10.581704024728273 -5.13601106237953 a32.762273151896935,32.762273151896935 0 0,0 0.25061576832083216,-0.5052260961533204 l 10.491728243454029 5.317396747031812" fill="#4dd2ff" stroke="none"><title>2018-10-28 7.5 km</title></path><line stroke="#FFFFFF" stroke-width="0.3" x1="26.266209847984243" x2="21.928928074336255" y1="107.71137044288967" y2="105.22380399835377" /><path d="M 25.398753493254645 107.2138571539825 a86.0,86.0 0 0,1 29.58750427330803,-30.492523968695096" fill="none" id="id11" stroke="none" /><text fill="#FFFFFF" style="font-size:6.75px; font-family:Arial;" text-anchor="middle"><textPath startOffset="21.46611528233685" xlink:href="#id11">November</textPath></text><path d="M 83.84228863543731 136.58626213691792 l -6.09111430665214 -5.056694525605676 a28.91655436550478,28.91655436550478 0 0,0 0.3212345346664205,-0.3802403664570126 l 6.003169158498596 5.160793841691803" fill="#4dd2ff" stroke="none"><title>2018-11-11 5.0 km</title></path><path d="M 84.07557802195018 136.31012108654704 l -6.038108220699401 -5.190830192872269 a28.96262952648885,28.96262952648885 0 0,0 0.3282543561659493,-0.3752514736007112 l 5.947862000955609 5.293997222675924" fill="#4dd2ff" stroke="none"><title>2018-11-12 5.1 km</title></path><path d="M 84.80347519578584 135.5063588468976 l -5.723324819826878 -5.4586043328940494 a28.90903333261,28.90903333261 0 0,0 0.3465446091245558,-0.35714468183399833 l 5.628515946999204 5.556313210278171" fill="#4dd2ff" stroke="none"><title>2018-11-15 5.0 km</title></path><path d="M 85.31137513191541 134.99185889309783 l -28.89895351114966 -29.527581787422807 a62.31619053412999,62.31619053412999 0 0,0 0.7730672299229281,-0.7436900626854853 l 28.386403037614304 30.020654936870606" fill="#4dd2ff" stroke="none"><title>2018-11-17 26.2 km</title></path><line stroke="#FFFFFF" stroke-width="0.3" x1="56.762969772571076" x2="54.21961505331055" y1="76.8183136494355" y2="72.51350856999053" /><path d="M 56.25429882871897 75.9573526335465 a86.0,86.0 0 0,1 42.265352541879196,-11.944610805530505" fill="none" id="id12" stroke="none" /><text fill="#FFFFFF" style="font-size:6.75px; font-family:Arial;" text-anchor="middle"><textPath startOffset="22.20632615414155" xlink:href="#id12">December</textPath></text><path d="M 89.94658935756843 131.56283822128137 l -3.935407782696426 -7.217227320702901 a29.220450390021703,29.220450390021703 0 0,0 0.4436707309301111,-0.2369935391724261 l 3.81059200523801 7.283899586377077" fill="#4dd2ff" stroke="none"><title>2018-12-03 5.2 km</title></path></g></g></svg>