<?xml version="1.0" encoding="utf-8" ?>
<svg baseProfile="full" height="200mm" version="1.1" viewBox="0,0,200,200" width="200mm" xmlns="http://www.w3.org/2000/svg" xmlns:ev="http://www.w3.org/2001/xml-events" xmlns:xlink="http://www.w3.org/1999/xlink"><defs /><rect fill="#1a1a1a" height="200" width="200" x="0" y="0" /><text alignment-baseline="middle" fill="#e1ed5e" style="dominant-baseline: central; font-size:9.0px; font-family:Arial;" text-anchor="middle" x="100.0" y="100.0">2021</text><line stroke="#e1ed5e" stroke-width="0.3" x1="100.0" x2="100.0" y1="15.0" y2="10.0" /><path d="M 100.0 14.0 a86.0,86.0 0 0,1 42.46469731375804,11.215312516191453" fill="none" id="id61" stroke="none" /><text fill="#e1ed5e" style="font-size:6.75px; font-family:Arial;" text-anchor="middle"><textPath startOffset="22.20632615414155" xlink:href="#id61">January</textPath></text><line stroke="#e1ed5e" stroke-width="0.3" x1="143.23703022742887" x2="145.7803849466894" y1="26.81831364943548" y2="22.513508569990506" /><path d="M 143.74570117128098 25.957352633546492 a86.0,86.0 0 0,1 28.547481713284135,27.462654790039103" fill="none" id="id62" stroke="none" /><text fill="#e1ed5e" style="font-size:6.75px; font-family:Arial;" text-anchor="middle"><textPath startOffset="19.985693538727396" xlink:href="#id62">February</textPath></text><path d="M 115.4437574822437 85.77008943001954 l 3.337289017136985 -3.07498510738968 a25.537954538618855,25.537954538618855 0 0,0 0.2950927178311638,0.325848749402852 l -3.3897253755841845 3.017083570717279" fill="#ff1f03" stroke="none" /><line stroke="#e1ed5e" stroke-width="0.3" x1="172.23445277983987" x2="176.4835382374775" y1="55.19839476539836" y2="52.563006222186495" /><path d="M 173.08426987136738 54.67131705675599 a86.0,86.0 0 0,1 12.851231095245387,41.99856678651699" fill="none" id="id63" stroke="none" /><text fill="#e1ed5e" style="font-size:6.75px; font-family:Arial;" text-anchor="middle"><textPath startOffset="22.20632615414155" xlink:href="#id63">March</textPath></text><path d="M 120.28053869075195 94.5502522615342 l 23.489397544802046 -6.312026179367854 a45.3226945774266,45.3226945774266 0 0,0 0.1959746151024894,0.7551701350666334 l -23.594568491774837 5.90675961875237" fill="#d7ff1c" stroke="none" /><path d="M 120.45610955862082 95.25157060432595 l 14.206598180503015 -3.2977447749540794 a35.584325574499786,35.584325574499786 0 0,0 0.1333660074980989,0.5978536611678594 l -14.26125857500315 3.0527129442362564" fill="#ffab0f" stroke="none" /><path d="M 120.6074358757038 95.95851677861258 l 23.810276894834043 -4.669617081303868 a45.26385397035419,45.26385397035419 0 0,0 0.1433663085660929,0.7658685530571459 l -23.88712892731 4.25907045078416" fill="#d8ff1c" stroke="none" /><path d="M 120.67395015179393 96.31383870115 l 2.433819046459245 -0.43394946353218244 a23.472202922053054,23.472202922053054 0 0,0 0.06749726859439836,0.39837270004543934 l -2.440928176573866 0.3919909751709052" fill="#ff0000" stroke="none" /><path d="M 120.73433829027371 96.67025291283417 l 21.08877534779205 -3.386666471007895 a42.35897833360694,42.35897833360694 0 0,0 0.10941547307288392,0.7209112597426516 l -21.143946714304235 3.0231560988731614" fill="#fcff18" stroke="none" /><path d="M 120.83666639777658 97.38593545837742 l 24.266388199076612 -3.044340382165142 a45.45660656327378,45.45660656327378 0 0,0 0.09071763498674036,0.7772132962403356 l -24.31519618706694 2.6261833475999534" fill="#d6ff1c" stroke="none" /><path d="M 120.94382443527127 98.46500227214037 l 24.225969861089684 -1.7755500580563843 a45.290948802364426,45.290948802364426 0 0,0 0.05029324566287684,0.778014250087277 l -24.252943697756976 1.3582767437160723" fill="#d8ff1c" stroke="none" /><path d="M 120.98425023603335 99.18683210126433 l 24.24156383779883 -0.9393931785182369 a45.25975838391476,45.25975838391476 0 0,0 0.023466765626083044,0.7787477059257182 l -24.254142297880556 0.5219753251675197" fill="#d8ff1c" stroke="none" /><line stroke="#e1ed5e" stroke-width="0.3" x1="184.98032266829074" x2="189.97916517819016" y1="98.17113171792111" y2="98.06355123074" /><path d="M 185.9800911702706 98.14961562048488 a86.0,86.0 0 0,1 -9.607161424134198,41.387399972396054" fill="none" id="id64" stroke="none" /><text fill="#e1ed5e" style="font-size:6.75px; font-family:Arial;" text-anchor="middle"><textPath startOffset="21.466115282336823" xlink:href="#id64">April</textPath></text><path d="M 120.9904718944345 100.63252640178507 l 5.991602759879005 0.18055082104355258 a26.994322499763356,26.994322499763356 0 0,0 -0.017993473339212567,0.4643315946836321 l -5.9876071536885895 -0.28365966274119087" fill="#ff3404" stroke="none" /><path d="M 120.76222939487914 103.15116336523771 l 14.654223663627153 2.224127856241236 a35.82204492991835,35.82204492991835 0 0,0 -0.0977741319320963,0.6088396128738609 l -14.613767777333768 -2.476046698808302" fill="#ffaf10" stroke="none" /><line stroke="#e1ed5e" stroke-width="0.3" x1="174.80103733775053" x2="179.2010983576182" y1="140.37084112569926" y2="142.7455964860345" /><path d="M 175.68104954172406 140.8457921977663 a86.0,86.0 0 0,1 -30.038265399797805,32.042727171017184" fill="none" id="id65" stroke="none" /><text fill="#e1ed5e" style="font-size:6.75px; font-family:Arial;" text-anchor="middle"><textPath startOffset="22.206326154141568" xlink:href="#id65">May</textPath></text><line stroke="#e1ed5e" stroke-width="0.3" x1="143.8653032363475" x2="146.44561519142675" y1="172.8068346515853" y2="177.08958963109032" /><path d="M 144.38136562736335 173.6633856474863 a86.0,86.0 0 0,1 -40.68145358897372,12.25698825130547" fill="none" id="id66" stroke="none" /><text fill="#e1ed5e" style="font-size:6.75px; font-family:Arial;" text-anchor="middle"><textPath startOffset="21.466115282336833" xlink:href="#id66">June</textPath></text><path d="M 103.7750983002368 120.6578951692458 l 4.150057722641137 22.70972847919263 a44.085812671420214,44.085812671420214 0 0,0 -0.7476765488769925,0.12999315179385607 l -3.758532202292094 -22.777800209507493" fill="#e6ff1a" stroke="none" /><path d="M 103.41894727170886 120.7198165907248 l 1.9880710964154116 12.048290076863234 a33.211212898833736,33.211212898833736 0 0,0 -0.5648501987393156,0.08821798431202761 l -1.7803850340675789 -12.080726368522367" fill="#ff8b0c" stroke="none" /><path d="M 103.06178313531738 120.77559828337769 l 1.5543311189242663 10.546847212539822 a31.66076598335764,31.66076598335764 0 0,0 -0.539848337131664,0.07481806041719766 l -1.3725541906057719 -10.572039838449621" fill="#ff760a" stroke="none" /><path d="M 102.70371172650421 120.8252237178851 l 0.9800696271138372 7.548944306329365 a28.612299036037246,28.612299036037246 0 0,0 -0.48896045178510444,0.0592063012649119 l -0.8499817522773524 -7.564696136319628" fill="#ff4b07" stroke="none" /><path d="M 102.34483914955558 120.86867818915974 l 0.6765436609730624 6.021125988295908 a27.05901555470319,27.05901555470319 0 0,0 -0.4633114267339635,0.04802412374710689 l -0.5727996376334962 -6.031879480498773" fill="#ff3505" stroke="none" /><path d="M 101.98527174616119 120.90594882070398 l 0.2436161155258125 2.5654049894828983 a23.57694617169386,23.57694617169386 0 0,0 -0.40435100638273086,0.034889106251004325 l -0.19942079140153993 -2.5692183480125657" fill="#ff0200" stroke="none" /><path d="M 101.26447882468166 120.96189622390904 l 1.2301124021355492 20.392186894707727 a41.429255073804754,41.429255073804754 0 0,0 -0.7122121618278526,0.0368132335892964 l -0.8789121718942169 -20.410339935059227" fill="#fff717" stroke="none" /><line stroke="#e1ed5e" stroke-width="0.3" x1="102.19456741930631" x2="102.32365962044197" y1="184.97166512339345" y2="189.96999836594603" /><path d="M 102.22038585953345 185.97133177190398 a86.0,86.0 0 0,1 -42.740103519485714,-10.115201625700543" fill="none" id="id67" stroke="none" /><text fill="#e1ed5e" style="font-size:6.75px; font-family:Arial;" text-anchor="middle"><textPath startOffset="22.20632615414155" xlink:href="#id67">July</textPath></text><path d="M 100.18074693466247 120.99922214144158 l 0.05375799003837183 6.245616152779034 a27.24584750449027,27.24584750449027 0 0,0 -0.46900984940165025,0.0 l 0.05375799003836753 -6.245616152779034" fill="#ff3805" stroke="none" /><path d="M 98.73552117531835 120.96189622390904 l -0.15350373750208138 2.5447080272861946 a23.549333705414398,23.549333705414398 0 0,0 -0.40441746157220654,-0.027890995942480984 l 0.197283959853218 -2.5416886868274284" fill="#ff0100" stroke="none" /><path d="M 98.37488393609728 120.93702456842531 l -0.5711221900473104 7.357997124142149 a28.380128876574485,28.380128876574485 0 0,0 -0.4867268894345551,-0.04199684406035468 l 0.6976933972234072 -7.347076027803131" fill="#ff4806" stroke="none" /><path d="M 97.2962882734958 120.8252237178851 l -0.3608468202336711 2.7794071703679495 a23.802733424064,23.802733424064 0 0,0 -0.40586087098851914,-0.05624861850632725 l 0.4086362824090213 -2.772783986369017" fill="#ff0500" stroke="none" /><path d="M 96.93821686468263 120.77559828337769 l -2.434103618775193 16.51650581664975 a37.69490415720796,37.69490415720796 0 0,0 -0.641107994746138,-0.10012788372750854 l 2.7180474771298484 -16.472159625575138" fill="#ffc712" stroke="none" /><path d="M 96.22490169976321 120.6578951692458 l -1.3305318065999387 7.280866455415133 a28.40144115898812,28.40144115898812 0 0,0 -0.4801634002036759,-0.09202445844755629 l 1.4556628213753098 -7.256884798619108" fill="#ff4806" stroke="none" /><path d="M 92.40401165467489 119.57807347666478 l -2.5482125783356064 6.567821174122749 a28.044832313096098,28.044832313096098 0 0,0 -0.44855562380520214,-0.17848953984514307 l 2.6608892781826667 -6.522984789871539" fill="#ff4306" stroke="none" /><path d="M 91.7346041902142 119.30500536409082 l -4.632856698603173 10.820694553031478 a32.77076003492542,32.77076003492542 0 0,0 -0.516653386824576,-0.22648566174043872 l 4.8184307600854925 -10.739344337996586" fill="#ff850c" stroke="none" /><path d="M 90.42595943632237 118.69057910512821 l -1.5652167711428746 3.0556385972195788 a24.43319541789933,24.43319541789933 0 0,0 -0.37267498917624275,-0.1949659406292702 l 1.617582662845613 -3.0282432376455914" fill="#ff0e01" stroke="none" /><line stroke="#e1ed5e" stroke-width="0.3" x1="58.666819895761336" x2="56.23545636021788" y1="174.27360380694188" y2="178.64263932499728" /><path d="M 58.180547188652646 175.14741091055294 a86.0,86.0 0 0,1 -31.652253787137756,-30.449443065178592" fill="none" id="id68" stroke="none" /><text fill="#e1ed5e" style="font-size:6.75px; font-family:Arial;" text-anchor="middle"><textPath startOffset="22.20632615414155" xlink:href="#id68">August</textPath></text><path d="M 89.1626897886671 117.98757091392108 l -11.382101821508023 18.8918061466716 a43.05567005009358,43.05567005009358 0 0,0 -0.6315258064895409,-0.387934730567128 l 11.705606827929874 -18.693082949276093" fill="#f3ff19" stroke="none" /><path d="M 86.79598089348748 116.32954008644616 l -13.225137161544879 16.355656992474305 a42.033586679336196,42.033586679336196 0 0,0 -0.5587061736480378,-0.45977714438968154 l 13.504713463737605 -16.125584729227445" fill="#fffe18" stroke="none" /><path d="M 85.18274418774928 114.88116024355367 l -11.233894260706109 11.282344232357012 a36.92142178444266,36.92142178444266 0 0,0 -0.44650196183038454,-0.45230412999034497 l 11.426436847592026 -11.087299608386003" fill="#ffbd11" stroke="none" /><path d="M 82.85270091963577 112.12312394758628 l -11.975692902613549 8.466803356970988 a35.66642354438613,35.66642354438613 0 0,0 -0.35010686639099364,-0.5043550532402058 l 12.119660676166676 -8.25940704154377" fill="#ffac10" stroke="none" /><path d="M 82.24976979558568 111.22182372390057 l -9.671389227536276 6.1143221145184 a32.44205857835877,32.44205857835877 0 0,0 -0.29435044386385095,-0.47458663873022927 l 9.775204311068082 -5.946939144422906" fill="#ff810b" stroke="none" /><line stroke="#e1ed5e" stroke-width="0.3" x1="26.63291911575756" x2="22.317208475507996" y1="142.92168965132927" y2="145.44649492493687" /><path d="M 25.769776987707644 143.4266507060508 a86.0,86.0 0 0,1 -11.730757126820373,-40.83630448921669" fill="none" id="id69" stroke="none" /><text fill="#e1ed5e" style="font-size:6.75px; font-family:Arial;" text-anchor="middle"><textPath startOffset="21.46611528233685" xlink:href="#id69">September</textPath></text><path d="M 81.87401531095188 110.60418214915194 l -22.360833261641964 13.081680966912408 a46.90631662500542,46.90631662500542 0 0,0 -0.40171463870722796,-0.7004233332137265 l 22.58269989650157 -12.694837787840376" fill="#c5ff1e" stroke="none" /><path d="M 81.02952815118164 109.00673069616217 l -13.201296587704759 6.267662931801424 a35.6136179717147,35.6136179717147 0 0,0 -0.25815698292687167,-0.5560471745011129 l 13.307228187471457 -6.039495690021484" fill="#ffac0f" stroke="none" /><path d="M 80.73074385275274 108.34839909993369 l -9.0269551257431 3.9109254384820273 a30.83774652181817,30.83774652181817 0 0,0 -0.20683173046849757,-0.4888891137220512 l 9.092937837403904 -3.7549617990938176" fill="#ff6b09" stroke="none" /><path d="M 80.32549172779594 107.34259656027581 l -13.730622012653694 5.124317038357374 a35.655668049050846,35.655668049050846 0 0,0 -0.20964809341471247,-0.5768615128039822 l 13.81679436707363 -4.887207728547274" fill="#ffac0f" stroke="none" /><path d="M 80.0844068197444 106.66101706037122 l -23.488332138505594 7.855963901158754 a45.76727509164188,45.76727509164188 0 0,0 -0.2434552036955903,-0.7492780724535694 l 23.620079593217433 -7.450486928727382" fill="#d2ff1c" stroke="none" /><path d="M 79.76711848015287 105.62410040840567 l -27.197251671179814 7.559974790607582 a49.22842038265895,49.22842038265895 0 0,0 -0.21991489594061975,-0.8183851381443974 l 27.32335464346221 -7.090698719287645" fill="#aaff21" stroke="none" /><path d="M 79.58551787078972 104.9243191809786 l -43.84841989553022 10.57698225115427 a66.10605813941142,66.10605813941142 0 0,0 -0.2573081800417765,-1.1084769052392454 l 44.02398864150255 -9.82063668856645" fill="#36ff71" stroke="none" /><path d="M 79.50377843672027 104.57218783832718 l -5.382586926442206 1.2007187962833419 a26.51488600502809,26.51488600502809 0 0,0 -0.09553687322296776,-0.44631646583491386 l 5.402457838389615 -1.1078885110322643" fill="#ff2d04" stroke="none" /><path d="M 79.29508885075956 103.50808413554451 l -16.194981864870435 2.743955699499209 a37.42579466827394,37.42579466827394 0 0,0 -0.10215147104857239,-0.6360973077306643 l 16.2398150902803 -2.464779162075331" fill="#ffc412" stroke="none" /><path d="M 79.23777060512086 103.15116336523772 l -24.16362583100736 3.6674063773114165 a45.440349482715476,45.440349482715476 0 0,0 -0.11071421921050151,-0.7743349912944189 l 24.22317410123446 -3.250925914036597" fill="#d6ff1c" stroke="none" /><path d="M 79.07016306316243 101.71520430193888 l -7.35473588785733 0.6027220695768702 a28.379391158713,28.379391158713 0 0,0 -0.03570862749638729,-0.4872158515515409 l 7.364021074018052 -0.4760330815285687" fill="#ff4806" stroke="none" /><path d="M 79.04373962182676 101.35467743843564 l -27.35568648820524 1.76835612030703 a48.41278290522876,48.41278290522876 0 0,0 -0.046599952676400054,-0.8320734591147277 l 27.382072791769172 -1.2972109448568647" fill="#b3ff20" stroke="none" /><path d="M 79.0095281055655 100.63252640178507 l -14.791493154468908 0.44572651768279137 a35.79820738695286,35.79820738695286 0 0,0 -0.013258867287848686,-0.616087463147705 l 14.796974084441764 -0.19104923874495752" fill="#ffae10" stroke="none" /><line stroke="#e1ed5e" stroke-width="0.3" x1="15.007084014347285" x2="10.007500721073583" y1="101.09737516637583" y2="101.16192664675087" /><path d="M 14.007167355692545 101.11028546245083 a86.0,86.0 0 0,1 10.666146001902534,-42.60595125391555" fill="none" id="id70" stroke="none" /><text fill="#e1ed5e" style="font-size:6.75px; font-family:Arial;" text-anchor="middle"><textPath startOffset="22.20632615414155" xlink:href="#id70">October</textPath></text><path d="M 80.65960295795068 91.81776055985345 l -5.2311657919712555 -2.213121631782034 a26.68005307194852,26.68005307194852 0 0,0 0.1825795946823489,-0.42141887744953593 l 5.192295487446226 2.302839653818169" fill="#ff2f04" stroke="none" /><path d="M 80.95270993114464 91.15688171328213 l -22.46209494855029 -10.428515651279474 a45.76488740468386,45.76488740468386 0 0,0 0.33787956199290775,-0.7116605275884094 l 22.27925719271563 10.813618594508416" fill="#d2ff1c" stroke="none" /><path d="M 81.26839172434947 90.50648371742162 l -21.740624964951582 -11.018540109366558 a45.37340764046742,45.37340764046742 0 0,0 0.3590777302488807,-0.6936238826948262 l 21.54773780154259 11.39113671432172" fill="#d7ff1c" stroke="none" /><line stroke="#e1ed5e" stroke-width="0.3" x1="26.266209847984243" x2="21.928928074336255" y1="57.711370442889674" y2="55.22380399835377" /><path d="M 25.398753493254645 57.213857153982495 a86.0,86.0 0 0,1 29.58750427330803,-30.492523968695096" fill="none" id="id71" stroke="none" /><text fill="#e1ed5e" style="font-size:6.75px; font-family:Arial;" text-anchor="middle"><textPath startOffset="21.46611528233685" xlink:href="#id71">November</textPath></text><path d="M 81.78341655067845 89.55222093294921 l -5.525586902126693 -3.169096517456975 a27.36987310312474,27.36987310312474 0 0,0 0.23790978790239461,-0.40666494711601864 l 5.470217439753974 3.2637408769268856" fill="#ff3905" stroke="none" /><path d="M 83.17141714833178 87.43820079747576 l -5.941090734591817 -4.434763729645925 a28.413749958990778,28.413749958990778 0 0,0 0.2959414640232154,-0.3894242767860668 l 5.863873330344492 4.536372782313018" fill="#ff4806" stroke="none" /><path d="M 83.6137871275137 86.86637796730984 l -19.09809106187198 -15.307204386053272 a45.47544868483442,45.47544868483442 0 0,0 0.49481945704701413,-0.6065901462284494 l 18.83177311274857 15.633678701889805" fill="#d6ff1c" stroke="none" /><path d="M 84.07557802195018 86.31012108654704 l -6.379340384815047 -5.484180056029487 a29.412622339810802,29.412622339810802 0 0,0 0.3333544490660503,-0.38108176142572914 l 6.283994072171153 5.593177373658159" fill="#ff5708" stroke="none" /><path d="M 84.5562425177563 85.77008943001954 l -17.934275225289536 -16.524678847534574 a45.386538066535614,45.386538066535614 0 0,0 0.5343350167942593,-0.5699913404844767 l 17.64717288652482 16.8309396048971" fill="#d7ff1c" stroke="none" /><path d="M 85.05521093208273 85.24692304244772 l -20.68250698794886 -20.41719129535 a50.06248089371362,50.06248089371362 0 0,0 0.6106769218941581,-0.6080544811190579 l 20.327994265887387 20.770181627119168" fill="#a0ff22" stroke="none" /><path d="M 86.93701828274178 83.55741782278169 l -15.182312667914672 -19.110217642929186 a45.40702842024084,45.40702842024084 0 0,0 0.6161678507961607,-0.4809287810389008 l 14.851112261959086 19.368724813191307" fill="#d6ff1c" stroke="none" /><path d="M 87.51073957382395 83.11751280151077 l -14.486181996955485 -19.58184662448154 a45.357713071502346,45.357713071502346 0 0,0 0.6316702679639123,-0.45893531335232596 l 14.146966412637791 19.82830117265053" fill="#d7ff1c" stroke="none" /><path d="M 87.80319425747018 82.90503203632743 l -4.101580936314413 -5.748750630848506 a28.061947322999437,28.061947322999437 0 0,0 0.39563184595160944,-0.2771653912547566 l 4.002017950779143 5.818500864867206" fill="#ff4306" stroke="none" /><path d="M 88.09926311788651 82.69761687909137 l -14.193724263959101 -20.6361385484176 a46.046197768739034,46.046197768739034 0 0,0 0.6569154615210614,-0.4435522520264608 l 13.836404108031502 20.877402712742725" fill="#cfff1d" stroke="none" /><line stroke="#e1ed5e" stroke-width="0.3" x1="56.762969772571076" x2="54.21961505331055" y1="26.818313649435495" y2="22.513508569990535" /><path d="M 56.25429882871897 25.957352633546506 a86.0,86.0 0 0,1 42.265352541879196,-11.944610805530505" fill="none" id="id72" stroke="none" /><text fill="#e1ed5e" style="font-size:6.75px; font-family:Arial;" text-anchor="middle"><textPath startOffset="22.20632615414155" xlink:href="#id72">December</textPath></text><path d="M 89.3179101791058 81.91981866633112 l -12.941257277917623 -21.903979670040453 a46.44131414292118,46.44131414292118 0 0,0 0.691761657738585,-0.4007130022876248 l 12.562298887713718 22.123496829718125" fill="#caff1d" stroke="none" /><path d="M 89.94658935756843 81.56283822128135 l -11.887469754515987 -21.800681460140396 a45.83106218612167,45.83106218612167 0 0,0 0.6958791048054367,-0.37171451796751226 l 11.510445603182246 22.002074704609655" fill="#d1ff1c" stroke="none" /><path d="M 90.91171255644093 81.06846463323043 l -11.044926830097328 -23.007351407614028 a46.521140794949645,46.521140794949645 0 0,0 0.7248919477764847,-0.3403464892208924 l 10.647256671021234 23.194062879474927" fill="#c9ff1d" stroke="none" /><path d="M 91.90106846888425 80.62456947434976 l -24.29679459334727 -58.12629157695071 a84.0,84.0 0 0,0 1.338864521646478,-0.5461564552656921 l 23.29264620211241 58.53590891839998" fill="#4dd2ff" stroke="none" /><path d="M 92.57280143429618 80.3572730644239 l -8.74911331036577 -23.13879751074674 a45.7376420452912,45.7376420452912 0 0,0 0.7388103123452582,-0.2721100731134684 l 8.349520672247943 23.285970851666534" fill="#d2ff1c" stroke="none" /><path d="M 93.25333710446033 80.11325718540243 l -7.978535795600822 -23.51786236556619 a45.834389134573016,45.834389134573016 0 0,0 0.7493206248535613,-0.24703922890454075 l 7.5725323485048515 23.651715318729966" fill="#d1ff1c" stroke="none" /><path d="M 93.94186890950719 79.89281104454417 l -7.213644136727687 -23.942384796232695 a46.005488426787835,46.005488426787835 0 0,0 0.7602073582146337,-0.22192537412119376 l 6.8004465607896325 24.063008499272588" fill="#cfff1d" stroke="none" /><path d="M 94.63758080256005 79.69619591428918 l -6.316853923466079 -23.917593865347055 a45.737702799534475,45.737702799534475 0 0,0 0.7629290829830545,-0.19448761057702033 l 5.904215951798025 24.022784472092937" fill="#d2ff1c" stroke="none" /><path d="M 95.692805502759 79.44645832069477 l -5.164447234590767 -24.644274029122055 a46.1795901011381,46.1795901011381 0 0,0 0.7794094251848697,-0.15634219838890107 l 4.73947139993876 24.729520183588168" fill="#cdff1d" stroke="none" /><path d="M 98.19473922651362 79.07773832637324 l -2.1523154129505757 -24.944488317311635 a46.03717154650903,46.03717154650903 0 0,0 0.7901070609224312,-0.06132751445706565 l 1.7226181626658104 24.977841093957164" fill="#cfff1d" stroke="none" /><path d="M 98.91598698831166 79.02799685794201 l -1.270254395590011 -24.57514705846154 a45.60795398188412,45.60795398188412 0 0,0 0.7843681284058706,-0.033776541571348025 l 0.8470454347948164 24.59337132655708" fill="#d4ff1c" stroke="none" /><path d="M 99.63851952072746 79.00311137660856 l -0.5118866026265266 -29.733351036784082 a50.73775700638126,50.73775700638126 0 0,0 0.873367081899055,-0.007517346205733262 l 7.283649786337316e-15 29.73775700638126" fill="#98ff23" stroke="none" /></svg>