<?xml version="1.0" encoding="utf-8" ?>
<svg baseProfile="full" height="200mm" version="1.1" viewBox="0,0,200,200" width="200mm" xmlns="http://www.w3.org/2000/svg" xmlns:ev="http://www.w3.org/2001/xml-events" xmlns:xlink="http://www.w3.org/1999/xlink"><defs /><rect fill="#1a1a1a" height="200" width="200" x="0" y="0" /><text alignment-baseline="middle" fill="#e1ed5e" style="dominant-baseline: central; font-size:9.0px; font-family:Arial;" text-anchor="middle" x="100.0" y="100.0">2017</text><line stroke="#e1ed5e" stroke-width="0.3" x1="100.0" x2="100.0" y1="15.0" y2="10.0" /><path d="M 100.0 14.0 a86.0,86.0 0 0,1 42.46469731375804,11.215312516191453" fill="none" id="id13" stroke="none" /><text fill="#e1ed5e" style="font-size:6.75px; font-family:Arial;" text-anchor="middle"><textPath startOffset="22.20632615414155" xlink:href="#id13">January</textPath></text><path d="M 102.16513564639614 79.11191278185805 l 0.6733252113959921 -6.495886650438583 a27.53068987287313,27.53068987287313 0 0,0 0.4709495465563637,0.05291666890548141 l -0.785041461462081 6.4833340280625" fill="#ff5407" stroke="none" /><path d="M 102.88285421437855 79.19881850522331 l 0.8791220351462362 -6.343288855165461 a27.403918257812634,27.403918257812634 0 0,0 0.4666900584186337,0.06877798322803123 l -0.9881810739935257 6.327216387776461" fill="#ff5207" stroke="none" /><path d="M 103.2404852339499 79.25152402106235 l 0.9449227769139616 -6.050238196843294 a27.123582390469846,27.123582390469846 0 0,0 0.4606756982650717,0.07601543743543519 l -1.0489276813179085 6.033076496468234" fill="#ff4f07" stroke="none" /><path d="M 103.95276090670814 79.375362276772 l 0.9460230474682155 -4.936140356666607 a26.0259766441015,26.0259766441015 0 0,0 0.4392609690044586,0.08811161802964718 l -1.0308504259397995 4.919124782559751" fill="#ff3f05" stroke="none" /><path d="M 104.307194497241 79.44645832069477 l 1.5985162227472585 -7.627974504129516 a28.793667246555763,28.793667246555763 0 0,0 0.4842234803058772,0.10583249770253078 l -1.7295824272066636 7.599328508331115" fill="#ff6509" stroke="none" /><path d="M 109.41281617654863 81.2277094730956 l 1.0707307011347291 -2.1353936399879028 a23.388801003025,23.388801003025 0 0,0 0.3583381633617566,0.1835547252036669 l -1.1073293520852412 2.116646389471735" fill="#ff1a02" stroke="none" /><line stroke="#e1ed5e" stroke-width="0.3" x1="143.23703022742887" x2="145.7803849466894" y1="26.81831364943548" y2="22.513508569990506" /><path d="M 143.74570117128098 25.957352633546492 a86.0,86.0 0 0,1 28.547481713284135,27.462654790039103" fill="none" id="id14" stroke="none" /><text fill="#e1ed5e" style="font-size:6.75px; font-family:Arial;" text-anchor="middle"><textPath startOffset="19.985693538727396" xlink:href="#id14">February</textPath></text><path d="M 111.60114157652 82.49532879139004 l 5.945622481575058 -8.971200461955808 a31.762567742969466,31.762567742969466 0 0,0 0.45313886616132637,0.30596138520044 l -6.099166042142927 8.867527164456698" fill="#ff8d0d" stroke="none" /><path d="M 114.68862486808459 84.99185889309783 l 25.26235658703696 -25.81187931178821 a57.117028863638964,57.117028863638964 0 0,0 0.6967303807463818,0.693738399071271 l -25.702922767950668 25.373205062066823" fill="#4bff2c" stroke="none" /><path d="M 114.94478906791727 85.2469230424477 l 27.71873781177017 -27.363161182458246 a59.94959583583438,59.94959583583438 0 0,0 0.7186407451635617,0.7406224581959623 l -28.18564282063684 26.881974528712167" fill="#2fff2f" stroke="none" /><path d="M 115.19652480421416 85.50635884689758 l 32.94253988397219 -31.418851211143544 a66.52312758845854,66.52312758845854 0 0,0 0.7831757611711992,0.8354372966666538 l -33.478482967113855 30.847144497598837" fill="#37ff7c" stroke="none" /><path d="M 115.4437574822437 85.77008943001954 l 33.624051659450814 -30.98127179635534 a66.72106792406603,66.72106792406603 0 0,0 0.7709662588887649,0.8513201990786947 l -34.15236155895561 30.397898810007096" fill="#38ff7e" stroke="none" /><path d="M 115.68641384162765 86.03803664274999 l 32.45916418771126 -28.890839268381956 a64.45432007748227,64.45432007748227 0 0,0 0.7305072669523065,0.8350960870761399 l -32.951663318241415 28.32782762510287" fill="#35ff64" stroke="none" /><path d="M 115.9244219780498 86.31012108654704 l 47.773265934149435 -41.069636740358895 a84.0,84.0 0 0,0 0.9331575460515311,1.1045642014835737 l -48.47313409368808 40.241213589246215" fill="#4dd2ff" stroke="none" /><path d="M 116.15771136456269 86.58626213691792 l 22.438703609538962 -18.628064421665407 a50.163336636510806,50.163336636510806 0 0,0 0.5458284792343545,0.6691211760554572 l -22.756030580849725 18.239059076001848" fill="#93ff23" stroke="none" /><path d="M 116.38621287248628 86.86637796730983 l 29.44775233289799 -23.60250363291356 a58.73921428966688,58.73921428966688 0 0,0 0.6255612183333674,0.7943992205470367 l -29.849667631825323 23.092112018413484" fill="#3bff2e" stroke="none" /><line stroke="#e1ed5e" stroke-width="0.3" x1="172.23445277983987" x2="176.4835382374775" y1="55.19839476539836" y2="52.563006222186495" /><path d="M 173.08426987136738 54.67131705675599 a86.0,86.0 0 0,1 12.851231095245387,41.99856678651699" fill="none" id="id15" stroke="none" /><text fill="#e1ed5e" style="font-size:6.75px; font-family:Arial;" text-anchor="middle"><textPath startOffset="22.20632615414155" xlink:href="#id15">March</textPath></text><path d="M 118.03404312379186 89.2402003453031 l 5.451290257022296 -3.252448196033161 a27.34783307390684,27.34783307390684 0 0,0 0.2377182072305764,0.40633747364609474 l -5.5064681387232 3.158131310033171" fill="#ff5207" stroke="none" /><path d="M 118.73160827565052 90.50648371742162 l 4.734504829931865 -2.399532278887743 a26.307851838745346,26.307851838745346 0 0,0 0.20124252279046242,0.40569264596037863 l -4.775107365675735 2.3176800444284145" fill="#ff4306" stroke="none" /><path d="M 118.89224826269711 90.83032412892265 l 4.824950354838816 -2.3418721918486614 a26.36325566140691,26.36325566140691 0 0,0 0.1946384178074321,0.4099581468876138 l -4.864546966488005 2.2584716293205074" fill="#ff4406" stroke="none" /><path d="M 119.04729006885535 91.15688171328212 l 5.050962940705585 -2.3450192959219263 a26.568782822720543,26.568782822720543 0 0,0 0.18901498070564166,0.4164694550997456 l -5.0905802383745735 2.257727831980118" fill="#ff4706" stroke="none" /><line stroke="#e1ed5e" stroke-width="0.3" x1="184.98032266829074" x2="189.97916517819016" y1="98.17113171792111" y2="98.06355123074" /><path d="M 185.9800911702706 98.14961562048488 a86.0,86.0 0 0,1 -9.607161424134198,41.387399972396054" fill="none" id="id16" stroke="none" /><text fill="#e1ed5e" style="font-size:6.75px; font-family:Arial;" text-anchor="middle"><textPath startOffset="21.466115282336823" xlink:href="#id16">April</textPath></text><path d="M 120.99824983174949 100.27111621757518 l 14.118829296118529 0.18229345902750643 a35.12000607642005,35.12000607642005 0 0,0 -0.013007676464978685,0.6044156126443455 l -14.113599556968543 -0.42529888746196676" fill="#ffb911" stroke="none" /><path d="M 120.89721153311464 102.0752229133903 l 9.139810708592536 0.9076399775379164 a30.18476728707526,30.18476728707526 0 0,0 -0.055795390276695216,0.516596018382213 l -9.12283301681479 -1.0648323178049208" fill="#ff780b" stroke="none" /><path d="M 120.8583938346157 102.4346265915055 l 3.4097517701408706 0.3979919257369267 a24.432900334546662,24.432900334546662 0 0,0 -0.052354459036989494,0.4173165505365456 l -3.4023958018570326 -0.4566262305608672" fill="#ff2904" stroke="none" /><path d="M 120.81339534386255 102.79330883721812 l 5.184455167034991 0.6957915416962634 a26.23093693791962,26.23093693791962 0 0,0 -0.06391098957868298,0.44699331225861294 l -5.171710126439707 -0.7849303259352857" fill="#ff4206" stroke="none" /><path d="M 120.64145759157962 103.86396538481128 l 6.644121687936178 1.2437424101838654 a27.75953017501911,27.75953017501911 0 0,0 -0.0919634464209597,0.468919632030057 l -6.621728308539554 -1.3579257692818674" fill="#ff5708" stroke="none" /><path d="M 120.23288151984713 105.62410040840565 l 1.317853690785604 0.3663215975092716 a22.367819382491337,22.367819382491337 0 0,0 -0.10630824148449794,0.37007293493858723 l -1.3113528124150067 -0.3889520079524409" fill="#ff0b01" stroke="none" /><path d="M 120.13307415673323 105.97154293290107 l 9.997566553169953 2.965314558125942 a31.42805961882153,31.42805961882153 0 0,0 -0.1582974904644016,0.5173253578691657 l -9.945042290199419 -3.136966888547165" fill="#ff890c" stroke="none" /><path d="M 119.9155931802556 106.66101706037122 l 14.672414701697692 4.907371011260812 a36.47132972374248,36.47132972374248 0 0,0 -0.20425537062880006,0.5936617168669402 l -14.585768500125662 -5.159205431217053" fill="#ffca12" stroke="none" /><path d="M 119.67450827220406 107.3425965602758 l 3.596980129465239 1.3424057953867778 a24.839312356562797,24.839312356562797 0 0,0 -0.15294596088891724,0.3992936413164707 l -3.5733398889828147 -1.4041230035363925" fill="#ff2f04" stroke="none" /><path d="M 119.54520255179757 107.68017299344265 l 5.425032646511755 2.131734839271458 a26.828831155616196,26.828831155616196 0 0,0 -0.17259547388826518,0.4283678117388824 l -5.387534558366097 -2.2248020188531537" fill="#ff4a06" stroke="none" /><path d="M 119.26925614724726 108.34839909993367 l 10.293678960162827 4.459733137042031 a32.218246128006356,32.218246128006356 0 0,0 -0.22485100973245137,0.5069796680137012 l -10.215386865699102 -4.63626114154842" fill="#ff930d" stroke="none" /><path d="M 118.81262510543309 109.33194174019688 l 12.900492803139741 6.399247663951029 a35.40045434104226,35.40045434104226 0 0,0 -0.27548520659921777,0.5435584479085785 l -12.788428926754255 -6.620360323562302" fill="#ffbc11" stroke="none" /><path d="M 118.64920377521936 109.65438752849418 l 1.5434193240867802 0.7990029200871374 a22.73797263392502,22.73797263392502 0 0,0 -0.18292968783584065,0.34603403053261034 l -1.5294371280260464 -0.825451965705882" fill="#ff1101" stroke="none" /><line stroke="#e1ed5e" stroke-width="0.3" x1="174.80103733775053" x2="179.2010983576182" y1="140.37084112569926" y2="142.7455964860345" /><path d="M 175.68104954172406 140.8457921977663 a86.0,86.0 0 0,1 -30.038265399797805,32.042727171017184" fill="none" id="id17" stroke="none" /><text fill="#e1ed5e" style="font-size:6.75px; font-family:Arial;" text-anchor="middle"><textPath startOffset="22.206326154141568" xlink:href="#id17">May</textPath></text><path d="M 118.30583269289576 110.29060199501025 l 1.896493630427855 1.066111630331846 a23.175610741511967,23.175610741511967 0 0,0 -0.19848034903859038,0.34606721850719097 l -1.8778612852368852 -1.098598694697352" fill="#ff1702" stroke="none" /><path d="M 116.71984013943494 112.70617746262583 l 8.699666872485787 6.611277992234872 a31.92671956182805,31.92671956182805 0 0,0 -0.33628441503175727,0.4346929380238824 l -8.584575640235961 -6.760048924372008" fill="#ff8f0d" stroke="none" /><path d="M 116.498646956653 112.99209946851258 l 8.859277931890782 6.9763672386425375 a32.27636933249758,32.27636933249758 0 0,0 -0.3474813795228444,0.4335364486593389 l -8.737878640313085 -7.127831520880127" fill="#ff940d" stroke="none" /><path d="M 116.27256486870786 113.27417163493432 l 1.810948445745384 1.4772619242752856 a23.33705735189814,23.33705735189814 0 0,0 -0.256600947298432,0.30909237116765664 l -1.7852514985534085 -1.5082155525567127" fill="#ff1902" stroke="none" /><path d="M 115.80600337817218 113.82643327865902 l 4.4055500612547185 3.8537916587978485 a26.85325392338666,26.85325392338666 0 0,0 -0.3073305685062868,0.3452891517058008 l -4.338560643100093 -3.9290549802445156" fill="#ff4b07" stroke="none" /><path d="M 115.56566222782051 114.09645910891815 l 7.796299862967273 7.060427022678013 a31.51817100525873,31.51817100525873 0 0,0 -0.36764234291158154,0.3990031529859517 l -7.6736111120599695 -7.193581430465299" fill="#ff8a0c" stroke="none" /><path d="M 115.07121518719521 114.62390073753431 l 11.776853470165252 11.427315847398136 a37.40968692979668,37.40968692979668 0 0,0 -0.45240670045520304,0.4582855990427371 l -11.578406144654513 -11.628341940421537" fill="#ffd614" stroke="none" /><path d="M 114.81725581225074 114.88116024355365 l 1.0954875950383616 1.1002122561124075 a22.55259784856958,22.55259784856958 0 0,0 -0.2774507013441672,0.27154390689711627 l -1.0763869413184 -1.1189062659320959" fill="#ff0e01" stroke="none" /><path d="M 114.29624159901734 115.38237550388516 l 2.0485856060936682 2.2042235944692607 a24.009203323125433,24.009203323125433 0 0,0 -0.3051460563754212,0.2787436875557824 l -2.010340000251383 -2.2391600486116263" fill="#ff2303" stroke="none" /><path d="M 114.0293411484842 115.62618273729858 l 12.130975017823976 13.511741599540642 a39.158406205827276,39.158406205827276 0 0,0 -0.5054374023847436,0.44598974140544173 l -11.896595262532646 -13.718554482718373" fill="#ffeb16" stroke="none" /><path d="M 113.48314897796784 116.09983520530334 l 6.7846008043968 8.101294071811116 a31.567013471789636,31.567013471789636 0 0,0 -0.4195855434575545,0.34529033702720413 l -6.644145132394555 -8.216879527695498" fill="#ff8b0c" stroke="none" /><path d="M 111.1453310114006 117.79835938074945 l 8.646593636816815 13.808040408126699 a37.29188636814966,37.29188636814966 0 0,0 -0.5469846035786138,0.33600261878950016 l -8.407629833305894 -13.954831493744576" fill="#ffd413" stroke="none" /><line stroke="#e1ed5e" stroke-width="0.3" x1="143.8653032363475" x2="146.44561519142675" y1="172.8068346515853" y2="177.08958963109032" /><path d="M 144.38136562736335 173.6633856474863 a86.0,86.0 0 0,1 -40.68145358897372,12.25698825130547" fill="none" id="id18" stroke="none" /><text fill="#e1ed5e" style="font-size:6.75px; font-family:Arial;" text-anchor="middle"><textPath startOffset="21.466115282336833" xlink:href="#id18">June</textPath></text><path d="M 106.57524785965236 119.94407469862006 l 1.7202078785047268 5.217743141909009 a26.49399295960672,26.49399295960672 0 0,0 -0.43434839330016656,0.1390646392645345 l -1.6301381401136197 -5.246580627833249" fill="#ff4606" stroke="none" /><path d="M 105.18746579009965 120.34920634021253 l 2.6181242737012247 10.270284802946488 a31.598741653902938,31.598741653902938 0 0,0 -0.5282206887547857,0.12982379375041875 l -2.440950300203228 -10.313829855010937" fill="#ff8b0c" stroke="none" /><path d="M 104.83641907484287 120.43548508189849 l 1.2064428788826516 5.0976238973604895 a26.238441926655998,26.238441926655998 0 0,0 -0.44040581383198907,0.10023492938993236 l -1.1185169156578003 -5.117635560328106" fill="#ff4206" stroke="none" /><line stroke="#e1ed5e" stroke-width="0.3" x1="102.19456741930631" x2="102.32365962044197" y1="184.97166512339345" y2="189.96999836594603" /><path d="M 102.22038585953345 185.97133177190398 a86.0,86.0 0 0,1 -42.740103519485714,-10.115201625700543" fill="none" id="id19" stroke="none" /><text fill="#e1ed5e" style="font-size:6.75px; font-family:Arial;" text-anchor="middle"><textPath startOffset="22.20632615414155" xlink:href="#id19">July</textPath></text><path d="M 99.45781275523022 120.99299961872073 l -0.28380669322211005 10.988738411085222 a31.9924027449133,31.9924027449133 0 0,0 -0.5503906672745458,-0.01895656743754984 l 0.47291771217129885 -10.982225045221579" fill="#ff900d" stroke="none" /><path d="M 99.09653310690486 120.98055641714683 l -0.4711149255720972 10.940360239502967 a31.950499141280922,31.950499141280922 0 0,0 -0.5492624481022376,-0.028390594667638307 l 0.6593654420878238 -10.930629838073125" fill="#ff900d" stroke="none" /><path d="M 98.01472825383883 120.90594882070398 l -0.5504555369827172 5.7965844255255625 a26.822661960000808,26.822661960000808 0 0,0 -0.4592645196706389,-0.047604645283184414 l 0.6501526532589494 -5.786250411786617" fill="#ff4a06" stroke="none" /><path d="M 97.2962882734958 120.8252237178851 l -0.8062778529421538 6.210320612843768 a27.262440905146907,27.262440905146907 0 0,0 -0.46485241059960564,-0.06442430836429032 l 0.9130588547285904 -6.195521738986873" fill="#ff5007" stroke="none" /><path d="M 94.11515582081647 120.15858648285463 l -1.5254526710973613 5.225451797788153 a26.44356063094419,26.44356063094419 0 0,0 -0.43584657615602224,-0.13131699809182767 l 1.6151742216936293 -5.1984194305906" fill="#ff4506" stroke="none" /><path d="M 93.08242187328487 119.8279376855182 l -4.059998444098679 11.637222547874025 a33.32511809253085,33.32511809253085 0 0,0 -0.5399945631710783,-0.19362283826683238 l 4.259712567899484 -11.565612168567235" fill="#ffa20e" stroke="none" /><path d="M 92.7421414339146 119.70592522655815 l -12.425092945774397 33.73556405006204 a56.95095571034198,56.95095571034198 0 0,0 -0.9169911467537541,-0.3467275878888977 l 13.003954313288434 -33.516688212066505" fill="#4dff2c" stroke="none" /><path d="M 92.40401165467489 119.57807347666478 l -11.264873505160233 29.034341702892895 a52.1430630029804,52.1430630029804 0 0,0 -0.8339883758725074,-0.331861186318172 l 11.7629829570746 -28.836133672168657" fill="#7eff26" stroke="none" /><path d="M 92.06813273071674 119.44442032107085 l -18.005939482807502 44.14030690293073 a68.67159059800125,68.67159059800125 0 0,0 -1.0906635898161499,-0.45589746899858846 l 18.763074532121117 -43.82382439091217" fill="#3aff93" stroke="none" /><path d="M 91.7346041902142 119.30500536409082 l -11.528707731191547 26.92693365370194 a50.2911395808033,50.2911395808033 0 0,0 -0.7928741220526486,-0.347572714685283 l 11.990502527901938 -26.724496385722205" fill="#92ff23" stroke="none" /><path d="M 91.40352486487194 119.15986991738527 l -15.973980773640484 35.602894078656114 a60.022226083767215,60.022226083767215 0 0,0 -0.939010582561958,-0.43105370289349865 l 16.584459351969862 -35.322653305428545" fill="#2fff30" stroke="none" /><path d="M 91.07499286063937 119.00905698771935 l -21.85804447027057 46.55467569802332 a72.43065173038786,72.43065173038786 0 0,0 -1.1240110403533214,-0.5395936054080359 l 22.656168178624135 -46.17152781611572" fill="#3fffbc" stroke="none" /><path d="M 90.7491055286396 118.85261126421891 l -15.393222395125893 31.370203045490094 a55.943396154653904,55.943396154653904 0 0,0 -0.8608518980157949,-0.4316490126573723 l 15.930928200824448 -31.10058619192342" fill="#57ff2a" stroke="none" /><path d="M 90.42595943632237 118.69057910512821 l -23.533521056466085 45.94247684690406 a72.61916109492141,72.61916109492141 0 0,0 -1.107646569028443,-0.5794683343058665 l 24.320858528021024 -45.53057909365347" fill="#3fffbe" stroke="none" /><line stroke="#e1ed5e" stroke-width="0.3" x1="58.666819895761336" x2="56.23545636021788" y1="174.27360380694188" y2="178.64263932499728" /><path d="M 58.180547188652646 175.14741091055294 a86.0,86.0 0 0,1 -31.652253787137756,-30.449443065178592" fill="none" id="id20" stroke="none" /><text fill="#e1ed5e" style="font-size:6.75px; font-family:Arial;" text-anchor="middle"><textPath startOffset="22.20632615414155" xlink:href="#id20">August</textPath></text><path d="M 85.44109423537348 115.13401014063109 l -1.171090415163641 1.217350706516993 a22.68919966349321,22.68919966349321 0 0,0 -0.27913122921993255,-0.2731886571277869 l 1.1918715967593678 -1.1970119464666364" fill="#ff1001" stroke="none" /><path d="M 84.43433777217949 114.09645910891817 l -4.198384876504686 3.80211004639251 a26.664139508887658,26.664139508887658 0 0,0 -0.30516618870015483,-0.3428574480491817 l 4.263209914853179 -3.729278428602464" fill="#ff4806" stroke="none" /><path d="M 83.72743513129214 113.27417163493432 l -8.164459846150821 6.660071241304033 a31.536363391543315,31.536363391543315 0 0,0 -0.3395146134169886,-0.4235966829959946 l 8.277892371622672 -6.518546724729779" fill="#ff8a0c" stroke="none" /><path d="M 83.50135304334701 112.99209946851258 l -9.935515218076972 7.823865940238475 a33.64623821139958,33.64623821139958 0 0,0 -0.3543961199342151,-0.4581047580926996 l 10.068718155229256 -7.651683188032523" fill="#ffa60f" stroke="none" /><path d="M 83.06392112726016 112.41649034213515 l -4.233224789610762 3.1035397928437916 a26.24901432319821,26.24901432319821 0 0,0 -0.26401534548959904,-0.36669422345038527 l 4.2860199274759685 -3.030211963942268" fill="#ff4206" stroke="none" /><path d="M 82.44556493220864 111.52570212397912 l -12.374893558332456 8.124974481860837 a35.803823861116015,35.803823861116015 0 0,0 -0.3338197421195906,-0.5180956529338194 l 12.512918163829092 -7.910757229005569" fill="#ffc212" stroke="none" /><line stroke="#e1ed5e" stroke-width="0.3" x1="26.63291911575756" x2="22.317208475507996" y1="142.92168965132927" y2="145.44649492493687" /><path d="M 25.769776987707644 143.4266507060508 a86.0,86.0 0 0,1 -11.730757126820373,-40.83630448921669" fill="none" id="id21" stroke="none" /><text fill="#e1ed5e" style="font-size:6.75px; font-family:Arial;" text-anchor="middle"><textPath startOffset="21.46611528233685" xlink:href="#id21">September</textPath></text><path d="M 81.69416730710424 110.29060199501025 l -10.91293508107205 6.134693428083154 a33.519050105349834,33.519050105349834 0 0,0 -0.2784053843404591,-0.5053866408883014 l 11.016916874864025 -5.9459362687970305" fill="#ffa40f" stroke="none" /><path d="M 81.51974371655577 109.97397251340807 l -6.5557731871002645 3.538214003604132 a28.449638945345146,28.449638945345146 0 0,0 -0.22888072103446,-0.43295606824539457 l 6.61570641635961 -3.4248429202726114" fill="#ff6108" stroke="none" /><path d="M 81.35079622478065 109.6543875284942 l -8.493781665213424 4.397091734680487 a30.564452033415776,30.564452033415776 0 0,0 -0.23785159088355481,-0.46930375379953443 l 8.568211925883245 -4.2502337691782675" fill="#ff7d0b" stroke="none" /><path d="M 81.18737489456691 109.33194174019688 l -8.663353450031074 4.297428414021568 a30.670655819219565,30.670655819219565 0 0,0 -0.23053633993117273,-0.47497314286656234 l 8.736043046576967 -4.147666315189721" fill="#ff7f0b" stroke="none" /><path d="M 80.58989483394504 108.01547362559985 l -3.278252607054875 1.353766354437685 a24.5467764939547,24.5467764939547 0 0,0 -0.1579145396543564,-0.3919309369449703 l 3.301069760966619 -1.2971360496499094" fill="#ff2b04" stroke="none" /><path d="M 80.0844068197444 106.66101706037122 l -2.406147005475936 0.8047656983235607 a23.537162044718276,23.537162044718276 0 0,0 -0.12520397092767874,-0.3853382001130875 l 2.419643227419864 -0.7632285982326699" fill="#ff1c02" stroke="none" /><path d="M 79.50377843672027 104.57218783832718 l -2.0771681320989743 0.4633635932565515 a23.12822303073789,23.12822303073789 0 0,0 -0.08333424896268146,-0.3893098677536501 l 2.0848364197860967 -0.4275399060867376" fill="#ff1602" stroke="none" /><path d="M 79.4281124754447 104.21870165774334 l -1.3087428534175651 0.2683854672393162 a22.335978523553734,22.335978523553734 0 0,0 -0.073995977282748,-0.3773038939874122 l 1.3131687636759797 -0.24581784618394917" fill="#ff0b01" stroke="none" /><path d="M 79.35854240842038 103.8639653848113 l -8.277027732390962 1.5494132865950538 a29.420799820411737,29.420799820411737 0 0,0 -0.08889782942055631,-0.49858623783410344 l 8.302472004150706 -1.4067082980277366" fill="#ff6e0a" stroke="none" /><path d="M 79.29508885075956 103.50808413554451 l -5.187643720065663 0.8789552635142353 a26.26157863398392,26.26157863398392 0 0,0 -0.0716794102382366,-0.4463477559768467 l 5.2020048846651905 -0.7895282778441748" fill="#ff4306" stroke="none" /><path d="M 79.18660465613746 102.79330883721812 l -5.214002689627412 0.6997570338522417 a26.260749371892523,26.260749371892523 0 0,0 -0.05627114703723546,-0.4485364075621873 l 5.225275345911495 -0.6099028720026458" fill="#ff4306" stroke="none" /><path d="M 79.1416061653843 102.43462659150553 l -3.9111572626737336 0.45651681288435597 a24.93770983362304,24.93770983362304 0 0,0 -0.04609640483694442,-0.42679545895115045 l 3.9184359690117296 -0.38912503204842347" fill="#ff3004" stroke="none" /><path d="M 79.07016306316243 101.71520430193888 l -19.249416174367664 1.5774934860565617 a40.31394596535256,40.31394596535256 0 0,0 -0.05072538982022134,-0.69210764258703 l 19.273718122852223 -1.2459127069727711" fill="#fffa17" stroke="none" /><path d="M 79.0235259727143 100.99374915477108 l -9.488213065460869 0.44949898166034713 a30.49885448409944,30.49885448409944 0 0,0 -0.020329472059951465,-0.5246133418888528 l 9.49454467037202 -0.28610839275749755" fill="#ff7c0b" stroke="none" /><path d="M 79.0095281055655 100.63252640178507 l -21.237982492598896 0.6399848805104683 a42.247622949478824,42.247622949478824 0 0,0 -0.015647588714689846,-0.7270819615523963 l 21.245852143998594 -0.27431310316794316" fill="#edff19" stroke="none" /><line stroke="#e1ed5e" stroke-width="0.3" x1="15.007084014347285" x2="10.007500721073583" y1="101.09737516637583" y2="101.16192664675087" /><path d="M 14.007167355692545 101.11028546245083 a86.0,86.0 0 0,1 10.666146001902534,-42.60595125391555" fill="none" id="id22" stroke="none" /><text fill="#e1ed5e" style="font-size:6.75px; font-family:Arial;" text-anchor="middle"><textPath startOffset="22.20632615414155" xlink:href="#id22">October</textPath></text><path d="M 79.00486145842228 99.54816195383935 l -20.795365006751048 -0.4475387040309487 a41.80018020728695,41.80018020728695 0 0,0 0.021673006376478,-0.71922156913846 l 20.784580305918926 0.8054304205944031" fill="#f3ff19" stroke="none" /><path d="M 79.21141760316559 97.0276538004421 l -5.490104544887782 -0.7849737450908472 a26.545938306028965,26.545938306028965 0 0,0 0.06856955743933069,-0.45178771014092933 l 5.475779094009149 0.8793605676238686" fill="#ff4706" stroke="none" /><path d="M 79.26566170972629 96.67025291283419 l -5.423419013507395 -0.8709520125451533 a26.492907354418968,26.492907354418968 0 0,0 0.07618368371669307,-0.4496404138070019 l 5.407623468270479 0.9641782146679831" fill="#ff4606" stroke="none" /><path d="M 79.32604984820605 96.31383870115002 l -1.0964730200506148 -0.19550092662833576 a22.113765548044764,22.113765548044764 0 0,0 0.07004195747882094,-0.3741669375749138 l 1.0929453386619323 0.21434594166582227" fill="#ff0801" stroke="none" /><path d="M 79.54389044137918 95.25157060432595 l -7.515518064915791 -1.744559824579446 a28.715341908536022,28.715341908536022 0 0,0 0.11591043443523187,-0.48052358212425716 l 7.484374830219744 1.8736686383630998" fill="#ff6409" stroke="none" /><path d="M 79.71946130924805 94.55025226153421 l -10.158196672444019 -2.729691266425127 a31.518563307127565,31.518563307127565 0 0,0 0.1453054238510297,-0.5227409205879525 l 10.109704478026629 2.904143490432022" fill="#ff8a0c" stroke="none" /><path d="M 79.81627453868168 94.20196356495316 l -21.077444733914064 -6.054768866091083 a42.92986325841973,42.92986325841973 0 0,0 0.2101398467031595,-0.7084870969694161 l 20.970098990099196 6.416685349807038" fill="#e5ff1a" stroke="none" /><path d="M 80.02781315780177 93.51064311812611 l -5.268235452117128 -1.7117534627853241 a26.53935056629397,26.53935056629397 0 0,0 0.1449082741652815,-0.4332572954809178 l 5.237989884180075 1.802183861188564" fill="#ff4606" stroke="none" /><path d="M 80.14247586403 93.16781622104843 l -8.973525556875787 -3.087433021855889 a30.489805244806085,30.489805244806085 0 0,0 0.175021528046204,-0.4948094284390608 l 8.919050948019773 3.2414400767215605" fill="#ff7c0b" stroke="none" /><path d="M 80.52162464483688 92.15188598940014 l -9.9552056713449 -4.011093722299343 a31.732893030671967,31.732893030671967 0 0,0 0.208497669075847,-0.5048936435539236 l 9.884686315382854 4.181861936306578" fill="#ff8d0d" stroke="none" /><path d="M 81.10775173730289 90.83032412892265 l -9.826971033443431 -4.7696884943580455 a31.923336853972224,31.923336853972224 0 0,0 0.24419830565266373,-0.492288883013173 l 9.743412714837355 4.93813696587018" fill="#ff8f0d" stroke="none" /><path d="M 81.26839172434947 90.50648371742162 l -1.468222255986101 -0.7441214704327859 a22.646023497928255,22.646023497928255 0 0,0 0.17921692770428924,-0.3461900607223039 l 1.4551958951216974 0.7692842534154253" fill="#ff0f01" stroke="none" /><path d="M 81.6062741919709 89.86733742301443 l -9.431359226395248 -5.195509690684167 a31.767722962785765,31.767722962785765 0 0,0 0.2679718750664992,-0.4766920646379617 l 9.340529710036318 5.357085265256913" fill="#ff8d0d" stroke="none" /><line stroke="#e1ed5e" stroke-width="0.3" x1="26.266209847984243" x2="21.928928074336255" y1="57.711370442889674" y2="55.22380399835377" /><path d="M 25.398753493254645 57.213857153982495 a86.0,86.0 0 0,1 29.58750427330803,-30.492523968695096" fill="none" id="id23" stroke="none" /><text fill="#e1ed5e" style="font-size:6.75px; font-family:Arial;" text-anchor="middle"><textPath startOffset="21.46611528233685" xlink:href="#id23">November</textPath></text><path d="M 82.34701348167596 88.62581576622439 l -0.4850406740364329 -0.3125217357209459 a21.57700458470254,21.57700458470254 0 0,0 0.20385477659536022,-0.31048481042705567 l 0.47958926208315245 0.3208246101256685" fill="#ff0000" stroke="none" /><path d="M 82.54541684631803 88.32363383020206 l -9.220819840354197 -6.168332288073106 a32.09377490957676,32.09377490957676 0 0,0 0.3111193988535363,-0.45652932770014776 l 9.113275975831922 6.32613963904367" fill="#ff920d" stroke="none" /><path d="M 82.95767976084542 87.72973835380427 l -8.793503301499182 -6.331214575359575 a31.835588507908675,31.835588507908675 0 0,0 0.3240216912748284,-0.44196522275596906 l 8.68321899771072 6.481642241787045" fill="#ff8e0d" stroke="none" /><path d="M 84.31358615837235 86.03803664274999 l -8.76125549040959 -7.798106651756651 a32.72902660583578,32.72902660583578 0 0,0 0.37818602106441485,-0.41760245021020187 l 8.62572582872913 7.94776188923641" fill="#ff9a0e" stroke="none" /><path d="M 86.37877921826538 84.01681056812374 l -6.5293047217621245 -7.661509632551331 a31.066307664645564,31.066307664645564 0 0,0 0.40999014398885425,-0.34335495490533197 l 6.39645704081416 7.772765744850476" fill="#ff840c" stroke="none" /><line stroke="#e1ed5e" stroke-width="0.3" x1="56.762969772571076" x2="54.21961505331055" y1="26.818313649435495" y2="22.513508569990535" /><path d="M 56.25429882871897 25.957352633546506 a86.0,86.0 0 0,1 42.265352541879196,-11.944610805530505" fill="none" id="id24" stroke="none" /><text fill="#e1ed5e" style="font-size:6.75px; font-family:Arial;" text-anchor="middle"><textPath startOffset="22.20632615414155" xlink:href="#id24">December</textPath></text><path d="M 89.94658935756843 81.56283822128135 l -2.8008543115701734 -5.136545785078073 a26.850545912719987,26.850545912719987 0 0,0 0.4076871222709492,-0.2177723416179864 l 2.712022142770919 5.183996853197809" fill="#ff4b07" stroke="none" /><path d="M 90.58718382345135 81.22770947309562 l -4.7050662740708145 -9.383469239020304 a31.49700641149842,31.49700641149842 0 0,0 0.48674683731847956,-0.23884455915387187 l 4.542848169741909 9.463068958309007" fill="#ff8a0c" stroke="none" /><path d="M 92.91201910852362 80.23233633223022 l -3.5211698799755675 -9.820187578121415 a31.43238809636304,31.43238809636304 0 0,0 0.5108780815502705,-0.17823533129880473 l 3.3516097943620116 9.879343762592429" fill="#ff890c" stroke="none" /><path d="M 95.33964822691252 79.52364482259891 l -2.4466792296195297 -10.750062516776264 a32.02497543612908,32.02497543612908 0 0,0 0.5385644325749407,-0.11770932511812149 l 2.261272072891068 10.790585339990255" fill="#ff910d" stroke="none" /><path d="M 97.11714578562143 79.19881850522333 l -3.065911432356851 -22.122027480017028 a43.33347068275965,43.33347068275965 0 0,0 0.7397338572574229,-0.0960386851758741 l 2.6846628465915705 22.171524488357036" fill="#e0ff1b" stroke="none" /><path d="M 99.63851952072746 79.00311137660856 l -0.08263568925343232 -4.799961444842828 a25.80067271630925,25.80067271630925 0 0,0 0.44411616852596686,-0.003822648074981315 l 1.1758256951564307e-15 4.800672716309251" fill="#ff3c05" stroke="none" /></svg>