<?xml version="1.0" encoding="utf-8" ?>
<svg baseProfile="full" height="200mm" version="1.1" viewBox="0,0,200,200" width="200mm" xmlns="http://www.w3.org/2000/svg" xmlns:ev="http://www.w3.org/2001/xml-events" xmlns:xlink="http://www.w3.org/1999/xlink"><defs /><rect fill="#1a1a1a" height="200" width="200" x="0" y="0" /><text alignment-baseline="middle" fill="#e1ed5e" style="dominant-baseline: central; font-size:9.0px; font-family:Arial;" text-anchor="middle" x="100.0" y="100.0">2023</text><line stroke="#e1ed5e" stroke-width="0.3" x1="100.0" x2="100.0" y1="15.0" y2="10.0" /><path d="M 100.0 14.0 a86.0,86.0 0 0,1 42.46469731375804,11.215312516191453" fill="none" id="id85" stroke="none" /><text fill="#e1ed5e" style="font-size:6.75px; font-family:Arial;" text-anchor="middle"><textPath startOffset="22.20632615414155" xlink:href="#id85">January</textPath></text><line stroke="#e1ed5e" stroke-width="0.3" x1="143.23703022742887" x2="145.7803849466894" y1="26.81831364943548" y2="22.513508569990506" /><path d="M 143.74570117128098 25.957352633546492 a86.0,86.0 0 0,1 28.547481713284135,27.462654790039103" fill="none" id="id86" stroke="none" /><text fill="#e1ed5e" style="font-size:6.75px; font-family:Arial;" text-anchor="middle"><textPath startOffset="19.985693538727396" xlink:href="#id86">February</textPath></text><path d="M 111.90073688211348 82.69761687909136 l 2.1535983537717613 -3.131098870148255 a24.80023236184475,24.80023236184475 0 0,0 0.3496465015920017,0.2449497188010934 l -2.207175994947414 3.093564308583226" fill="#ff1e03" stroke="none" /><path d="M 112.48926042617603 83.11751280151076 l 1.1796080575662318 -1.5945474152622963 a22.983445645586198,22.983445645586198 0 0,0 0.3160265871451505,0.23802467351947945 l -1.2068807984697651 1.5740061522369695" fill="#ff0400" stroke="none" /><path d="M 113.6212207817346 84.01681056812373 l 3.1534081358966124 -3.7002204427698104 a25.86164727192652,25.86164727192652 0 0,0 0.3363322022463393,0.2916639715154694 l -3.2166341367897155 3.6453914778346697" fill="#ff2e04" stroke="none" /><path d="M 117.65298651832404 88.62581576622439 l 4.35611715934091 -2.8067363594723207 a26.182038758779044,26.182038758779044 0 0,0 0.24084035058166203,0.3809515966848934 l -4.403785106168527 2.731337115073221" fill="#ff3204" stroke="none" /><line stroke="#e1ed5e" stroke-width="0.3" x1="172.23445277983987" x2="176.4835382374775" y1="55.19839476539836" y2="52.563006222186495" /><path d="M 173.08426987136738 54.67131705675599 a86.0,86.0 0 0,1 12.851231095245387,41.99856678651699" fill="none" id="id87" stroke="none" /><text fill="#e1ed5e" style="font-size:6.75px; font-family:Arial;" text-anchor="middle"><textPath startOffset="22.20632615414155" xlink:href="#id87">March</textPath></text><path d="M 118.03404312379186 89.2402003453031 l 3.169969117651336 -1.8913247785521006 a24.691315974666534,24.691315974666534 0 0,0 0.214626707417697,0.36686661524624303 l -3.20205549953936 1.8364787509519622" fill="#ff1d02" stroke="none" /><path d="M 118.73160827565052 90.50648371742162 l 4.076204949255522 -2.065894048573895 a25.569832054711448,25.569832054711448 0 0,0 0.19559702333582746,0.39431166355288083 l -4.111161985544758 1.9954227965220643" fill="#ff2904" stroke="none" /><path d="M 119.04729006885535 91.15688171328212 l 3.0341211600435094 -1.4086566759630832 a24.345176354777,24.345176354777 0 0,0 0.17319585431059017,0.38161410699291454 l -3.0579193313174464 1.3562205601281059" fill="#ff1802" stroke="none" /><path d="M 119.196687751892 91.48605970444005 l 10.523306020884501 -4.667200942771325 a32.51185190355529,32.51185190355529 0 0,0 0.22248834089332473,0.513533766070618 l -10.602085071620506 4.4853680321141045" fill="#ff8a0c" stroke="none" /><path d="M 119.7369772167798 92.82701384747503 l 12.001882980602927 -4.361830055257865 a33.76991607298329,33.76991607298329 0 0,0 0.19385044494806813,0.5480413120498441 l -12.075186506360804 4.154591116781407" fill="#ff9b0e" stroke="none" /><path d="M 120.18372546131832 94.20196356495316 l 10.876623878132055 -3.124451016566253 a32.31649862551462,32.31649862551462 0 0,0 0.14898402837732183,0.5359748183020818 l -10.92879467707574 2.936764894845219" fill="#ff880c" stroke="none" /><path d="M 120.37134235888165 94.90015583598534 l 10.984741165831407 -2.7499644913361605 a32.32372920834479,32.32372920834479 0 0,0 0.13047581000566416,0.5409064672216463 l -11.030449776097889 2.560472792455108" fill="#ff880c" stroke="none" /><path d="M 120.45610955862082 95.25157060432595 l 11.500139615745866 -2.6695008085127347 a32.80590723952622,32.80590723952622 0 0,0 0.1229528113924383,0.5511733448487491 l -11.544386814140342 2.4711492941140216" fill="#ff8e0d" stroke="none" /><path d="M 120.53481517161879 95.60439243477599 l 22.294439156212498 -4.772266251167282 a43.79948557450565,43.79948557450565 0 0,0 0.1514642609991208,0.7385935280691392 l -22.373282713126617 4.387797066934731" fill="#e4ff1a" stroke="none" /><path d="M 120.6074358757038 95.95851677861258 l 16.583295843165295 -3.2522780762100765 a37.899201570102065,37.899201570102065 0 0,0 0.12003990270617443,0.6412579602153583 l -16.636821469781328 2.9663420385321553" fill="#ffd113" stroke="none" /><path d="M 120.73433829027371 96.67025291283417 l 12.912263351632598 -2.0735926404743332 a34.07770359430675,34.07770359430675 0 0,0 0.08802450405302516,0.579971500583084 l -12.946043749124923 1.8510220274991673" fill="#ff9f0e" stroke="none" /><path d="M 120.78858239683441 97.02765380044208 l 26.73842927316108 -3.823053785732431 a48.01035616656027,48.01035616656027 0 0,0 0.1099300005307859,0.8191061907343419 l -26.800275272749705 3.3622292529334246" fill="#b3ff20" stroke="none" /><path d="M 120.83666639777658 97.38593545837742 l 14.039074481068841 -1.7612724654494871 a35.14912339979226,35.14912339979226 0 0,0 0.07014701685326602,0.6009768023375167 l -14.067311850925696 1.5193519247871174" fill="#ffad10" stroke="none" /><path d="M 120.91429891909075 98.10471618934814 l 11.57191337638983 -1.048663412786819 a32.61933191470093,32.61933191470093 0 0,0 0.04586202915451303,0.5596329199451052 l -11.588249889363837 0.8493165756339451" fill="#ff8c0c" stroke="none" /><path d="M 120.96714384426684 98.82574320788733 l 11.106453223370208 -0.6220126227345075 a32.123857375288104,32.123857375288104 0 0,0 0.026167775681569617,0.5523603862211128 l -11.115514607285274 0.4307411298903949" fill="#ff850c" stroke="none" /><path d="M 120.98425023603335 99.18683210126433 l 28.165410488667234 -1.0914475097503638 a49.18655008442265,49.18655008442265 0 0,0 0.025502770761519567,0.8463128043179683 l -28.1800249538844 0.6064645580073963" fill="#a5ff21" stroke="none" /><line stroke="#e1ed5e" stroke-width="0.3" x1="184.98032266829074" x2="189.97916517819016" y1="98.17113171792111" y2="98.06355123074" /><path d="M 185.9800911702706 98.14961562048488 a86.0,86.0 0 0,1 -9.607161424134198,41.387399972396054" fill="none" id="id88" stroke="none" /><text fill="#e1ed5e" style="font-size:6.75px; font-family:Arial;" text-anchor="middle"><textPath startOffset="21.466115282336823" xlink:href="#id88">April</textPath></text><path d="M 120.99513854157772 99.54816195383933 l 14.595032826233313 -0.3141008621017894 a35.598412329784395,35.598412329784395 0 0,0 0.007911311283987178,0.6127397775157347 l -14.598277144635016 0.06282482652559195" fill="#ffb310" stroke="none" /><path d="M 120.99980553446 99.90962569577887 l 62.99941660337998 -0.27112291266339017 a84.0,84.0 0 0,0 -0.006222810841987947,1.4459620871852612 l -62.994749495248485 -0.8133486527255557" fill="#4dd2ff" stroke="none" /><path d="M 120.9764740272857 100.99374915477107 l 26.047135392755393 1.2339690048522183 a47.07634831937683,47.07634831937683 0 0,0 -0.04531356125830157,0.8091040761956408 l -26.022035480609564 -1.6821447973832824" fill="#bdff1f" stroke="none" /><path d="M 120.95626037817324 101.35467743843564 l 12.58740330927062 0.8136886526433516 a33.613675566371505,33.613675566371505 0 0,0 -0.042294713543047785,0.5770777629885271 l -12.571532037063234 -1.030239552128649" fill="#ff990e" stroke="none" /><path d="M 120.89721153311464 102.0752229133903 l 36.69880361056322 3.6444191621436097 a57.87931639111668,57.87931639111668 0 0,0 -0.10698770728550444,0.9905732951314865 l -36.630633601776665 -4.275588779159888" fill="#48ff2c" stroke="none" /><path d="M 120.76222939487914 103.15116336523771 l 1.8936951550734746 0.2874133930466768 a22.91538189373591,22.91538189373591 0 0,0 -0.06254616610904945,0.3894750360660288 l -1.8884672346031368 -0.3199676588059105" fill="#ff0300" stroke="none" /><path d="M 120.5718875245553 104.21870165774334 l 14.547206818471915 2.9832131566619235 a35.849942321688545,35.849942321688545 0 0,0 -0.12917239749732545,0.6034504374021106 l -14.493700382250147 -3.233177413480203" fill="#ffb710" stroke="none" /><path d="M 120.32669344350535 105.2749913415812 l 13.245674580650364 3.437392260601914 a34.68442766979069,34.68442766979069 0 0,0 -0.15494347050893115,0.576602294149563 l -13.184543033799656 -3.664885487927025" fill="#ffa70f" stroke="none" /><path d="M 120.23288151984713 105.62410040840565 l 13.537633507375773 3.7630334593217882 a35.050905372822015,35.050905372822015 0 0,0 -0.16658754476267695,0.5799130975515854 l -13.470853325726997 -3.9955040323779554" fill="#ffac0f" stroke="none" /><path d="M 119.79798401119884 107.00284435728193 l 19.930877075374298 7.049850630448758 a42.140961541645154,42.140961541645154 0 0,0 -0.2477803032526169,0.6817849771454212 l -19.806572511116453 -7.391883404600311" fill="#f8ff18" stroke="none" /><path d="M 119.54520255179757 107.68017299344265 l 15.360977151121553 6.036006102074557 a37.504332422172055,37.504332422172055 0 0,0 -0.2412732030598648,0.5988203033232169 l -15.254801333804295 -6.299525773240588" fill="#ffcc13" stroke="none" /><path d="M 119.26925614724726 108.34839909993367 l 15.610890584270713 6.763413382799756 a38.013043978686085,38.013043978686085 0 0,0 -0.26529288055136435,0.598165410368259 l -15.492156618988076 -7.031127129660702" fill="#ffd313" stroke="none" /><path d="M 118.97047184881838 109.00673069616215 l 20.25649593175234 9.61730446976529 a43.423607486246866,43.423607486246866 0 0,0 -0.32639404894023716,0.6724684155407821 l -20.087948626197388 -9.964561841271347" fill="#e8ff1a" stroke="none" /><path d="M 118.81262510543309 109.33194174019688 l 22.04466597724889 10.935185144489754 a45.60783558529161,45.60783558529161 0 0,0 -0.3549187218817852,0.7002883094206316 l -21.853168585580836 -11.313027665613081" fill="#ceff1d" stroke="none" /><line stroke="#e1ed5e" stroke-width="0.3" x1="174.80103733775053" x2="179.2010983576182" y1="140.37084112569926" y2="142.7455964860345" /><path d="M 175.68104954172406 140.8457921977663 a86.0,86.0 0 0,1 -30.038265399797805,32.042727171017184" fill="none" id="id89" stroke="none" /><text fill="#e1ed5e" style="font-size:6.75px; font-family:Arial;" text-anchor="middle"><textPath startOffset="22.206326154141568" xlink:href="#id89">May</textPath></text><path d="M 118.12598468904814 110.60418214915192 l 25.220265319761946 14.7545246169321 a50.219133790563376,50.219133790563376 0 0,0 -0.4429306658991293,0.7423772733712424 l -24.96255377816459 -15.186463984189446" fill="#9aff23" stroke="none" /><path d="M 117.75023020441432 111.22182372390056 l 10.677321537527206 6.75027978553986 a33.63216024276174,33.63216024276174 0 0,0 -0.31357206712649865,0.4866708117026551 l -10.559544607023657 -6.933072197163968" fill="#ff990e" stroke="none" /><path d="M 116.93607887273984 112.41649034213515 l 27.817951005185908 20.394409035838525 a55.4930473870897,55.4930473870897 0 0,0 -0.5714164892482624,0.7655057668961499 l -27.462773249242552 -20.87022768224399" fill="#61ff29" stroke="none" /><path d="M 116.71984013943494 112.70617746262583 l 12.01922591012348 9.13396396758735 a36.09606204411494,36.09606204411494 0 0,0 -0.3802001356872313,0.49145992686980133 l -11.86021895721818 -9.339501888570405" fill="#ffba11" stroke="none" /><path d="M 116.27256486870786 113.27417163493432 l 20.684233466156805 16.872943348642504 a47.69332746828279,47.69332746828279 0 0,0 -0.5244085757530305,0.6316839117185454 l -20.390728890510232 -17.22648851747482" fill="#b6ff1f" stroke="none" /><path d="M 114.0293411484842 115.62618273729858 l 28.536703383083495 31.78479566963331 a63.71553201979848,63.71553201979848 0 0,0 -0.8224086758376927,0.7256800366096444 l -27.985352354339213 -32.27129884801524" fill="#34ff57" stroke="none" /><path d="M 113.75828350139079 115.86535959552629 l 19.77670873650429 22.805504457653395 a51.18624259520509,51.18624259520509 0 0,0 -0.670623926773495,0.5715202592717564 l -19.381219333153748 -23.1425491071481" fill="#8fff24" stroke="none" /><path d="M 113.20401910651253 116.32954008644616 l 11.705736570081662 14.476599361193594 a39.617094233866304,39.617094233866304 0 0,0 -0.5339676992003091,0.42421623423140986 l -11.454811378164003 -14.675949509430131" fill="#ffe715" stroke="none" /><path d="M 112.63410532772338 116.77436683061366 l 13.56117207236349 18.005238130770728 a43.54094026703437,43.54094026703437 0 0,0 -0.602554840176558,0.44575566571087494 l -13.249232261768368 -18.23600374522137" fill="#e7ff1a" stroke="none" /><path d="M 111.1453310114006 117.79835938074945 l 9.186779456982563 14.670681575971802 a38.30970290602341,38.30970290602341 0 0,0 -0.5619135875937566,0.34517322010466794 l -8.932886669456497 -14.826643262904849" fill="#ffd614" stroke="none" /><line stroke="#e1ed5e" stroke-width="0.3" x1="143.8653032363475" x2="146.44561519142675" y1="172.8068346515853" y2="177.08958963109032" /><path d="M 144.38136562736335 173.6633856474863 a86.0,86.0 0 0,1 -40.68145358897372,12.25698825130547" fill="none" id="id90" stroke="none" /><text fill="#e1ed5e" style="font-size:6.75px; font-family:Arial;" text-anchor="middle"><textPath startOffset="21.466115282336833" xlink:href="#id90">June</textPath></text><path d="M 110.5260780823613 118.17145234162733 l 12.472192886474874 21.5310827887494 a45.8825867114618,45.8825867114618 0 0,0 -0.6868213195044296,0.3899950701499705 l -12.099722800049244 -21.742581024694" fill="#cbff1d" stroke="none" /><path d="M 108.92500713936063 119.00905698771935 l 5.7932886694266665 12.33892060184161 a34.63125655344579,34.63125655344579 0 0,0 -0.5417845773617255,0.24870672661130694 l -5.580036096297522 -12.436814398786991" fill="#ffa70f" stroke="none" /><path d="M 107.2578585660854 119.70592522655815 l 8.592846776249035 23.330572580634406 a45.86267549280132,45.86267549280132 0 0,0 -0.743151017494587,0.2664675148268118 l -8.189976198124713 -23.47502763650118" fill="#cbff1d" stroke="none" /><path d="M 104.48393922423573 120.51570834832081 l 0.36916358124083065 1.6890622256035197 a22.72893405070155,22.72893405070155 0 0,0 -0.38293766379746486,0.08024831068192334 l -0.34003445601398774 -1.6951665170119843" fill="#ff0000" stroke="none" /><path d="M 102.70371172650421 120.8252237178851 l 2.993476837020471 23.057127065044497 a44.25063465945361,44.25063465945361 0 0,0 -0.7562066329452392,0.09156609203305799 l -2.5961427810238518 -23.105238685802906" fill="#dfff1b" stroke="none" /><path d="M 101.62511606390274 120.93702456842531 l 0.8205655341560255 10.571676159159566 a31.603474176419137,31.603474176419137 0 0,0 -0.5427328417513412,0.037430034371636924 l -0.6384699316257539 -10.584234538047488" fill="#ff7e0b" stroke="none" /><path d="M 101.26447882468166 120.96189622390904 l 1.3324948332317759 22.0894315253807 a43.12958489432353,43.12958489432353 0 0,0 -0.7414426072011691,0.038324113733052154 l -0.9520641576171274 -22.109095445875955" fill="#ecff1a" stroke="none" /><path d="M 100.90346689309514 120.98055641714683 l 0.5478154748345683 12.721521467795922 a33.733311048194054,33.733311048194054 0 0,0 -0.5803408929686245,0.019988113767997914 l -0.32875423019129146 -12.729066379990014" fill="#ff9b0e" stroke="none" /><line stroke="#e1ed5e" stroke-width="0.3" x1="102.19456741930631" x2="102.32365962044197" y1="184.97166512339345" y2="189.96999836594603" /><path d="M 102.22038585953345 185.97133177190398 a86.0,86.0 0 0,1 -42.740103519485714,-10.115201625700543" fill="none" id="id91" stroke="none" /><text fill="#e1ed5e" style="font-size:6.75px; font-family:Arial;" text-anchor="middle"><textPath startOffset="22.20632615414155" xlink:href="#id91">July</textPath></text><path d="M 99.45781275523022 120.99299961872073 l -0.27334782827146187 10.583780621983344 a31.587309917514027,31.587309917514027 0 0,0 -0.5434215342163584,-0.018716536403860663 l 0.45548971416246337 -10.57750728715339" fill="#ff7e0b" stroke="none" /><path d="M 96.22490169976321 120.6578951692458 l -4.61521295306406 25.255126565091672 a46.67336379247818,46.67336379247818 0 0,0 -0.7890740801526955,-0.15122792547339914 l 5.049254647788451 -25.171941441269805" fill="#c2ff1e" stroke="none" /><path d="M 94.11515582081647 120.15858648285463 l -6.926010907372798 23.72511244245718 a45.71539171237801,45.71539171237801 0 0,0 -0.7534876726152863,-0.22701965480535774 l 7.333373554428331 -23.602377418546098" fill="#cdff1d" stroke="none" /><path d="M 92.06813273071674 119.44442032107085 l -8.425640101407886 20.654870038016806 a43.30728731616234,43.30728731616234 0 0,0 -0.6878198253182709,-0.28750874276687777 l 8.77993138622362 -20.506776252229955" fill="#eaff1a" stroke="none" /><path d="M 90.7491055286396 118.85261126421891 l -9.984838838323258 20.34833342197901 a43.666090966007275,43.666090966007275 0 0,0 -0.6719298410683031,-0.33691957134633227 l 10.33362258707432 -20.173446009723378" fill="#e5ff1a" stroke="none" /><line stroke="#e1ed5e" stroke-width="0.3" x1="58.666819895761336" x2="56.23545636021788" y1="174.27360380694188" y2="178.64263932499728" /><path d="M 58.180547188652646 175.14741091055294 a86.0,86.0 0 0,1 -31.652253787137756,-30.449443065178592" fill="none" id="id92" stroke="none" /><text fill="#e1ed5e" style="font-size:6.75px; font-family:Arial;" text-anchor="middle"><textPath startOffset="22.20632615414155" xlink:href="#id92">August</textPath></text><path d="M 89.7882731507175 118.34994917583269 l -5.502388702690591 9.887510166524155 a32.315438070557214,32.315438070557214 0 0,0 -0.4837332288076678,-0.2746763519787644 l 5.671770698419466 -9.791330648750757" fill="#ff880c" stroke="none" /><path d="M 88.54995079064634 117.60387380957326 l -12.410440135468491 19.080426474287858 a43.76140810224078,43.76140810224078 0 0,0 -0.6279247371414848,-0.416154276087995 l 12.737039571349937 -18.863974177108545" fill="#e4ff1a" stroke="none" /><path d="M 85.97065885151581 115.62618273729859 l -19.313080655164274 21.51132575248484 a49.90903353663692,49.90903353663692 0 0,0 -0.6343211207905836,-0.5794373042335831 l 19.680501325421716 -21.17569568166468" fill="#9dff22" stroke="none" /><path d="M 83.95833913139862 113.55231037782056 l -2.726244148591201 2.3031846371806752 a24.5689027208195,24.5689027208195 0 0,0 -0.2701456150697048,-0.32540779604109665 l 2.7654857635544423 -2.2559155840258174" fill="#ff1b02" stroke="none" /><path d="M 83.50135304334701 112.99209946851258 l -25.272011975087505 19.900813334112716 a53.16701665725569,53.16701665725569 0 0,0 -0.5600086492113503,-0.7238866690312692 l 25.610827441516925 -19.462848670968196" fill="#7aff26" stroke="none" /><path d="M 82.24976979558568 111.22182372390057 l -2.638336782503913 1.6679755674480727 a24.12137204951874,24.12137204951874 0 0,0 -0.21885591976944524,-0.3528654279102635 l 2.666657341941314 -1.6223138081725452" fill="#ff1402" stroke="none" /><line stroke="#e1ed5e" stroke-width="0.3" x1="26.63291911575756" x2="22.317208475507996" y1="142.92168965132927" y2="145.44649492493687" /><path d="M 25.769776987707644 143.4266507060508 a86.0,86.0 0 0,1 -11.730757126820373,-40.83630448921669" fill="none" id="id93" stroke="none" /><text fill="#e1ed5e" style="font-size:6.75px; font-family:Arial;" text-anchor="middle"><textPath startOffset="21.46611528233685" xlink:href="#id93">September</textPath></text><path d="M 81.87401531095188 110.60418214915194 l -36.70594507698855 21.473952131733476 a63.52595706331464,63.52595706331464 0 0,0 -0.5440484081117587,-0.9485942575196562 l 37.07014548125268 -20.838938028355514" fill="#33ff55" stroke="none" /><path d="M 81.02952815118164 109.00673069616217 l -11.393534473042655 5.409380298704958 a33.61245507442658,33.61245507442658 0 0,0 -0.24365089774565227,-0.5248023575426872 l 11.484959987628134 -5.212457873883444" fill="#ff990e" stroke="none" /><path d="M 79.86692584326677 105.97154293290107 l -10.880380698105785 3.2271604405389667 a32.34888755097576,32.34888755097576 0 0,0 -0.15374557933956312,-0.5352085312061412 l 10.934318914331453 -3.0393944338282295" fill="#ff880c" stroke="none" /><path d="M 79.50377843672027 104.57218783832718 l -25.99199258293879 5.798155138726288 a47.63085206005026,47.63085206005026 0 0,0 -0.17162067654750734,-0.8017546653648053 l 26.08794729821074 -5.349886653945319" fill="#b7ff1f" stroke="none" /><line stroke="#e1ed5e" stroke-width="0.3" x1="15.007084014347285" x2="10.007500721073583" y1="101.09737516637583" y2="101.16192664675087" /><path d="M 14.007167355692545 101.11028546245083 a86.0,86.0 0 0,1 10.666146001902534,-42.60595125391555" fill="none" id="id94" stroke="none" /><text fill="#e1ed5e" style="font-size:6.75px; font-family:Arial;" text-anchor="middle"><textPath startOffset="22.20632615414155" xlink:href="#id94">October</textPath></text><line stroke="#e1ed5e" stroke-width="0.3" x1="26.266209847984243" x2="21.928928074336255" y1="57.711370442889674" y2="55.22380399835377" /><path d="M 25.398753493254645 57.213857153982495 a86.0,86.0 0 0,1 29.58750427330803,-30.492523968695096" fill="none" id="id95" stroke="none" /><text fill="#e1ed5e" style="font-size:6.75px; font-family:Arial;" text-anchor="middle"><textPath startOffset="21.46611528233685" xlink:href="#id95">November</textPath></text><line stroke="#e1ed5e" stroke-width="0.3" x1="56.762969772571076" x2="54.21961505331055" y1="26.818313649435495" y2="22.513508569990535" /><path d="M 56.25429882871897 25.957352633546506 a86.0,86.0 0 0,1 42.265352541879196,-11.944610805530505" fill="none" id="id96" stroke="none" /><text fill="#e1ed5e" style="font-size:6.75px; font-family:Arial;" text-anchor="middle"><textPath startOffset="22.20632615414155" xlink:href="#id96">December</textPath></text></svg>