<?xml version="1.0" encoding="utf-8" ?>
<svg baseProfile="full" height="300mm" version="1.1" viewBox="0,0,200,300" width="200mm" xmlns="http://www.w3.org/2000/svg" xmlns:ev="http://www.w3.org/2001/xml-events" xmlns:xlink="http://www.w3.org/1999/xlink"><defs /><rect fill="#222222" height="300" width="200" x="0" y="0" /><g id="header"><text fill="#FFFFFF" style="font-size:12px; font-family:Arial; font-weight:bold;" x="10" y="20">Just Keep Running</text></g><g id="footer"><text fill="#FFFFFF" style="font-size:4px; font-family:Arial" x="10" y="280">ATHLETE</text><text fill="#FFFFFF" style="font-size:9px; font-family:Arial" x="10" y="290">Wilson Xie</text><text fill="#FFFFFF" style="font-size:4px; font-family:Arial" x="120" y="280">STATISTICS</text><text fill="#FFFFFF" style="font-size:3px; font-family:Arial" x="120" y="285">Number: 59</text><text fill="#FFFFFF" style="font-size:3px; font-family:Arial" x="120" y="290">Weekly: 2.0</text><text fill="#FFFFFF" style="font-size:3px; font-family:Arial" x="141" y="285">Total: 489.0 km</text><text fill="#FFFFFF" style="font-size:3px; font-family:Arial" x="141" y="290">Avg: 8.3 km</text><text fill="#FFFFFF" style="font-size:3px; font-family:Arial" x="167" y="285">Min: 1.1 km</text><text fill="#FFFFFF" style="font-size:3px; font-family:Arial" x="167" y="290">Max: 43.2 km</text></g><g id="tracks"><g id="year2019"><text alignment-baseline="middle" fill="#FFFFFF" style="dominant-baseline: central; font-size:9.0px; font-family:Arial;" text-anchor="middle" x="100.0" y="150.0">2019</text><line stroke="#FFFFFF" stroke-width="0.3" x1="100.0" x2="100.0" y1="65.0" y2="60.0" /><path d="M 100.0 64.0 a86.0,86.0 0 0,1 42.46469731375804,11.215312516191453" fill="none" id="id1" stroke="none" /><text fill="#FFFFFF" style="font-size:6.75px; font-family:Arial;" text-anchor="middle"><textPath startOffset="22.20632615414155" xlink:href="#id1">January</textPath></text><path d="M 102.88285421437855 129.19881850522333 l 2.0518160181446503 -14.804840693797342 a35.946345939427225,35.946345939427225 0 0,0 0.6121680165800766,0.09021765263170338 l -2.3063530151533826 14.767328557004669" fill="#4dd2ff" stroke="none"><title>2019-01-09 10.2 km</title></path><path d="M 103.2404852339499 129.25152402106235 l 1.1260474557907167 -7.2099598982399575 a28.297362852902484,28.297362852902484 0 0,0 0.4806115653771921,0.07930502632603596 l -1.249988227306784 7.189508608974297" fill="#4dd2ff" stroke="none"><title>2019-01-10 5.0 km</title></path><line stroke="#FFFFFF" stroke-width="0.3" x1="143.23703022742887" x2="145.7803849466894" y1="76.81831364943548" y2="72.5135085699905" /><path d="M 143.74570117128098 75.95735263354649 a86.0,86.0 0 0,1 28.547481713284135,27.462654790039103" fill="none" id="id2" stroke="none" /><text fill="#FFFFFF" style="font-size:6.75px; font-family:Arial;" text-anchor="middle"><textPath startOffset="19.985693538727396" xlink:href="#id2">February</textPath></text><path d="M 114.68862486808459 134.99185889309783 l 5.204258492019808 -5.317464807392304 a28.440412517435842,28.440412517435842 0 0,0 0.34692454835429604,0.34543474409140423 l -5.2950188405414265 5.227094212650782" fill="#4dd2ff" stroke="none"><title>2019-02-15 5.1 km</title></path><path d="M 116.60985879189232 137.1503855733568 l 49.829576375676965 -38.54884327992963 a84.0,84.0 0 0,0 0.874896239103546,1.1512608964758657 l -50.48574855500462 37.68539760757273" fill="#4dd2ff" stroke="none"><title>2019-02-23 43.2 km</title></path><line stroke="#FFFFFF" stroke-width="0.3" x1="172.23445277983987" x2="176.4835382374775" y1="105.19839476539836" y2="102.56300622218649" /><path d="M 173.08426987136738 104.67131705675598 a86.0,86.0 0 0,1 12.851231095245387,41.99856678651699" fill="none" id="id3" stroke="none" /><text fill="#FFFFFF" style="font-size:6.75px; font-family:Arial;" text-anchor="middle"><textPath startOffset="22.20632615414155" xlink:href="#id3">March</textPath></text><path d="M 118.21658344932153 139.5522209329492 l 2.5501252317166143 -1.4625763985001923 a23.939773531904713,23.939773531904713 0 0,0 0.2019403785888849,0.3592294003966541 l -2.5749232515979323 1.4184634881687443" fill="#4dd2ff" stroke="none"><title>2019-03-03 2.0 km</title></path><path d="M 118.3937258080291 139.86733742301442 l 7.049178892343608 -3.883223654978482 a29.04800279639906,29.04800279639906 0 0,0 0.23749080066767161,0.44003438503554565 l -7.114977792229745 3.7613082866104777" fill="#4dd2ff" stroke="none"><title>2019-03-04 5.5 km</title></path><path d="M 118.56541770881063 140.18545643968196 l 6.581142922876508 -3.479098337905818 a28.444163312028195,28.444163312028195 0 0,0 0.22510245829105657,0.434826300744885 l -6.640054814327682 3.3652993149005885" fill="#4dd2ff" stroke="none"><title>2019-03-05 5.1 km</title></path><path d="M 118.73160827565052 140.50648371742162 l 2.9152698835184605 -1.4775112579772207 a24.26830812672232,24.26830812672232 0 0,0 0.18564098586282735,0.3742408995329541 l -2.940270882334696 1.4271107699453167" fill="#4dd2ff" stroke="none"><title>2019-03-06 2.2 km</title></path><path d="M 119.47837535516314 142.15188598940014 l 6.674909167160373 -2.689415682729766 a28.196344148548928,28.196344148548928 0 0,0 0.17751136029493056,0.45174704986096254 l -6.720214077337004 2.5741196279730194" fill="#4dd2ff" stroke="none"><title>2019-03-11 4.9 km</title></path><path d="M 119.85752413597 143.1678162210484 l 11.699199290257853 -4.025228879003809 a33.372296939595984,33.372296939595984 0 0,0 0.1822170419117215,0.5448057622931832 l -11.766753625941346 3.8232500137883116" fill="#4dd2ff" stroke="none"><title>2019-03-14 8.5 km</title></path><path d="M 120.28053869075195 144.5502522615342 l 7.34555636726424 -1.9738839194900626 a28.606143311316035,28.606143311316035 0 0,0 0.12369251160530009,0.4766377045662536 l -7.378445210739843 1.8471497893749587" fill="#4dd2ff" stroke="none"><title>2019-03-18 5.2 km</title></path><path d="M 120.67395015179393 146.31383870115002 l 6.825895104866432 -1.2170557721590003 a27.93354662025035,27.93354662025035 0 0,0 0.08032642293023734,0.47409109515234854 l -6.845833389316892 1.0993788886908138" fill="#4dd2ff" stroke="none"><title>2019-03-23 4.8 km</title></path><path d="M 120.73433829027371 146.67025291283417 l 27.49048803851517 -4.414723594721702 a48.84271389454588,48.84271389454588 0 0,0 0.12616330367664452,0.8312585380519181 l -27.562407235631117 3.9408659442777014" fill="#4dd2ff" stroke="none"><title>2019-03-24 19.1 km</title></path><path d="M 120.78858239683441 147.0276538004421 l 22.076716690479905 -3.1565233117413976 a43.30123447814674,43.30123447814674 0 0,0 0.09914745711638398,0.7387637180703396 l -22.127780146654125 2.7760412516063933" fill="#4dd2ff" stroke="none"><title>2019-03-25 15.3 km</title></path><path d="M 120.87857604477298 147.74499172005258 l 4.672571509073024 -0.5046650412849403 a25.6997458773104,25.6997458773104 0 0,0 0.04371756152256291,0.44022987841649375 l -4.680566196277815 0.42415963216401154" fill="#4dd2ff" stroke="none"><title>2019-03-27 3.2 km</title></path><path d="M 120.91429891909075 148.10471618934812 l 23.526034627596935 -2.1319630522168183 a44.622437887629374,44.622437887629374 0 0,0 0.06273811961260913,0.7655639691035063 l -23.55924723102904 1.726685165905543" fill="#4dd2ff" stroke="none"><title>2019-03-28 16.2 km</title></path><path d="M 120.96714384426684 148.82574320788734 l 23.372393006432965 -1.3089618423748743 a44.40901826117341,44.40901826117341 0 0,0 0.03617514592102102,0.7636001552326714 l -23.391461760587482 0.9064505805192031" fill="#4dd2ff" stroke="none"><title>2019-03-30 16.0 km</title></path><path d="M 120.98425023603335 149.18683210126434 l 31.47624984866088 -1.219746984600998 a52.49987440041257,52.49987440041257 0 0,0 0.027220698738664287,0.9033224703479591 l -31.492582241855192 0.67775436682804" fill="#4dd2ff" stroke="none"><title>2019-03-31 21.6 km</title></path><line stroke="#FFFFFF" stroke-width="0.3" x1="184.98032266829074" x2="189.97916517819016" y1="148.1711317179211" y2="148.06355123074" /><path d="M 185.9800911702706 148.1496156204849 a86.0,86.0 0 0,1 -9.607161424134198,41.387399972396054" fill="none" id="id4" stroke="none" /><text fill="#FFFFFF" style="font-size:6.75px; font-family:Arial;" text-anchor="middle"><textPath startOffset="21.466115282336823" xlink:href="#id4">April</textPath></text><path d="M 120.99513854157772 149.54816195383933 l 6.9271874690618525 -0.1490805523960291 a27.92879147056904,27.92879147056904 0 0,0 0.006206831952569158,0.48072597489528174 l -6.928727308132137 0.029818319440284638" fill="#4dd2ff" stroke="none"><title>2019-04-01 4.7 km</title></path><path d="M 120.9904718944345 150.63252640178507 l 4.378962102894541 0.1319555442310693 a25.380949824437607,25.380949824437607 0 0,0 -0.01691805541679787,0.4365798366182252 l -4.376041914626541 -0.20731262786330068" fill="#4dd2ff" stroke="none"><title>2019-04-04 3.0 km</title></path><path d="M 120.95626037817324 151.35467743843563 l 8.063063661939129 0.5212213548785533 a29.079892778822295,29.079892778822295 0 0,0 -0.03659004004231244,0.49924202545519153 l -8.052897063232479 -0.659936516830515" fill="#4dd2ff" stroke="none"><title>2019-04-06 5.5 km</title></path><path d="M 120.89721153311464 152.0752229133903 l 37.85428903190495 3.759166042063785 a59.04048537338614,59.04048537338614 0 0,0 -0.10913408383122188,1.0104460762334357 l -37.78397264657268 -4.4102084401820125" fill="#4dd2ff" stroke="none"><title>2019-04-08 26.1 km</title></path><path d="M 120.81339534386255 152.79330883721812 l 9.856389816166457 1.322799107099217 a30.944758302038935,30.944758302038935 0 0,0 -0.07539609164693935,0.5273200893741168 l -9.832159673502916 -1.4922646684537433" fill="#4dd2ff" stroke="none"><title>2019-04-10 6.8 km</title></path><path d="M 120.64145759157962 153.86396538481128 l 7.795677731320145 1.4593072592534886 a28.93108876305837,28.93108876305837 0 0,0 -0.09584465639680864,0.48870983807970403 l -7.769403141947673 -1.5932808244011376" fill="#4dd2ff" stroke="none"><title>2019-04-13 5.4 km</title></path><path d="M 120.5718875245553 154.21870165774334 l 11.473118137823024 2.3528061024903666 a32.71188013772168,32.71188013772168 0 0,0 -0.11786551694054799,0.5506284556952057 l -11.430918582158032 -2.549948377601741" fill="#4dd2ff" stroke="none"><title>2019-04-14 8.0 km</title></path><path d="M 120.13307415673323 155.9715429329011 l 7.302047037702299 2.1658136777447616 a28.616471612730084,28.616471612730084 0 0,0 -0.14413602676024262,0.4710448751071678 l -7.263684238435924 -2.2911855254039866" fill="#4dd2ff" stroke="none"><title>2019-04-19 5.2 km</title></path><line stroke="#FFFFFF" stroke-width="0.3" x1="174.80103733775053" x2="179.2010983576182" y1="190.37084112569926" y2="192.7455964860345" /><path d="M 175.68104954172406 190.8457921977663 a86.0,86.0 0 0,1 -30.038265399797805,32.042727171017184" fill="none" id="id5" stroke="none" /><text fill="#FFFFFF" style="font-size:6.75px; font-family:Arial;" text-anchor="middle"><textPath startOffset="22.206326154141568" xlink:href="#id5">May</textPath></text><path d="M 118.12598468904814 160.60418214915194 l 2.9001754062953435 1.69667959012612 a24.36002068726234,24.36002068726234 0 0,0 -0.21485436665084762,0.3601082769069004 l -2.8705401639462687 -1.7463499609191244" fill="#4dd2ff" stroke="none"><title>2019-05-03 2.3 km</title></path><path d="M 117.94076556474637 160.91462005526583 l 7.049473517708363 4.2886868321069205 a29.251539954502967,29.251539954502967 0 0,0 -0.26540250978562874,0.4279133517732663 l -6.974606368254771 -4.409396515245461" fill="#4dd2ff" stroke="none"><title>2019-05-04 5.7 km</title></path><path d="M 117.75023020441432 161.22182372390054 l 2.8865083399047116 1.8248714182830093 a24.414979661667942,24.414979661667942 0 0,0 -0.22763496564299107,0.35329452178752 l -2.85466851088467 -1.8742875399919823" fill="#4dd2ff" stroke="none"><title>2019-05-05 2.3 km</title></path><path d="M 117.14729908036423 162.12312394758627 l 3.6942779030877992 2.6118509221809854 a25.524318121544997,25.524318121544997 0 0,0 -0.25672627490970945,0.35657034193504816 l -3.648771835802487 -2.6750548695671648" fill="#4dd2ff" stroke="none"><title>2019-05-08 3.1 km</title></path><path d="M 114.29624159901734 165.38237550388516 l 5.8398968827628455 6.283573632443447 a29.578326946184887,29.578326946184887 0 0,0 -0.37592708514062595,0.3434004791308029 l -5.730870248155356 -6.383166878160833" fill="#4dd2ff" stroke="none"><title>2019-05-20 5.9 km</title></path><path d="M 113.48314897796784 166.09983520530335 l 4.714317864904815 5.629229555677914 a28.34254848958306,28.34254848958306 0 0,0 -0.37672628174348466,0.3100200824802064 l -4.6167214546166395 -5.709544757015299" fill="#4dd2ff" stroke="none"><title>2019-05-23 5.0 km</title></path><path d="M 112.92097659922987 166.55440617244102 l 9.308841282893395 11.92652416079673 a36.12932597930815,36.12932597930815 0 0,0 -0.49354598487415136,0.37843001532105086 l -9.10216656952575 -12.084993517945152" fill="#4dd2ff" stroke="none"><title>2019-05-25 10.4 km</title></path><path d="M 112.63410532772338 166.77436683061367 l 5.565931475627757 7.389915938199866 a30.2515107287969,30.2515107287969 0 0,0 -0.41864493739678244,0.309703516299213 l -5.43790156781241 -7.484629403238848" fill="#4dd2ff" stroke="none"><title>2019-05-26 6.3 km</title></path><path d="M 112.04921762599082 167.19931262002967 l 9.476618439765364 13.527129161870322 a37.51634101170182,37.51634101170182 0 0,0 -0.5320944706893124,0.3659794288365324 l -9.24236708445317 -13.68824938007195" fill="#4dd2ff" stroke="none"><title>2019-05-28 11.3 km</title></path><path d="M 111.7513745106137 167.40417183066458 l 8.778138052960333 13.000710928668926 a36.68675212807425,36.68675212807425 0 0,0 -0.5264117446306779,0.34887699998612914 l -8.553051609589692 -13.149885949746375" fill="#4dd2ff" stroke="none"><title>2019-05-29 10.7 km</title></path><path d="M 111.45004920935366 167.60387380957326 l 8.311048887480684 12.777818956523324 a36.24290624834322,36.24290624834322 0 0,0 -0.5258987181227233,0.3356534439425799 l -8.08986836731103 -12.918986829289713" fill="#4dd2ff" stroke="none"><title>2019-05-30 10.4 km</title></path><path d="M 111.1453310114006 167.79835938074945 l 8.614365811925989 13.756574694916383 a37.23116279502159,37.23116279502159 0 0,0 -0.5460939310272862,0.3354554949622991 l -8.376292680966394 -13.902818656707058" fill="#4dd2ff" stroke="none"><title>2019-05-31 11.1 km</title></path><line stroke="#FFFFFF" stroke-width="0.3" x1="143.8653032363475" x2="146.44561519142675" y1="222.8068346515853" y2="227.08958963109032" /><path d="M 144.38136562736335 223.6633856474863 a86.0,86.0 0 0,1 -40.68145358897372,12.25698825130547" fill="none" id="id6" stroke="none" /><text fill="#FFFFFF" style="font-size:6.75px; font-family:Arial;" text-anchor="middle"><textPath startOffset="21.466115282336833" xlink:href="#id6">June</textPath></text><path d="M 110.21172684928248 168.3499491758327 l 12.699017024749905 22.819481996188344 a47.11501085523902,47.11501085523902 0 0,0 -0.7120585554292311,0.388271098616143 l -12.304335657452025 -23.03469374656426" fill="#4dd2ff" stroke="none"><title>2019-06-03 17.9 km</title></path><line stroke="#FFFFFF" stroke-width="0.3" x1="102.19456741930631" x2="102.32365962044197" y1="234.97166512339345" y2="239.96999836594603" /><path d="M 102.22038585953345 235.97133177190398 a86.0,86.0 0 0,1 -42.740103519485714,-10.115201625700543" fill="none" id="id7" stroke="none" /><text fill="#FFFFFF" style="font-size:6.75px; font-family:Arial;" text-anchor="middle"><textPath startOffset="22.20632615414155" xlink:href="#id7">July</textPath></text><path d="M 100.18074693466247 170.99922214144158 l 0.06751762970489943 7.844214383411219 a28.844504950807057,28.844504950807057 0 0,0 -0.49652912873470434,0.0 l 0.06751762970489403 -7.844214383411219" fill="#4dd2ff" stroke="none"><title>2019-07-02 5.4 km</title></path><path d="M 92.7421414339146 169.70592522655815 l -2.7973316401982142 7.5950788560713125 a29.093842544502305,29.093842544502305 0 0,0 -0.4684521217527453,-0.17712850859222393 l 2.9276539827112424 -7.545802097372455" fill="#4dd2ff" stroke="none"><title>2019-07-23 5.5 km</title></path><path d="M 90.10565033884886 168.52300852407294 l -4.132601897100476 7.736559024909804 a29.771131283126014,29.771131283126014 0 0,0 -0.44993704448228977,-0.24534155124915402 l 4.265161753451406 -7.664276821900884" fill="#4dd2ff" stroke="none"><title>2019-07-31 6.0 km</title></path><line stroke="#FFFFFF" stroke-width="0.3" x1="58.666819895761336" x2="56.23545636021788" y1="224.27360380694188" y2="228.64263932499728" /><path d="M 58.180547188652646 225.14741091055294 a86.0,86.0 0 0,1 -31.652253787137756,-30.449443065178592" fill="none" id="id8" stroke="none" /><text fill="#FFFFFF" style="font-size:6.75px; font-family:Arial;" text-anchor="middle"><textPath startOffset="22.20632615414155" xlink:href="#id8">August</textPath></text><path d="M 88.54995079064634 167.60387380957326 l -2.5748069779930205 3.9586360107142617 a25.72233311396446,25.72233311396446 0 0,0 -0.3690852273655427,-0.24460956309557202 l 2.642566904098525 -3.913728426527371" fill="#4dd2ff" stroke="none"><title>2019-08-05 3.2 km</title></path><path d="M 84.19399662182784 163.82643327865904 l -11.03562512591217 9.653505117076774 a35.662032020326905,35.662032020326905 0 0,0 -0.40019166521508426,-0.4655133174860192 l 11.200159300698031 -9.462114700429225" fill="#4dd2ff" stroke="none"><title>2019-08-21 10.0 km</title></path><path d="M 83.95833913139862 163.55231037782056 l -11.151752967557336 9.421220078834342 a35.59866370676629,35.59866370676629 0 0,0 -0.39142256420652977,-0.47149369389666435 l 11.312271531657403 -9.227865127823916" fill="#4dd2ff" stroke="none"><title>2019-08-22 10.0 km</title></path><path d="M 82.05923443525364 160.91462005526583 l -7.774268291810981 4.7296300877791975 a30.099925727185024,30.099925727185024 0 0,0 -0.2654800897494034,-0.444959900806233 l 7.8545292572586165 -4.5951080930868535" fill="#4dd2ff" stroke="none"><title>2019-08-31 6.2 km</title></path><line stroke="#FFFFFF" stroke-width="0.3" x1="26.63291911575756" x2="22.317208475507996" y1="192.92168965132927" y2="195.44649492493687" /><path d="M 25.769776987707644 193.4266507060508 a86.0,86.0 0 0,1 -11.730757126820373,-40.83630448921669" fill="none" id="id9" stroke="none" /><text fill="#FFFFFF" style="font-size:6.75px; font-family:Arial;" text-anchor="middle"><textPath startOffset="21.46611528233685" xlink:href="#id9">September</textPath></text><path d="M 80.73074385275274 158.3483990999337 l -50.38459781563434 21.82911098592939 a75.9100881758466,75.9100881758466 0 0,0 -0.5091362589130229,-1.2034477196508304 l 50.75288505573967 -20.958588740612402" fill="#4dd2ff" stroke="none"><title>2019-09-08 37.6 km</title></path><path d="M 79.67330655649465 155.2749913415812 l -13.562973262995758 3.5197346153345737 a35.012236634282274,35.012236634282274 0 0,0 -0.14636563036733544,-0.5846579365749311 l 13.621550207658151 -3.2857488393622507" fill="#4dd2ff" stroke="none"><title>2019-09-17 9.6 km</title></path><path d="M 79.23777060512086 153.15116336523772 l -1.9782663166428935 0.30024908332948036 a23.000921570577926,23.000921570577926 0 0,0 -0.05604114188816178,-0.39195161584071364 l 1.9831415095476543 -0.26615199550836616" fill="#4dd2ff" stroke="none"><title>2019-09-23 1.4 km</title></path><path d="M 79.07016306316243 151.71520430193888 l -13.051397799131072 1.0695646468217384 a34.095149981764024,34.095149981764024 0 0,0 -0.0429005331130395,-0.5853436896951387 l 13.067874890908447 -0.8447478206298391" fill="#4dd2ff" stroke="none"><title>2019-09-27 9.0 km</title></path><line stroke="#FFFFFF" stroke-width="0.3" x1="15.007084014347285" x2="10.007500721073583" y1="151.09737516637583" y2="151.16192664675089" /><path d="M 14.007167355692545 151.11028546245083 a86.0,86.0 0 0,1 10.666146001902534,-42.60595125391555" fill="none" id="id10" stroke="none" /><text fill="#FFFFFF" style="font-size:6.75px; font-family:Arial;" text-anchor="middle"><textPath startOffset="22.20632615414155" xlink:href="#id10">October</textPath></text><path d="M 79.00175016825051 150.2711162175752 l -14.612787874137014 0.18867114204321092 a35.61400582504214,35.61400582504214 0 0,0 -0.0026383240663654063,-0.6130535975691347 l 14.613870495492883 0.06289193372959914" fill="#4dd2ff" stroke="none"><title>2019-10-01 10.0 km</title></path><path d="M 79.26566170972629 146.6702529128342 l -1.518443615176171 -0.24384830293957907 a22.537898893723444,22.537898893723444 0 0,0 0.06481055997320874,-0.382515593677334 l 1.5140211936827392 0.2699496849327411" fill="#4dd2ff" stroke="none"><title>2019-10-11 1.1 km</title></path><line stroke="#FFFFFF" stroke-width="0.3" x1="26.266209847984243" x2="21.928928074336255" y1="107.71137044288967" y2="105.22380399835377" /><path d="M 25.398753493254645 107.2138571539825 a86.0,86.0 0 0,1 29.58750427330803,-30.492523968695096" fill="none" id="id11" stroke="none" /><text fill="#FFFFFF" style="font-size:6.75px; font-family:Arial;" text-anchor="middle"><textPath startOffset="21.46611528233685" xlink:href="#id11">November</textPath></text><path d="M 81.78341655067845 139.5522209329492 l -6.346053705601434 -3.6396598323837774 a28.31570374809188,28.31570374809188 0 0,0 0.24613132284659672,-0.4207182153853684 l 6.282462708284513 3.748357460123038" fill="#4dd2ff" stroke="none"><title>2019-11-01 5.0 km</title></path><line stroke="#FFFFFF" stroke-width="0.3" x1="56.762969772571076" x2="54.21961505331055" y1="76.8183136494355" y2="72.51350856999053" /><path d="M 56.25429882871897 75.9573526335465 a86.0,86.0 0 0,1 42.265352541879196,-11.944610805530505" fill="none" id="id12" stroke="none" /><text fill="#FFFFFF" style="font-size:6.75px; font-family:Arial;" text-anchor="middle"><textPath startOffset="22.20632615414155" xlink:href="#id12">December</textPath></text><path d="M 93.59665428221793 130.00007090966164 l -1.377448578101465 -4.302262458063682 a25.517391597302353,25.517391597302353 0 0,0 0.41947508712652926,-0.1303329514703064 l 1.3031881182642069 4.325335544416514" fill="#4dd2ff" stroke="none"><title>2019-12-14 3.1 km</title></path><path d="M 93.94186890950719 129.89281104454417 l -2.245806182019236 -7.4539240872581125 a28.78489753983972,28.78489753983972 0 0,0 0.4756495727692098,-0.13885515346141897 l 2.117166391526605 7.49147756963823" fill="#4dd2ff" stroke="none"><title>2019-12-15 5.3 km</title></path></g></g></svg>