<?xml version="1.0" encoding="utf-8" ?>
<svg baseProfile="full" height="300mm" version="1.1" viewBox="0,0,200,300" width="200mm" xmlns="http://www.w3.org/2000/svg" xmlns:ev="http://www.w3.org/2001/xml-events" xmlns:xlink="http://www.w3.org/1999/xlink"><defs /><rect fill="#222222" height="300" width="200" x="0" y="0" /><g id="header"><text fill="#FFFFFF" style="font-size:12px; font-family:Arial; font-weight:bold;" x="10" y="20">Just Keep Running</text></g><g id="footer"><text fill="#FFFFFF" style="font-size:4px; font-family:Arial" x="10" y="280">ATHLETE</text><text fill="#FFFFFF" style="font-size:9px; font-family:Arial" x="10" y="290">Wilson Xie</text><text fill="#FFFFFF" style="font-size:4px; font-family:Arial" x="120" y="280">STATISTICS</text><text fill="#FFFFFF" style="font-size:3px; font-family:Arial" x="120" y="285">Number: 122</text><text fill="#FFFFFF" style="font-size:3px; font-family:Arial" x="120" y="290">Weekly: 2.8</text><text fill="#FFFFFF" style="font-size:3px; font-family:Arial" x="141" y="285">Total: 1397.1 km</text><text fill="#FFFFFF" style="font-size:3px; font-family:Arial" x="141" y="290">Avg: 11.5 km</text><text fill="#FFFFFF" style="font-size:3px; font-family:Arial" x="167" y="285">Min: 1.1 km</text><text fill="#FFFFFF" style="font-size:3px; font-family:Arial" x="167" y="290">Max: 52.1 km</text></g><g id="tracks"><g id="year2017"><text alignment-baseline="middle" fill="#FFFFFF" style="dominant-baseline: central; font-size:9.0px; font-family:Arial;" text-anchor="middle" x="100.0" y="150.0">2017</text><line stroke="#FFFFFF" stroke-width="0.3" x1="100.0" x2="100.0" y1="65.0" y2="60.0" /><path d="M 100.0 64.0 a86.0,86.0 0 0,1 42.46469731375804,11.215312516191453" fill="none" id="id1" stroke="none" /><text fill="#FFFFFF" style="font-size:6.75px; font-family:Arial;" text-anchor="middle"><textPath startOffset="22.20632615414155" xlink:href="#id1">January</textPath></text><path d="M 102.16513564639614 129.11191278185805 l 0.665668536714618 -6.4220190898487 a27.456426549659874,27.456426549659874 0 0,0 0.4696791723465436,0.052773927561023906 l -0.7761144125708869 6.409609208817074" fill="#4dd2ff" stroke="none"><title>2017-01-07 6.3 km</title></path><path d="M 102.88285421437855 129.19881850522333 l 0.8707385185650935 -6.282797745660497 a27.342848971920233,27.342848971920233 0 0,0 0.4656500455149102,0.06862471236065598 l -0.9787575445086595 6.266878549138872" fill="#4dd2ff" stroke="none"><title>2017-01-09 6.2 km</title></path><path d="M 103.2404852339499 129.25152402106235 l 0.9331187024298137 -5.974657986409994 a27.04708595667343,27.04708595667343 0 0,0 0.4593764580855616,0.07580105167349659 l -1.0358243666542504 5.957710671796873" fill="#4dd2ff" stroke="none"><title>2017-01-10 5.9 km</title></path><path d="M 103.95276090670814 129.375362276772 l 0.9277264525303505 -4.840672745275868 a25.928771550557112,25.928771550557112 0 0,0 0.4376203618462195,0.08778252766773521 l -1.0109132238436953 4.823986261530925" fill="#4dd2ff" stroke="none"><title>2017-01-12 4.8 km</title></path><path d="M 104.307194497241 129.44645832069477 l 1.5786373469688266 -7.533114311001148 a28.69674652667314,28.69674652667314 0 0,0 0.48259356328650455,0.10547626097254176 l -1.7080736344088592 7.504824551932735" fill="#4dd2ff" stroke="none"><title>2017-01-13 7.5 km</title></path><path d="M 109.41281617654863 131.22770947309562 l 1.0529554897746565 -2.0999439482516764 a23.349144493053892,23.349144493053892 0 0,0 0.35773058878165964,0.1832435019054165 l -1.0889465661450717 2.0815079210337593" fill="#4dd2ff" stroke="none"><title>2017-01-28 2.3 km</title></path><line stroke="#FFFFFF" stroke-width="0.3" x1="143.23703022742887" x2="145.7803849466894" y1="76.81831364943548" y2="72.5135085699905" /><path d="M 143.74570117128098 75.95735263354649 a86.0,86.0 0 0,1 28.547481713284135,27.462654790039103" fill="none" id="id2" stroke="none" /><text fill="#FFFFFF" style="font-size:6.75px; font-family:Arial;" text-anchor="middle"><textPath startOffset="19.985693538727396" xlink:href="#id2">February</textPath></text><path d="M 111.60114157652 132.49532879139002 l 5.845427916665241 -8.820019398948544 a31.58119887946342,31.58119887946342 0 0,0 0.45055137758574393,0.3042143013639066 l -5.996383988657527 8.718093185285966" fill="#4dd2ff" stroke="none"><title>2017-02-04 10.3 km</title></path><path d="M 114.68862486808459 134.99185889309783 l 25.844707359360203 -26.40689774566019 a57.94960279949868,57.94960279949868 0 0,0 0.7068863634169078,0.7038507687246491 l -26.29542952294443 25.95811112628542" fill="#4dd2ff" stroke="none"><title>2017-02-15 35.9 km</title></path><path d="M 114.94478906791727 135.2469230424477 l 27.88175427965762 -27.524086471210218 a60.17866202138433,60.17866202138433 0 0,0 0.7213866568245206,0.7434523615350299 l -28.351405200185248 27.040069914125073" fill="#4dd2ff" stroke="none"><title>2017-02-16 38.1 km</title></path><path d="M 115.19652480421416 135.5063588468976 l 32.64719830444063 -31.137170042161156 a66.11499656836881,66.11499656836881 0 0,0 0.7783708409291178,0.8303117427657768 l -33.17833646734021 30.570588882517324" fill="#4dd2ff" stroke="none"><title>2017-02-17 43.9 km</title></path><path d="M 115.4437574822437 135.77008943001954 l 33.63049789594876 -30.98721137219912 a66.72983334055309,66.72983334055309 0 0,0 0.7710675438436807,0.8514320404556532 l -34.15890908040847 30.40372654447392" fill="#4dd2ff" stroke="none"><title>2017-02-18 44.5 km</title></path><path d="M 115.68641384162765 136.03803664274997 l 33.978994868344806 -30.24359079505136 a66.48897532855096,66.48897532855096 0 0,0 0.753567481455564,0.8614578986145103 l -34.49455421337822 29.654217340233902" fill="#4dd2ff" stroke="none"><title>2017-02-19 44.2 km</title></path><path d="M 115.9244219780498 136.31012108654704 l 47.773265934149435 -41.069636740358895 a84.0,84.0 0 0,0 0.9331575460515311,1.1045642014835737 l -48.47313409368808 40.241213589246215" fill="#4dd2ff" stroke="none"><title>2017-02-20 61.3 km</title></path><path d="M 116.15771136456269 136.58626213691792 l 23.742907506322183 -19.710782685207906 a51.85839611705803,51.85839611705803 0 0,0 0.5642724624403173,0.6917313186248452 l -24.07867846083891 19.29916719697496" fill="#4dd2ff" stroke="none"><title>2017-02-21 30.0 km</title></path><path d="M 116.38621287248628 136.86637796730983 l 31.038092231368577 -24.877168089707617 a60.777338542523296,60.777338542523296 0 0,0 0.6472668455902156,0.8219631629222749 l -31.461713157552754 24.339212532832303" fill="#4dd2ff" stroke="none"><title>2017-02-22 38.7 km</title></path><line stroke="#FFFFFF" stroke-width="0.3" x1="172.23445277983987" x2="176.4835382374775" y1="105.19839476539836" y2="102.56300622218649" /><path d="M 173.08426987136738 104.67131705675598 a86.0,86.0 0 0,1 12.851231095245387,41.99856678651699" fill="none" id="id3" stroke="none" /><text fill="#FFFFFF" style="font-size:6.75px; font-family:Arial;" text-anchor="middle"><textPath startOffset="22.20632615414155" xlink:href="#id3">March</textPath></text><path d="M 118.03404312379186 139.2402003453031 l 5.391261851758308 -3.2166329542818897 a27.277932137001535,27.277932137001535 0 0,0 0.23711060057450384,0.4052988769122754 l -5.44583212680314 3.123354665015719" fill="#4dd2ff" stroke="none"><title>2017-03-02 6.1 km</title></path><path d="M 118.73160827565052 140.50648371742162 l 4.6808687725460425 -2.3723485594423863 a26.24772047209882,26.24772047209882 0 0,0 0.2007825465066914,0.4047653618404295 l -4.721011332006142 2.2914236091030067" fill="#4dd2ff" stroke="none"><title>2017-03-06 5.1 km</title></path><path d="M 118.89224826269711 140.83032412892265 l 4.76972093181783 -2.315065646613438 a26.301864456542702,26.301864456542702 0 0,0 0.19418517003198554,0.40900349147992937 l -4.8088642956915715 2.2326197394929683" fill="#4dd2ff" stroke="none"><title>2017-03-07 5.2 km</title></path><path d="M 119.04729006885535 141.15688171328213 l 4.995798632435285 -2.319408067160472 a26.50796312241207,26.50796312241207 0 0,0 0.18858229869092408,0.4155160976344899 l -5.034983248089556 2.2330699606839195" fill="#4dd2ff" stroke="none"><title>2017-03-08 5.4 km</title></path><line stroke="#FFFFFF" stroke-width="0.3" x1="184.98032266829074" x2="189.97916517819016" y1="148.1711317179211" y2="148.06355123074" /><path d="M 185.9800911702706 148.1496156204849 a86.0,86.0 0 0,1 -9.607161424134198,41.387399972396054" fill="none" id="id4" stroke="none" /><text fill="#FFFFFF" style="font-size:6.75px; font-family:Arial;" text-anchor="middle"><textPath startOffset="21.466115282336823" xlink:href="#id4">April</textPath></text><path d="M 120.99824983174949 150.27111621757518 l 13.818749109183969 0.17841901206631536 a34.819900878314556,34.819900878314556 0 0,0 -0.012896524111704022,0.5992507995524574 l -13.813630522387257 -0.4162596274088876" fill="#4dd2ff" stroke="none"><title>2017-04-03 13.4 km</title></path><path d="M 120.89721153311464 152.0752229133903 l 9.053712056520697 0.8990898465642998 a30.098245135990965,30.098245135990965 0 0,0 -0.05563545738268233,0.5151152384137304 l -9.036894297636962 -1.0548014068628218" fill="#4dd2ff" stroke="none"><title>2017-04-08 8.8 km</title></path><path d="M 120.8583938346157 152.43462659150552 l 3.4850630709595745 0.40678238664527333 a24.508722918477748,24.508722918477748 0 0,0 -0.05251693055327059,0.41861160837845673 l -3.477544631159456 -0.46671174931112497" fill="#4dd2ff" stroke="none"><title>2017-04-09 3.4 km</title></path><path d="M 120.81339534386255 152.79330883721812 l 5.122962268790252 0.6875387480864098 a26.168892718713437,26.168892718713437 0 0,0 -0.0637598204665583,0.4459360358405 l -5.1103683973070915 -0.7756202559073191" fill="#4dd2ff" stroke="none"><title>2017-04-10 5.0 km</title></path><path d="M 120.64145759157962 153.86396538481128 l 6.588492247043572 1.2333288900614725 a27.70293444995649,27.70293444995649 0 0,0 -0.09177595268829793,0.4679636055265998 l -6.5662863613796105 -1.3465562226560173" fill="#4dd2ff" stroke="none"><title>2017-04-13 6.5 km</title></path><path d="M 120.23288151984713 155.62410040840567 l 1.297977044897829 0.36079651932673434 a22.347189124599804,22.347189124599804 0 0,0 -0.10621019140637823,0.3697316097536908 l -1.2915742166053514 -0.3830856045850071" fill="#4dd2ff" stroke="none"><title>2017-04-18 1.3 km</title></path><path d="M 120.13307415673323 155.9715429329011 l 9.87683939929168 2.929506445716543 a31.302133979661455,31.302133979661455 0 0,0 -0.1576632256416307,0.5152525437300333 l -9.824949401143915 -3.0990859619986333" fill="#4dd2ff" stroke="none"><title>2017-04-19 10.0 km</title></path><path d="M 119.9155931802556 156.66101706037122 l 14.407589511484595 4.818796942988805 a36.192084765074185,36.192084765074185 0 0,0 -0.20269147693583484,0.5891163097527725 l -14.322507203605529 -5.066085955830878" fill="#4dd2ff" stroke="none"><title>2017-04-21 14.8 km</title></path><path d="M 119.67450827220406 157.34259656027578 l 3.5660897919083494 1.3308774113909545 a24.80634090539768,24.80634090539768 0 0,0 -0.1527429419724528,0.39876362298882045 l -3.5426525703423897 -1.3920646012129188" fill="#4dd2ff" stroke="none"><title>2017-04-23 3.7 km</title></path><path d="M 119.54520255179757 157.68017299344265 l 5.366880769381501 2.1088843993709157 a26.76635089139284,26.76635089139284 0 0,0 -0.17219352529983264,0.4273702083059567 l -5.3297846298242755 -2.200953975519686" fill="#4dd2ff" stroke="none"><title>2017-04-24 5.6 km</title></path><path d="M 119.26925614724726 158.34839909993366 l 10.142411622745016 4.394196611194944 a32.05339212111062,32.05339212111062 0 0,0 -0.22370049428348268,0.5043855594034848 l -10.06527004373026 -4.568130507091117" fill="#4dd2ff" stroke="none"><title>2017-04-26 10.7 km</title></path><path d="M 118.81262510543309 159.33194174019687 l 12.693740228685446 6.296688719166338 a35.16966230435376,35.16966230435376 0 0,0 -0.27368919033072386,0.5400147374227325 l -12.583472368568453 -6.514257668291765" fill="#4dd2ff" stroke="none"><title>2017-04-29 13.8 km</title></path><path d="M 118.64920377521936 159.65438752849417 l 1.527813660616464 0.7909241235552503 a22.720399822944632,22.720399822944632 0 0,0 -0.18278831248638472,0.34576660165013123 l -1.5139728399051864 -0.8171057402915158" fill="#4dd2ff" stroke="none"><title>2017-04-30 1.7 km</title></path><line stroke="#FFFFFF" stroke-width="0.3" x1="174.80103733775053" x2="179.2010983576182" y1="190.37084112569926" y2="192.7455964860345" /><path d="M 175.68104954172406 190.8457921977663 a86.0,86.0 0 0,1 -30.038265399797805,32.042727171017184" fill="none" id="id5" stroke="none" /><text fill="#FFFFFF" style="font-size:6.75px; font-family:Arial;" text-anchor="middle"><textPath startOffset="22.206326154141568" xlink:href="#id5">May</textPath></text><path d="M 118.30583269289576 160.29060199501023 l 1.8649588378504178 1.048384384330327 a23.139434804845443,23.139434804845443 0 0,0 -0.1981705314196955,0.34552702537404295 l -1.8466363102783427 -1.0803312555626852" fill="#4dd2ff" stroke="none"><title>2017-05-02 2.1 km</title></path><path d="M 116.71984013943494 162.70617746262582 l 8.610399483711781 6.54343958744579 a31.814600358018637,31.814600358018637 0 0,0 -0.33510346248215817,0.4331663976595199 l -8.496489204011555 -6.690683979218563" fill="#4dd2ff" stroke="none"><title>2017-05-10 10.5 km</title></path><path d="M 116.498646956653 162.99209946851258 l 8.654230717787224 6.814899828110392 a32.01537874899774,32.01537874899774 0 0,0 -0.3446716035203842,0.430030821073459 l -8.535641202211986 -6.962858482762101" fill="#4dd2ff" stroke="none"><title>2017-05-11 10.7 km</title></path><path d="M 116.27256486870786 163.27417163493433 l 1.7853968921162229 1.4564185162969312 a23.30408267147488,23.30408267147488 0 0,0 -0.2562383765550052,0.30865563135051377 l -1.7600625156676741 -1.4869354047612153" fill="#4dd2ff" stroke="none"><title>2017-05-12 2.2 km</title></path><path d="M 115.80600337817218 163.826433278659 l 4.414770264438506 3.8618571084302555 a26.86550396928548,26.86550396928548 0 0,0 -0.3074707680359622,0.34544666736363616 l -4.347640646754205 -3.9372779455347584" fill="#4dd2ff" stroke="none"><title>2017-05-14 5.7 km</title></path><path d="M 115.56566222782051 164.09645910891817 l 7.730994677930932 7.0012858273346 a31.43006624841054,31.43006624841054 0 0,0 -0.3666146487847897,0.3978877939833743 l -7.60933362115042 -7.133324876119309" fill="#4dd2ff" stroke="none"><title>2017-05-15 10.1 km</title></path><path d="M 115.07121518719521 164.6239007375343 l 11.610230196933376 11.265637961571368 a37.17751661742251,37.17751661742251 0 0,0 -0.4495989943880029,0.4554414076201784 l -11.414590577489838 -11.46381986317221" fill="#4dd2ff" stroke="none"><title>2017-05-17 15.7 km</title></path><path d="M 114.81725581225074 164.88116024355367 l 1.080212326725778 1.0848711080345772 a22.530948722805075,22.530948722805075 0 0,0 -0.27718436550263,0.27128324121990816 l -1.061378008847354 -1.1033044521770572" fill="#4dd2ff" stroke="none"><title>2017-05-18 1.5 km</title></path><path d="M 114.29624159901734 165.38237550388516 l 2.072208534020845 2.2296412362571574 a24.04390345623628,24.04390345623628 0 0,0 -0.3055870792878424,0.27914655152972684 l -2.033521905266139 -2.264980554373467" fill="#4dd2ff" stroke="none"><title>2017-05-20 3.0 km</title></path><path d="M 114.0293411484842 165.62618273729856 l 12.027101701642428 13.3960452597765 a39.00292209458316,39.00292209458316 0 0,0 -0.5034304901297798,0.4442188746801229 l -11.79472885860606 -13.601087276228911" fill="#4dd2ff" stroke="none"><title>2017-05-21 17.5 km</title></path><path d="M 113.48314897796784 166.09983520530335 l 6.720889023569437 8.025217691313276 a31.46778239457163,31.46778239457163 0 0,0 -0.4182665740371624,0.3442049149892024 l -6.581752320987584 -8.139717725159656" fill="#4dd2ff" stroke="none"><title>2017-05-23 10.2 km</title></path><path d="M 111.1453310114006 167.79835938074945 l 8.652843513933139 13.818021050145141 a37.30366236827999,37.30366236827999 0 0,0 -0.5471573299110776,0.33610872141041864 l -8.413706984089751 -13.964918238383937" fill="#4dd2ff" stroke="none"><title>2017-05-31 15.9 km</title></path><line stroke="#FFFFFF" stroke-width="0.3" x1="143.8653032363475" x2="146.44561519142675" y1="222.8068346515853" y2="227.08958963109032" /><path d="M 144.38136562736335 223.6633856474863 a86.0,86.0 0 0,1 -40.68145358897372,12.25698825130547" fill="none" id="id6" stroke="none" /><text fill="#FFFFFF" style="font-size:6.75px; font-family:Arial;" text-anchor="middle"><textPath startOffset="21.466115282336833" xlink:href="#id6">June</textPath></text><path d="M 106.57524785965236 169.94407469862006 l 1.6991864133604941 5.153980728679893 a26.426854689316144,26.426854689316144 0 0,0 -0.433247713614997,0.13871223638766206 l -1.6102173546545568 -5.182465811727262" fill="#4dd2ff" stroke="none"><title>2017-06-14 5.3 km</title></path><path d="M 105.18746579009965 170.34920634021253 l 2.592589957183785 10.1701196940871 a31.495373136680207,31.495373136680207 0 0,0 -0.5264927278770711,0.1293991030077558 l -2.417143944563503 -10.213240055408887" fill="#4dd2ff" stroke="none"><title>2017-06-18 10.2 km</title></path><path d="M 104.83641907484287 170.4354850818985 l 1.1907507872104326 5.031319571720173 a26.17030599384763,26.17030599384763 0 0,0 -0.4392621689073571,0.09997463952847434 l -1.1039684689102134 -5.051070944826332" fill="#4dd2ff" stroke="none"><title>2017-06-19 5.0 km</title></path><line stroke="#FFFFFF" stroke-width="0.3" x1="102.19456741930631" x2="102.32365962044197" y1="234.97166512339345" y2="239.96999836594603" /><path d="M 102.22038585953345 235.97133177190398 a86.0,86.0 0 0,1 -42.740103519485714,-10.115201625700543" fill="none" id="id7" stroke="none" /><text fill="#FFFFFF" style="font-size:6.75px; font-family:Arial;" text-anchor="middle"><textPath startOffset="22.20632615414155" xlink:href="#id7">July</textPath></text><path d="M 99.45781275523022 170.99299961872075 l -0.2798155955726503 10.834206720711425 a31.837819523992557,31.837819523992557 0 0,0 -0.5477312495749627,-0.018864971714794582 l 0.4662671968222559 -10.827784950570535" fill="#4dd2ff" stroke="none"><title>2017-07-04 10.5 km</title></path><path d="M 99.09653310690486 170.98055641714683 l -0.4635901273765985 10.765617308384092 a31.775594268381685,31.775594268381685 0 0,0 -0.5462556506732258,-0.028235177585422485 l 0.6488338464633132 -10.75604232403647" fill="#4dd2ff" stroke="none"><title>2017-07-05 10.5 km</title></path><path d="M 98.01472825383883 170.90594882070397 l -0.5397641998572874 5.683999059214213 a26.70957009735371,26.70957009735371 0 0,0 -0.4573281316993506,-0.04740393075254766 l 0.6375249281622314 -5.673865760005905" fill="#4dd2ff" stroke="none"><title>2017-07-08 5.6 km</title></path><path d="M 97.2962882734958 170.82522371788508 l -0.7974155402577541 6.142059029147084 a27.193606434168366,27.193606434168366 0 0,0 -0.46367871269492966,-0.06426164452946191 l 0.9030228441395148 -6.127422819125017" fill="#4dd2ff" stroke="none"><title>2017-07-10 6.0 km</title></path><path d="M 94.11515582081647 170.15858648285464 l -1.5120091374998847 5.179400852952858 a26.39558753310999,26.39558753310999 0 0,0 -0.4350558766458297,-0.13107876681561365 l 1.6009399885859603 -5.152606717031518" fill="#4dd2ff" stroke="none"><title>2017-07-19 5.2 km</title></path><path d="M 93.08242187328487 169.82793768551818 l -3.9899754934188505 11.436514919105248 a33.112546302615314,33.112546302615314 0 0,0 -0.5365500859296409,-0.19238777127668324 l 4.186245139978218 -11.366139606788607" fill="#4dd2ff" stroke="none"><title>2017-07-22 11.8 km</title></path><path d="M 92.7421414339146 169.70592522655815 l -13.5168939835088 36.69993011147966 a60.10998968484788,60.10998968484788 0 0,0 -0.9678560734399658,-0.3659603508228585 l 14.146620277709049 -36.461821510550166" fill="#4dd2ff" stroke="none"><title>2017-07-23 38.0 km</title></path><path d="M 92.40401165467489 169.57807347666477 l -11.202559052141549 28.873731011512774 a51.97078739460644,51.97078739460644 0 0,0 -0.8312329593979894,-0.3307647492376461 l 11.697913087581396 -28.676619417869063" fill="#4dd2ff" stroke="none"><title>2017-07-24 30.1 km</title></path><path d="M 92.06813273071674 169.44442032107085 l -18.492449438997212 45.33295218523048 a69.95964910088982,69.95964910088982 0 0,0 -1.1111209361280694,-0.46444864141611075 l 19.27004183462274 -45.007918500794396" fill="#4dd2ff" stroke="none"><title>2017-07-25 47.6 km</title></path><path d="M 91.7346041902142 169.30500536409082 l -12.526550277172072 29.25753658500564 a52.82637128026793,52.82637128026793 0 0,0 -0.8328437792262224,-0.36509423779022887 l 13.028314731056039 -29.037577793920956" fill="#4dd2ff" stroke="none"><title>2017-07-26 30.9 km</title></path><path d="M 91.40352486487194 169.15986991738527 l -17.487305465245907 38.975800273131505 a63.71906903674116,63.71906903674116 0 0,0 -0.9968454027845114,-0.45760283223887166 l 18.155618863797837 -38.66901037055856" fill="#4dd2ff" stroke="none"><title>2017-07-27 41.5 km</title></path><path d="M 91.07499286063937 169.00905698771936 l -22.774128614201338 48.50581091008697 a74.58614210951649,74.58614210951649 0 0,0 -1.1574608979154821,-0.5556515697823696 l 23.605702180117063 -48.10660506380504" fill="#4dd2ff" stroke="none"><title>2017-07-28 52.1 km</title></path><path d="M 90.7491055286396 168.85261126421892 l -15.798593815182729 32.19631881446958 a56.86360985372356,56.86360985372356 0 0,0 -0.8750120628229926,-0.4387492132519006 l 16.350459785688482 -31.919601760308375" fill="#4dd2ff" stroke="none"><title>2017-07-29 34.9 km</title></path><path d="M 90.42595943632237 168.69057910512822 l -23.909905438715345 46.67725982840235 a73.44473437034927,73.44473437034927 0 0,0 -1.1202388847784686,-0.5860560387566837 l 24.70983522602031 -46.258774370700955" fill="#4dd2ff" stroke="none"><title>2017-07-30 51.0 km</title></path><line stroke="#FFFFFF" stroke-width="0.3" x1="58.666819895761336" x2="56.23545636021788" y1="224.27360380694188" y2="228.64263932499728" /><path d="M 58.180547188652646 225.14741091055294 a86.0,86.0 0 0,1 -31.652253787137756,-30.449443065178592" fill="none" id="id8" stroke="none" /><text fill="#FFFFFF" style="font-size:6.75px; font-family:Arial;" text-anchor="middle"><textPath startOffset="22.20632615414155" xlink:href="#id8">August</textPath></text><path d="M 85.44109423537348 165.1340101406311 l -1.183787252457431 1.2305490929523963 a22.707513785960945,22.707513785960945 0 0,0 -0.27935653657287235,-0.27340916779355023 l 1.2047937414060976 -1.2099898222362766" fill="#4dd2ff" stroke="none"><title>2017-08-16 1.7 km</title></path><path d="M 84.43433777217949 164.09645910891817 l -4.150088128368737 3.758371905012614 a26.59898123319013,26.59898123319013 0 0,0 -0.3044204641793894,-0.3420196186447304 l 4.214167442196465 -3.68637811662702" fill="#4dd2ff" stroke="none"><title>2017-08-20 5.4 km</title></path><path d="M 83.72743513129214 163.27417163493433 l -8.202687182826432 6.691254784419248 a31.585696368653245,31.585696368653245 0 0,0 -0.3400457230583963,-0.4242593239354914 l 8.31665081793969 -6.549067626905496" fill="#4dd2ff" stroke="none"><title>2017-08-23 10.3 km</title></path><path d="M 83.50135304334701 162.99209946851258 l -9.96420733716041 7.846459966650086 a33.6827584486248,33.6827584486248 0 0,0 -0.35478078791077694,-0.4586019933061709 l 10.097794942289255 -7.673779979230662" fill="#4dd2ff" stroke="none"><title>2017-08-24 12.3 km</title></path><path d="M 83.06392112726016 162.41649034213515 l -4.202571068988195 3.081066372111603 a26.211005045022844,26.211005045022844 0 0,0 -0.2636330441739869,-0.36616324036001807 l 4.25498390553779 -3.0082695263004466" fill="#4dd2ff" stroke="none"><title>2017-08-26 5.1 km</title></path><path d="M 82.44556493220864 161.52570212397913 l -12.361306588604691 8.11605369544732 a35.787570056127066,35.787570056127066 0 0,0 -0.33366819850204515,-0.5178604538740466 l 12.499179650483782 -7.902071641651825" fill="#4dd2ff" stroke="none"><title>2017-08-29 14.4 km</title></path><line stroke="#FFFFFF" stroke-width="0.3" x1="26.63291911575756" x2="22.317208475507996" y1="192.92168965132927" y2="195.44649492493687" /><path d="M 25.769776987707644 193.4266507060508 a86.0,86.0 0 0,1 -11.730757126820373,-40.83630448921669" fill="none" id="id9" stroke="none" /><text fill="#FFFFFF" style="font-size:6.75px; font-family:Arial;" text-anchor="middle"><textPath startOffset="21.46611528233685" xlink:href="#id9">September</textPath></text><path d="M 81.69416730710424 160.29060199501023 l -10.797307663584192 6.069693613377091 a33.38640518239108,33.38640518239108 0 0,0 -0.2773036508294832,-0.5033866745457495 l 10.900187723865193 -5.882936420433519" fill="#4dd2ff" stroke="none"><title>2017-09-02 12.0 km</title></path><path d="M 81.35079622478065 159.6543875284942 l -8.320193616249307 4.307228043167733 a30.36898261433579,30.36898261433579 0 0,0 -0.2363304540986902,-0.4663024066127123 l 8.393102740134266 -4.163371424852335" fill="#4dd2ff" stroke="none"><title>2017-09-04 9.1 km</title></path><path d="M 81.18737489456691 159.33194174019687 l -8.522085742290878 4.227353025232687 a30.512962682513866,30.512962682513866 0 0,0 -0.22935103764149634,-0.4725310690748876 l 8.593590036547093 -4.080033000192515" fill="#4dd2ff" stroke="none"><title>2017-09-05 9.2 km</title></path><path d="M 80.58989483394504 158.01547362559984 l -3.2392307294582223 1.3376521279550613 a24.504558307988205,24.504558307988205 0 0,0 -0.15764294124698167,-0.39125685197148957 l 3.2617762849625915 -1.2816959081407662" fill="#4dd2ff" stroke="none"><title>2017-09-09 3.4 km</title></path><path d="M 80.0844068197444 156.66101706037122 l -3.31564589293272 1.108958877552809 a24.496183273145846,24.496183273145846 0 0,0 -0.13030540438745375,-0.4010387978882321 l 3.3342435483364232 -1.0517211796867736" fill="#4dd2ff" stroke="none"><title>2017-09-13 3.4 km</title></path><path d="M 79.4281124754447 154.21870165774334 l -1.6155452427576917 0.3313018013367043 a22.64916564206448,22.64916564206448 0 0,0 -0.07503352246493612,-0.3825943145184041 l 1.6210086981982943 -0.3034437597503453" fill="#4dd2ff" stroke="none"><title>2017-09-20 1.6 km</title></path><path d="M 79.35854240842038 153.8639653848113 l -8.183093436877574 1.5318293119798874 a29.325233884865312,29.325233884865312 0 0,0 -0.08860906758238467,-0.49696670809459814 l 8.208248946799147 -1.3907438531520755" fill="#4dd2ff" stroke="none"><title>2017-09-21 8.1 km</title></path><path d="M 79.29508885075956 153.50808413554452 l -5.147337482142159 0.8721260782642366 a26.220697946774372,26.220697946774372 0 0,0 -0.0715678288443625,-0.44565293853067994 l 5.161587065347812 -0.783393910040343" fill="#4dd2ff" stroke="none"><title>2017-09-22 5.1 km</title></path><path d="M 79.18660465613746 152.79330883721812 l -5.152626667314325 0.6915199258413667 a26.19882307648129,26.19882307648129 0 0,0 -0.0561384522833574,-0.44747869981424626 l 5.163766628844531 -0.6027234717397117" fill="#4dd2ff" stroke="none"><title>2017-09-24 5.1 km</title></path><path d="M 79.1416061653843 152.43462659150552 l -3.8924773552404193 0.4543364628667753 a24.918903109614952,24.918903109614952 0 0,0 -0.046061641325406376,-0.42647359200915974 l 3.8997212980668774 -0.38726654897283347" fill="#4dd2ff" stroke="none"><title>2017-09-25 3.8 km</title></path><path d="M 79.07016306316243 151.71520430193888 l -20.45815044391766 1.6765494999801156 a41.52673227310796,41.52673227310796 0 0,0 -0.052251389241920014,-0.7129286922839219 l 20.483978391823914 -1.3241476711994333" fill="#4dd2ff" stroke="none"><title>2017-09-27 20.0 km</title></path><path d="M 79.0235259727143 150.99374915477108 l -9.276110027045656 0.43945071449803375 a30.286513563460176,30.286513563460176 0 0,0 -0.020187933012458033,-0.5209608479876672 l 9.282300092909315 -0.2797126194963698" fill="#4dd2ff" stroke="none"><title>2017-09-29 9.0 km</title></path><path d="M 79.0095281055655 150.63252640178507 l -38.19203916913028 1.1508780380916472 a59.20937550071898,59.20937550071898 0 0,0 -0.021929848147830833,-1.0189938717460132 l 38.20619107996312 -0.4932943505555052" fill="#4dd2ff" stroke="none"><title>2017-09-30 37.1 km</title></path><line stroke="#FFFFFF" stroke-width="0.3" x1="15.007084014347285" x2="10.007500721073583" y1="151.09737516637583" y2="151.16192664675089" /><path d="M 14.007167355692545 151.11028546245083 a86.0,86.0 0 0,1 10.666146001902534,-42.60595125391555" fill="none" id="id10" stroke="none" /><text fill="#FFFFFF" style="font-size:6.75px; font-family:Arial;" text-anchor="middle"><textPath startOffset="22.20632615414155" xlink:href="#id10">October</textPath></text><path d="M 79.00486145842228 149.54816195383935 l -21.23076778984938 -0.45690904195077053 a42.23568380860674,42.23568380860674 0 0,0 0.021898810961089275,-0.7267149239984964 l 21.219757284432646 0.8222941133742613" fill="#4dd2ff" stroke="none"><title>2017-10-03 20.6 km</title></path><path d="M 79.21141760316559 147.0276538004421 l -5.362861167589109 -0.766780519515725 a26.417400877537496,26.417400877537496 0 0,0 0.06823753848846738,-0.4496001200917061 l 5.348867735661339 0.8589797519995231" fill="#4dd2ff" stroke="none"><title>2017-10-10 5.3 km</title></path><path d="M 79.26566170972629 146.6702529128342 l -5.377775466750115 -0.8636220720023068 a26.446678993113967,26.446678993113967 0 0,0 0.07605074825554166,-0.4488558211902413 l 5.36211285697435 0.9560636815083761" fill="#4dd2ff" stroke="none"><title>2017-10-11 5.3 km</title></path><path d="M 79.32604984820605 146.31383870115002 l -1.0776001609726094 -0.19213589951831553 a22.094595044211285,22.094595044211285 0 0,0 0.06998123785097489,-0.3738425708950032 l 1.0741331992117729 0.21065654787589144" fill="#4dd2ff" stroke="none"><title>2017-10-12 1.1 km</title></path><path d="M 79.54389044137918 145.25157060432596 l -7.3891212699246 -1.7152196289212631 a28.58558445454857,28.58558445454857 0 0,0 0.11538666414857461,-0.47835221614171114 l 7.3585018055152105 1.8421570767223712" fill="#4dd2ff" stroke="none"><title>2017-10-15 7.4 km</title></path><path d="M 79.71946130924805 144.5502522615342 l -10.042314023042895 -2.6985515015435766 a31.3985696681749,31.3985696681749 0 0,0 0.14475223472252963,-0.520750804963722 l 9.994375017754004 2.871013609926241" fill="#4dd2ff" stroke="none"><title>2017-10-17 10.1 km</title></path><path d="M 79.81627453868168 144.20196356495316 l -20.710336003904168 -5.94931213084662 a42.547907838693945,42.547907838693945 0 0,0 0.20827019124058646,-0.7021835482051377 l 20.604859915551874 6.3049250657982965" fill="#4dd2ff" stroke="none"><title>2017-10-18 20.9 km</title></path><path d="M 80.02781315780177 143.5106431181261 l -5.226386920007889 -1.698156050444597 a26.49534841564128,26.49534841564128 0 0,0 0.1446680167522482,-0.4325389563964889 l 5.196381609483868 1.7878681097634082" fill="#4dd2ff" stroke="none"><title>2017-10-20 5.3 km</title></path><path d="M 80.14247586403 143.16781622104844 l -8.7918157235623 -3.0249138997770397 a30.297640981353368,30.297640981353368 0 0,0 0.17391844185869557,-0.4916908552437909 l 8.738444200893793 3.1758023814474416" fill="#4dd2ff" stroke="none"><title>2017-10-21 9.0 km</title></path><path d="M 80.52162464483688 142.15188598940014 l -9.860249883618076 -3.9728346871150295 a31.630519423741,31.630519423741 0 0,0 0.20782503395243224,-0.5032648042496354 l 9.790403162779445 4.141974061817976" fill="#4dd2ff" stroke="none"><title>2017-10-24 10.3 km</title></path><path d="M 81.10775173730289 140.83032412892265 l -7.4294471679002765 -3.6060092734147267 a29.258328408375053,29.258328408375053 0 0,0 0.2238122617393411,-0.4511918624571763 l 7.366274893207522 3.7333607243708644" fill="#4dd2ff" stroke="none"><title>2017-10-28 8.0 km</title></path><path d="M 81.26839172434947 140.50648371742162 l -1.4463935781115402 -0.7330583035236913 a22.621551374199207,22.621551374199207 0 0,0 0.1790232593178937,-0.34581595504319707 l 1.4335608856335325 0.7578469808272238" fill="#4dd2ff" stroke="none"><title>2017-10-29 1.6 km</title></path><path d="M 81.6062741919709 139.86733742301442 l -9.42782514548191 -5.193562850234964 a31.76368812503975,31.76368812503975 0 0,0 0.2679378397962453,-0.47663151968993756 l 9.337029664393233 5.355077879859686" fill="#4dd2ff" stroke="none"><title>2017-10-31 10.5 km</title></path><line stroke="#FFFFFF" stroke-width="0.3" x1="26.266209847984243" x2="21.928928074336255" y1="107.71137044288967" y2="105.22380399835377" /><path d="M 25.398753493254645 107.2138571539825 a86.0,86.0 0 0,1 29.58750427330803,-30.492523968695096" fill="none" id="id11" stroke="none" /><text fill="#FFFFFF" style="font-size:6.75px; font-family:Arial;" text-anchor="middle"><textPath startOffset="21.46611528233685" xlink:href="#id11">November</textPath></text><path d="M 82.54541684631803 138.32363383020206 l -8.60260089143039 -5.754770373864959 a31.349981843131552,31.349981843131552 0 0,0 0.3039090145233711,-0.4459489784103253 l 8.502267411238279 5.901997375545701" fill="#4dd2ff" stroke="none"><title>2017-11-05 10.1 km</title></path><path d="M 82.95767976084542 137.72973835380427 l -8.706775138478978 -6.268771361206911 a31.728719760116935,31.728719760116935 0 0,0 0.3229339842768786,-0.44048159163315526 l 8.597578541688467 6.417715396511567" fill="#4dd2ff" stroke="none"><title>2017-11-07 10.4 km</title></path><path d="M 84.31358615837235 136.03803664274997 l -8.68577076388603 -7.730920168192309 a32.62797232580728,32.62797232580728 0 0,0 0.37701833231718235,-0.4163130591307677 l 8.551408790952802 7.8792860145926324" fill="#4dd2ff" stroke="none"><title>2017-11-13 11.3 km</title></path><path d="M 86.37877921826538 134.01681056812373 l -5.9691769881411485 -7.004253736331177 a30.202751997020407,30.202751997020407 0 0,0 0.39859357519368493,-0.3338106562871504 l 5.8477258759883535 7.105965550012139" fill="#4dd2ff" stroke="none"><title>2017-11-21 8.9 km</title></path><line stroke="#FFFFFF" stroke-width="0.3" x1="56.762969772571076" x2="54.21961505331055" y1="76.8183136494355" y2="72.51350856999053" /><path d="M 56.25429882871897 75.9573526335465 a86.0,86.0 0 0,1 42.265352541879196,-11.944610805530505" fill="none" id="id12" stroke="none" /><text fill="#FFFFFF" style="font-size:6.75px; font-family:Arial;" text-anchor="middle"><textPath startOffset="22.20632615414155" xlink:href="#id12">December</textPath></text><path d="M 89.94658935756843 131.56283822128137 l -3.0593596083947463 -5.610624100161956 a27.390522983824987,27.390522983824987 0 0,0 0.41588590150347143,-0.22215184554229397 l 2.9623286603629695 5.662454672205999" fill="#4dd2ff" stroke="none"><title>2017-12-03 6.2 km</title></path><path d="M 90.58718382345135 131.22770947309562 l -4.656069526050522 -9.285753404411526 a31.387694629654675,31.387694629654675 0 0,0 0.4850575604583566,-0.2380156383350584 l 4.495540698581739 9.364524202881414" fill="#4dd2ff" stroke="none"><title>2017-12-05 10.1 km</title></path><path d="M 92.91201910852362 130.2323363322302 l -3.479272787085989 -9.703340812649113 a31.308256984251948,31.308256984251948 0 0,0 0.5088605490541203,-0.17753145382618693 l 3.3117302339685835 9.76179311964751" fill="#4dd2ff" stroke="none"><title>2017-12-12 10.0 km</title></path><path d="M 95.33964822691252 129.5236448225989 l -2.42880415195522 -10.671524145232791 a31.944428591335473,31.944428591335473 0 0,0 0.5372098752280197,-0.11741327134721512 l 2.244751552573679 10.711750914675875" fill="#4dd2ff" stroke="none"><title>2017-12-19 10.6 km</title></path><path d="M 97.11714578562143 129.19881850522333 l -3.0057574990260076 -21.687987881830377 a42.895282517139904,42.895282517139904 0 0,0 0.7322536666137639,-0.0950675417474182 l 2.6319891039043863 21.73651374674193" fill="#4dd2ff" stroke="none"><title>2017-12-24 21.3 km</title></path><path d="M 99.63851952072746 129.00311137660856 l -0.08599749221479705 -4.995234513240923 a25.995974720806792,25.995974720806792 0 0,0 0.44747797148733154,-0.0038515841744288536 l 1.223660890091426e-15 4.995974720806792" fill="#4dd2ff" stroke="none"><title>2017-12-31 4.9 km</title></path></g></g></svg>